<svg width="24" height="24" viewBox="0 0 24 24" fill="none" xmlns="http://www.w3.org/2000/svg"><path d="M14.4751 8.2875h-1.6125V6.675c0-.45-.375-.8625-.8625-.8625-.45 0-.8625.375-.8625.8625v1.6125H9.5251c-.45 0-.8625.375-.8625.8625 0 .4875.375.8625.8625.8625h1.6125v1.6125c0 .45.375.8625.8625.8625.45 0 .8625-.375.8625-.8625v-1.6125h1.6125c.45 0 .8625-.375.8625-.8625 0-.4875-.4125-.8625-.8625-.8625Z" fill="#111928"/><path d="M18.7499.675049h-13.5c-1.275 0-2.2875 1.012501-2.2875 2.287501V15c0 .5625.225 1.0875.6375 1.4625l6.75 6.375c.375.375.8625.5625 1.3875.5625h7.0125c1.275 0 2.2875-1.0125 2.2875-2.2875V2.96255c0-1.275-1.0125-2.287501-2.2875-2.287501ZM5.8874 16.275h4.3875c.1875 0 .3375.15.3375.3v4.1251l-4.725-4.4251Zm13.4625 4.7625c0 .3375-.2625.6001-.6.6001h-6.45V16.575c0-1.0875-.9-1.9875-2.025-1.9875h-5.625V2.96255c0-.3375.2625-.6.6-.6h13.5c.3375 0 .6.2625.6.6V21.0375Z" fill="#111928"/></svg>