<svg width="24" height="24" viewBox="0 0 24 24" fill="none" xmlns="http://www.w3.org/2000/svg"><path d="m21.7124 20.325-.75-1.2c-.15-.225-.225-.45-.225-.7125v-7.875c0-2.21249-.9375-4.31249-2.7-5.84999-1.425-1.275-3.2625-2.0625-5.2125-2.25v-.9375c0-.45-.375-.862498-.825-.862498-.45 0-.8625.374998-.8625.862498v.9375c-.075 0-.15 0-.225.0375-4.3875.4875-7.6875 4.0125-7.6875 8.21249v7.725c-.0375.375-.1125.5625-.1875.675l-.75 1.2375c-.225.375-.225.8625 0 1.2.225.3375.6.5625 1.0125.5625h7.8V22.5c0 .45.375.8625.8625.8625.4875 0 .825-.375.825-.8625v-.4125h7.875c.4125 0 .7875-.225 1.0125-.5625.2625-.375.2625-.825.0375-1.2ZM11.0999 4.16251c2.175-.225 4.275.4125 5.8125 1.8 1.35 1.2375 2.1375 2.85 2.1375 4.61249V16.5H4.9124v-5.775c0-3.37499 2.6625-6.18749 6.1875-6.56249ZM4.1999 20.4l.3-.4875c.225-.4125.3375-.825.4125-1.35V18.15h14.1375v.3c0 .5625.15 1.0875.4875 1.6125l.225.375H4.1999V20.4Z" fill="#111928"/></svg>