<svg width="24" height="24" viewBox="0 0 24 24" fill="none" xmlns="http://www.w3.org/2000/svg"><path d="M22.5 18.1124 21.0375 14.7c-.15-.375-.2625-.7875-.2625-1.2v-3c0-2.21255-.9375-4.27505-2.6625-5.81255-1.4625-1.275-3.3-2.0625-5.25-2.25v-.9375c0-.45-.375-.862499-.8625-.862499-.45 0-.8625.374999-.8625.862499v.9375c-.075 0-.15 0-.225.0375C6.525 2.96245 3.225 6.48745 3.225 10.65v2.85c0 .4125-.075.825-.2625 1.2L1.5 18.1124c-.375.8626-.3 1.8751.225 2.6626.525.7875 1.425 1.2749 2.3625 1.2749h7.05V22.5375c0 .4499.375.8625.825.8625.45 0 .825-.375.8625-.825v-.4875h7.05c.975 0 1.8375-.4875 2.3625-1.275.5625-.8625.6375-1.8375.2625-2.7001Zm-1.65 1.7251c-.225.3375-.5625.5249-.9375.5249H4.0875c-.375 0-.75-.1874-.9375-.5249-.225-.3375-.2625-.7125-.1125-1.05L4.5 15.375c.2625-.6.375-1.2375.375-1.875v-2.85c0-3.30005 2.6625-6.11255 6.1875-6.48755.3-.0375.6-.0375.8625-.0375 1.875 0 3.6375.6375 4.9875 1.875 1.35 1.2375 2.1 2.85 2.1 4.57505V13.5c0 .6375.1125 1.275.375 1.875l1.4625 3.4125c.2625.3375.225.7125 0 1.05Z" fill="#111928"/></svg>