<svg width="24" height="24" viewBox="0 0 24 24" fill="none" xmlns="http://www.w3.org/2000/svg"><path d="m21.6002 19.9124-.75-1.1625c-.15-.2249-.225-.45-.225-.7125v-7.8c0-2.21245-.9375-4.27495-2.6625-5.81245-1.3875-1.2375-3.1875-2.025-5.1-2.175v-.75c0-.45-.375-.862499-.8625-.862499-.45 0-.8625.374999-.8625.862499v.7125c-.075 0-.15 0-.225.0375-4.35.4875-7.6125 3.975-7.6125 8.13755v7.6499c-.0375.375-.1125.5626-.1875.6751l-.7125 1.1999c-.225.375-.225.825 0 1.2.225.3375.6.5625 1.0125.5625h7.7625v.825c0 .45.375.8625.8625.8625.45 0 .8625-.375.8625-.8625v-.825h7.725c.4125 0 .7875-.225 1.0125-.5625.225-.375.225-.825-.0375-1.2Zm-17.2875.075.2625-.45c.225-.375.3375-.8249.4125-1.3499v-7.8c0-3.30005 2.625-6.07505 6.1125-6.45005 2.1375-.225 4.2375.4125 5.775 1.7625 1.35 1.2 2.1 2.8125 2.1 4.53745v7.8c0 .5625.15 1.0876.4875 1.6126l.225.3374H4.3127Z" fill="#111928"/></svg>