<svg width="24" height="24" viewBox="0 0 24 24" fill="none" xmlns="http://www.w3.org/2000/svg"><path d="M11.7377 3.82495c-4.76251 0-8.6625 3.9-8.6625 8.66255 0 2.2125.825 4.2375 2.2125 5.775L3.5627 20.85c-.2625.375-.15.9.225 1.1625.15.1125.3.15.45.15.2625 0 .525-.15.7125-.375l1.575-2.4c1.4625 1.0875 3.225 1.7249 5.175 1.7249 1.95 0 3.75-.6374 5.175-1.7249l1.575 2.4c.15.225.4125.375.7125.375.15 0 .3375-.0375.45-.15.375-.2625.4875-.7875.225-1.1625l-1.725-2.5875c1.3875-1.5375 2.2125-3.5625 2.2125-5.775.075-4.76255-3.7875-8.66255-8.5875-8.66255Zm-6.975 8.66255c0-3.86255 3.11249-6.97505 6.975-6.97505 3.8625 0 6.975 3.1125 6.975 6.97505 0 3.8625-3.1125 6.975-6.975 6.975-3.86251 0-6.975-3.1125-6.975-6.975ZM23.1377 6.56245l-3.9-4.4625c-.3-.3375-.825-.375-1.2-.075-.3375.3-.375.825-.075 1.2l3.9 4.4625c.15.1875.4125.3.6375.3.1875 0 .4125-.075.5625-.225.3375-.3.375-.8625.075-1.2ZM5.9626 2.02495c-.3375-.3-.9-.2625-1.2.075l-3.9 4.4625c-.3.3375-.2625.9.075 1.2.15.15.375.225.5625.225.225 0 .45-.1125.6375-.3l3.9-4.4625c.3-.375.2625-.9-.075-1.2Z" fill="#111928"/><path d="M15.0376 12.825h-2.4375V9.89995c0-.45-.375-.825-.8625-.825-.4875 0-.825.375-.825.825v3.78755c0 .45.375.825.825.825h3.3c.45 0 .825-.375.825-.825 0-.45-.3375-.8625-.825-.8625Z" fill="#111928"/></svg>