<svg width="24" height="24" viewBox="0 0 24 24" fill="none" xmlns="http://www.w3.org/2000/svg"><path d="M17.6999 16.0875c-.075-.1125-.075-.1875-.075-.2625v-4.7625c0-1.42498-.6-2.77498-1.725-3.78748-.8625-.75-1.9125-1.2375-3.0375-1.3875v-.75c0-.45-.375-.8625-.8625-.8625-.45 0-.8625.375-.8625.8625v.75c-2.7375.375-4.7625 2.625-4.7625 5.24998v4.65c-.0375.15-.0375.225-.075.2625l-.45.75c-.225.3375-.225.75 0 1.0875.1875.3.525.4875.9.4875h4.3875v.4875c0 .45.375.8625.8625.8625.45 0 .8625-.375.8625-.8625v-.4875h4.3875c.375 0 .7125-.1875.9-.4875.225-.3375.1875-.75 0-1.0875l-.45-.7125Zm-9.825.6c.075-.225.15-.45.1875-.75v-4.8c0-1.83748 1.4625-3.41248 3.4125-3.59998 1.2-.15 2.4.225 3.2625 1.0125.75.675 1.1625 1.57498 1.1625 2.54998v4.7625c0 .3.075.6.1875.8625H7.8749v-.0375ZM4.9874 10.875c-.3375-.3375-.8625-.3375-1.2-.0375-.525.4875-.825 1.1625-.825 1.9125 0 .7125.3 1.3875.825 1.9125.15.15.375.225.6.225.225 0 .45-.075.6-.2625.3375-.3375.3-.8625-.0375-1.2-.1875-.1875-.3-.4125-.3-.675 0-.2625.1125-.4875.3-.675.3375-.3375.3375-.8625.0375-1.2Z" fill="#111928"/><path d="M2.3623 12.75c0-.8625.3375-1.65.975-2.25.3375-.3375.3375-.86249.0375-1.19999-.3-.3375-.8625-.3375-1.2-.0375C1.1998 10.2.674805 11.4375.674805 12.75S1.1998 15.3 2.1748 16.2375c.15.15.375.225.6.225.225 0 .45-.075.6-.2625.3375-.3375.3-.8625-.0375-1.2-.6375-.6-.975-1.3875-.975-2.25ZM20.2125 10.8375c-.3375-.3375-.8625-.3-1.2.0375-.3375.3375-.3.8625.0375 1.2.1875.1875.3.4125.3.675 0 .2625-.1125.4875-.3.675-.3375.3375-.3375.8625-.0375 1.2.15.1875.375.2625.6.2625.225 0 .4125-.075.6-.225.525-.4875.825-1.1625.825-1.9125 0-.7125-.3-1.3875-.825-1.9125Z" fill="#111928"/><path d="M21.8624 9.2625c-.3375-.3375-.8625-.3-1.2.0375-.3375.3375-.3.8625.0375 1.2.6375.6.975 1.425.975 2.25 0 .8625-.3375 1.65-.975 2.25-.3375.3375-.3375.8625-.0375 1.2.15.1875.375.2625.6.2625.225 0 .4125-.075.6-.225.975-.9375 1.5-2.175 1.5-3.4875s-.5625-2.55-1.5-3.4875Z" fill="#111928"/></svg>