<svg width="24" height="24" viewBox="0 0 24 24" fill="none" xmlns="http://www.w3.org/2000/svg"><path d="m17.7374 2.17501 1.7625 1.3875c.15.1125.3375.1875.525.1875.2625 0 .4875-.1125.675-.3375.3-.375.225-.9-.15-1.2l-1.8-1.387504c-.375-.3-.9-.225-1.2.15-.2625.375004-.1875.900004.1875 1.200004ZM3.97486 3.75001c.1875 0 .375-.075.525-.1875l1.8-1.3875c.375-.3.45-.825.15-1.200004-.3-.375-.825-.45-1.2-.15l-1.8 1.425004c-.375.2625-.45.7875-.15 1.1625.15.225.4125.3375.675.3375ZM18.075 19.3875c2.1375-1.7625 3.4875-4.425 3.4875-7.3875 0-5.2875-4.275-9.5625-9.5625-9.5625S2.4375 6.7125 2.4375 12c0 2.9625 1.35 5.625 3.4875 7.3875l-2.325 2.55c-.3.3375-.3.8625.0375 1.2.15.15.375.225.5625.225.225 0 .45-.075.6375-.2625L7.35 20.3625C8.7375 21.15 10.3125 21.6 12.0375 21.6c1.6875 0 3.3-.45 4.6875-1.2375L19.2375 23.1c.15.1875.4125.2625.6375.2625.1875 0 .4125-.075.5625-.225.3375-.3.375-.8625.0375-1.2l-2.4-2.55ZM4.125 12c0-4.35 3.525-7.875 7.875-7.875S19.875 7.65 19.875 12 16.35 19.875 12 19.875 4.125 16.35 4.125 12Z" fill="#111928"/><path d="M16.5001 11.1375h-3.675v-3.525c0-.45-.375-.8625-.8625-.8625-.45 0-.8625.375-.8625.8625V12c0 .45.375.8625.8625.8625h4.5c.45 0 .8625-.375.8625-.8625 0-.4875-.375-.8625-.825-.8625Z" fill="#111928"/></svg>