<svg width="24" height="24" viewBox="0 0 24 24" fill="none" xmlns="http://www.w3.org/2000/svg"><path d="M5.63334 5.0809c.37231-.18887.82504-.03576 1.01119.34198l1.48584 3.01503C9.2307 8.03688 10.5121 7.80405 12 7.80405c1.1111 0 2.107.12984 2.9984.36259l1.3521-2.74376c.1862-.37774.6389-.53085 1.0112-.34198.3723.18887.5232.6482.3371 1.02595l-1.2614 2.55961c3.8665 1.70984 5.2787 5.59874 5.5577 8.31624.0575.5601-.3957 1.0173-.9507 1.0173H2.9556c-.555 0-1.00816-.4572-.95067-1.0173.25865-2.52 1.49186-6.0472 4.75289-7.91012L5.29627 6.10685c-.18615-.37775-.03524-.83708.33707-1.02595Zm11.39136 8.8406c0-.5632-.45-1.0196-1.005-1.0196-.555 0-1.0049.4564-1.0049 1.0196 0 .5631.4499 1.0195 1.0049 1.0195.555 0 1.005-.4564 1.005-1.0195ZM7.98027 14.941c.55501 0 1.00493-.4564 1.00493-1.0195 0-.5632-.44992-1.0196-1.00493-1.0196-.55501 0-1.00494.4564-1.00494 1.0196 0 .5631.44993 1.0195 1.00494 1.0195Z" fill="#111928"/></svg>