<svg width="24" height="24" viewBox="0 0 24 24" fill="none" xmlns="http://www.w3.org/2000/svg"><path d="M2.41091 17.4134c.28535.2682.69626.4022 1.23272.4022h4.34876c1.31262 0 2.34561-.296 3.09891-.8882.7648-.6034 1.1471-1.4246 1.1471-2.4637 0-.7821-.2283-1.4246-.6848-1.9274-.3545-.4003-.8283-.6873-1.4215-.861.4735-.1929.8618-.4757 1.1647-.8485.4109-.4916.6163-1.08378.6163-1.77652 0-.61453-.1598-1.15084-.4794-1.60894-.3196-.4581-.7875-.81005-1.4039-1.05587C9.42486 6.12849 8.68865 6 7.82118 6H3.64363c-.53646 0-.94737.13967-1.23272.419C2.13697 6.68715 2 7.07821 2 7.59218v8.63132c0 .5139.13697.9106.41091 1.1899Zm5.15345-1.8603H5.01332v-2.5978h2.55104c.58212 0 1.00444.1062 1.26696.3184.27394.2123.41091.5364.41091.9721 0 .4358-.13697.7654-.41091.9888-.26252.2123-.68484.3185-1.26696.3185Zm-.30818-4.8604H5.01332V8.26257h2.24286c.57071 0 .98732.10056 1.24984.30168.27394.18994.41091.49162.41091.90502 0 .41341-.13697.72063-.41091.92183-.26252.2011-.67913.3016-1.24984.3016ZM15.7338 17.4804c.7533.3464 1.6436.5196 2.6709.5196.4565 0 .9074-.0447 1.3525-.1341.4566-.0894.8846-.2234 1.2841-.4022.2625-.1117.4509-.2682.565-.4693.1142-.2123.1655-.4246.1541-.6369-.0114-.2234-.0799-.419-.2054-.5865-.1142-.1788-.2797-.3017-.4966-.3688-.2168-.0782-.4736-.0614-.7704.0503-.2968.1117-.6107.2011-.9417.2682-.3196.0558-.6049.0838-.856.0838-.7534 0-1.3126-.1676-1.6779-.5028-.2386-.2336-.3968-.5688-.4745-1.0056h4.8746c.274 0 .4737-.0503.5993-.1508.1255-.1118.1883-.2794.1883-.5028 0-.6481-.097-1.2347-.2911-1.7598-.1826-.5252-.4565-.9721-.8218-1.3408-.3652-.3799-.8047-.66478-1.3183-.85473-.5136-.20112-1.0843-.30167-1.7121-.30167-.8561 0-1.6208.18435-2.2942.55307-.6621.35753-1.1871.86033-1.5752 1.50833-.3766.6369-.565 1.3799-.565 2.2291 0 .8827.1998 1.648.5993 2.2961.3995.648.9702 1.1508 1.7121 1.5083Zm.5845-4.5921c.0335-.2328.0897-.4395.1688-.6201.137-.3129.331-.5475.5821-.704.2625-.1676.5707-.2514.9246-.2514.331 0 .6049.0671.8218.2012.2283.134.3995.3296.5136.5866.0934.2102.1486.4728.1656.7877h-3.1765ZM15 6.25c-.4142 0-.75.33579-.75.75s.3358.75.75.75h6c.4142 0 .75-.33579.75-.75s-.3358-.75-.75-.75h-6Z" fill="#111928"/></svg>