<svg width="24" height="24" viewBox="0 0 24 24" fill="none" xmlns="http://www.w3.org/2000/svg"><path d="M19.7252 17.0251c-.525-1.3125-.675-2.8501-.675-3.0376v-3.75c0-3.59995-2.7375-6.59995-6.225-7.01245v-1.725c0-.45-.375-.825001-.825-.825001-.45 0-.825.375001-.825.825001v1.7625c-3.48749.4125-6.22499 3.4125-6.22499 7.01255v3.75c0 .1875-.15 1.725-.675 3.0374-.3.7875-.225 1.6501.225 2.3251s1.23751 1.0874 2.06251 1.0874h2.06249c.3 1.6126 1.68749 2.8501 3.37499 2.8501s3.1125-1.2375 3.375-2.8501h2.025c.825 0 1.6125-.4124 2.0625-1.0874.4875-.7125.6-1.575.2625-2.3625Zm-7.725 4.65c-.75 0-1.3875-.4875-1.65-1.1625h3.3c-.2625.6375-.9 1.1625-1.65 1.1625Zm6.075-3.225c-.15.225-.4125.375-.675.375H6.60022c-.2625 0-.525-.1125-.675-.375-.15-.2251-.1875-.525-.075-.75.675-1.65.7875-3.5251.7875-3.6001v-3.8249c0-2.96255 2.39999-5.40005 5.36248-5.40005 2.9625 0 5.3625 2.4 5.3625 5.36245v3.8251c0 .075.1125 1.9499.7875 3.5999.1125.2626.1125.5625-.075.7876Z" fill="#111928"/></svg>