<svg width="24" height="24" viewBox="0 0 24 24" fill="none" xmlns="http://www.w3.org/2000/svg"><g clip-path="url(#clip0_310_4193)" fill="#111928"><path d="M16.8374.675049c-2.3625 0-4.425 1.237501-5.5875 3.075001-.6-.2625-1.2375-.4125-1.91248-.525v-1.725c0-.45-.375-.825001-.825-.825001-.45 0-.825.375001-.825.825001v1.7625c-1.575.1875-3.0375.8625-4.1625 1.9875-1.35 1.3125-2.0625 3.1125-2.0625 4.98745v3.75c0 .1875-.15 1.7251-.674998 3.0376-.3.7875-.225 1.65.224998 2.3249.45.675 1.2375 1.125 2.0625 1.125h2.025c.2625 1.6126 1.6875 2.8501 3.375 2.8501 1.68748 0 3.11248-1.2375 3.37498-2.8501h2.025c.825 0 1.6125-.4125 2.0625-1.125.45-.6749.5625-1.5749.225-2.3249-.525-1.3125-.6375-2.8501-.675-3.0376v-.3374c.4125.075.825.1125 1.275.1125 3.6375 0 6.5625-2.9625 6.5625-6.56255 0-3.6-2.85-6.525001-6.4875-6.525001ZM8.51242 21.6751c-.75 0-1.3875-.4875-1.65-1.1625h3.29998c-.26248.6375-.89998 1.1625-1.64998 1.1625ZM13.8749 14.1c0 .075.1125 1.9126.7875 3.6001.1125.2625.075.5249-.075.75-.15.225-.4125.375-.675.375H3.07492c-.2625 0-.525-.1125-.675-.375-.15-.2251-.1875-.4875-.075-.75.675-1.65.7875-3.5251.7875-3.6001v-3.8249c0-1.42505.5625-2.77505 1.575-3.78755 1.0125-1.0125 2.3625-1.575 3.7875-1.575.7125 0 1.3875.15 2.02498.4125-.1875.6-.3 1.275-.3 1.95 0 2.55 1.4625 4.76245 3.6375 5.85005v.9375c.0375 0 .0375-.0001.0375.0374Zm2.9625-1.9875c-2.7 0-4.875-2.17495-4.875-4.87495s2.175-4.875 4.875-4.875 4.875 2.175 4.875 4.875-2.175 4.87495-4.875 4.87495Z"/><path d="M18.2247 6.225h-.525V5.7c0-.45-.375-.825-.825-.825-.45 0-.825.375-.825.825v.525h-.525c-.45 0-.825.375-.825.825 0 .45.375.825.825.825h.525V8.4c0 .45.375.825.825.825.45 0 .825-.375.825-.825v-.525h.525c.45 0 .825-.375.825-.825 0-.45-.375-.825-.825-.825Z"/></g><defs><clipPath id="clip0_310_4193"><path fill="#fff" d="M0 0h24v24H0z"/></clipPath></defs></svg>