<svg width="24" height="24" viewBox="0 0 24 24" fill="none" xmlns="http://www.w3.org/2000/svg"><path d="m22.9127 14.2875-.6375-.3375c-.7875-.45-1.4625-1.125-1.8-1.95l-.7875-2.25001c-.4125-1.2-1.275-2.175-2.4-2.7375-.9-.45-1.9125-.6-2.8875-.4125l-.2625-.7875c-.15-.45-.6375-.675-1.0875-.525-.45.15-.675.6375-.525 1.0875l.2625.7875c-.075.0375-.1875.1125-.2625.15-.3375-.375-.7125-.675-1.1625-.9375l.3-.7875c.15-.45-.075-.9375-.4875-1.0875-.45-.15-.9375.075-1.0875.4875l-.30004.7875c-.975-.1875-1.9875-.075-2.8875.375-1.1625.525-2.025 1.5-2.475 2.7l-.82499 2.21251V11.1c-.375.825-1.05001 1.5-1.83751 1.9125l-.6375.2625c-.299995.15-.487495.45-.449995.7875.0375.3375.225.6375.562495.75l4.875 1.8-.4125 1.125c-.15.45.075.9375.4875 1.0875.1125.0375.1875.0375.3.0375.3375 0 .675-.225.7875-.5625l.4125-1.125L10.8002 18.3l-.0375.075c-.15.3-.075.675.15.9.15.1875.375.2625.6375.2625.075 0 .1875 0 .2625-.0375l4.65-1.575.4125.9375c.15.3375.45.525.7875.525.1125 0 .225-.0375.3375-.075.4125-.1875.6375-.675.45-1.0875l-.3375-.8625 4.725-1.6125c.3-.1125.525-.375.5625-.7125.0375-.3375-.1875-.6-.4875-.75Zm-17.77504-2.55.0375-.075v-.0375l.825-2.25001c.3-.7875.8625-1.3875 1.6125-1.725.75-.3375 1.575-.375 2.3625-.1125l.07504.0375c.0375 0 .0375 0 .075.0375.45.1875.825.45 1.1625.7875-.1875.2625-.375.525-.525.825-.5625 1.12501-.6375 2.43751-.225 3.63751l.75 2.25v.0375c.15.525.15 1.0875.075 1.6125l-7.91254-2.925c.7125-.5625 1.3125-1.275 1.6875-2.1Zm7.80004 5.625c.1875-.9.1875-1.8-.0375-2.7l-.0375-.075V14.55l-.75-2.25c-.2625-.7875-.225-1.6125.15-2.36251.375-.75.975-1.275 1.7625-1.5375l.1125-.0375c.3375-.1125.675-.15.975-.15.45 0 .9375.1125 1.35.3375.75.375 1.275.975 1.5375 1.76251l.75 2.25V12.6l.0375.075c.375.825.9375 1.575 1.6125 2.1375l-7.4625 2.55Z" fill="#111928"/></svg>