<svg width="24" height="24" viewBox="0 0 24 24" fill="none" xmlns="http://www.w3.org/2000/svg"><path d="M11.2122 8.4375c-.975.975-.975 2.5125 0 3.4875.4875.4875 1.125.7125 1.725.7125.6 0 1.275-.225 1.725-.7125.975-.975.975-2.5125 0-3.4875-.975-.975-2.5125-.9375-3.45 0Zm2.25 2.2875c-.3.3-.7875.3-1.0875 0-.3-.3-.3-.7875 0-1.0875.15-.15.3375-.225.5625-.225.225 0 .4125.075.5625.225.2625.3.2625.7875-.0375 1.0875ZM8.1748 13.7625l-3.075 3.075c-.3375.3375-.3375.8625 0 1.2.15.15.375.2625.6.2625.225 0 .45-.075.6-.2625l3.075-3.075c.3375-.3375.3375-.8625 0-1.2-.3375-.3375-.8625-.3375-1.2 0Z" fill="#111928"/><path d="M21.6374 3.22499c-1.5-1.5-3.7125-2.0625-5.7375-1.4625-.45.1125-.7125.6-.5625 1.05.15.45.6.7125 1.05.5625 1.4625-.4125 3-.0375 4.0875 1.05 1.6125 1.6125 1.6125 4.2375 0 5.85001-.675.675-1.575 1.0875-2.5125 1.2.1125-.375.1875-.7875.1875-1.2.0375-1.38751-.4875-2.77501-1.5-3.78751-.975-.975-2.3625-1.5375-3.7875-1.5-1.3875.0375-2.7375.675-3.67497 1.725L1.72493 15.225c-1.500003 1.725-1.425003 4.35.1875 5.9625.8625.8625 1.95 1.275 3.075 1.275 1.0125 0 2.0625-.375 2.8875-1.0875l8.51247-7.4625c.2625-.225.4875-.4875.7125-.7875h.4125c1.5375 0 3.0375-.6 4.125-1.6875 2.25-2.25001 2.25-5.92501 0-8.21251Zm-6.3375 9.41251L6.78743 20.1c-1.05.9375-2.6625.8625-3.675-.1125-1.0125-1.0125-1.05-2.5875-.1125-3.675l7.46247-8.51251c.6375-.7125 1.5-1.125 2.4375-1.1625.9375-.0375 1.8375.3375 2.5125 1.0125.675.675 1.0125 1.575 1.0125 2.51251 0 .975-.4125 1.875-1.125 2.475Z" fill="#111928"/></svg>