<svg width="24" height="24" viewBox="0 0 24 24" fill="none" xmlns="http://www.w3.org/2000/svg"><path d="M6.2625 13.0875h-1.65c-.45 0-.8625.375-.8625.8625 0 .4875.375.8625.8625.8625h1.65c.45 0 .8625-.375.8625-.8625 0-.4875-.4125-.8625-.8625-.8625ZM15.45 13.0875H13.8c-.45 0-.8625.375-.8625.8625 0 .4875.375.8625.8625.8625h1.65c.45 0 .8625-.375.8625-.8625 0-.4875-.4125-.8625-.8625-.8625Z" fill="#111928"/><path d="M21.2627 12.1125V7.125c.9375-.3375 1.575-1.2375 1.575-2.25 0-1.35-1.0875-2.4375-2.4375-2.4375S17.9627 3.525 17.9627 4.875c0 1.05.675 1.9125 1.575 2.25v4.95h-.4125v-.2625c0-1.5-1.2375-2.7375-2.7375-2.7375h-2.1375V8.25c0-1.2375-1.0125-2.2125-2.2125-2.2125h-1.1625v-2.475c0-.45-.375-.8625-.8625-.8625-.48751 0-.86251.375-.86251.8625v2.475h-1.2C6.71269 6.0375 5.7377 7.05 5.7377 8.25v.825H3.3752c-1.5 0-2.737505 1.2375-2.737505 2.7375v7.0125c0 1.5 1.237505 2.7375 2.737505 2.7375h13.05c1.5 0 2.7375-1.2375 2.7375-2.7375v-.2625h1.9875c1.2375 0 2.2125-1.0125 2.2125-2.2125v-1.9875c0-1.2375-.9375-2.175-2.1-2.25Zm-.8625-7.9875c.4125 0 .75.3375.75.75s-.3375.75-.75.75-.75-.3375-.75-.75.3375-.75.75-.75ZM7.46269 8.25c0-.3.225-.525.525-.525h4.05001c.3 0 .525.225.525.525v.825H7.46269V8.25Zm9.97501 10.575c0 .5625-.45 1.05-1.05 1.05H3.3752c-.5625 0-1.05-.45-1.05-1.05v-7.0125c0-.5625.45-1.05 1.05-1.05h13.05c.5625 0 1.05.45 1.05 1.05v7.0125h-.0375Zm4.2375-2.5125c0 .3-.225.525-.525.525h-2.025v-3.075h1.9875c.3 0 .525.225.525.525v2.025h.0375Z" fill="#111928"/><path d="M11.4002 15.75c-.45 0-.8625.375-.8625.8625 0 .3-.225.525-.525.525-.3 0-.52501-.225-.52501-.525 0-.45-.375-.8625-.86249-.8625-.4875 0-.8625.375-.8625.8625 0 1.2375 1.0125 2.2125 2.2125 2.2125s2.2125-1.0125 2.2125-2.2125c.0375-.4875-.3375-.8625-.7875-.8625Z" fill="#111928"/></svg>