<svg width="23" height="22" viewBox="0 0 23 22" fill="none" xmlns="http://www.w3.org/2000/svg"><path d="m22.886 6.95533-1.7108-5.2921C20.8711.680413 19.9207 0 18.8942 0H4.29587C3.26942 0 2.35702.642612 2.01488 1.58763L.11405 6.91753C.0380165 7.14433 0 7.37113 0 7.63574V19.0893C0 20.7148 1.33058 22 2.92727 22H20.0727C21.7074 22 23 20.677 23 19.0893V7.59794c0-.189-.038-.41581-.114-.64261Zm-3.3455-4.76289 1.4066 4.38488h-8.5917V1.70103h6.5388c.2661 0 .5703.189.6463.49141Zm-15.92893-.0378c.11405-.26461.38017-.45361.64628-.45361h6.34875v4.87629H2.05289l1.55868-4.42268ZM20.0347 20.299H2.92727c-.68429 0-1.21653-.5292-1.21653-1.2097V8.27835H21.2893V19.0893c0 .6805-.5703 1.2097-1.2546 1.2097Z" fill="#111928"/></svg>