<svg width="24" height="24" viewBox="0 0 24 24" fill="none" xmlns="http://www.w3.org/2000/svg"><path d="M11.9997 8.88745c-2.84999 0-5.17499 2.32505-5.17499 5.17505 0 2.85 2.325 5.175 5.17499 5.175 2.85 0 5.175-2.325 5.175-5.175 0-2.85-2.325-5.17505-5.175-5.17505Zm0 8.66255c-1.9125 0-3.48749-1.575-3.48749-3.4875 0-1.9125 1.57499-3.4875 3.48749-3.4875 1.9125 0 3.4875 1.575 3.4875 3.4875 0 1.9125-1.575 3.4875-3.4875 3.4875Z" fill="#111928"/><path d="M12.5996 14.175v-1.1625c0-.45-.375-.825-.8625-.825-.4875 0-.825.375-.825.825V14.55c0 .225.075.45.2625.6l.9.9c.15.15.375.2625.6.2625.225 0 .45-.075.6-.2625.3375-.3375.3375-.8625 0-1.2l-.675-.675Z" fill="#111928"/><path d="M20.9998 1.38745h-18c-1.275 0-2.324995 1.05-2.324995 2.325V20.25c0 1.275 1.049995 2.325 2.324995 2.325h18c1.275 0 2.325-1.05 2.325-2.325V3.71245c0-1.275-1.05-2.325-2.325-2.325Zm-18 1.6875h18c.375 0 .675.3.675.675v2.325h-19.35v-2.3625c0-.3375.3-.6375.675-.6375Zm18 17.84995h-18c-.375 0-.675-.2999-.675-.6749V7.72495h19.3125V20.25c.0375.375-.2625.6749-.6375.6749Z" fill="#111928"/></svg>