<svg width="24" height="24" viewBox="0 0 24 24" fill="none" xmlns="http://www.w3.org/2000/svg"><g clip-path="url(#clip0_310_4087)" fill="#111928"><path d="M20.7373 2.5874h-1.65v-.8625c0-.45-.375-.824998-.825-.824998-.45 0-.825.374998-.825.824998v.8625H6.59981v-.8625c0-.45-.37501-.824998-.825-.824998-.45001 0-.82501.374998-.82501.824998v.8625H3.2623c-1.425 0-2.587495 1.1625-2.587495 2.5875v10.425c0 1.425 1.162495 2.5875 2.587495 2.5875h8.1375c.45 0 .825-.375.825-.825 0-.45-.375-.825-.825-.825H3.2623c-.4875 0-.9-.4125-.9-.9V9.0749h19.3125v3.9375c0 .45.375.825.825.825.45 0 .825-.375.825-.825v-7.875c0-1.3875-1.1625-2.55-2.5875-2.55Zm-18.4125 4.8v-2.25c0-.4875.4125-.9.9-.9h1.65v.375c0 .45.375.825.825.825.45001 0 .82501-.375.82501-.825v-.375H17.3248v.375c0 .45.375.825.825.825.45 0 .825-.375.825-.825v-.375h1.65c.4875 0 .9.4125.9.9v2.25h-19.2Z"/><path d="M18.1125 13.5374c-2.6625 0-4.8 2.1375-4.8 4.8 0 2.6625 2.1375 4.8 4.8 4.8 2.6625 0 4.8-2.1375 4.8-4.8 0-2.6625-2.175-4.8-4.8-4.8Zm0 7.9125c-1.725 0-3.1125-1.3875-3.1125-3.1125 0-1.725 1.3875-3.1125 3.1125-3.1125 1.725 0 3.1125 1.3875 3.1125 3.1125 0 1.725-1.3875 3.1125-3.1125 3.1125Z"/><path d="M19.275 17.4749H16.95c-.45 0-.825.375-.825.825 0 .45.375.825.825.825h2.325c.45 0 .825-.375.825-.825 0-.45-.375-.825-.825-.825Z"/></g><defs><clipPath id="clip0_310_4087"><path fill="#fff" d="M0 0h24v24H0z"/></clipPath></defs></svg>