<svg width="23" height="20" viewBox="0 0 23 20" fill="none" xmlns="http://www.w3.org/2000/svg"><path d="M20.6089 2.14689h-1.0627V.86629C19.5462.414313 19.1667 0 18.6733 0s-.873.376648-.873.86629v1.2806H5.16172V.86629C5.16172.414313 4.78218 0 4.28878 0c-.4934 0-.87294.376648-.87294.86629v1.2806H2.39109C1.10066 2.14689 0 3.20151 0 4.51977V17.6271C0 18.9077 1.06271 20 2.39109 20H20.6089C21.8993 20 23 18.9454 23 17.6271V4.51977c0-1.31826-1.1007-2.37288-2.3911-2.37288ZM2.39109 3.84181H3.4538v1.24294c0 .45197.37953.86629.87293.86629s.87294-.37665.87294-.86629V3.84181H17.9142v1.24294c0 .45197.3795.86629.8729.86629s.873-.37665.873-.86629V3.84181h.9488c.3795 0 .6832.30132.6832.67796v2.48588H1.74587V4.51977c0-.37664.26568-.67796.64522-.67796ZM20.6089 18.2674H2.39109c-.37954 0-.68317-.3013-.68317-.6779V8.70057H21.2541v8.92653c.038.339-.2657.6403-.6452.6403Z" fill="#111928"/><path d="M13.8531 12.6178h-1.4802v-1.4689c0-.452-.3795-.8663-.8729-.8663-.4554 0-.8729.3766-.8729.8663v1.4689H9.14686c-.45544 0-.87293.3767-.87293.8663s.37953.8663.87293.8663h1.48024v1.4689c0 .452.3795.8663.8729.8663.4554 0 .8729-.3766.8729-.8663v-1.4689h1.4802c.4555 0 .873-.3767.873-.8663s-.4175-.8663-.873-.8663Z" fill="#111928"/></svg>