<svg width="24" height="24" viewBox="0 0 24 24" fill="none" xmlns="http://www.w3.org/2000/svg"><path d="M21.0002 3.97501h-2.025v-.825c0-.45-.375-.8625-.8625-.8625-.4875 0-.8625.375-.8625.8625v.7875H6.71269v-.7875c0-.45-.37499-.8625-.8625-.8625-.48749 0-.86249.375-.86249.8625v.7875H3.0002c-1.275 0-2.362505 1.05-2.362505 2.3625V19.35c0 1.275 1.050005 2.3625 2.362505 2.3625h18c1.275 0 2.3625-1.05 2.3625-2.3625V6.30001c0-1.275-1.0875-2.325-2.3625-2.325Zm-18 1.6875h2.025v.75c0 .45.375.8625.86249.8625.48751 0 .8625-.375.8625-.8625v-.75H17.3627v.75c0 .45.375.8625.8625.8625.4875 0 .8625-.375.8625-.8625v-.75h1.9125c.375 0 .675.3.675.675v2.475H2.3627v-2.475c0-.4125.2625-.675.6375-.675Zm18 14.32499h-18c-.375 0-.675-.3-.675-.675v-8.85h19.3125V19.35c.0375.375-.2625.6375-.6375.6375Z" fill="#111928"/><path d="M10.8001 11.5125h-.825c-.225 0-.375.15-.375.375v.825c0 .225.15.375.375.375h.825c.225 0 .375-.15.375-.375v-.825c0-.225-.1875-.375-.375-.375ZM14.2127 11.5125h-.825c-.225 0-.375.15-.375.375v.825c0 .225.15.375.375.375h.825c.225 0 .375-.15.375-.375v-.825c0-.225-.15-.375-.375-.375ZM17.6253 11.5125h-.825c-.225 0-.375.15-.375.375v.825c0 .225.15.375.375.375h.825c.225 0 .375-.15.375-.375v-.825c0-.225-.15-.375-.375-.375ZM7.2 14.4h-.825c-.225 0-.375.15-.375.375v.825c0 .225.15.375.375.375H7.2c.225 0 .375-.15.375-.375v-.825c0-.225-.1875-.375-.375-.375ZM10.8001 14.4h-.825c-.225 0-.375.15-.375.375v.825c0 .225.15.375.375.375h.825c.225 0 .375-.15.375-.375v-.825c0-.225-.1875-.375-.375-.375ZM14.2127 14.4h-.825c-.225 0-.375.15-.375.375v.825c0 .225.15.375.375.375h.825c.225 0 .375-.15.375-.375v-.825c0-.225-.15-.375-.375-.375ZM17.6253 14.4h-.825c-.225 0-.375.15-.375.375v.825c0 .225.15.375.375.375h.825c.225 0 .375-.15.375-.375v-.825c0-.225-.15-.375-.375-.375ZM7.2 17.2875h-.825c-.225 0-.375.15-.375.375v.825c0 .225.15.375.375.375H7.2c.225 0 .375-.15.375-.375v-.825c0-.225-.1875-.375-.375-.375ZM10.8001 17.2875h-.825c-.225 0-.375.15-.375.375v.825c0 .225.15.375.375.375h.825c.225 0 .375-.15.375-.375v-.825c0-.225-.1875-.375-.375-.375ZM14.2127 17.2875h-.825c-.225 0-.375.15-.375.375v.825c0 .225.15.375.375.375h.825c.225 0 .375-.15.375-.375v-.825c0-.225-.15-.375-.375-.375Z" fill="#111928"/></svg>