<svg width="23" height="22" viewBox="0 0 23 22" fill="none" xmlns="http://www.w3.org/2000/svg"><path d="M20.3388 1.7037h-1.6727V.851852C18.6661.407407 18.2859 0 17.7917 0s-.8743.37037-.8743.851852V1.7037H6.00661V.851852C6.00661.407407 5.62645 0 5.13223 0c-.49421 0-.87438.37037-.87438.851852V1.7037H2.62314C1.17851 1.7037 0 2.85185 0 4.25926V14.5556c0 1.4074 1.17851 2.5555 2.62314 2.5555H13.9901c-.038.1482-.038.3333-.038.4815C13.9521 20 15.9669 22 18.476 22S23 20.037 23 17.5926c0-.5185-.076-1-.2661-1.4445.152-.2962.2661-.5925.2661-.9259V4.25926c0-1.40741-1.2165-2.55556-2.6612-2.55556ZM2.62314 3.37037h1.67273v.37037c0 .44444.38016.85185.87438.85185.49421 0 .87438-.37037.87438-.85185v-.37037H16.9934v.37037c0 .44444.3802.85185.8744.85185s.8743-.37037.8743-.85185v-.37037h1.6728c.4942 0 .9124.40741.9124.88889v2.22222H1.71074V4.25926c0-.51852.38017-.88889.9124-.88889Zm0 12.07403c-.49421 0-.9124-.4074-.9124-.8888V8.11111H21.2893v6.03699c-.7604-.5925-1.7488-.9629-2.8133-.9629-1.6727 0-3.1553.8889-3.9157 2.2222H2.62314v.037ZM18.476 20.3333c-1.5586 0-2.8132-1.2222-2.8132-2.7407s1.2546-2.7407 2.8132-2.7407c1.5587 0 2.8133 1.2222 2.8133 2.7407s-1.2926 2.7407-2.8133 2.7407Z" fill="#111928"/><path d="M8.70537 9.33334h-.79835c-.2281 0-.38016.14815-.38016.37037v.77779c0 .2222.15206.3704.38016.3704h.79835c.2281 0 .38016-.1482.38016-.3704v-.77779c0-.18518-.15206-.37037-.38016-.37037ZM12.2415 9.33334h-.7983c-.2281 0-.3802.14815-.3802.37037v.77779c0 .2222.1521.3704.3802.3704h.7983c.2281 0 .3802-.1482.3802-.3704v-.77779c0-.18518-.1521-.37037-.3802-.37037ZM16.1568 10.4815v-.77779c0-.22222-.152-.37037-.3801-.37037h-.7984c-.2281 0-.3802.14815-.3802.37037v.77779c0 .2222.1521.3704.3802.3704h.7984c.19 0 .3801-.1482.3801-.3704ZM5.17021 12.1852h-.79835c-.22809 0-.38016.1481-.38016.3704v.7777c0 .2223.15207.3704.38016.3704h.79835c.2281 0 .38017-.1481.38017-.3704v-.7777c0-.2223-.15207-.3704-.38017-.3704ZM8.70537 12.1852h-.79835c-.2281 0-.38016.1481-.38016.3704v.7777c0 .2223.15206.3704.38016.3704h.79835c.2281 0 .38016-.1481.38016-.3704v-.7777c0-.2223-.15206-.3704-.38016-.3704ZM12.2415 12.1852h-.7983c-.2281 0-.3802.1481-.3802.3704v.7777c0 .2223.1521.3704.3802.3704h.7983c.2281 0 .3802-.1481.3802-.3704v-.7777c0-.2223-.1521-.3704-.3802-.3704ZM19.6165 17.1111h-.4942v-.4074c0-.4445-.3802-.8519-.8744-.8519s-.8744.3704-.8744.8519v1.2592c0 .4445.3802.8519.8744.8519h1.3306c.4562 0 .8744-.3704.8744-.8519 0-.4814-.3422-.8518-.8364-.8518Z" fill="#111928"/></svg>