<svg width="24" height="24" viewBox="0 0 24 24" fill="none" xmlns="http://www.w3.org/2000/svg"><path d="M22.6502 7.38745c-.45-.45-1.05-.7125-1.6875-.7125h-2.7375v-1.4625c0-.4125-.15-1.3875-1.575-1.3875h-9.375c-1.35001 0-1.5.975-1.5 1.3875v1.4625H3.0377c-1.3125 0-2.400005 1.0875-2.400005 2.4V17.775c0 1.3125 1.087505 2.3999 2.400005 2.3999h17.8875c1.3125 0 2.4-1.0874 2.4-2.3999V9.07495c.0375-.6375-.225-1.2375-.675-1.6875ZM21.6377 17.775c0 .375-.3.7124-.7125.7124H3.0377c-.375 0-.7125-.2999-.7125-.7124V9.07495c0-.375.3-.7125.7125-.7125h3.1875c.675 0 1.2375-.5625 1.2375-1.2375v-1.6125h9.0375v1.6125c0 .675.5625 1.2375 1.2375 1.2375h3.225c.1875 0 .375.075.4875.225.15.15.1875.3.1875.4875V17.775Z" fill="#111928"/><path d="M11.8502 8.8125c-1.95 0-3.525 1.575-3.525 3.5625 0 1.95 1.5375 3.4875 3.525 3.4875 1.95 0 3.525-1.575 3.525-3.4875 0-1.9125-1.6125-3.5625-3.525-3.5625Zm0 5.3625c-1.05 0-1.8375-.7875-1.8375-1.8 0-1.0125.825-1.875 1.8375-1.875s1.8375.8625 1.8375 1.875-.825 1.8-1.8375 1.8ZM5.1752 9.48743h-.8625c-.45 0-.8625.375-.8625.86247 0 .4875.375.8625.8625.8625h.8625c.45 0 .8625-.375.8625-.8625 0-.48747-.375-.86247-.8625-.86247Z" fill="#111928"/></svg>