<svg width="24" height="24" viewBox="0 0 24 24" fill="none" xmlns="http://www.w3.org/2000/svg"><path d="M17.0248 9.56249v-5.0625c0-2.2875-4.125-3.45-8.175-3.45-4.08749-.0375-8.174995 1.1625-8.174995 3.45v9.18751c0 2.2875 4.125005 3.4875 8.174995 3.4875.375 0 .78751 0 1.1625-.0375.4125 3.3 3.225 5.85 6.6375 5.85 3.7125 0 6.7125-3 6.7125-6.7125 0-3.6-2.8125-6.48751-6.3375-6.71251ZM2.3623 6.67499c1.575.825 4.05 1.275 6.4875 1.275s4.9125-.45 6.4875-1.275v1.125c-.0375.525-2.2875 1.7625-6.4875 1.7625-4.19999 0-6.4875-1.275-6.4875-1.7625v-1.125Zm6.4875-3.975c4.2 0 6.4875 1.275 6.4875 1.7625-.0375.525-2.2875 1.7625-6.4875 1.7625-4.19999 0-6.4875-1.275-6.4875-1.7625 0-.4875 2.25001-1.7625 6.4875-1.7625Zm-6.4875 7.275C3.8998 10.8 6.3748 11.25 8.8498 11.25c1.3125 0 2.625-.1125 3.825-.375-.5625.4125-1.05.9-1.4625 1.5-.75.1125-1.5375.15-2.3625.15-4.19999 0-6.4875-1.275-6.4875-1.7625v-.78751Zm0 3.71251v-.75c1.575.825 4.05 1.275 6.4875 1.275.48751 0 .97501 0 1.425-.0375-.15.4125-.225.825-.3 1.275-.375.0375-.75.0375-1.16249.0375-4.23751-.0375-6.45001-1.35-6.45001-1.8ZM16.6498 21.3c-2.775 0-5.025-2.25-5.025-5.025 0-2.775 2.25-5.025 5.025-5.025 2.775 0 5.025 2.25 5.025 5.025 0 2.775-2.2875 5.025-5.025 5.025Z" fill="#111928"/><path d="m18.4121 14.25-2.4 2.4-1.1625-1.1625c-.3375-.3375-.8625-.3375-1.2 0-.3375.3375-.3375.8625 0 1.2l1.7625 1.7625c.15.15.375.2625.6.2625.225 0 .45-.075.6-.2625l3-3c.3375-.3375.3375-.8625 0-1.2-.3375-.3-.8625-.3-1.2 0Z" fill="#111928"/></svg>