<svg width="24" height="24" viewBox="0 0 24 24" fill="none" xmlns="http://www.w3.org/2000/svg"><path d="M18.6373 18.9c0 .375-.3.675-.675.675h-13.8c-.375 0-.675-.3-.675-.675V5.09999c0-.375.3-.675.675-.675h12.525l1.5-1.6875H4.1623c-1.275 0-2.3625 1.05-2.3625 2.3625V18.9375c0 1.3125 1.05 2.3625 2.3625 2.3625h13.8375c1.275 0 2.3625-1.05 2.3625-2.3625V5.43749l-1.6875 1.875V18.9h-.0375Z" fill="#111928"/><path d="M21.675 1.38749c-.3375-.3-.8625-.3-1.2.075l-1.3875 1.5375-1.275 1.425L10.65 12.45 7.08751 9.18749c-.3375-.3-.8625-.3-1.2.0375-.3.3375-.3.86251.0375 1.20001L10.125 14.25c.15.15.375.225.5625.225h.0375c.225 0 .45-.1125.6-.2625l7.3125-8.17501 1.5375-1.725 1.575-1.7625c.3-.3375.3-.8625-.075-1.1625Z" fill="#111928"/></svg>