<svg width="24" height="24" viewBox="0 0 24 24" fill="none" xmlns="http://www.w3.org/2000/svg"><path d="M12 17.1034c-1 0-1.931-.2758-2.75863-.8275-.82758-.5518-1.44828-1.2414-1.86207-2.1035L3.24137 7C2.3793 8.55172 2 10.2414 2 12c0 2.5172.82758 4.6896 2.44828 6.5517 1.6207 1.8621 3.65516 2.9655 6.06902 3.3449l2.8965-5.0345c-.2759.1034-.7931.2413-1.4138.2413ZM8.86216 7.86207c.93101-.72414 1.96554-1.03449 3.13794-1.03449h8.5862c-.8965-1.51723-2.1034-2.62071-3.6207-3.48278C15.4484 2.44828 13.7932 2 12.0001 2c-1.5517 0-3.0345.34484-4.37931 1-1.3448.65516-2.6207 1.6207-3.51727 2.86207l2.89657 4.75863c.27586-1.10347.93101-2.03449 1.86207-2.75863Z" fill="#111928"/><path d="M21.2414 8.24121h-5.7931c1 1 1.6896 2.31039 1.6896 3.75859 0 1.069-.3103 2.0345-.8965 2.9311l-4.1379 7.0689c2.7241-.0344 5.0689-1 7-2.9655C21.0345 17.0688 22 14.724 22 11.9998c0-1.2758-.2069-2.62066-.7586-3.75859Z" fill="#111928"/><path d="M12.0001 8.20703c2.069 0 3.7931 1.72414 3.7931 3.79307 0 2.069-1.7241 3.7931-3.7931 3.7931-2.06897 0-3.79307-1.7241-3.79307-3.7931 0-2.06897 1.7241-3.79307 3.79307-3.79307Z" fill="#111928"/></svg>