<svg width="24" height="24" viewBox="0 0 24 24" fill="none" xmlns="http://www.w3.org/2000/svg"><path d="M18.6751 10.2375c-.375 0-.7125.0375-1.0875.1125v-.225c0-3.03748-2.5125-5.47498-5.625-5.47498s-5.625 2.475-5.625 5.47498v.225c-.3375-.075-.7125-.1125-1.0875-.1125-2.5875 0-4.650002 2.0625-4.650002 4.575s2.100002 4.575 4.650002 4.575h13.35c2.5875 0 4.65-2.0625 4.65-4.575s-1.9875-4.575-4.575-4.575Zm0 7.425h-13.35c-1.65 0-2.9625-1.275-2.9625-2.8875 0-1.575 1.35-2.8875 2.9625-2.8875.6375 0 1.2.1875 1.725.525.3.225.7125.1875 1.0125-.0375.3-.225.4125-.6.2625-.975-.15-.4125-.225-.8625-.225-1.3125 0-2.09998 1.7625-3.78748 3.9375-3.78748s3.9375 1.725 3.9375 3.78748c0 .45-.075.9-.225 1.3125-.1125.3375-.0375.75.2625.975.3.225.7125.225 1.0125.0375.525-.3375 1.0875-.525 1.725-.525 1.65 0 2.9625 1.275 2.9625 2.8875-.0375 1.6125-1.3875 2.8875-3.0375 2.8875Z" fill="#111928"/><path d="m13.3125 13.275-.4875.4875V11.1c0-.45-.375-.8625-.825-.8625-.45 0-.825.375-.8625.825v2.6625l-.4875-.45c-.3375-.3375-.8625-.3-1.2.0375-.3375.3375-.3.8625.0375 1.2L11.4 16.35c.15.15.375.225.6.225.225 0 .4125-.075.6-.225l1.9125-1.8375c.3375-.3375.3375-.8625.0375-1.2-.3375-.3375-.9-.375-1.2375-.0375Z" fill="#111928"/></svg>