<svg width="24" height="24" viewBox="0 0 24 24" fill="none" xmlns="http://www.w3.org/2000/svg"><path d="M21.0002 2.77502h-18c-1.275 0-2.362505 1.05-2.362505 2.3625v8.47498c0 1.275 1.050005 2.3625 2.362505 2.3625h8.175v3.5625H8.70019c-.45 0-.8625.375-.8625.8625 0 .4875.375.8625.8625.8625h6.67501c.45 0 .8625-.375.8625-.8625 0-.4875-.375-.8625-.8625-.8625h-2.475V15.975h8.1c1.275 0 2.3625-1.05 2.3625-2.3625V5.13752c0-1.3125-1.0875-2.3625-2.3625-2.3625Zm.675 10.83748c0 .375-.3.675-.675.675h-18c-.375 0-.675-.3-.675-.675V5.13752c0-.375.3-.675.675-.675h18c.375 0 .675.3.675.675v8.47498Z" fill="#111928"/><path d="M16.9126 6.60005c-.3375-.3375-.8625-.3375-1.2 0-.3375.3375-.3375.8625 0 1.2l1.3875 1.3875-1.35 1.38745c-.3375.3375-.3375.8625 0 1.2.15.15.375.2625.6.2625.225 0 .45-.075.6-.2625l1.875-1.87495c.375-.375.375-.975 0-1.35l-1.9125-1.95ZM6.8627 9.33755l1.35-1.35c.3375-.3375.3375-.8625 0-1.2-.3375-.3375-.8625-.3375-1.2 0l-1.875 1.875c-.375.375-.375.975 0 1.34995l1.9125 1.9125c.15.15.375.2625.6.2625.225 0 .45-.075.6-.2625.3375-.3375.3375-.8625 0-1.2L6.8627 9.33755ZM13.1625 6.4125c-.45-.1875-.9375.0375-1.0875.4875l-1.725 4.35c-.1875.45.0375.9375.4875 1.0875.1125.0375.1875.075.3.075.3375 0 .6375-.1875.7875-.525L13.65 7.5c.15-.4125-.0375-.9375-.4875-1.0875Z" fill="#111928"/></svg>