<svg width="24" height="24" viewBox="0 0 24 24" fill="none" xmlns="http://www.w3.org/2000/svg"><path d="M21.0002 1.38751h-18c-1.275 0-2.362505 1.05-2.362505 2.3625V20.2875c0 1.275 1.050005 2.3625 2.362505 2.3625h18c1.275 0 2.3625-1.05 2.3625-2.3625V3.71251c0-1.275-1.0875-2.325-2.3625-2.325Zm-18 1.6875h18c.375 0 .675.3.675.675v2.325H2.3627v-2.3625c0-.3375.2625-.6375.6375-.6375Zm18 17.84999h-18c-.375 0-.675-.3-.675-.675V7.72501h19.3125V20.25c.0375.375-.2625.675-.6375.675Z" fill="#111928"/><path d="M7.875 17.2125h-.0375v-1.875c0-.225-.075-.4125-.225-.5625l-.5625-.6.5625-.6c.15-.15.225-.375.225-.5625v-1.65h.0375c.45 0 .8625-.375.8625-.8625 0-.4875-.375-.86249-.8625-.86249h-.9c-.45 0-.8625.37499-.8625.86249v2.175l-.825.9375c-.3.3375-.3.825 0 1.125l.825.9375v2.4c0 .45.375.8625.8625.8625h.9c.45 0 .8625-.375.8625-.8625 0-.4875-.4125-.8625-.8625-.8625ZM17.8502 12.675V10.5c0-.45-.375-.86249-.8625-.86249h-.8625c-.45 0-.8625.37499-.8625.86249s.375.8625.8625.8625h.0375v1.65c0 .225.075.4125.225.5625l.5625.6-.5625.6c-.15.15-.225.375-.225.5625v1.875h-.0375c-.45 0-.8625.375-.8625.8625 0 .4875.375.8625.8625.8625h.9c.45 0 .8625-.375.8625-.8625v-2.4l.825-.9375c.3-.3375.3-.825 0-1.125l-.8625-.9375Z" fill="#111928"/></svg>