<svg width="24" height="24" viewBox="0 0 24 24" fill="none" xmlns="http://www.w3.org/2000/svg"><path d="M12 22.95c-.4061 0-.7754-.1125-1.1446-.3l-7.38461-4.3125c-.70154-.4125-1.14462-1.2-1.14462-2.025V7.68752c0-.825.44308-1.6125 1.14462-2.025l7.38461-4.3125c.7015-.412496 1.5877-.412496 2.2892 0l7.3847 4.3125c.7015.4125 1.1446 1.2 1.1446 2.025V16.35c0 .825-.4431 1.6125-1.1446 2.025l-7.3847 4.3125c-.3692.1875-.7384.2625-1.1446.2625Zm-.3323-20.13748-7.3846 4.3125c-.18462.1125-.33231.3375-.33231.5625V16.35c0 .225.11077.45.33231.5625l7.3846 4.3125c.1846.1125.4431.1125.6277 0l7.3846-4.3125c.1846-.1125.3323-.3375.3323-.5625V7.68752c0-.225-.1107-.45-.3323-.5625l-7.3846-4.3125c-.1846-.1125-.4062-.1125-.6277 0Z" fill="#111928"/><path d="M11.9999 16.5375c-2.47383 0-4.46767-2.025-4.46767-4.5375 0-2.51248 1.99384-4.53748 4.46767-4.53748 2.4739 0 4.4677 2.025 4.4677 4.53748 0 2.5125-1.9938 4.5375-4.4677 4.5375Zm0-7.38748c-1.5507 0-2.80613 1.27498-2.80613 2.84998s1.25543 2.85 2.80613 2.85c1.5508 0 2.8062-1.275 2.8062-2.85 0-1.575-1.2554-2.84998-2.8062-2.84998Z" fill="#111928"/></svg>