<svg width="24" height="24" viewBox="0 0 24 24" fill="none" xmlns="http://www.w3.org/2000/svg"><g clip-path="url(#clip0_310_8836)" fill="#111928"><path d="M16.1252 12.7875c-1.8 0-3.3 1.5-3.3 3.3 0 1.8 1.4625 3.3 3.3 3.3s3.3-1.5 3.3-3.3c0-1.8-1.5-3.3-3.3-3.3Zm0 4.95c-.9 0-1.6125-.7125-1.6125-1.6125s.7125-1.6125 1.6125-1.6125 1.6125.7125 1.6125 1.6125c0 .8625-.7125 1.6125-1.6125 1.6125Z"/><path d="m23.1752 17.325-1.1625-.6375c.0375-.225.0375-.45.0375-.6375 0-.225 0-.45-.0375-.6375l1.2-.675c.45-.2625.6-.7875.4125-1.275l-1.425-2.4375c-.2625-.4125-.7875-.6-1.2375-.4125l-1.3125.7125-.0375-.0375c-.225-.1875-.4875-.4125-.825-.6V9.9c0-.7875-.6375-1.4625-1.4625-1.4625h-2.4375c-.7875 0-1.4625.6375-1.4625 1.4625v.7875c-.3375.1875-.6.4125-.8625.6l-1.0875-.6c-.675-.375-1.2375-.1125-1.4625.3L8.66274 13.275c-.15.225-.1875.525-.1125.7875.075.2625.2625.4875.4875.6l1.19996.6375c-.0375.1875-.0375.4125-.0375.6375 0 .225 0 .4125.0375.6375l-1.23746.7875c-.45.2625-.6.7875-.4125 1.275l1.42496 2.4375c.2625.4125.7875.6 1.2375.4125l1.3125-.7125s.0375 0 .0375.0375c.2625.225.4875.4125.8625.6v.9c0 .7875.6375 1.4625 1.4625 1.4625h2.4375c.7875 0 1.4625-.6375 1.4625-1.4625v-.9375c.3375-.1875.5625-.375.825-.6 0 0 .0375 0 .0375-.0375l1.0875.6c.675.375 1.2375.1125 1.4625-.3l1.35-2.2875c.15-.225.1875-.525.1125-.7875-.1125-.3-.2625-.525-.525-.6375Zm-2.85-1.95c.0375.1875.0375.4125.0375.675 0 .225 0 .45-.075.675-.075.525.15 1.05.6375 1.3125l.825.45-.675 1.125-.9-.525c-.45-.2625-.975-.1875-1.35.1125-.1125.075-.225.1875-.3.2625-.225.1875-.375.3375-.6.4125-.4875.225-.825.75-.825 1.3125v.8625h-1.9875v-.825c0-.5625-.3375-1.0875-.825-1.3125-.225-.1125-.375-.225-.6-.45-.1125-.075-.1875-.15-.3-.2625-.375-.3-.9375-.3375-1.35-.1125l-.9.525-.675-1.125.8625-.4875c.45-.2625.7125-.75.6375-1.275-.0375-.225-.0375-.45-.0375-.675 0-.2625 0-.45.0375-.675.075-.525-.15-1.05-.6375-1.3125l-.825-.45.6375-1.125.9.4875c.45.2625.975.1875 1.35-.1125.1125-.075.1875-.15.3-.2625.225-.225.4125-.3375.6-.45.4875-.225.825-.75.825-1.3125v-.7125h1.9875v.675c0 .5625.3375 1.0875.825 1.3125.1875.1125.3375.225.6.4125.1125.075.225.1875.3375.2625.375.3.9.3375 1.35.1125l.9-.525.675 1.125-.8625.4875c-.45.3375-.7125.8625-.6 1.3875ZM5.7376 4.34998c-.75 0-1.3875.6375-1.3875 1.3875s.6375 1.3875 1.3875 1.3875 1.3875-.6375 1.3875-1.3875-.6-1.3875-1.3875-1.3875Z"/><path d="m10.125 9.22495.9375-1.575c.1125-.225.15-.4875.1125-.75-.0375-.2625-.225-.45-.45-.5625l-.675-.3375v-.6l.675-.375c.4125-.225.6-.75.4125-1.2l-1.0125-1.6875c-.225-.375-.75-.5625-1.1625-.375l-.75.4125c-.1125-.075-.225-.1875-.3375-.2625v-.375C7.875.824951 7.3125.262451 6.6.262451H4.9125c-.7125 0-1.275.5625-1.275 1.274999v.375c-.1125.1125-.225.1875-.3375.3l-.6-.3375c-.6-.3375-1.125-.075-1.35.3l-.9375 1.575c-.1125.225-.15.4875-.1125.75.075.2625.225.45.45.5625l.6375.375v.5625l-.6375.375c-.4125.225-.6.75-.4125 1.2l.975 1.6875c.225.4125.75.5625 1.1625.375l.75-.4125c.1125.075.225.1875.375.2625v.45c0 .71255.5625 1.27505 1.275 1.27505h1.6875c.7125 0 1.275-.5625 1.275-1.27505v-.4875c.1125-.075.225-.1875.3375-.2625l.6.3375c.5625.3375 1.125.1125 1.35-.3Zm-2.7-1.575c-.075.075-.15.1125-.225.1875-.15.15-.225.1875-.3375.2625-.45.225-.7125.6375-.7125 1.125v.3h-.825v-.3c0-.4875-.3-.9375-.7125-1.125-.1125-.0375-.1875-.1125-.375-.2625-.075-.075-.15-.1125-.225-.1875-.3375-.3-.825-.3375-1.2375-.1125l-.375.225-.15-.3.3375-.1875c.4125-.225.6375-.675.5625-1.125 0-.15-.0375-.3-.0375-.45 0-.15 0-.3.0375-.4125.075-.45-.15-.9375-.5625-1.1625l-.3375-.1875.1875-.3.375.225c.4125.225.8625.1875 1.2375-.1125.075-.075.15-.1125.1875-.1875.15-.15.2625-.225.375-.2625.45-.225.7125-.6375.7125-1.125v-.1875h.825v.1875c0 .4875.2625.9375.7125 1.125.1125.0375.1875.1125.3375.2625.075.075.15.1125.225.1875.3375.3.825.3375 1.2375.1125l.375-.225.1875.3-.3375.1875c-.4125.225-.6375.7125-.5625 1.1625.0375.1125.0375.2625.0375.4125 0 .15 0 .2625-.0375.4125-.075.4875.15.9375.5625 1.1625l.3.1875-.1875.3-.375-.225c-.375-.225-.8625-.1875-1.2.1125Z"/></g><defs><clipPath id="clip0_310_8836"><path fill="#fff" d="M0 0h24v24H0z"/></clipPath></defs></svg>