<svg width="24" height="24" viewBox="0 0 24 24" fill="none" xmlns="http://www.w3.org/2000/svg"><path d="M18.1498.675049h-12.3c-1.275 0-2.3625 1.050001-2.3625 2.362501V21.0375c0 1.275 1.05 2.3625 2.3625 2.3625h12.2625c1.275 0 2.3625-1.05 2.3625-2.3625V3.00005c0-1.275-1.05-2.325001-2.325-2.325001ZM18.7873 21c0 .375-.3.675-.675.675H5.8498c-.375 0-.675-.3-.675-.675V3.00005c0-.375.3-.675.675-.675h12.2625c.375 0 .675.3.675.675V21Z" fill="#111928"/><path d="M15.8249 5.40005h-5.85v-.1125c0-.45-.375-.8625-.8625-.8625-.4875 0-.8625.375-.8625.8625v.1125h-.1125c-.45 0-.8625.375-.8625.8625 0 .4875.375.8625.8625.8625h.1125v.1125c0 .45.375.8625.8625.8625.4875 0 .8625-.375.8625-.8625v-.1125h5.85c.45 0 .8625-.375.8625-.8625 0-.4875-.4125-.8625-.8625-.8625ZM15.825 11.1751h-.1125v-.1125c0-.45-.375-.8625-.8625-.8625-.4875 0-.8625.375-.8625.8625v.1125H8.175c-.45 0-.8625.375-.8625.8625 0 .45.375.8625.8625.8625h5.85v.1125c0 .45.375.8625.8625.8625.4875 0 .8625-.375.8625-.8625v-.1125h.1125c.45 0 .8625-.375.8625-.8625-.075-.4875-.45-.8625-.9-.8625ZM15.8249 16.9125h-5.85V16.8c0-.45-.375-.8625-.8625-.8625-.4875 0-.8625.375-.8625.8625v.1125h-.1125c-.45 0-.8625.375-.8625.8625 0 .4875.375.8625.8625.8625h.1125v.1125c0 .45.375.8625.8625.8625.4875 0 .8625-.375.8625-.8625v-.1125h5.85c.45 0 .8625-.375.8625-.8625 0-.4875-.4125-.8625-.8625-.8625Z" fill="#111928"/></svg>