<svg width="24" height="24" viewBox="0 0 24 24" fill="none" xmlns="http://www.w3.org/2000/svg"><g clip-path="url(#clip0_310_9264)" fill="#111928"><path d="M20.9998 8.62501h-7.725v-5.625c0-1.275-1.05-2.362498-2.325-2.362498h-7.95C1.7248.675012.674805 1.72501.674805 3.00001V12.225c0 1.275 1.049995 2.3625 2.362495 2.3625h6.975V21c0 1.275 1.05 2.3625 2.3625 2.3625h8.625c1.275 0 2.3625-1.05 2.3625-2.3625V10.95c0-1.27499-1.0875-2.32499-2.3625-2.32499Zm-18 4.23749c-.375 0-.675-.3-.675-.675V3.00001c.0375-.375.3-.6375.675-.6375h7.95c.375 0 .6375.3.6375.675v5.7375c-.9375.3-1.6125 1.2-1.6125 2.21249V12.9h-6.975v-.0375ZM21.6748 21c0 .375-.3.675-.675.675h-8.6625c-.375 0-.675-.3-.675-.675V10.95c0-.375.3-.675.675-.675h8.6625c.375 0 .675.3.675.675V21Z"/><path d="M19.0872 11.775h-4.8375c-.45 0-.8625.375-.8625.8625 0 .45.375.8625.8625.8625h4.875c.45 0 .8625-.375.8625-.8625-.0375-.4875-.4125-.8625-.9-.8625ZM19.0872 15.1875h-4.8375c-.45 0-.8625.375-.8625.8625 0 .4875.375.8625.8625.8625h4.875c.45 0 .8625-.375.8625-.8625 0-.4875-.4125-.8625-.9-.8625ZM19.0872 18.5625h-4.8375c-.45 0-.8625.375-.8625.8625 0 .4875.375.8625.8625.8625h4.875c.45 0 .8625-.375.8625-.8625 0-.4875-.4125-.8625-.9-.8625Z"/></g><defs><clipPath id="clip0_310_9264"><path fill="#fff" d="M0 0h24v24H0z"/></clipPath></defs></svg>