<svg width="24" height="24" viewBox="0 0 24 24" fill="none" xmlns="http://www.w3.org/2000/svg"><path d="m21.2249 4.95001-3.9375-3.9c-.2625-.262498-.6375-.412498-1.0125-.412498h-6.825c-1.0875 0-1.9875.899998-1.9875 1.987498V16.3125c0 1.0875.9 1.9875 1.9875 1.9875h10.2c1.0875 0 1.9875-.9 1.9875-1.9875V5.96251c0-.375-.15-.75-.4125-1.0125Zm-3.8625-1.425 1.425 1.425h-1.425v-1.425Zm2.2875 13.08749h-10.2c-.15 0-.3-.15-.3-.3V2.62501c0-.15.15-.3.3-.3h6.225v3.45c0 .45.375.8625.8625.8625h3.4125V16.35c0 .15-.15.2625-.3.2625Z" fill="#111928"/><path d="M16.5371 8.4375h-4.95c-.45 0-.8625.375-.8625.8625 0 .4875.375.8625.8625.8625h4.95c.45 0 .8625-.375.8625-.8625 0-.4875-.4125-.8625-.8625-.8625ZM16.5371 11.5875h-4.95c-.45 0-.8625.375-.8625.8625 0 .45.375.8625.8625.8625h4.95c.45 0 .8625-.375.8625-.8625-.0375-.4875-.4125-.8625-.8625-.8625Z" fill="#111928"/><path d="M15.6748 19.5c-.45 0-.8625.375-.8625.8625v1.0125c0 .15-.15.3-.3.3H4.3498c-.15 0-.3-.15-.3-.3V7.65c0-.15.15-.3.3-.3h1.275c.45 0 .8625-.375.8625-.8625 0-.4875-.375-.8625-.8625-.8625h-1.275c-1.0875 0-1.9875.9-1.9875 1.9875V21.375c0 1.0875.9 1.9875 1.9875 1.9875h10.2c1.0875 0 1.9875-.9 1.9875-1.9875v-1.0125c0-.4875-.375-.8625-.8625-.8625Z" fill="#111928"/></svg>