<svg width="24" height="24" viewBox="0 0 24 24" fill="none" xmlns="http://www.w3.org/2000/svg"><path d="M15.8998.674988h-7.8c-1.275 0-2.3625 1.050002-2.3625 2.362502V21.0375c0 1.275 1.05 2.3625 2.3625 2.3625h7.8c1.275 0 2.3625-1.05 2.3625-2.3625V2.99999c0-1.275-1.0875-2.325002-2.3625-2.325002ZM16.5748 21c0 .375-.3.675-.675.675h-7.8c-.375 0-.675-.3-.675-.675V2.99999c0-.375.3-.675.675-.675h7.8c.375 0 .675.3.675.675V21Z" fill="#111928"/><path d="M10.5749 6.52499h2.8875c.45 0 .8625-.375.8625-.8625 0-.4875-.375-.8625-.8625-.8625h-2.8875c-.45 0-.8625.375-.8625.8625 0 .4875.375.8625.8625.8625ZM10.5749 10.5375h2.8875c.45 0 .8625-.375.8625-.8625 0-.4875-.375-.8625-.8625-.8625h-2.8875c-.45 0-.8625.375-.8625.8625 0 .4875.375.8625.8625.8625ZM13.8372 15.4125c-.45.1125-.7125.5625-.6375 1.0125.0375.1125.0375.1875.0375.3 0 .675-.5625 1.2375-1.2375 1.2375s-1.2375-.5625-1.2375-1.2375c0-.1125 0-.225.0375-.3375.1125-.45-.1125-.9-.5625-1.05-.44999-.1125-.89999.15-1.04999.5625-.075.2625-.1125.525-.1125.825 0 1.6125 1.31249 2.925 2.92499 2.925 1.6125 0 2.925-1.3125 2.925-2.925 0-.225-.0375-.4875-.075-.7125-.1125-.45-.5625-.7125-1.0125-.6Z" fill="#111928"/><path d="M11.1748 13.275v2.7c0 .45.375.8625.8625.8625.45 0 .8625-.375.8625-.8625v-2.7c0-.45-.375-.8625-.8625-.8625-.4875 0-.8625.375-.8625.8625Z" fill="#111928"/></svg>