<svg width="24" height="24" viewBox="0 0 24 24" fill="none" xmlns="http://www.w3.org/2000/svg"><g clip-path="url(#clip0_310_8762)" fill="#111928"><path d="M12.0002 5.4375c-6.26251 0-11.362505 5.5125-11.362505 12.3 0 .45.375005.8625.862505.8625h21c.45 0 .8625-.375.8625-.8625 0-6.7875-5.1-12.3-11.3625-12.3Zm-.375 11.4375.375-1.1625.375 1.1625h-.75Zm2.5125 0-1.0125-3.15c-.15-.4875-.6-.825-1.125-.825s-.975.3375-1.125.825l-1.01251 3.15H2.3627c.4125-5.4375 4.57499-9.75 9.6375-9.75 5.0625 0 9.225 4.3125 9.6375 9.75h-7.5Z"/><path d="M12.0002 9.33752c-.45 0-.8625.375-.8625.86248v.9375c0 .45.375.8625.8625.8625.45 0 .8625-.375.8625-.8625V10.2c0-.48748-.4125-.86248-.8625-.86248ZM17.4 12.1125l-.6.6c-.3375.3375-.3375.8625 0 1.2.15.15.375.225.6.225.225 0 .45-.075.6-.2625l.6-.6c.3375-.3375.3375-.8625 0-1.2-.3375-.3375-.8625-.3-1.2.0375ZM6.6376 12.1125c-.3-.3375-.8625-.375-1.2-.075-.3375.3-.375.8625-.075 1.2l.5625.6c.15.1875.4125.2625.6375.2625.1875 0 .4125-.075.5625-.225.3375-.3.375-.8625.075-1.2l-.5625-.5625Z"/></g><defs><clipPath id="clip0_310_8762"><path fill="#fff" d="M0 0h24v24H0z"/></clipPath></defs></svg>