<svg width="24" height="24" viewBox="0 0 24 24" fill="none" xmlns="http://www.w3.org/2000/svg"><path d="M20.1748 7.0875c-2.0625-2.175-4.95-3.525-8.175-3.525-6.2625 0-11.324995 5.1-11.324995 11.3625 0 1.7625.412495 3.4875 1.162495 5.025.1125.225.3.375.525.45.075 0 .1125.0375.1875.0375h.1875c.075 0 .1875-.0375.2625-.075l1.5375-.75c.4125-.1875.6-.7125.375-1.125-.225-.4125-.7125-.6-1.125-.375l-.75.375c-.45-1.0875-.6375-2.25-.675-3.45h1.575c.45 0 .8625-.375.8625-.8625 0-.4875-.375-.8625-.8625-.8625H2.4748c.2625-1.65.975-3.15 1.9875-4.3875l1.35 1.35c.15.15.375.2625.6.2625.225 0 .45001-.075.60001-.2625.3375-.3375.3375-.8625 0-1.2L5.6248 7.6875c1.5-1.3125 3.4125-2.2125 5.55-2.3625v2.2875c0 .45.375.8625.8625.8625.45 0 .8625-.375.8625-.8625V5.325c2.1.1875 4.05 1.05 5.55 2.3625l-1.05 1.05c-.3375.3375-.3375.8625 0 1.2.15.15.375.2625.6.2625.225 0 .45-.075.6-.2625l1.0125-1.0125c1.0125 1.2375 1.6875 2.7375 1.9875 4.3875h-1.4625c-.45 0-.8625.375-.8625.8625 0 .4875.375.8625.8625.8625h1.575c0 1.2-.225 2.3625-.675 3.4875l-.75-.375c-.4125-.225-.9375-.0375-1.125.375s-.0375.9375.375 1.125l1.5375.75c.1125.075.2625.075.375.075h.075c.3 0 .6-.1875.75-.45.7875-1.5375 1.1625-3.3 1.1625-5.025-.075-3.1125-1.3125-5.8875-3.2625-7.9125Z" fill="#111928"/><path d="m14.2871 12.9-2.5125 1.875c-.45.075-.8625.3375-1.125.7125-.0375.075-.075.1125-.1125.1875l-.075.075h.0375c-.4125.7875-.1875 1.7625.5625 2.325.75.525 1.7625.45 2.3625-.1875h.0375l.0375-.075c.0375-.0375.1125-.1125.15-.1875.3-.375.375-.8625.3375-1.3125l.975-3c.1125-.3375-.3375-.6375-.675-.4125Z" fill="#111928"/></svg>