<svg width="24" height="24" viewBox="0 0 24 24" fill="none" xmlns="http://www.w3.org/2000/svg"><path d="M12.0001.675049c-4.3875 0-7.8375 2.062501-7.8375 4.650001V18.6751c0 2.5875 3.525 4.65 7.8 4.65 4.3125 0 7.8375-2.1001 7.8375-4.65V5.32505c.0375-2.625-3.4125-4.650001-7.8-4.650001Zm0 1.687501c3.6 0 6.15 1.575 6.15 2.9625 0 1.425-2.5125 2.9625-6.15 2.9625s-6.15-1.575-6.15-2.9625c0-1.425 2.55-2.9625 6.15-2.9625Zm0 19.31255c-3.525 0-6.1125-1.575-6.1125-2.9625V17.25c1.425 1.0501 3.6 1.6876 6.1125 1.6876 2.5125 0 4.725-.675 6.15-1.6876v1.4626c0 1.3875-2.625 2.9625-6.15 2.9625Zm0-4.4251c-3.6 0-6.1125-1.4999-6.1125-2.8499V12.675c1.4625 1.05 3.75 1.6875 6.1125 1.6875 2.475 0 4.6875-.6375 6.15-1.6875v1.7251c0 1.35-2.55 2.8499-6.15 2.8499Zm5.175-5.9625c-1.1625.8626-3.075 1.3875-5.175 1.3875-2.0625 0-4.0125-.5249-5.175-1.3875-.45-.3-.9375-.8249-.9375-1.46245v-1.575c1.425 1.05 3.6375 1.725 6.15 1.725s4.725-.675 6.15-1.725v1.575c-.0375.59995-.5625 1.12505-1.0125 1.46245Z" fill="#111928"/></svg>