<svg width="24" height="24" viewBox="0 0 24 24" fill="none" xmlns="http://www.w3.org/2000/svg"><path d="M18.675 18.7125c.45 0 .8625-.375.8625-.8625 0-.4875-.375-.8625-.8625-.8625h-.8625c.4125-.375.975-.6 1.575-.6.7875 0 1.5375.375 1.95.975.2625.375.7875.4875 1.1625.225.375-.2625.4875-.7875.225-1.1625-.75-1.0875-1.9875-1.725-3.3375-1.725-1.8 0-3.4125 1.2-3.8625 2.8875-.075.2625 0 .525.15.75.15.225.4125.3375.675.3375h2.325v.0375ZM23.1746 19.05c-.15-.225-.4125-.3375-.675-.3375h-2.0625c-.45 0-.8625.375-.8625.8625 0 .4875.375.8625.8625.8625h.675c-.45.45-1.05.75-1.725.75-.6375 0-1.275-.2625-1.725-.75-.3-.3375-.8625-.375-1.2-.0375-.3375.3-.375.8625-.0375 1.2.75.825 1.8375 1.3125 2.9625 1.3125 1.8375 0 3.45-1.275 3.9375-3.075.075-.3 0-.5625-.15-.7875Z" fill="#111928"/><path d="M13.7998 14.9625c-1.0875.15-2.2125.225-3.3375.225-5.24999 0-8.1375-1.575-8.1375-2.3625v-1.2375c1.875 1.125 5.02501 1.6875 8.1375 1.6875 3.1125 0 6.2625-.5625 8.1375-1.6875v.8625c0 .45.375.8625.8625.8625.4875 0 .8625-.375.8625-.8625V5.21248c0-2.6625-4.95-4.05-9.825-4.05-4.87499 0-9.749995 1.35-9.824995 3.975V16.4625c0 2.625 5.062505 4.05 9.824995 4.05.825 0 1.65-.0375 2.475-.1125.45-.0375.7875-.45.75-.9375-.0375-.4875-.45-.7875-.9375-.75-.75.075-1.5.1125-2.2875.1125-5.02499 0-8.1375-1.5375-8.1375-2.3625V15.225c1.875 1.125 5.02501 1.6875 8.1375 1.6875 1.2375 0 2.4375-.075 3.6-.2625.45-.075.7875-.4875.7125-.975-.1125-.45-.525-.7875-1.0125-.7125Zm-3.3375-3.375c-5.24999 0-8.1375-1.575-8.1375-2.36252v-1.6875c1.875 1.125 5.02501 1.6875 8.1375 1.6875 3.1125 0 6.2625-.5625 8.1375-1.6875v1.6875c-.0375.82502-2.8875 2.36252-8.1375 2.36252Zm0-8.73752c5.25 0 8.1 1.5375 8.1375 2.3625-.0375.7875-2.8875 2.3625-8.1375 2.3625-5.24999 0-8.1375-1.575-8.1375-2.3625 0-.7875 2.88751-2.3625 8.1375-2.3625Z" fill="#111928"/></svg>