<svg width="24" height="24" viewBox="0 0 24 24" fill="none" xmlns="http://www.w3.org/2000/svg"><path d="M21.0002 1.42505h-18c-1.275 0-2.362505 1.05-2.362505 2.3625V15.1125c0 1.275 1.050005 2.3625 2.362505 2.3625h5.88749l-.9375 3.45H6.2627c-.45 0-.86251.375-.86251.8625 0 .4875.37501.8625.86251.8625h11.4375c.45 0 .8625-.375.8625-.8625 0-.4875-.375-.8625-.8625-.8625h-1.6875l-.9375-3.45h5.925c1.275 0 2.3625-1.05 2.3625-2.3625V3.78755c0-1.3125-1.0875-2.3625-2.3625-2.3625Zm-6.675 19.46255H9.67519l.93751-3.4501h2.7375l.975 3.4501Zm7.35-5.8126c0 .375-.3.675-.675.675h-18c-.375 0-.675-.3-.675-.675V3.78755c0-.375.3-.675.675-.675h18c.375 0 .675.3.675.675V15.075Z" fill="#111928"/></svg>