<svg width="24" height="24" viewBox="0 0 24 24" fill="none" xmlns="http://www.w3.org/2000/svg"><g clip-path="url(#clip0_310_8903)"><path d="M21.0373 3.52502H2.9623c-1.275 0-2.287495 1.0125-2.287495 2.2875v8.54998c0 1.275 1.012495 2.2875 2.287495 2.2875h8.2125v2.1375H8.21231c-.45001 0-.86251.375-.86251.8625 0 .4875.375.8625.86251.8625h7.64999c.45 0 .8625-.375.8625-.8625 0-.4875-.375-.8625-.8625-.8625h-2.9625V16.65h8.2125c1.275 0 2.2875-1.0125 2.2875-2.2875V5.81252c-.0375-1.275-1.0875-2.2875-2.3625-2.2875Zm.6375 10.83748c0 .3375-.2625.6-.6.6H2.9623c-.3375 0-.6-.2625-.6-.6V5.81252c0-.3375.2625-.6.6-.6h18.1125c.3375 0 .6.2625.6.6v8.54998Z" fill="#111928"/></g><defs><clipPath id="clip0_310_8903"><path fill="#fff" d="M0 0h24v24H0z"/></clipPath></defs></svg>