<svg width="24" height="24" viewBox="0 0 24 24" fill="none" xmlns="http://www.w3.org/2000/svg"><path d="M2.88759 13.7999c-.3375 0-.6375-.15-.825-.4125L.787593 11.5499c-.2625-.375-.15-.9.224997-1.1625.375-.2625.9-.15 1.1625.225l.675 1.0125.5625-.825c.1875-.2625.4875-.4125.825-.4125.3375 0 .6375.15.825.4125l.5625.825.675-1.0125c.2625-.375.7875-.4875 1.1625-.225.375.2625.4875.7875.225 1.1625l-1.275 1.8375c-.1875.2625-.4875.4125-.825.4125-.3375 0-.6375-.15-.825-.4125l-.5625-.825-.5625.825c-.1125.2625-.4125.4125-.75.4125ZM10.6127 13.7999c-.3375 0-.63751-.15-.82501-.4125l-1.275-1.8375c-.2625-.375-.15-.9.225-1.1625.375-.2625.9-.15 1.1625.225l.67501 1.0125.5625-.825c.1875-.2625.4875-.4125.825-.4125.3375 0 .6375.15.825.4125l.5625.825.675-1.0125c.2625-.375.7875-.4875 1.1625-.225.375.2625.4875.7875.225 1.1625l-1.275 1.8375c-.1875.2625-.4875.4125-.825.4125-.3375 0-.6375-.15-.825-.4125l-.4875-.8625-.5625.825c-.1875.3-.4875.45-.825.45ZM21.1128 13.7999c-.3375 0-.6375-.15-.825-.4125l-.5625-.825-.5625.825c-.1875.2625-.4875.4125-.825.4125-.3375 0-.6375-.15-.825-.4125l-1.275-1.8375c-.2625-.375-.15-.9.225-1.1625.375-.2625.9-.15 1.1625.225l.675 1.0125.5625-.825c.1875-.2625.4875-.4125.825-.4125.3375 0 .6375.15.825.4125l.5625.825.675-1.0125c.2625-.375.7875-.4875 1.1625-.225.375.2625.4875.7875.225 1.1625l-1.275 1.8375c-.1125.2625-.4125.4125-.75.4125Z" fill="#111928"/></svg>