<svg width="24" height="24" viewBox="0 0 24 24" fill="none" xmlns="http://www.w3.org/2000/svg"><path d="M22.5002 16.5c-.45 0-.8625.375-.8625.8625V20.7c0 .3375-.2625.6-.6.6H2.9627c-.3375 0-.6-.2625-.6-.6v-3.3375c0-.4875-.4125-.8625-.8625-.8625-.45 0-.862505.375-.862505.8625V20.7c0 1.275 1.012505 2.2875 2.287505 2.2875h18.1125c1.275 0 2.2875-1.0125 2.2875-2.2875v-3.3375c.0375-.4875-.375-.8625-.825-.8625Z" fill="#111928"/><path d="M11.4004 17.4375c.15.15.375.225.6.225.225 0 .4125-.075.6-.225l5.4375-5.2875c.3375-.3375.3375-.8625 0-1.2-.3375-.3375-.8625-.3375-1.2 0l-3.975 3.9V1.87495c0-.45-.375-.8625-.8625-.8625-.45 0-.8625.375-.8625.8625V14.85l-3.975-3.9c-.3375-.3375-.8625-.3-1.2 0-.3375.3375-.3.8625 0 1.2l5.4375 5.2875Z" fill="#111928"/></svg>