<svg width="24" height="24" viewBox="0 0 24 24" fill="none" xmlns="http://www.w3.org/2000/svg"><path d="M11.6737 7.13721c2.3026-1.11202 4.2063-2.4552 5.5355-3.67491C15.692 2.53464 13.9084 2 11.9999 2c-1.4652 0-2.8568.31512-4.11074.88128.88628 1.0415 2.08303 2.58559 3.34444 4.46338.1481-.06809.2948-.13727.4401-.20745ZM9.82631 7.94086c-1.27005-1.86987-2.45598-3.3741-3.28197-4.32294C4.4875 4.95941 2.9549 7.03748 2.3208 9.47784c2.66136-.04809 5.21463-.64773 7.50551-1.53698ZM10.67 9.22021c.353.55145.7078 1.12709 1.0588 1.72289.4533.7697.8988 1.5709 1.325 2.3953-.8645.3094-1.6869.6642-2.4564 1.0556-1.84629.9394-3.41453 2.1035-4.53062 3.3874-.39259.4516-.73445.9245-1.01245 1.4129C3.17114 17.3758 2 14.8247 2 12c0-.344.01737-.6839.05128-1.019 3.09369-.0113 6.03508-.7214 8.61872-1.76079ZM14.5017 12.8748c-.4763-.9337-.9754-1.835-1.4807-2.6929-.3178-.53959-.6387-1.06322-.959-1.56818.0885-.04158.1765-.0835.264-.12574 2.515-1.21465 4.6403-2.72114 6.1226-4.13105C20.6205 6.19129 21.9998 8.93459 21.9998 12l-.0001.0337c-2.6132-.1476-5.174.1819-7.498.8411ZM13.7251 14.6921c-.8644.3011-1.6844.6507-2.4474 1.0389-1.71622.8731-3.11673 1.9278-4.07876 3.0345-.40895.4704-.73125.9412-.96701 1.4042C7.8618 21.3226 9.85184 22 12.0001 22c1.4429 0 2.8144-.3056 4.0533-.8556-.5104-2.1847-1.3427-4.3753-2.3283-6.4523ZM17.4181 20.4066c-.5266-2.1048-1.3219-4.1899-2.2452-6.1611 2.0913-.5647 4.3803-.8438 6.711-.7158-.4424 2.8822-2.1155 5.359-4.4658 6.8769Z" fill="#111928"/></svg>