<svg width="24" height="24" viewBox="0 0 24 24" fill="none" xmlns="http://www.w3.org/2000/svg"><path d="M8.72118 6.24283C10.1875 4.84024 11.5846 3.50381 12 2c.397 1.44294 1.6988 2.72975 3.0977 4.06944l.1972.18881C17.5038 8.3712 20 10.759 20 14.3474 19.9958 18.5745 16.4107 22 11.9902 22 7.57808 21.9892 4.00569 18.5678 4 14.3474c0-3.5769 2.48719-5.96215 4.68377-8.06873l.02129-.02042.01612-.01542ZM12.2798 7l-1.713 1.67302c-.3614.35297-.3552.91591.0138 1.26173l3.7493 3.51355 2.0496 2.3368c.0705.0804.2064.0587.2451-.0392.8114-2.0503.2833-4.3607-1.3508-5.90901L12.2798 7Zm-3.31172 3.1379-.22388.2546c-1.36342 1.5502-1.96972 3.5753-1.66853 5.573.62927-.8943 1.35023-1.7276 2.15238-2.4877l1.63245-1.5468-1.89242-1.7931Zm6.15032 6.9931c0-1.5845-3.3117-4.3034-3.3117-4.3034s-3.31172 2.7189-3.31172 4.3034c0 1.5845 1.4827 2.869 3.31172 2.869 1.829 0 3.3117-1.2845 3.3117-2.869Z" fill="#111928"/></svg>