<svg width="18" height="23" viewBox="0 0 18 23" fill="none" xmlns="http://www.w3.org/2000/svg"><path d="M17.5528 5.61716 12.4099.455446C12.1118.151815 11.7019 0 11.2919 0H2.34783C1.08075 0 0 1.06271 0 2.39109V20.6089C0 21.8993 1.04348 23 2.34783 23H15.6522C16.9193 23 18 21.9373 18 20.6089V6.75578c0-.4175-.1491-.83499-.4472-1.13862Zm-5.1056-2.73267 2.795 2.80858h-2.795V2.88449Zm3.2422 18.36961H2.34783c-.37267 0-.67081-.3036-.67081-.6831V2.35314c0-.37954.29814-.68317.67081-.68317h8.42237v4.85808c0 .45545.3727.87294.8571.87294h4.7329V20.571c-.0372.3795-.3354.6831-.6708.6831Z" fill="#111928"/><path d="M6.22364 12.1453h-2.7205c-.44721 0-.85714.3795-.85714.8729v5.8069c0 .4555.37267.873.85714.873s.85714-.3796.85714-.873V16.472h1.08075c.4472 0 .85714-.3795.85714-.8729s-.37267-.873-.85714-.873H4.36028v-.8729h1.86336c.4472 0 .85714-.3796.85714-.873s-.37267-.8349-.85714-.8349ZM8.5715 12.1453c-.44721 0-.85714.3795-.85714.8729v5.8069c0 .4555.37267.873.85714.873s.85714-.3796.85714-.873v-5.8449c0-.4554-.40994-.8349-.85714-.8349ZM14.795 15.0297h-1.2298c-.4472 0-.8571.3796-.8571.873s.3726.8729.8571.8729h.3727v1.1766h-1.528v-4.099h2.3106c.4472 0 .8571-.3796.8571-.873s-.3726-.8729-.8571-.8729h-3.1304c-.4473 0-.8572.3795-.8572.8729v5.807c0 .4554.3727.8729.8572.8729h3.2049c.4472 0 .8572-.3795.8572-.8729v-2.8845c0-.4934-.3727-.873-.8572-.873Z" fill="#111928"/></svg>