<svg width="24" height="24" viewBox="0 0 24 24" fill="none" xmlns="http://www.w3.org/2000/svg"><path d="m20.5873 6.22499-5.175-5.1c-.3-.300002-.7125-.450002-1.125-.450002h-9c-1.275 0-2.3625 1.050002-2.3625 2.362502V21.0375c0 1.275 1.05 2.3625 2.3625 2.3625h13.3875c1.275 0 2.3625-1.05 2.3625-2.3625V7.34999c0-.4125-.15-.825-.45-1.125Zm-5.1375-2.7 2.8125 2.775h-2.8125v-2.775ZM18.7123 21.675H5.2873c-.375 0-.675-.3-.675-.675V2.99999c0-.375.3-.675.675-.675h8.475v4.8c0 .45.375.8625.8625.8625h4.7625V21c-.0375.375-.3375.675-.675.675Z" fill="#111928"/><path d="M13.1999 9.89998c-.3375-.3375-.8625-.3375-1.2 0-.3375.33752-.3375.86252 0 1.20002l2.25 2.2875H7.7624c-.45 0-.8625.375-.8625.8625 0 .4875.375.8625.8625.8625h6.4875l-2.25 2.2875c-.3375.3375-.3375.8625 0 1.2.15.15.375.225.6.225.225 0 .45-.075.6-.2625l3.675-3.7125c.3375-.3375.3375-.8625 0-1.2l-3.675-3.75002Z" fill="#111928"/></svg>