<svg width="24" height="24" viewBox="0 0 24 24" fill="none" xmlns="http://www.w3.org/2000/svg"><g clip-path="url(#clip0_310_9046)" fill="#111928"><path d="M7.05 10.5375h7.2c.45 0 .8625-.375.8625-.8625 0-.4875-.375-.8625-.8625-.8625h-7.2c-.45 0-.8625.375-.8625.8625 0 .4875.375.8625.8625.8625ZM7.05 14.5125h7.2c.45 0 .8625-.375.8625-.8625 0-.4875-.375-.8625-.8625-.8625h-7.2c-.45 0-.8625.375-.8625.8625 0 .4875.375.8625.8625.8625ZM16.95 16.8h-9.9c-.45 0-.8625.375-.8625.8625 0 .4875.375.8625.8625.8625h9.9375c.45 0 .8625-.375.8625-.8625 0-.4875-.4125-.8625-.9-.8625Z"/><path d="M21.0373 4.16249h-8.6625l-.7875-1.5c-.4125-.75-1.1625-1.2375-2.02499-1.2375H2.9623c-1.275 0-2.287495 1.0125-2.287495 2.2875V20.2875c0 1.275 1.012495 2.2875 2.287495 2.2875h18.1125c1.275 0 2.2875-1.0125 2.2875-2.2875V6.44999c0-1.275-1.05-2.2875-2.325-2.2875Zm.6375 16.12501c0 .3375-.2625.6-.6.6H2.9623c-.3375 0-.6-.2625-.6-.6V3.71249c0-.3375.2625-.6.6-.6h6.60001c.22499 0 .41249.1125.52499.3375l1.05 1.95c.15.2625.45.45.75.45h9.1875c.3375 0 .6.2625.6.6V20.2875Z"/></g><defs><clipPath id="clip0_310_9046"><path fill="#fff" d="M0 0h24v24H0z"/></clipPath></defs></svg>