<svg width="24" height="24" viewBox="0 0 24 24" fill="none" xmlns="http://www.w3.org/2000/svg"><path d="m14.0925 14.5434.0331.001-.0564-.004c1.416.012 2.9337-1.0188 3.6423-2.1168.9541-1.4779 1.0698-3.98381-.1537-5.97711-.3031-.48663-.6667-.93266-1.0821-1.32736-1.0249-.96557-2.2756-1.65742-3.6372-2.01191-1.3616-.35448-2.7902-.36023-4.15459-.0167-.17688.04414-.35204.09427-.52521.15027-.50852.16721-1.0026.38382-1.47491.64845l.00577-.00465c-.00004.00002.00003-.00002 0 0-.00293.00165-.00595.00335-.00887.005-.00005.00003.00005-.00003 0 0l-.00416.00342.00272-.0026c-.00006.00003.00006-.00004 0 0l-.00272.0026c.7901-.76987 2.03912-1.38678 3.45957-1.68731 1.3667-.28246 2.7774-.27393 4.1405.02504.7733.17599 1.5233.44237 2.2346.79366.1754.08149.3474.16957.5156.26401.3021.16533.5829.3496.8431.55035.111.08354.2197.17016.3261.25977.3371.26136.655.54963.9488.8653.301.30445.5821.62796.8418.96854.911 1.21254 1.5355 2.61636 1.8267 4.10573.2911 1.4894.2413 3.0256-.1459 4.4929-.3871 1.4673-1.1014 2.8275-2.0891 3.9781-.9877 1.1507-2.2231 2.0618-3.6131 2.6649-1.3901.603-2.8985.8822-4.4118.8166-1.5133-.0656-2.99203-.4744-4.32486-1.1955-1.33282-.7211-2.48501-1.7357-3.36982-2.9676-.8848-1.2318-1.47917-2.6488-1.73835-4.1441-.01205-.0912-.02234-.1829-.03265-.2747l-.01284-.1132c-.20681-1.7123.0164-3.44913.64938-5.05302.43492-1.05137 1.31626-2.18639 2.00838-2.54527-.5526 1.056-.90493 2.20554-1.0391 3.39028l.0151-.04934c.20631-.69719.51878-1.35318.92261-1.94654.43046-.63998.96115-1.19836 1.58311-1.65686 2.06737-1.52396 4.84514-1.58983 5.95364-.6196-2.0549.70601-4.29569 3.55757-3.80153 6.90105.05435.3676.14616.7282.27371 1.0762.06333.1727.13546.3423.21618.508-.16427-.4377-.26408-.9525-.27486-1.4708-.01424-.683.12612-1.3721.47734-1.89861.68888-1.03184 1.67816-1.25423 2.20486-1.14078-.122.10415-.233.21711-.3324.33696-.0311.03745-.061.0756-.0899.1144-1.35615 1.82373-.2763 5.09043 3.1688 5.29733l.0267.0018c.0185.001.0371.0019.0556.0027Z" fill="#111928"/><path d="M14.0693 14.5403c.0188.0014.0376.0027.0564.004l-.0564-.004Z" fill="#111928"/></svg>