<svg width="24" height="24" viewBox="0 0 24 24" fill="none" xmlns="http://www.w3.org/2000/svg"><path d="M21.0373 4.16249h-8.6625l-.7875-1.5c-.4125-.75-1.1625-1.2375-2.02499-1.2375H2.9623c-1.275 0-2.287495 1.0125-2.287495 2.2875V20.2875c0 1.275 1.012495 2.2875 2.287495 2.2875h18.1125c1.275 0 2.2875-1.0125 2.2875-2.2875V6.44999c0-1.275-1.05-2.2875-2.325-2.2875Zm-18.075-1.05h6.60001c.22499 0 .41249.1125.52499.3375l1.05 1.95c.15.2625.45.45.75.45h9.1875c.3375 0 .6.2625.6.6v1.05H2.3623v-3.7875c0-.3375.2625-.6.6-.6Zm18.075 17.77501H2.9623c-.3375 0-.6-.2625-.6-.6V9.18749h19.3125V20.2875c0 .3375-.3.6-.6375.6Z" fill="#111928"/></svg>