<svg width="23" height="19" viewBox="0 0 23 19" fill="none" xmlns="http://www.w3.org/2000/svg"><path d="M22.8112 6.536c-.1521-.228-.4182-.342-.6843-.342h-1.4828V4.826c0-.874-.7223-1.558-1.5587-1.558h-8.2881L9.50467.874C9.23854.342 8.70628 0 8.136 0H2.28112C1.0265 0 0 1.026 0 2.28v14.44C0 17.974 1.0265 19 2.28112 19H17.8688c.6843 0 1.2546-.418 1.4827-1.064l3.6118-10.602c.076-.266.038-.57-.1521-.798ZM1.71084 2.28c0-.304.26613-.57.57028-.57h5.77884l1.48273 2.774c.15207.266.45622.456.76041.456h8.6302v1.216H6.88138c-.34217 0-.64632.228-.79839.532L1.90093 17.1c-.11405-.114-.19009-.266-.19009-.418V2.28ZM17.7547 17.29H3.64979l3.76385-9.386H20.9103l-3.1556 9.386Z" fill="#111928"/></svg>