<svg width="24" height="24" viewBox="0 0 24 24" fill="none" xmlns="http://www.w3.org/2000/svg"><path d="M22.8748 7.35V6.1125c0-1.275-1.0125-2.2875-2.2875-2.2875h-8.325l-.1125-.3c-.2625-.675-.9-1.0875-1.6125-1.0875h-7.575C1.6873 2.4375.674805 3.45.674805 4.725v14.5875c0 1.275 1.012495 2.2875 2.287495 2.2875h18.1125c1.275 0 2.2875-1.0125 2.2875-2.2875v-10.8c0-.45-.1875-.8625-.4875-1.1625Zm-2.2875-1.875c.3375 0 .6.2625.6.6v.7125h-7.725l-.525-1.3125h7.65Zm1.0875 13.8375c0 .3375-.2625.6-.6.6H2.9623c-.3375 0-.6-.2625-.6-.6V4.6875c0-.3375.2625-.6.6-.6l7.6125.0375 1.5375 3.825c.1125.3375.45.525.7875.525h8.7375s.0375 0 .0375.0375v10.8Z" fill="#111928"/></svg>