<svg width="24" height="24" viewBox="0 0 24 24" fill="none" xmlns="http://www.w3.org/2000/svg"><path d="M19.7627 3.71248v-1.725c0-.45-.375-.8625-.8625-.8625h-7.3125c-.15-.300004-.45-.525004-.75-.525004h-5.625c-1.05 0-1.95.862504-1.95 1.950004V15.0375c0 1.05.8625 1.95 1.95 1.95h6v1.2375c-.75.2625-1.3875.8625-1.6125 1.65h-4.5c-.45 0-.8625.375-.8625.8625 0 .4875.375.8625.8625.8625h4.425c.3375 1.0125 1.3125 1.7625 2.475 1.7625s2.1375-.75 2.475-1.7625h4.425c.45 0 .8625-.375.8625-.8625 0-.4875-.375-.8625-.8625-.8625h-4.425c-.2625-.75-.8625-1.3875-1.6125-1.65v-1.2375h6c1.05 0 1.95-.8625 1.95-1.95V5.39998c-.0375-.75-.45-1.35-1.05-1.6875ZM12.0002 21.675c-.525 0-.9375-.4125-.9375-.9 0-.4875.4125-.9.9375-.9s.9375.4125.9375.9c-.0375.4875-.4125.9-.9375.9Zm6.075-18.22502h-5.5875l-.225-.6h5.8125v.6Zm1.0125 11.66252c0 .15-.1125.2625-.2625.2625h-13.65c-.15 0-.2625-.1125-.2625-.2625V2.58748c0-.15.1125-.2625.2625-.2625h5.0625l.9 2.25c.1125.3375.45.525.7875.525h6.9375c.15 0 .2625.1125.2625.2625v9.75002h-.0375Z" fill="#111928"/></svg>