<svg width="24" height="24" viewBox="0 0 24 24" fill="none" xmlns="http://www.w3.org/2000/svg"><g clip-path="url(#clip0_310_8999)" fill="#111928"><path d="M21.3752 9.11255h-1.0125v-.825c0-1.275-1.05-2.3625-2.3625-2.3625h-15c-1.275 0-2.362505 1.05-2.362505 2.3625v7.42495c0 1.275 1.050005 2.3625 2.362505 2.3625h15c1.275 0 2.3625-1.05 2.3625-2.3625v-.825h1.0125c1.0875 0 1.9875-.9 1.9875-1.9875v-1.8375c0-1.08745-.9-1.94995-1.9875-1.94995Zm-2.7 6.59995c0 .375-.3.675-.675.675h-15c-.375 0-.675-.3-.675-.675V8.28755c0-.375.3-.675.675-.675h15c.375 0 .675.3.675.675v7.42495Zm3-2.775c0 .15-.1125.3-.3.3h-1.0125v-2.4h1.0125c.15 0 .3.1125.3.3v1.8Z"/><path d="M5.10029 9.375c-.45 0-.8625.375-.8625.8625v3.6c0 .45.375.8625.8625.8625.4875 0 .8625-.375.8625-.8625v-3.6c-.0375-.4875-.4125-.8625-.8625-.8625ZM8.7 9.375c-.45 0-.825.375-.825.825v3.6c0 .45.375.8625.8625.8625.4875 0 .8625-.375.8625-.8625v-3.6c-.0375-.45-.4125-.825-.9-.825ZM12.3 9.375c-.45 0-.8625.375-.8625.8625v3.6c0 .45.375.8625.8625.8625.45 0 .8625-.375.8625-.8625v-3.6c0-.4875-.375-.8625-.8625-.8625ZM15.9001 9.375c-.45 0-.8625.375-.8625.8625v3.6c0 .45.375.8625.8625.8625.4875 0 .8625-.375.8625-.8625v-3.6c0-.4875-.375-.8625-.8625-.8625Z"/></g><defs><clipPath id="clip0_310_8999"><path fill="#fff" d="M0 0h24v24H0z"/></clipPath></defs></svg>