<svg width="24" height="24" viewBox="0 0 24 24" fill="none" xmlns="http://www.w3.org/2000/svg"><g clip-path="url(#clip0_310_4138)" fill="#111928"><path d="M11.9998 23.3251C5.73731 23.3251.674805 18.2626.674805 12 .674805 5.73755 5.73731.675049 11.9998.675049c6.2625 0 11.325 5.062501 11.325 11.324951 0 6.2626-5.0625 11.3251-11.325 11.3251Zm0-21.00005c-5.32499 0-9.675 4.35-9.675 9.67495 0 5.3251 4.35001 9.6751 9.675 9.6751 5.325 0 9.675-4.35 9.675-9.6751 0-5.32495-4.35-9.67495-9.675-9.67495Z"/><path d="M12 18.375c-3.4875 0-6.375-2.85-6.375-6.375 0-3.4875 2.85-6.375 6.375-6.375.45 0 .825.375.825.825v11.025c0 .4875-.375.9-.825.9Zm-.825-10.95C9 7.8 7.3125 9.7125 7.3125 12s1.65 4.2 3.825 4.575v-9.15h.0375Z"/></g><defs><clipPath id="clip0_310_4138"><path fill="#fff" d="M0 0h24v24H0z"/></clipPath></defs></svg>