<svg width="24" height="24" viewBox="0 0 24 24" fill="none" xmlns="http://www.w3.org/2000/svg"><path d="M12.3749 8.58765c-2.5875 0-4.725 2.09995-4.725 4.72495 0 2.5875 2.1 4.725 4.725 4.725 2.5875 0 4.725-2.1 4.725-4.725 0-2.5875-2.1375-4.72495-4.725-4.72495Zm0 7.76245c-1.6875 0-3.0375-1.35-3.0375-3.0375s1.35-3.0375 3.0375-3.0375 3.0375 1.35 3.0375 3.0375-1.35 3.0375-3.0375 3.0375Z" fill="#111928"/><path d="M13.0123 13.3875V12.375c0-.45-.375-.825-.825-.825-.45 0-.825.375-.825.825v1.35c0 .225.075.45.2625.6l.825.825c.15.15.375.2625.6.2625.225 0 .45-.075.6-.2625.3375-.3375.3375-.8625 0-1.2l-.6375-.5625Z" fill="#111928"/><path d="M19.0124 4.42505h-13.65c-.3375 0-.6375-.15-.8625-.375-.1875-.1875-.3-.45-.3-.7125s.1125-.525.3-.7125.45-.3.75-.3h13.35c.45 0 .825-.375.825-.825 0-.45-.375-.825001-.825-.825001H5.2874c-.75 0-1.425.3-1.9125.787501-.4875.4875-.7875 1.125-.7875 1.8V20.925c0 1.35 1.0875 2.4375 2.4375 2.4375h14.0625c1.35 0 2.4375-1.0875 2.4375-2.4375V6.86255c-.075-1.35-1.1625-2.4375-2.5125-2.4375Zm.75 16.49995c0 .4125-.3375.75-.75.75H4.9874c-.4125 0-.75-.3375-.75-.75V5.88755c.375.15.75.225 1.1625.225h13.65c.4125 0 .75.3375.75.75V20.925h-.0375Z" fill="#111928"/></svg>