<svg width="24" height="24" viewBox="0 0 24 24" fill="none" xmlns="http://www.w3.org/2000/svg"><path d="M20.1002 21.6751h-.825v-3.6c0-1.725-.75-3.4126-2.025-4.575l-1.575-1.3876c-.075-.075-.1125-.1499-.1125-.2249 0-.075.0375-.1501.1125-.2251l1.575-1.3874c1.275-1.16255 2.025-2.81255 2.025-4.57505v-3.375h.825c.45 0 .825-.375.825-.825 0-.45-.375-.825001-.825-.825001h-16.2c-.45 0-.825.375001-.825.825001s.375.825.825.825h.825v3.3375c0 1.725.75 3.4125 2.025 4.57495l1.575 1.3875c.075.0751.1125.1501.1125.225 0 .075-.0375.1501-.1125.2251l-1.575 1.425c-1.275 1.1624-2.025 2.8125-2.025 4.575v3.6h-.825c-.45 0-.825.375-.825.825 0 .45.375.825.825.825h16.2c.45 0 .825-.375.825-.825 0-.45-.3375-.825-.825-.825ZM10.5377 2.32505h2.925v3.225c0 .075-.0375.15-.075.225l-1.3875 1.3875-1.35-1.35c-.075-.075-.075-.15-.075-.225v-3.2625h-.0375ZM6.4127 18.0751c0-1.275.525-2.475 1.4625-3.3l1.57499-1.3875c.4125-.375.67501-.9.67501-1.5 0-.5625-.22501-1.0876-.67501-1.5L7.8752 8.96255c-.9375-.825-1.4625-2.0625-1.4625-3.3v-3.3375h2.475v3.225c0 .525.22499 1.05.59999 1.425l1.95001 1.95c.15.15.375.2625.6.2625.225 0 .45-.075.6-.2625l1.95-1.95c.375-.375.6-.9.6-1.425v-3.225h2.475v3.3375c0 1.275-.525 2.475-1.4625 3.3L14.6252 10.35c-.4125.375-.675.9001-.675 1.5 0 .5625.225 1.0875.675 1.5l1.575 1.3875c.9375.825 1.4625 2.0626 1.4625 3.3v3.6001h-11.25v-3.5625Z" fill="#111928"/></svg>