<svg width="24" height="24" viewBox="0 0 24 24" fill="none" xmlns="http://www.w3.org/2000/svg"><path d="M21.0373 5.17501h-8.175v-2.3625c0-.45-.375-.8625-.8625-.8625-.4875 0-.8625.375-.8625.8625v2.3625h-8.175c-1.275 0-2.287495 1.0125-2.287495 2.2875V19.7625c0 1.275 1.012495 2.2875 2.287495 2.2875h18.1125c1.275 0 2.2875-1.0125 2.2875-2.2875V7.46251c0-1.275-1.05-2.2875-2.325-2.2875Zm-18.075 1.6875h18.1125c.3375 0 .6.2625.6.6v.9375H2.3623v-.9375c0-.3375.2625-.6.6-.6Zm18.075 13.49999H2.9623c-.3375 0-.6-.2625-.6-.6V10.05h19.3125v9.675c0 .3375-.3.6375-.6375.6375Z" fill="#111928"/><path d="M9.7123 15.5625c.375-.45.6-1.05.6-1.725 0-1.5-1.2-2.7-2.7-2.7-1.5 0-2.7 1.2375-2.7 2.7375 0 .6375.225 1.2375.6 1.725-.8625.6375-1.4625 1.6875-1.4625 2.85 0 .45.375.8625.8625.8625.4875 0 .8625-.375.8625-.8625 0-1.0125.825-1.8375 1.8375-1.8375s1.8375.825 1.8375 1.8375c0 .45.375.8625.8625.8625.4875 0 .8625-.375.8625-.8625-.0375-1.2-.6-2.25-1.4625-2.8875ZM6.5998 13.875c0-.5625.45-1.0125 1.0125-1.0125s1.0125.45 1.0125 1.0125-.45 1.0125-1.0125 1.0125-1.0125-.45-1.0125-1.0125ZM19.0873 13.0125h-4.6125c-.45 0-.8625.375-.8625.8625 0 .4875.375.8625.8625.8625h4.6125c.45 0 .8625-.375.8625-.8625 0-.4875-.375-.8625-.8625-.8625ZM17.4749 15.8625h-2.9625c-.45 0-.8625.375-.8625.8625 0 .4875.375.8625.8625.8625h2.9625c.45 0 .8625-.375.8625-.8625 0-.4875-.4125-.8625-.8625-.8625Z" fill="#111928"/></svg>