<svg width="24" height="24" viewBox="0 0 24 24" fill="none" xmlns="http://www.w3.org/2000/svg"><path d="M21.0002 1.38751h-18c-1.275 0-2.362505 1.05-2.362505 2.3625V20.2875c0 1.275 1.050005 2.3625 2.362505 2.3625h18c1.275 0 2.3625-1.05 2.3625-2.3625V3.71251c0-1.275-1.0875-2.325-2.3625-2.325Zm-18 1.6875h18c.375 0 .675.3.675.675v2.325H2.3627v-2.3625c0-.3375.2625-.6375.6375-.6375Zm18 17.84999h-18c-.375 0-.675-.3-.675-.675V7.72501h19.3125V20.25c.0375.375-.2625.675-.6375.675Z" fill="#111928"/><path d="M18.6375 13.275h-.9l-1.725-3.93751c-.15-.3375-.525-.5625-.9-.4875l-3.15.525-3.1125-.5625c-.375-.075-.7875.15-.9375.4875l-1.65 3.93751h-.9c-.45 0-.8625.375-.8625.8625 0 .4875.375.8625.8625.8625H8.025c-.9.4125-1.5 1.35-1.5 2.4 0 1.4625 1.2 2.6625 2.6625 2.6625 1.4625 0 2.6625-1.2 2.6625-2.6625 0-1.05-.6375-1.95-1.5-2.4h3.225c-.9.4125-1.5 1.35-1.5 2.4 0 1.4625 1.2 2.6625 2.6625 2.6625 1.4625 0 2.6625-1.2 2.6625-2.6625 0-1.05-.6375-1.95-1.5-2.4h2.8125c.45 0 .8625-.375.8625-.8625 0-.4875-.4875-.825-.9375-.825Zm-9.45 5.0625c-.525 0-.975-.45-.975-.975 0-.525.45-.975.975-.975.525 0 .975.45.975.975 0 .5625-.45.975-.975.975Zm5.5125 0c-.525 0-.975-.45-.975-.975 0-.525.45-.975.975-.975.525 0 .975.45.975.975 0 .5625-.45.975-.975.975Zm-5.475-7.725 2.5875.45h.3l2.625-.45L15.9 13.275H8.1l1.125-2.6625Z" fill="#111928"/></svg>