<svg width="24" height="24" viewBox="0 0 24 24" fill="none" xmlns="http://www.w3.org/2000/svg"><path d="M12 7.75c-2.34721 0-4.25 1.90279-4.25 4.25 0 2.3472 1.90279 4.25 4.25 4.25 2.3472 0 4.25-1.9028 4.25-4.25 0-2.34721-1.9028-4.25-4.25-4.25Z" fill="#4B5563"/><path d="M2 7c0-2.76142 2.23858-5 5-5h10c2.7614 0 5 2.23858 5 5v10c0 2.7614-2.2386 5-5 5H7c-2.76142 0-5-2.2386-5-5V7Zm4.25 5c0 3.1756 2.57436 5.75 5.75 5.75 3.1756 0 5.75-2.5744 5.75-5.75 0-3.17564-2.5744-5.75-5.75-5.75-3.17564 0-5.75 2.57436-5.75 5.75ZM18 7c.5523 0 1-.44772 1-1s-.4477-1-1-1-1 .44772-1 1 .4477 1 1 1Z" fill="#4B5563"/></svg>