<svg width="24" height="24" viewBox="0 0 24 24" fill="none" xmlns="http://www.w3.org/2000/svg"><path d="m20.4557 6.22499-5.0954-5.1c-.2954-.300002-.7015-.450002-1.1077-.450002H5.3911c-1.25539 0-2.32616 1.050002-2.32616 2.362502V11.85c0 .45.36923.8625.84923.8625.48 0 .84923-.375.84923-.8625V2.99999c0-.375.29539-.675.66462-.675h8.34458v4.8c0 .45.3693.8625.8493.8625h4.6892V11.625c0 .45.3692.8625.8492.8625s.8493-.375.8493-.8625V7.34999c-.1108-.4125-.2585-.825-.5539-1.125Zm-5.0585-2.7 2.7693 2.775h-2.7693v-2.775ZM20.0863 19.425c-.4431 0-.8492.375-.8492.8625v.75c0 .375-.2954.675-.6647.675H5.39091c-.36923 0-.66462-.3-.66462-.675v-.525c0-.45-.36923-.8625-.84923-.8625-.48 0-.84923.375-.84923.8625V21c0 1.275 1.03385 2.3625 2.32616 2.3625H18.5355c1.2554 0 2.3262-1.05 2.3262-2.3625v-.75c.0369-.45-.3323-.825-.7754-.825Z" fill="#111928"/><path d="M10.7445 18.2625v-2.25h1.8093c.4431 0 .8492-.375.8492-.8625v-2.475c0-.45-.3692-.8625-.8492-.8625H9.93224c-.44308 0-.84923.375-.84923.8625v5.5875c0 .45.36923.8625.84923.8625.47996 0 .81226-.4125.81226-.8625Zm0-4.725h.96v.7875h-.96v-.7875ZM4.65227 19.0875h2.62154c.44307 0 .84923-.375.84923-.8625v-5.55c0-.45-.36923-.8625-.84923-.8625-.48 0-.84924.375-.84924.8625V17.4H4.61534c-.44307 0-.84923.375-.84923.8625 0 .4875.44308.825.88616.825ZM18.2402 13.5375c.4431 0 .8492-.375.8492-.8625 0-.4875-.3692-.8625-.8492-.8625h-3.0277c-.4431 0-.8492.375-.8492.8625v5.5875c0 .45.3692.8625.8492.8625h3.1015c.4431 0 .8493-.375.8493-.8625v-2.775c0-.45-.3693-.8625-.8493-.8625h-1.1815c-.4431 0-.8492.375-.8492.8625 0 .4875.3692.8625.8492.8625h.3692v1.0875h-1.44v-3.9h2.1785Z" fill="#111928"/></svg>