<svg width="24" height="24" viewBox="0 0 24 24" fill="none" xmlns="http://www.w3.org/2000/svg"><path d="M22.5002 15.3375h-1.0125V5.88748c0-1.575-1.275-2.85-2.85-2.85H5.3627c-1.575 0-2.85 1.275-2.85 2.85V15.3H1.5002c-.45 0-.862505.375-.862505.8625V17.7c0 1.8 1.462505 3.2625 3.262495 3.2625H20.1002c1.8 0 3.2625-1.4625 3.2625-3.2625v-1.5375c0-.45-.4125-.825-.8625-.825Zm-18.3-9.45002c0-.6375.52499-1.1625 1.1625-1.1625h13.275c.6375 0 1.1625.525 1.1625 1.1625V15.3h-5.3625c-.2625 0-.4875.1125-.6375.3l-.4125.525h-2.9625l-.45001-.525c-.15-.1875-.375-.3-.6375-.3H4.2002V5.88748ZM21.6752 17.7c0 .8625-.7125 1.575-1.575 1.575H3.90019c-.86249 0-1.57499-.7125-1.57499-1.575v-.675h6.63749l.45.525c.15.1875.375.3.63751.3h3.7125c.2625 0 .4875-.1125.6375-.3l.4125-.4875h6.825V17.7h.0375Z" fill="#111928"/><path d="M11.2878 7.64999h1.425c.45 0 .8625-.375.8625-.8625 0-.4875-.375-.8625-.8625-.8625h-1.425c-.45 0-.8625.375-.8625.8625 0 .4875.4125.8625.8625.8625Z" fill="#111928"/></svg>