<svg width="24" height="24" viewBox="0 0 24 24" fill="none" xmlns="http://www.w3.org/2000/svg"><path d="M21.7877 8.28755h-2.25v-4.3875c0-1.275-1.0125-2.2875-2.2875-2.2875H4.87515c-1.275 0-2.2875 1.0125-2.2875 2.2875v6.56245c-.225.1875-.4125.45-.525.7875L.675153 18c-.075.375.0375.7875.3 1.0875.224997.3001.599997.45.974997.45H14.0252V20.85c0 .8625.7125 1.575 1.575 1.575h6.1875c.8625 0 1.575-.7125 1.575-1.575V9.86255c0-.8625-.7125-1.575-1.575-1.575ZM2.43765 17.85l1.2375-5.9625H14.0627V17.85H2.43765ZM14.0252 9.86255V10.2H4.27515V3.90005c0-.3375.2625-.6.6-.6H17.2502c.3375 0 .6.2625.6.6v4.3875h-2.25c-.8625 0-1.575.7125-1.575 1.575Zm7.65 10.83755h-5.9625V9.97505h5.9625V20.7001Z" fill="#111928"/><path d="M17.8503 12.8626h1.875c.45 0 .8625-.375.8625-.8625 0-.45-.375-.8625-.8625-.8625h-1.875c-.45 0-.8625.375-.8625.8625 0 .45.375.8625.8625.8625ZM18.7126 18.6751c-.0375 0-.1125.0375-.15.0375-.0375.0375-.1125.0375-.15.075l-.1125.1125c-.15.15-.2625.375-.2625.6 0 .225.075.45.2625.6l.1125.1125c.0375.0375.1125.075.15.075.0375.0375.1125.0375.15.0375h.15c.225 0 .45-.075.6-.2625.15-.15.2625-.375.2625-.6 0-.225-.075-.45-.2625-.6-.1875-.15-.4875-.225-.75-.1875Z" fill="#111928"/></svg>