<svg width="24" height="24" viewBox="0 0 24 24" fill="none" xmlns="http://www.w3.org/2000/svg"><path d="M11.9999 13.65c2.8125 0 5.1-2.2875 5.1-5.10005 0-2.8125-2.2875-5.1-5.1-5.1-2.8125 0-5.1 2.2875-5.1 5.1 0 2.81255 2.2875 5.10005 5.1 5.10005Zm0-8.51255c1.875 0 3.4125 1.5375 3.4125 3.4125 0 1.87505-1.5375 3.41255-3.4125 3.41255S8.5874 10.425 8.5874 8.54995c0-1.875 1.5375-3.4125 3.4125-3.4125Z" fill="#111928"/><path d="M12.0748 10.3499c.15.15.375.2625.6.2625.225 0 .45-.075.6-.2625.3375-.3375.3375-.8625 0-1.2l-.6375-.6375V7.3499c0-.45-.375-.825-.825-.825-.45 0-.825.375-.825.825v1.5c0 .225.075.45.2625.6l.825.9Z" fill="#111928"/><path d="M22.4998 18.8624h-.8625V9.86235c0-1.1625-.9375-2.1375-2.1375-2.1375h-1.0125c-.45 0-.825.375-.825.825 0 .45.375.825.825.825h1.0125c.225 0 .45.1875.45.45v9.00005h-15.9V9.82485c0-.225.1875-.45.45-.45h1.0125c.45001 0 .82501-.375.82501-.825 0-.45-.375-.825-.82501-.825H4.4998c-1.1625 0-2.1375.9375-2.1375 2.1375v9.00005h-.8625c-.45 0-.824995.375-.824995.825 0 .45.374995.825.824995.825h21c.45 0 .825-.375.825-.825 0-.45-.375-.825-.825-.825Z" fill="#111928"/></svg>