<svg width="24" height="24" viewBox="0 0 24 24" fill="none" xmlns="http://www.w3.org/2000/svg"><path d="M22.5002 15.3375h-1.0125V5.96251c0-1.575-1.275-2.8875-2.8875-2.8875h-13.2c-1.575 0-2.8875 1.275-2.8875 2.8875v9.37499H1.5002c-.45 0-.862505.375-.862505.8625v1.6125c0 1.7625 1.425005 3.15 3.150005 3.15h16.35c1.7625 0 3.15-1.425 3.15-3.15V16.2c.075-.4875-.3375-.8625-.7875-.8625Zm-18.3-9.41249c0-.675.525-1.2 1.2-1.2h13.1625c.675 0 1.2.525 1.2 1.2V15.3H4.2002V5.92501ZM21.6752 17.775c0 .825-.675 1.4625-1.4625 1.4625H3.8252c-.825 0-1.4625-.675-1.4625-1.4625v-.75h19.3125v.75Z" fill="#111928"/><path d="m15.4877 8.51252-1.725-.6-1.0875-1.4625c-.15-.225-.4125-.3375-.675-.3375-.2625 0-.525.1125-.675.3375l-1.0875 1.4625-1.725.6c-.2625.075-.45.3-.525.525-.075.2625-.0375.525.1125.75l1.05 1.49998.0375 1.8375c0 .2625.15.525.3375.675.225.15.4875.1875.75.1125l1.725-.5625 1.725.5625c.075.0375.15.0375.2625.0375.1875 0 .3375-.0375.4875-.15.225-.15.3375-.4125.3375-.675l.0375-1.8375 1.05-1.49998c.15-.225.1875-.4875.1125-.75-.075-.225-.2625-.45-.525-.525Zm-2.175 2.02498c-.1125.15-.15.3-.15.4875v.9375l-.9-.3c-.15-.0375-.3375-.0375-.4875 0l-.9.3v-.9375c0-.1875-.0375-.3375-.15-.4875l-.6-.78748.9-.3c.15-.0375.3-.15.4125-.3l.5625-.75.5625.75c.1125.15.2625.225.4125.3l.9.3-.5625.78748Z" fill="#111928"/></svg>