<svg width="24" height="24" viewBox="0 0 24 24" fill="none" xmlns="http://www.w3.org/2000/svg"><path d="M19.6124 6.03748h-7.3125c-2.25 0-4.0875 1.8375-4.0875 4.08752v.1875c0 2.25 1.8375 4.0875 4.0875 4.0875h.6v-1.65h-.6c-1.3125 0-2.4-1.0875-2.4-2.4v-.225c0-1.31252 1.0875-2.40002 2.4-2.40002h7.3125c1.3125 0 2.4 1.0875 2.4 2.40002v.1875c0 1.3125-1.0875 2.4-2.4 2.4h-2.925V14.4h2.925c2.25 0 4.0875-1.8375 4.0875-4.0875v-.1875c.0375-2.25002-1.8-4.08752-4.0875-4.08752Z" fill="#111928"/><path d="M11.6998 9.5625h-.6375V11.25h.6375c1.3125 0 2.4 1.0875 2.4 2.4v.225c0 1.3125-1.0875 2.4-2.4 2.4H4.3873c-1.3125 0-2.4-1.0875-2.4-2.4v-.1875c0-1.3125 1.0875-2.4 2.4-2.4h2.85V9.6h-2.85c-2.25 0-4.087495 1.8375-4.087495 4.0875v.1875c0 2.25 1.837495 4.0875 4.087495 4.0875h7.3125c2.25 0 4.0875-1.8375 4.0875-4.0875v-.1875c0-2.2875-1.8375-4.125-4.0875-4.125Z" fill="#111928"/></svg>