<svg width="24" height="24" viewBox="0 0 24 24" fill="none" xmlns="http://www.w3.org/2000/svg"><path d="M3.8627 10.4625h4.46249c.45001 0 .8625-.375.8625-.86251 0-.4875-.375-.8625-.8625-.8625H3.8627c-1.7625 0-3.225005 1.42501-3.225005 3.22501 0 1.7625 1.425005 3.225 3.225005 3.225h4.46249c.45001 0 .8625-.375.8625-.8625 0-.4875-.375-.8625-.8625-.8625H3.8627c-.825 0-1.5375-.675-1.5375-1.5375.0375-.75.7125-1.4625 1.5375-1.4625ZM13.6504 11.175h-3.2625c-.45001 0-.86251.375-.86251.8625 0 .45.375.8625.86251.8625h3.2625c.45 0 .8625-.375.8625-.8625-.0375-.4875-.4125-.8625-.8625-.8625ZM20.1375 8.77496H15.675c-.45 0-.8625.375-.8625.8625 0 .48754.375.86254.8625.86254h4.4625c.825 0 1.5375.675 1.5375 1.5375 0 .825-.675 1.5375-1.5375 1.5375H15.675c-.45 0-.8625.375-.8625.8625 0 .4875.375.8625.8625.8625h4.4625c1.7625 0 3.225-1.425 3.225-3.225 0-1.8375-1.4625-3.30004-3.225-3.30004Z" fill="#111928"/></svg>