<svg width="24" height="24" viewBox="0 0 24 24" fill="none" xmlns="http://www.w3.org/2000/svg"><path d="M13.2377 16.0875c-.7125 0-1.425-.2625-1.9875-.825L9.9377 13.95c-.3375-.3375-.3375-.8625 0-1.2.3375-.3375.8625-.3375 1.2 0l1.3125 1.3125c.45.45 1.125.45 1.575 0l7.275-7.27499c.45-.45.45-1.125 0-1.575l-2.55-2.55c-.45-.45-1.125-.45-1.575 0l-3.525 3.525c-.3375.3375-.8625.3375-1.2 0-.3375-.3375-.3375-.8625 0-1.2l3.525-3.525c1.0875-1.087504 2.85-1.087504 3.975 0l2.55 2.55c1.0875 1.0875 1.0875 2.85 0 3.975l-7.275 7.27499c-.525.5625-1.2375.825-1.9875.825Z" fill="#111928"/><path d="M6.0001 23.325c-.7125 0-1.425-.2625-1.9875-.825l-2.55-2.55c-1.087502-1.05-1.087502-2.8125 0-3.9375l7.275-7.27499c.525-.525 1.2375-.825 1.9875-.825s1.4625.3 1.9875.825L14.0251 10.05c.3375.3375.3375.8625 0 1.2-.3375.3375-.8625.3375-1.2 0l-1.3125-1.31249c-.4125-.4125-1.1625-.4125-1.575 0l-7.275 7.27499c-.45.45-.45 1.125 0 1.575l2.55 2.55c.45.45 1.125.45 1.575 0l3.525-3.525c.3375-.3375.8625-.3375 1.2 0 .3375.3375.3375.8625 0 1.2l-3.525 3.525c-.5625.525-1.275.7875-1.9875.7875Z" fill="#111928"/></svg>