<svg width="24" height="24" viewBox="0 0 24 24" fill="none" xmlns="http://www.w3.org/2000/svg"><path d="M12 .675049c-5.175 0-9.375 4.050001-9.375 9.037501C2.625 13.5001 7.65 19.5 10.6125 22.725c.375.4126.8625.6001 1.3875.6001.525 0 1.0125-.2251 1.3875-.6001C16.35 19.5 21.375 13.5001 21.375 9.71255c0-4.9875-4.2-9.037501-9.375-9.037501ZM12.15 21.6c-.075.0751-.1875.0751-.3 0-3.6375-3.975-7.5375-9.1499-7.5375-11.88745 0-4.05 3.45-7.35 7.6875-7.35s7.6875 3.3 7.6875 7.35c0 2.73755-3.9 7.91245-7.5375 11.88745Z" fill="#111928"/><path d="M12.0001 5.88757c-2.25 0-4.0875 1.8375-4.0875 4.0875 0 2.25003 1.8375 4.12503 4.0875 4.12503 2.25 0 4.0875-1.8375 4.0875-4.0875 0-2.25003-1.8375-4.12503-4.0875-4.12503Zm0 6.52503c-1.35 0-2.4-1.0875-2.4-2.4 0-1.31253 1.0875-2.40003 2.4-2.40003s2.4 1.0875 2.4 2.40003c0 1.3125-1.05 2.4-2.4 2.4Z" fill="#111928"/></svg>