<svg width="24" height="24" viewBox="0 0 24 24" fill="none" xmlns="http://www.w3.org/2000/svg"><g clip-path="url(#clip0_310_9540)" fill="#111928"><path d="m21.5252 6.67498-5.55-1.275c0-.1125.0375-.1875.0375-.3 0-1.875-1.5-3.375-3.3375-3.375-1.875 0-3.37501 1.5-3.37501 3.375 0 .375.1125.8625.33751 1.425l-1.08751.225-4.91249-1.3875c-.7125-.1875-1.4625-.075-2.0625.375-.600005.45-.937505 1.125-.937505 1.875V18.3375c0 1.05.712505 1.9875 1.725005 2.25l5.92499 1.6875h.03751c.075 0 .14999.0375.22499.0375h.1875l6.82501-1.425 4.95 1.1625c.1875.0375.3375.075.525.075.525 0 1.05-.1875 1.4625-.525.5625-.45.9-1.125.9-1.8375V8.96248c-.0375-1.0875-.7875-2.025-1.875-2.2875Zm-8.8875-3.2625c.9375 0 1.65.75 1.65 1.6875 0 .4125-.525 1.65-1.6875 3.45-1.1625-1.8-1.6875-3-1.6875-3.45.0375-.9375.7875-1.6875 1.725-1.6875Zm-2.2875 4.65c.4125.75.9 1.5 1.35 2.13752.1875.3.5625.4875.9.4875.375 0 .7125-.1875.9-.4875.375-.56252.7875-1.16252 1.1625-1.80002V19.275L9.37519 20.4V8.28748l.97501-.225ZM2.3627 18.3V7.61248c0-.225.1125-.4125.2625-.525.15-.1125.375-.15.5625-.1125l4.5 1.275V20.325l-4.875-1.3875c-.2625-.075-.45-.3375-.45-.6375Zm19.3125 1.3875c0 .2625-.15.45-.2625.525-.075.075-.3.1875-.5625.1125l-4.5-1.05V7.19998l4.8 1.125c.3.075.525.3375.525.6375V19.6875Z"/><path d="M12.7879 5.81245c.0375 0 .1125-.0375.15-.0375.0375 0 .1125-.0375.15-.075l.1125-.1125c.15-.15.2625-.375.2625-.6 0-.225-.075-.45-.2625-.6l-.1125-.1125c-.0375-.0375-.1125-.075-.15-.075-.0375-.0375-.1125-.0375-.15-.0375-.2625-.0375-.5625.0375-.75.225-.15.15-.2625.375-.2625.6 0 .225.075.45.2625.6.15.15.375.2625.6.2625.0375-.0375.1125-.0375.15-.0375Z"/></g><defs><clipPath id="clip0_310_9540"><path fill="#fff" d="M0 0h24v24H0z"/></clipPath></defs></svg>