<svg width="24" height="24" viewBox="0 0 24 24" fill="none" xmlns="http://www.w3.org/2000/svg"><path d="M11.9996 16.4625c1.2 0 2.325-.4875 3.1875-1.3125.825-.825 1.275-1.95 1.275-3.1125V5.09995c0-2.475-1.9875-4.462499-4.4625-4.462499-2.47499 0-4.46249 1.987499-4.46249 4.462499V12c0 2.475 1.9875 4.4625 4.46249 4.4625ZM9.22461 5.09995c0-1.5375 1.23749-2.775 2.77499-2.775 1.5375 0 2.775 1.2375 2.775 2.775V12c0 .7125-.2625 1.425-.7875 1.95-.525.525-1.2375.825-1.9875.825-1.5375 0-2.77499-1.2375-2.77499-2.775V5.09995Z" fill="#111928"/><path d="M19.7248 11.8125c0-.45-.375-.8625-.8625-.8625-.4875 0-.8625.375-.8625.8625 0 3.3375-2.7 6.0375-6.0375 6.0375-3.3 0-6-2.7-6-6 0-.45-.375-.8625-.8625-.8625-.4875 0-.8625.375-.8625.8625 0 3.975 3 7.2375 6.8625 7.65v2.1375h-2.325c-.45 0-.8625.375-.8625.8625 0 .4875.375.8625.8625.8625h6.3375c.45 0 .8625-.375.8625-.8625 0-.4875-.375-.8625-.8625-.8625h-2.325V19.5c3.9-.4125 6.9375-3.7125 6.9375-7.6875Z" fill="#111928"/></svg>