<svg width="24" height="24" viewBox="0 0 24 24" fill="none" xmlns="http://www.w3.org/2000/svg"><path d="M11.9997 14.2125c2.325 0 4.2375-1.9125 4.2375-4.23751v-5.0625c0-2.325-1.9125-4.237502-4.2375-4.237502-2.32499 0-4.23749 1.912502-4.23749 4.237502v5.0625c0 2.32501 1.9125 4.23751 4.23749 4.23751Zm0-11.85001c1.3125 0 2.3625.975 2.55 2.25h-.1125c-.45 0-.8625.375-.8625.8625 0 .4875.375.8625.8625.8625h.15v.6h-.15c-.45 0-.8625.375-.8625.8625 0 .4875.375.8625.8625.8625h.15v.5625h-.15c-.45 0-.8625.375-.8625.86251 0 .45.375.825.825.825-.3375.975-1.3125 1.6875-2.4 1.6875-1.125 0-2.06249-.7125-2.39999-1.6875.44999 0 .82499-.375.82499-.825 0-.45001-.375-.86251-.86249-.86251h-.15v-.5625h.15c.44999 0 .86249-.375.86249-.8625 0-.4875-.375-.8625-.86249-.8625h-.15v-.6h.15c.44999 0 .86249-.375.86249-.8625 0-.4875-.375-.8625-.86249-.8625h-.1125c.1875-1.275 1.23749-2.25 2.54999-2.25Z" fill="#111928"/><path d="M19.1249 10.1625c0-.45002-.375-.86252-.8625-.86252-.4875 0-.8625.375-.8625.86252.0375 2.9625-2.4 5.3625-5.4 5.3625-3 0-5.4375-2.4-5.4375-5.4 0-.45002-.375-.86252-.8625-.86252-.4875 0-.8625.375-.8625.86252 0 3.6 2.7375 6.6 6.2625 7.0125V22.5c0 .45.375.8625.8625.8625.45 0 .8625-.375.8625-.8625v-5.325c3.5625-.4125 6.3-3.4125 6.3-7.0125Z" fill="#111928"/></svg>