<svg width="24" height="24" viewBox="0 0 24 24" fill="none" xmlns="http://www.w3.org/2000/svg"><path d="M16.4251.674988h-8.85c-1.575 0-2.85 1.275002-2.85 2.850002V20.475c0 1.575 1.275 2.85 2.85 2.85h8.85c1.575 0 2.85-1.275 2.85-2.85V3.52499c0-1.575-1.275-2.850002-2.85-2.850002ZM6.4126 3.52499c0-.6375.525-1.1625 1.1625-1.1625h8.85c.6375 0 1.1625.525 1.1625 1.1625V16.8375c0 .675-.5625 1.2375-1.2375 1.2375h-8.7c-.675 0-1.2375-.5625-1.2375-1.2375V3.52499ZM16.4251 21.675h-8.85c-.6375 0-1.1625-.525-1.1625-1.1625V19.5c.375.1875.7875.2625 1.2375.2625h8.7c.45 0 .8625-.1125 1.2375-.2625v.975c0 .6375-.525 1.2-1.1625 1.2Z" fill="#111928"/><path d="M11.3249 4.98751h1.425c.45 0 .8625-.375.8625-.8625 0-.4875-.375-.8625-.8625-.8625h-1.425c-.45 0-.8625.375-.8625.8625 0 .4875.4125.8625.8625.8625Z" fill="#111928"/></svg>