<svg width="24" height="24" viewBox="0 0 24 24" fill="none" xmlns="http://www.w3.org/2000/svg"><path d="M16.3876 18.4126c-.1125-.1875-.15-.3375-.15-.525v-4.875c0-.45-.375-.825-.825-.825-.45 0-.825.375-.825.825v4.9125c0 .4875.1125.9375.4125 1.425l.0375.075H2.77512l.1125-.1875c.1875-.3375.3-.7125.3375-1.1625v-6.525c0-2.6625 2.1375-4.9125 4.95-5.2125 1.5-.1875 2.99998.225 4.19998 1.05.375.2625.9.1875 1.1625-.1875.2625-.375.1875-.9-.1875-1.1625-1.05-.75-2.325-1.2375-3.63748-1.35V3.3001c0-.45-.375-.825-.825-.825-.45 0-.825.375-.825.825v1.3125h-.0375c-3.675.4125-6.45 3.375-6.45 6.9v6.3375c-.0375.3-.1125.4125-.15.4875l-.599995.975c-.225.3375-.225.7875-.0375 1.125l.0375.0375c.224995.3375.562495.525.974995.525h6.2625v.975c0 .45.375.825.825.825.45 0 .825-.375.825-.825v-.975h6.33748c.4125 0 .75-.1875.9375-.525.225-.375.225-.825 0-1.2l-.6-.8625Z" fill="#111928"/><path d="M19.1624 9.60005h-1.275l1.875-1.8375c.2625-.225.3375-.6.1875-.9375-.15-.3375-.45-.525-.7875-.525h-3.3375c-.45 0-.825.375-.825.825 0 .45.375.825.825.825h1.275l-1.875 1.8375c-.2625.22495-.3375.59995-.1875.93745.15.3375.45.525.7875.525h3.3375c.45 0 .825-.375.825-.825 0-.44995-.375-.82495-.825-.82495ZM22.4999 3.6375h-.525l1.125-1.0875c.2625-.225.3375-.6.1875-.9375-.15-.3375-.45-.4875-.7875-.4875h-2.5875c-.45 0-.825.375-.825.825 0 .45.375.825.825.825h.525l-1.125 1.0875c-.225.2625-.3.6375-.1875.9375.1125.3.45.525.7875.525h2.5875c.45 0 .825-.375.825-.825 0-.45-.375-.8625-.825-.8625Z" fill="#111928"/></svg>