<svg width="24" height="24" viewBox="0 0 24 24" fill="none" xmlns="http://www.w3.org/2000/svg"><path d="M3.00705 17.7682 4.69812 3.05122C4.76483 2.47065 5.28731 2 5.86511 2H10.573c2.6001 0 4.4645 2.11791 4.1643 4.73047-.3002 2.61257-2.6513 4.73043-5.25143 4.73043h-1.5693l-.72474 6.3073c-.06671.5806-.58919 1.0513-1.16699 1.0513H3.93245c-.57779 0-.99211-.4707-.9254-1.0513Z" fill="#111928"/><path d="m8.67369 18.2099-.43568 2.739c-.06672.5806.3476 1.0512.9254 1.0512h2.09239c.5778 0 1.1003-.4706 1.167-1.0512l.7248-5.2547h1.5692c2.6001 0 4.9513-2.1179 5.2515-4.7305.279-2.42802-1.3117-4.42882-3.625-4.6993-.0065.154-.0187.30954-.0367.46642-.4003 3.48338-3.5351 6.30728-7.00194 6.30728l-.54356 4.7305c-.01727.1504-.04678.2978-.08741.4413Z" fill="#111928"/></svg>