<svg width="24" height="24" viewBox="0 0 24 24" fill="none" xmlns="http://www.w3.org/2000/svg"><path d="M7.42539 16.9125c1.95 0 3.52501-1.575 3.52501-3.525S9.37539 9.86249 7.42539 9.86249s-3.525 1.57501-3.525 3.52501 1.575 3.525 3.525 3.525Zm0-5.4c1.0125 0 1.8375.825 1.8375 1.8375s-.825 1.8375-1.8375 1.8375-1.8375-.825-1.8375-1.8375.825-1.8375 1.8375-1.8375ZM7.42524 17.3625c-2.4 0-4.6875.825-6.449997 2.3625-.3375.3-.4125.825-.1125 1.2.299997.3375.824997.4125 1.199997.1125 1.5-1.275 3.375-1.95 5.3625-1.95 1.9875 0 3.89996.675 5.36246 1.95.15.15.3375.1875.5625.1875.225 0 .4875-.1125.6375-.3.3-.3375.2625-.9-.1125-1.2-1.7625-1.5-4.08746-2.3625-6.44996-2.3625ZM14.1003 4.275c-.3-.3375-.8625-.375-1.2-.075l-2.2125 2.025c-.1875.15-.2625.375-.2625.6375 0 .2625.1125.45.2625.6375l2.2125 2.025c.15.15.375.225.5625.225.225 0 .45-.075.6375-.2625.3-.3375.3-.8625-.075-1.2L12.4878 6.9l1.5375-1.3875c.375-.375.375-.9.075-1.2375ZM23.0625 6.22499l-2.2125-2.025c-.3375-.3-.8625-.3-1.2.075-.3.3375-.3.8625.075 1.2l1.5375 1.3875-1.5375 1.3875c-.3375.3-.375.8625-.075 1.2.15.1875.4125.2625.6375.2625.1875 0 .4125-.075.5625-.225l2.2125-2.025c.1875-.15.2625-.375.2625-.6375 0-.2625-.075-.45-.2625-.6ZM17.9254 2.81248c-.45-.1125-.9.15-1.05.6l-1.7625 6.4875c-.1125.45002.15.90002.6 1.05002.075.0375.15.0375.225.0375.375 0 .7125-.2625.825-.6375l1.7625-6.48752c.1125-.4875-.15-.9375-.6-1.05Z" fill="#111928"/></svg>