<svg width="24" height="24" viewBox="0 0 24 24" fill="none" xmlns="http://www.w3.org/2000/svg"><g clip-path="url(#clip0_310_4054)" fill="#111928"><path d="M14.0628 19.5c-.45 0-.825.375-.825.825V22.5c0 .45.375.825.825.825.45 0 .825-.375.825-.825v-2.175c0-.45-.375-.825-.825-.825ZM9.0001 17.8876l-1.5375 1.5375c-.3375.3375-.3375.8625 0 1.2.15.15.375.2625.6.2625.225 0 .45-.075.6-.2625l1.5375-1.5375c.3375-.3375.3375-.8625 0-1.2-.3375-.3375-.8625-.3375-1.2 0ZM18.525 10.425c.225 0 .45-.075.6-.2625l1.5375-1.5375c.3375-.3375.3375-.8625 0-1.2-.3375-.3375-.8625-.3375-1.2 0L17.925 8.9625c-.3375.3375-.3375.8625 0 1.2.15.15.375.2625.6.2625ZM22.5376 13.2h-2.175c-.45 0-.825.375-.825.825 0 .45.375.825.825.825h2.175c.45 0 .825-.375.825-.825 0-.45-.375-.825-.825-.825ZM9.0001 10.1625c.15.15.375.2625.6.2625.225 0 .45-.075.6-.2625.3375-.3375.3375-.8625 0-1.2L8.6626 7.425c-.3375-.3375-.8625-.3375-1.2 0-.3375.3375-.3375.8625 0 1.2l1.5375 1.5375ZM19.125 17.8876c-.3375-.3375-.8625-.3375-1.2 0-.3375.3375-.3375.8625 0 1.2l1.5375 1.5375c.15.15.375.2625.6.2625.225 0 .45-.075.6-.2625.3375-.3375.3375-.8625 0-1.2l-1.5375-1.5375Z"/><path d="M14.0627.675049C6.6377.675049.637695 6.67505.637695 14.1c0 .45.375005.825.825005.825h12.6c.45 0 .825-.375.825-.825V1.50005c0-.45-.375-.825001-.825-.825001ZM13.2002 13.2375H2.3252c.4125-5.81245 5.0625-10.46245 10.875-10.87495V13.2375Z"/></g><defs><clipPath id="clip0_310_4054"><path fill="#fff" d="M0 0h24v24H0z"/></clipPath></defs></svg>