<svg width="24" height="24" viewBox="0 0 24 24" fill="none" xmlns="http://www.w3.org/2000/svg"><path d="M3.15009 10.875c.1125 0 .2625-.0375.375-.075l4.1625-1.46252c.45-.15.675-.6375.525-1.0875-.15-.45-.6375-.675-1.0875-.525l-2.5875.9c1.2375-3.225 4.3875-5.4 7.98751-5.4 3.9375 0 7.35 2.625 8.325 6.375.1125.45002.5625.71252 1.0125.60002.45-.1125.7125-.56252.6-1.01252-1.1625-4.5-5.25-7.65-9.975-7.65-4.20001 0-7.91251 2.475-9.45001 6.1875l-.7875-2.25c-.15-.45-.6375-.675-1.0875-.525-.450003.15-.675003.6375-.525003 1.0875L2.06259 10.125c.225.4875.6375.75 1.0875.75ZM23.2878 18.6374l-1.5375-4.0125c-.1125-.2625-.3-.4875-.5625-.6-.2625-.1125-.5625-.1125-.825 0l-4.125 1.575c-.45.15-.6375.6375-.4875 1.0875.15.45.6375.6375 1.0875.4875l2.5875-.975c-1.5 2.7375-4.425 4.5375-7.6875 4.5375-3.71252 0-6.97502-2.325-8.13752-5.775-.15-.45-.6375-.675-1.05-.525-.45.15-.675.6375-.525 1.05 1.3875 4.125 5.2875 6.9 9.71252 6.9 3.8625 0 7.35-2.1375 9.1125-5.4375l.8625 2.2875c.1125.3375.45.525.7875.525.1125 0 .1875 0 .3-.075.45-.1125.6375-.6.4875-1.05Z" fill="#111928"/></svg>