<svg width="24" height="24" viewBox="0 0 24 24" fill="none" xmlns="http://www.w3.org/2000/svg"><g clip-path="url(#clip0_310_8852)" fill="#111928"><path d="M2.2126.675049c-.45 0-.8625.375001-.8625.862501s.375.8625.8625.8625c10.725 0 19.425 8.62495 19.425 19.19995 0 .45.375.8625.8625.8625.4875 0 .8625-.375.8625-.8625 0-11.5875-9.4875-20.924951-21.15-20.924951Z"/><path d="M2.2126 5.70007c-.45 0-.8625.375-.8625.8625 0 .4875.375.8625.8625.8625 8.025 0 14.5125 6.37503 14.5125 14.17503 0 .45.375.8625.8625.8625.4875 0 .8625-.375.8625-.8625 0-8.8125-7.275-15.90003-16.2375-15.90003Z"/><path d="M2.2126 10.125c-.45 0-.8625.375-.8625.8625 0 .4875.375.8625.8625.8625 5.475 0 9.9375 4.3875 9.9375 9.75 0 .45.375.8625.8625.8625.4875 0 .8625-.375.8625-.8625-.0375-6.375-5.25-11.475-11.6625-11.475Z"/><path d="M2.2126 14.6626c-.45 0-.8625.375-.8625.8625 0 .4875.375.8625.8625.8625 2.8875 0 5.2125 2.325 5.2125 5.175 0 .45.375.8625.8625.8625.4875 0 .8625-.375.8625-.8625 0-3.7875-3.1125-6.9-6.9375-6.9Z"/><path d="M3.1127 18.4126c-1.35 0-2.475005 1.125-2.475005 2.475s1.087505 2.475 2.475005 2.475 2.475-1.125 2.475-2.475-1.125-2.475-2.475-2.475Zm0 3.2625c-.4125 0-.7875-.3375-.7875-.7875 0-.45.3375-.7875.7875-.7875.4125 0 .7875.3375.7875.7875 0 .4125-.3375.7875-.7875.7875Z"/></g><defs><clipPath id="clip0_310_8852"><path fill="#fff" d="M0 0h24v24H0z"/></clipPath></defs></svg>