<svg width="24" height="24" viewBox="0 0 24 24" fill="none" xmlns="http://www.w3.org/2000/svg"><path d="M21.9748 4.31245 18.3373.974951l-.075-.0375c-.2625-.1875-.5625-.3-.825-.3H4.4623c-1.575 0-2.85 1.274999-2.85 2.849999V20.4375c0 1.575 1.275 2.85 2.85 2.85h15.075c1.575 0 2.85-1.275 2.85-2.85V5.28745c0-.3375-.1125-.675-.4125-.975Zm-7.0125-1.95v2.1375H7.1248v-2.1375h7.8375ZM8.06231 21.6749v-6.9374h7.87499v6.9H8.06231v.0374ZM20.6998 20.475c0 .6374-.525 1.1625-1.1625 1.1625h-1.9125V14.4c0-.7125-.6-1.3125-1.3125-1.3125H7.68731c-.7125 0-1.31251.6-1.31251 1.3125v7.2749H4.4623c-.6375 0-1.1625-.5249-1.1625-1.1624V3.52495c0-.6375.525-1.1625 1.1625-1.1625h.975v2.5125c0 .7125.6 1.3125 1.3125 1.3125h8.5875c.7125 0 1.3125-.6 1.3125-1.3125v-2.5125h.675l3.375 3.1125V20.475Z" fill="#111928"/><path d="M13.5371 15.9375h-3.075c-.45 0-.86249.375-.86249.8625 0 .4875.375.8625.86249.8625h3.075c.45 0 .8625-.375.8625-.8625 0-.4875-.4125-.8625-.8625-.8625ZM13.5371 18.7875h-3.075c-.45 0-.86249.375-.86249.8625 0 .4875.375.8625.86249.8625h3.075c.45 0 .8625-.375.8625-.8625 0-.4875-.4125-.8625-.8625-.8625Z" fill="#111928"/></svg>