<svg width="24" height="24" viewBox="0 0 24 24" fill="none" xmlns="http://www.w3.org/2000/svg"><path d="m23.0251 20.8876-6.1875-5.0251c2.55-3.4875 2.2875-8.47495-.9-11.62495-1.6875-1.6875-3.9375-2.625-6.3375-2.625-2.4 0-4.65.9375-6.3375 2.625-3.487502 3.4875-3.487502 9.18745 0 12.67495 1.6875 1.6875 3.9375 2.625 6.3375 2.625 2.2875 0 4.425-.8624 6.1125-2.3999l6.2625 5.0625c.15.1125.3375.1875.525.1875.2625 0 .4875-.1125.6375-.3.3-.375.2625-.9-.1125-1.2ZM9.6001 17.85c-1.95 0-3.75-.7499-5.1375-2.1374-2.85-2.85-2.85-7.46255 0-10.27505 1.3875-1.3875 3.1875-2.1375 5.1375-2.1375 1.95 0 3.75.75 5.1375 2.1375 2.85 2.85 2.85 7.46255 0 10.27505-1.35 1.3875-3.1875 2.1374-5.1375 2.1374Z" fill="#111928"/></svg>