<svg width="24" height="24" viewBox="0 0 24 24" fill="none" xmlns="http://www.w3.org/2000/svg"><path d="M22.4248 10.0125c0-.41249-.1125-.82499-.3-1.16249v-.0375l-2.475-6.2625c-.45-1.1625-1.575-1.912498-2.8125-1.912498h-9.675c-1.2375 0-2.3625.749998-2.8125 1.912498l-2.4375 6.2625v.0375c-.1875.3375-.3.75-.3 1.16249v4.0125c0 .6375.2625 1.2375.675 1.65-.4125.4875-.675 1.125-.675 1.8375v3.5625c0 1.275 1.0125 2.2875 2.2875 2.2875h16.275c1.275 0 2.2875-1.0125 2.2875-2.2875V16.95c0-.5625-.1875-1.05-.525-1.4625.3375-.4125.525-.9375.525-1.5v-3.975h-.0375Zm-1.6875 0v4.0125c0 .375-.3.675-.675.675H3.8998c-.375 0-.675-.3-.675-.675v-4.0125c0-.37499.3-.67499.675-.67499h16.1625c.375 0 .675.3.675.67499ZM5.9248 3.18751c.1875-.525.675-.825 1.2375-.825h9.675c.5625 0 1.05.3375 1.2375.825l1.7625 4.5H4.1623l1.7625-4.5ZM20.7373 21.0375c0 .3375-.2625.6-.6.6H3.8623c-.3375 0-.6-.2625-.6-.6V17.475c0-.6.4875-1.125 1.125-1.125h15.75c.3375 0 .6.2625.6.6v4.0875Z" fill="#111928"/><path d="M6.56221 12.825c.45 0 .8625-.375.8625-.825v-.075c0-.45-.375-.8625-.8625-.8625-.4875 0-.8625.375-.8625.8625V12c.0375.45.4125.825.8625.825ZM15.9748 12.825h2.2125c.45 0 .8625-.375.8625-.8625 0-.4875-.375-.8625-.8625-.8625h-2.2125c-.45 0-.8625.375-.8625.8625 0 .4875.4125.8625.8625.8625ZM6.56221 18.075c-.45 0-.8625.375-.8625.8625v.075c0 .45.375.8625.8625.8625.4875 0 .8625-.375.8625-.8625v-.075c0-.4875-.375-.8625-.8625-.8625ZM18.2249 18.3375h-2.2125c-.45 0-.8625.375-.8625.8625 0 .4875.375.8625.8625.8625h2.2125c.45 0 .8625-.375.8625-.8625 0-.4875-.4125-.8625-.8625-.8625Z" fill="#111928"/></svg>