<svg width="24" height="24" viewBox="0 0 24 24" fill="none" xmlns="http://www.w3.org/2000/svg"><path d="M18 13.425c-2.5875 0-4.6875 2.1-4.6875 4.6875s2.1 4.65 4.6875 4.65 4.6875-2.1 4.6875-4.6875S20.55 13.425 18 13.425Zm0 7.65c-1.65 0-3-1.35-3-3s1.35-3 3-3 3 1.35 3 3-1.3875 3-3 3Z" fill="#111928"/><path d="m18.5625 16.65-.9375.9375-.1875-.1875c-.3375-.3375-.8625-.3375-1.2 0-.3375.3375-.3375.8625 0 1.2l.7875.7875c.15.15.375.2625.6.2625.225 0 .45-.075.6-.2625l1.5375-1.5375c.3375-.3375.3375-.8625 0-1.2-.3375-.3375-.9-.3375-1.2 0ZM23.3627 3.59999c0-1.275-1.05-2.3625-2.3625-2.3625h-18c-1.275 0-2.362505 1.05-2.362505 2.3625v4.65c0 .5625.1875 1.0875.525005 1.5-.337505.41251-.525005.90001-.525005 1.46251v4.7625c0 1.275 1.012505 2.2875 2.287505 2.2875h7.95c.45 0 .8625-.375.8625-.8625 0-.4875-.375-.8625-.8625-.8625H2.9627c-.3375 0-.6-.2625-.6-.6v-4.725c0-.3375.2625-.6.6-.6H21.0377c.3375 0 .6.2625.6.6v2.25c0 .45.375.8625.8625.8625.4875 0 .8625-.375.8625-.8625v-2.25c0-.5625-.1875-1.05-.525-1.46251.3375-.4125.525-.9375.525-1.5v-4.65ZM3.0002 8.88749c-.375 0-.675-.3-.675-.675v-4.6125c0-.375.3-.675.675-.675h18c.375 0 .675.3.675.675v4.65c0 .375-.3.675-.675.675h-18v-.0375Z" fill="#111928"/><path d="M6.03779 4.98749c-.45 0-.8625.375-.8625.8625v.075c0 .45.375.8625.8625.8625.4875 0 .8625-.375.8625-.8625v-.075c0-.4875-.375-.8625-.8625-.8625ZM18.7878 5.02499h-2.4375c-.45 0-.8625.375-.8625.8625 0 .4875.375.8625.8625.8625h2.4375c.45 0 .8625-.375.8625-.8625 0-.4875-.375-.8625-.8625-.8625ZM5.21289 13.5v.075c0 .45.375.8625.8625.8625.4875 0 .8625-.375.8625-.8625V13.5c0-.45-.375-.8625-.8625-.8625-.4875 0-.8625.375-.8625.8625Z" fill="#111928"/></svg>