<svg width="23" height="23" viewBox="0 0 23 23" fill="none" xmlns="http://www.w3.org/2000/svg"><path d="M22.3191 9.15423c-.3783-.41957-.9078-.64842-1.4752-.64842h-.1135c-.1892 0-.3405-.11443-.3783-.267s-.1135-.267-.1513-.41957c-.0757-.15257 0-.30514.1135-.41957l.0756-.07629c.4161-.38142.6431-.91542.6431-1.48756s-.1891-1.10613-.6052-1.5257l-1.4753-1.52571c-.7944-.83914-2.1562-.87728-2.9883-.03814l-.1135.07628c-.1135.11443-.3026.15257-.4918.07629-.1513-.07629-.3026-.15257-.4917-.19071-.1892-.07629-.3027-.22886-.3027-.38143v-.19071C14.5645.953566 13.6189 0 12.4462 0h-2.1183c-.5674 0-1.09698.228856-1.47525.610282-.4161.419568-.60524.953568-.60524 1.487558v.15257c0 .15258-.11348.30515-.26479.38143-.07565.03814-.11348.03814-.18913.07629-.15131.07628-.34045.03814-.45393-.07629l-.07565-.11443c-.37827-.41957-.90785-.64842-1.47526-.64842s-1.09699.19071-1.51309.61028L2.76248 3.96683c-.8322.801-.87003 2.17413-.03783 3.01327l.07566.11443c.11348.11443.1513.30514.07565.41957-.07565.15257-.11348.267-.18914.41957-.07565.15257-.18913.22885-.37827.22885h-.11348c-.56741 0-1.09699.19071-1.513085.61028-.416098.38143-.6430613.91543-.6430613 1.4876l-.03782709 2.136C-.0367305 13.5788.908948 14.5323 2.08159 14.5705h.11348c.18914 0 .34045.1144.37827.267.07566.1144.15131.2288.18914.3814s0 .3051-.11348.4196l-.07566.0763c-.4161.3814-.64306.9154-.64306 1.4875 0 .5722.18914 1.1062.60524 1.5257l1.47525 1.5257c.79437.8392 2.15615.8773 2.98835.0382l.11348-.0763c.11348-.1144.30262-.1526.49175-.0763.15131.0763.30262.1526.49176.1907.18913.0763.30261.2289.30261.3814v.1526c0 1.1824.94568 2.136 2.11828 2.136h2.1184c1.1726 0 2.1183-.9536 2.1183-2.136v-.1526c0-.1525.1135-.3051.2648-.3814.0756-.0381.1135-.0381.1891-.0763.1891-.0763.3405-.0381.4539.0763l.0757.1144c.3783.4196.9078.6485 1.4752.6485.5675 0 1.097-.1907 1.5131-.6103l1.5131-1.4876c.8322-.801.87-2.1741.0378-3.0132l-.0756-.1145c-.1135-.1144-.1513-.3051-.0757-.4195.0757-.1526.1135-.267.1892-.4196.0756-.1526.2269-.2289.3782-.2289h.1514c1.1348 0 2.0804-.9154 2.1183-2.0978L23 10.5655c-.0757-.4577-.3026-1.02984-.6809-1.41127Zm-1.1348 3.58537c0 .2289-.1891.4196-.4161.4196h-.1513c-.87 0-1.6644.534-1.967 1.2969-.0378.1144-.1135.2288-.1513.3432-.3405.7629-.1892 1.7165.4161 2.3267l.0756.1145c.1513.1525.1513.4195 0 .5721l-1.5131 1.4876c-.1134.1144-.2269.1144-.3026.1144-.0756 0-.1891 0-.3026-.1144l-.0757-.1145c-.6052-.6484-1.513-.8391-2.3452-.4577l-.1513.0763c-.8322.3433-1.3618 1.1061-1.3618 1.9834v.1526c0 .2289-.1892.4196-.4161.4196h-2.1183c-.227 0-.41614-.1907-.41614-.4196v-.1526c0-.8773-.52958-1.6782-1.36177-1.9834-.11349-.0381-.26479-.1144-.37828-.1526-.30261-.1525-.60523-.1907-.90785-.1907-.52958 0-1.05916.1907-1.47526.6103l-.07565.0382c-.15131.1525-.4161.1525-.56741 0l-1.47526-1.5258c-.11348-.1144-.11348-.2288-.11348-.3051 0-.0763 0-.1907.11348-.3051l.07566-.0763c.64306-.6103.8322-1.5639.49175-2.3267-.03783-.1144-.07565-.2289-.15131-.3433-.30261-.801-1.05916-1.3731-1.92918-1.3731h-.11348c-.22697 0-.4161-.1907-.4161-.4196l.03783-2.136c0-.1526.07565-.2288.11348-.30513.03782-.03815.15131-.11443.30261-.11443h.11349c.87002.03814 1.66439-.49586 2.00483-1.29685.03783-.11443.11349-.22886.15131-.34328.34045-.76286.18914-1.71642-.4161-2.3267l-.07565-.11443c-.15131-.15257-.15131-.41957 0-.57214l1.51309-1.48756c.11348-.11443.22696-.11443.30261-.11443.07566 0 .18914 0 .30262.11443l.07565.11442c.60524.64843 1.51309.83914 2.34529.49586l.15131-.07629c.83219-.34328 1.36177-1.10613 1.36177-1.98341v-.15257c0-.15257.07564-.22886.11344-.30514.0379-.07629.1514-.11443.3027-.11443h2.1183c.2269 0 .4161.19071.4161.41957v.15257c0 .87728.5296 1.67827 1.3618 1.98341.1134.03815.2647.11443.3782.15257.7944.38143 1.7401.22886 2.3831-.38142l.1135-.07629c.1513-.15257.4161-.15257.5674 0l1.4753 1.52571c.1135.11443.1135.22885.1135.30514 0 .07628-.0379.19071-.1135.30514l-.0757.07628c-.6809.57214-.87 1.52571-.5674 2.28856.0379.11443.0757.22886.1513.34329.3026.80099 1.0592 1.37315 1.9292 1.37315h.1135c.1513 0 .227.0763.3026.1144.0757.0382.1135.1526.1135.3051v2.136Z" fill="#111928"/><path d="M11.4629 6.33167c-2.83708 0-5.14454 2.3267-5.14454 5.18743 0 2.8607 2.30746 5.1874 5.14454 5.1874 2.837 0 5.1444-2.3267 5.1444-5.1874 0-2.86073-2.3074-5.18743-5.1444-5.18743Zm0 8.65833c-1.89141 0-3.44232-1.5638-3.44232-3.4709 0-1.90717 1.55091-3.47102 3.44232-3.47102 1.8913 0 3.4422 1.56385 3.4422 3.47102 0 1.9071-1.5509 3.4709-3.4422 3.4709Z" fill="#111928"/></svg>