<svg width="24" height="24" viewBox="0 0 24 24" fill="none" xmlns="http://www.w3.org/2000/svg"><path d="M11.0626 15.975c.45 0 .8625-.375.8625-.8625V9.48746c0-2.025 1.65-3.675 3.675-3.675h4.4625l-2.175 2.0625c-.3375.3375-.3375.8625-.0375 1.2.15.1875.375.2625.6.2625.225 0 .4125-.075.5625-.225l3.45-3.2625c.225-.225.375-.5625.375-.9s-.15-.6375-.375-.8625l-3.45-3.187497c-.3375-.3-.8625-.3-1.2.0375-.3.337497-.3.862497.0375 1.199997l2.175 2.025h-4.5c-2.9625 0-5.3625 2.4-5.3625 5.3625V15.15c.075.45.45.825.9.825Z" fill="#111928"/><path d="M22.1252 14.2875c-.45 0-.8625.375-.8625.8625v5.4375c0 .6-.4875 1.0875-1.0875 1.0875h-16.35c-.6 0-1.0875-.4875-1.0875-1.0875v-5.475c0-.45-.375-.8625-.8625-.8625-.4875 0-.8625.375-.8625.8625V20.55c0 1.5375 1.2375 2.775 2.775 2.775h16.3875c1.5375 0 2.775-1.2375 2.775-2.775v-5.4375c.0375-.45-.3375-.825-.825-.825Z" fill="#111928"/></svg>