<svg width="24" height="24" viewBox="0 0 24 24" fill="none" xmlns="http://www.w3.org/2000/svg"><path d="M4.95 9.07497c.15.15.375.225.5625.225.225 0 .45-.075.6-.2625.3375-.3375.3-.8625-.0375-1.2l-2.1375-2.025H8.4c2.025 0 3.675 1.65 3.675 3.675v5.62503c0 .45.375.8625.8625.8625.4875 0 .8625-.375.8625-.8625V9.48747c0-2.9625-2.4-5.3625-5.3625-5.3625h-4.5l2.175-2.025c.3375-.3.375-.8625.0375-1.199996-.3-.3375-.8625-.375-1.2-.0375L1.5 4.04997c-.2625.225-.375.5625-.375.8625 0 .3375.15.6375.375.9l3.45 3.2625Z" fill="#111928"/><path d="M22.1252 14.2875c-.45 0-.8625.375-.8625.8625v5.4375c0 .6-.4875 1.0875-1.0875 1.0875h-16.35c-.6 0-1.0875-.4875-1.0875-1.0875v-5.475c0-.45-.375-.8625-.8625-.8625-.4875 0-.8625.375-.8625.8625V20.55c0 1.5375 1.2375 2.775 2.775 2.775h16.3875c1.5375 0 2.775-1.2375 2.775-2.775v-5.4375c.0375-.45-.3375-.825-.825-.825Z" fill="#111928"/></svg>