<svg width="24" height="24" viewBox="0 0 24 24" fill="none" xmlns="http://www.w3.org/2000/svg"><path d="M21.1498 7.34998h-.9l-2.4375-6.15c-.1875-.450004-.675-.637504-1.0875-.487504-.45.1875-.6375.675004-.4875 1.087504l2.175 5.55H5.5873l2.17501-5.5125c.1875-.45-.03751-.937504-.4875-1.087504-.41251-.1875-.90001 0-1.08751.450004l-2.4375 6.15h-.9c-.675 0-1.2375.5625-1.2375 1.2375V11.625c0 .6375.45 1.125 1.0875 1.2L3.6373 21c.15 1.35 1.27501 2.3625 2.62501 2.3625H17.7373c1.35 0 2.475-1.0125 2.625-2.3625l.9375-8.175c.6-.075 1.0875-.6 1.0875-1.2V8.54998c0-.675-.5625-1.2-1.2375-1.2Zm-17.85 1.6875h17.4V11.175h-17.4V9.03748ZM17.7373 21.675H6.26231c-.4875 0-.9-.375-.975-.8625l-.90001-7.95h15.225l-.9 7.95c-.075.4875-.4875.8625-.975.8625Z" fill="#111928"/><path d="M8.175 14.5499c-.45 0-.8625.375-.8625.8625v2.8125c0 .45.375.8625.8625.8625.4875 0 .8625-.375.8625-.8625v-2.85c0-.45-.375-.825-.8625-.825ZM15.8249 14.5499c-.45 0-.8625.375-.8625.8625v2.8125c0 .45.375.8625.8625.8625.4875 0 .8625-.375.8625-.8625v-2.85c-.0375-.45-.4125-.825-.8625-.825Z" fill="#111928"/></svg>