<svg width="24" height="24" viewBox="0 0 24 24" fill="none" xmlns="http://www.w3.org/2000/svg"><path d="M11.5504 9.225h2.85c.45 0 .8625-.375.8625-.8625 0-.4875-.375-.8625-.8625-.8625h-2.85c-1.3125 0-2.40001 1.0875-2.40001 2.4v.6c0 1.3125 1.08751 2.4 2.40001 2.4h1.3125c.375 0 .7125.3.7125.7125v.6375c0 .375-.3.7125-.7125.7125h-2.6625c-.45001 0-.86251.375-.86251.8625 0 .4875.375.8625.86251.8625h2.6625c1.3125 0 2.4-1.0875 2.4-2.4v-.6c0-1.3125-1.05-2.4-2.4-2.4h-1.3125c-.375 0-.7125-.3-.7125-.7125v-.6c.0375-.4125.3375-.75.7125-.75ZM6.5252 7.6875c-.3-.375-.825-.4125-1.2-.1125l-4.2375 3.45c-.262505.225-.450005.5625-.450005.9375s.15.675.450005.9l4.275 3.45c.15.1125.3375.1875.525.1875.2625 0 .4875-.1125.6375-.3.3-.375.225-.9-.1125-1.2l-3.7875-3.075L6.4127 8.85c.375-.2625.4125-.825.1125-1.1625ZM22.9128 11.025l-4.275-3.44998c-.375-.3-.9-.225-1.2.1125-.3.375-.225.9.1125 1.2l3.7875 3.03748L17.5503 15c-.375.3-.4125.825-.1125 1.2.15.225.4125.3.675.3.1875 0 .375-.075.525-.1875l4.275-3.45c.3-.225.45-.5625.45-.9375s-.1875-.675-.45-.9Z" fill="#111928"/></svg>