<svg width="24" height="24" viewBox="0 0 24 24" fill="none" xmlns="http://www.w3.org/2000/svg"><path d="M11 4.5V7H8.5C7.11929 7 6 5.88071 6 4.5S7.11929 2 8.5 2 11 3.11929 11 4.5ZM14 2c-1.1046 0-2 .89543-2 2v5c0 1.1046.8954 2 2 2s2-.8954 2-2V4c0-1.10457-.8954-2-2-2ZM10 22c1.1046 0 2-.8954 2-2v-5c0-1.1046-.8954-2-2-2-1.10457 0-2 .8954-2 2v5c0 1.1046.89543 2 2 2ZM17 11h2.5c1.3807 0 2.5-1.11929 2.5-2.5S20.8807 6 19.5 6 17 7.11929 17 8.5V11ZM4.5 13H7v2.5C7 16.8807 5.88071 18 4.5 18S2 16.8807 2 15.5 3.11929 13 4.5 13ZM20 12c1.1046 0 2 .8954 2 2s-.8954 2-2 2h-5c-1.1046 0-2-.8954-2-2s.8954-2 2-2h5ZM2 10c0 1.1046.89543 2 2 2h5c1.1046 0 2-.8954 2-2 0-1.10457-.8954-2-2-2H4c-1.10457 0-2 .89543-2 2ZM13 17v2.5c0 1.3807 1.1193 2.5 2.5 2.5s2.5-1.1193 2.5-2.5-1.1193-2.5-2.5-2.5H13Z" fill="#111928"/></svg>