<svg width="24" height="24" viewBox="0 0 24 24" fill="none" xmlns="http://www.w3.org/2000/svg"><path d="m16.6501 4.64995-.45-2.0625c-.225-1.125-1.2375-1.949999-2.4-1.949999h-3.6375c-1.125 0-2.1375.824999-2.4 1.949999l-.45 2.0625c-1.0125.075-1.8375.9-1.8375 1.95V17.7374c0 1.0501.8625 1.9126 1.9125 1.9501l.375 1.6875c.225 1.125 1.2375 1.95 2.4 1.95h3.6375c1.1625 0 2.1375-.7875 2.4-1.95l.375-1.6875c1.05-.0375 1.9125-.9 1.9125-1.9501V6.59995c0-1.05-.825-1.875-1.8375-1.95Zm-6.45-2.325h3.6375c.375 0 .675.2625.75.6l.3375 1.6875h-5.85l.3375-1.6875c.1125-.3375.4125-.6.7875-.6Zm3.6 19.34995h-3.6375c-.375 0-.675-.2624-.75-.5999l-.3-1.35h5.7l-.3 1.35c-.0375.3375-.3375.5999-.7125.5999Zm3-3.9375c0 .1501-.1125.3001-.3.3001h-9c-.15 0-.3-.1126-.3-.3001V6.59995c0-.15.1125-.3.3-.3h9c.15 0 .3.1125.3.3V17.7374Z" fill="#111928"/><path d="M12.8253 11.8125V8.77495c0-.45-.375-.825-.825-.825-.45 0-.825.375-.825.825V12.15c0 .225.075.45.2625.6l2.1 2.1c.15.15.375.2625.6.2625.225 0 .45-.075.6-.2625.3375-.3375.3375-.8625 0-1.2l-1.9125-1.8375Z" fill="#111928"/></svg>