<svg width="24" height="24" viewBox="0 0 24 24" fill="none" xmlns="http://www.w3.org/2000/svg"><path d="M16.9503 10.275c.45 0 .825-.37495.825-.82495 0-.45-.3375-.8625-.825-.8625l-1.6125-.075-.5625-1.425c-.15-.45-.6375-.6375-1.0875-.4875-.45.15-.6375.675-.4875 1.0875l.75 1.95c.1125.3.4125.52495.75.52495l2.25.1125s-.0375 0 0 0ZM23.2876 9.48757c-.1125-.4125-.4875-.675-.9-.675l-2.2125-.075c-.45-.0375-.8625.3375-.8625.825 0 .45003.3375.86253.825.86253h.2625l-1.125.8625c-.375.2625-.45.825-.15 1.2.15.225.4125.3375.675.3375.1875 0 .3375-.0375.525-.1875l2.7-2.025c.2625-.3.4125-.75003.2625-1.12503ZM17.2875 12.7126l-1.3125.975c-.2625.225-.4125.5625-.3.9l.45 1.575c.1125.375.45.6.825.6.075 0 .15 0 .225-.0375.45-.15.7125-.6.5625-1.05l-.3-1.0125.8625-.6375c.375-.2625.45-.825.15-1.2-.2625-.3-.7875-.375-1.1625-.1125ZM18.7501 19.0875c-.1125-.45-.6-.7125-1.05-.5625-.45.15-.7125.6-.5625 1.05l.075.2625-1.05-.7125c-.375-.2625-.9-.15-1.1625.2625-.2625.375-.15.9.2625 1.1625l2.625 1.6875c.15.1125.3375.15.525.15.225 0 .4125-.075.6-.1875.3375-.2625.4875-.675.3375-1.05l-.6-2.0625Z" fill="#111928"/><path d="m14.2501 17.9251-1.8-1.1625h-.0375c-.0375-.0375-.1125-.075-.1875-.075h-.0375c-.075 0-.15-.0375-.225-.0375h-.0375c-.075 0-.1125 0-.1875.0375h-.0375c-.075.0374-.15.0375-.1875.075l-4.7625 3.0375 1.575-5.175c.1125-.3376-.0375-.7126-.3-.9001l-4.3875-3.3 5.625-.2249c.3375 0 .6375-.22505.75-.52505l1.9875-5.1375.1875.525c.1125.3375.45.525.7875.525.1125 0 .1875 0 .3-.075.45-.15.6375-.675.4875-1.0875l-.825-2.175c-.15-.375-.525-.6375-.9375-.6375s-.7875.2625-.9375.6375l-2.4375 6.3-7.0125.2625c-.4125 0-.787502.3-.900002.675-.1125.375 0 .82505.337502 1.08755l5.5125 4.1624-1.875 6.4126c-.1125.4125.0375.825.3375 1.05.1875.15.375.1875.6.1875.1875 0 .375-.0376.525-.15l5.85-3.75 1.35.8624c.15.0751.3.15.45.15.2625 0 .5625-.15.7125-.375.2625-.4124.15-.9375-.2625-1.1999Z" fill="#111928"/></svg>