<svg width="24" height="24" viewBox="0 0 24 24" fill="none" xmlns="http://www.w3.org/2000/svg"><path d="m20.4557 6.22499-5.0954-5.1c-.2954-.300002-.7015-.450002-1.1077-.450002H5.3911c-1.25539 0-2.32616 1.050002-2.32616 2.362502V11.85c0 .45.36923.8625.84923.8625.48 0 .84923-.375.84923-.8625V2.99999c0-.375.29539-.675.66462-.675h8.34458v4.8c0 .45.3693.8625.8493.8625h4.6892V11.625c0 .45.3692.8625.8492.8625s.8493-.375.8493-.8625V7.34999c-.1108-.4125-.2585-.825-.5539-1.125Zm-5.0585-2.7 2.7693 2.775h-2.7693v-2.775ZM20.0863 19.425c-.4431 0-.8492.375-.8492.8625v.75c0 .375-.2954.675-.6647.675H5.39091c-.36923 0-.66462-.3-.66462-.675v-.525c0-.45-.36923-.8625-.84923-.8625-.48 0-.84923.375-.84923.8625V21c0 1.275 1.03385 2.3625 2.32616 2.3625H18.5355c1.2554 0 2.3262-1.05 2.3262-2.3625v-.75c.0369-.45-.3323-.825-.7754-.825Z" fill="#111928"/><path d="M6.31397 17.775H5.13243c-.44307 0-.84923.375-.84923.8625 0 .4875.36923.8625.84923.8625h1.18154c1.10769 0 2.03077-.9 2.03077-2.0625v-.375c0-1.125-.88615-2.0625-2.03077-2.0625-.18461 0-.36923-.15-.36923-.375v-.45c0-.1875.14769-.375.36923-.375h1.18154c.44308 0 .84923-.375.84923-.8625 0-.4875-.36923-.8625-.84923-.8625H6.31397c-1.10769 0-2.03077.9-2.03077 2.0625v.4875c0 1.125.88616 2.0625 2.03077 2.0625.18462 0 .36923.15.36923.375v.375c0 .1875-.14769.3375-.36923.3375ZM18.794 13.725c.4431 0 .8493-.375.8493-.8625 0-.4875-.3693-.8625-.8493-.8625h-3.1015c-.4431 0-.8492.375-.8492.8625V18.6c0 .45.3692.8625.8492.8625h3.1754c.4431 0 .8492-.375.8492-.8625v-2.85c0-.45-.3692-.8625-.8492-.8625h-1.2185c-.4431 0-.8492.375-.8492.8625 0 .4875.3692.8625.8492.8625h.3692v1.1625h-1.5138v-4.05h2.2892ZM11.52 19.4625c.3692 0 .7015-.2625.8123-.6l1.6246-5.625c.1108-.45-.1108-.9-.5539-1.05-.443-.1125-.8861.1125-1.0338.5625l-.8123 2.8875-.9231-2.8875c-.1477-.45-.5908-.7125-1.03384-.5625-.44307.15-.70154.6-.55384 1.05l1.66158 5.625c.1107.3375.443.6.8123.6Z" fill="#111928"/></svg>