<svg width="24" height="24" viewBox="0 0 24 24" fill="none" xmlns="http://www.w3.org/2000/svg"><path d="M18.2248.675049h-12.45c-1.275 0-2.2875 1.012501-2.2875 2.287501V21.0751c0 1.2749 1.0125 2.2874 2.2875 2.2874h12.4125c1.275 0 2.2875-1.0125 2.2875-2.2874V2.96255c.0375-1.275-1.0125-2.287501-2.25-2.287501Zm.6 20.362451c0 .3375-.2625.6001-.6.6001h-12.45c-.3375 0-.6-.2626-.6-.6001V2.96255c0-.3375.2625-.6.6-.6h12.4125c.3375 0 .6.2625.6.6V21.0375h.0375Z" fill="#111928"/><path d="M12.375 3.7876H9.4875c-.45 0-.8625.375-.8625.8625 0 .4875.375.8625.8625.8625h2.8875c.45 0 .8625-.375.8625-.8625 0-.4875-.4125-.8625-.8625-.8625ZM14.7748 3.7876h-.4875c-.45 0-.8625.375-.8625.8625 0 .4875.375.8625.8625.8625h.4875c.45 0 .8625-.375.8625-.8625 0-.4875-.375-.8625-.8625-.8625ZM11.9997 18.3c-.45 0-.8625.375-.8625.8625 0 .45.375.8625.8625.8625.4875 0 .8625-.375.8625-.8625 0-.4875-.4125-.8625-.8625-.8625Z" fill="#111928"/></svg>