<svg width="23" height="17" viewBox="0 0 23 17" fill="none" xmlns="http://www.w3.org/2000/svg"><path d="M8.70984 17s-.03673 0 0 0c-.1102 0-.18368 0-.25715-.0373-.07347-.0373-.14694-.0745-.22041-.1118-.03674-.0373-.11021-.0746-.14694-.1119-.07347-.0745-.11021-.1118-.14695-.1864-.03673-.0745-.07347-.1118-.07347-.1864L5.99141 9.28289.554534 7.38158c-.33062-.11184-.5877699-.44737-.55103424-.82018 0-.3728.25714924-.67105.62450524-.78289L21.9347.0372808h.0367c.0367 0 .1102-1e-7 .1469-.0372808h.0735c.0735 0 .147 1.4e-7.2204.0372808.0735.0372807.147.0745612.2204.1118422.0368 0 .0368.037281.0735.037281.0368.03728.0735.074561.0735.074561.0367.037281.0735.111842.1102.149123.0367.074561.0367.111842.0735.186403 0 .037281 0 .111842.0367.149123v.074561c0 .074562 0 .149123-.0367.223685v.03728L18.0774 14.1667c-.0734.2237-.2571.4101-.4775.4846-.2205.0746-.4409.0746-.6613 0l-3.4164-1.6031-4.26132 3.7281c-.03674.0373-.11021.0746-.18368.1119-.07347.0372-.14694.0745-.22042.0745C8.82005 17 8.74658 17 8.70984 17Zm2.20416-5.3311-.5878 1.9386 1.6164-1.4167-1.0286-.5219ZM7.68125 9.05921l1.06533 4.06359.88165-2.9079v-.0373c.03674-.0745.07347-.1491.11021-.18637.03674-.03728.03674-.07456.07347-.07456.03674-.03728.07347-.07456.11021-.11185l5.84098-4.80921-8.08185 4.0636Zm6.09815 2.19959 3.0858 1.4539 3.4164-9.28288-8.339 6.85968 1.8368.9693ZM3.67706 6.67325l2.97559 1.00657 7.78795-3.91447-10.76354 2.9079Z" fill="#111928"/></svg>