<svg width="24" height="24" viewBox="0 0 24 24" fill="none" xmlns="http://www.w3.org/2000/svg"><path d="M10.6876 11.2125 2.1001 2.47499c-.3375-.3375-.8625-.3375-1.200002 0-.3375.3375-.3375.8625 0 1.2L8.8876 11.8125l-7.987502 8.1c-.3375.3375-.3375.8625 0 1.2.187502.1875.375002.2625.600002.2625.225 0 .45-.075.6-.2625l8.5875-8.7375c.3-.3.3-.825 0-1.1625ZM22.4999 20.0625H7.5749c-.45 0-.8625.375-.8625.8625 0 .4875.375.8625.8625.8625h14.925c.45 0 .8625-.375.8625-.8625 0-.4875-.4125-.8625-.8625-.8625Z" fill="#111928"/></svg>