<svg width="24" height="24" viewBox="0 0 24 24" fill="none" xmlns="http://www.w3.org/2000/svg"><g clip-path="url(#clip0_310_4063)" fill="#111928"><path d="M17.4746 11.8875h-4.9125V6.33745c0-.45-.375-.825-.825-.825-.45 0-.825.375-.825.825V12.75c0 .45.375.825.825.825h5.7375c.45 0 .825-.375.825-.825 0-.45-.3375-.8625-.825-.8625Z"/><path d="M11.9998.524902C5.73731.524902.674805 5.6624.674805 11.9999c0 6.3375 5.062505 11.475 11.324995 11.475 6.2625 0 11.325-5.1375 11.325-11.475 0-6.3375-5.0625-11.474998-11.325-11.474998Zm0 21.262498c-5.32499 0-9.675-4.3875-9.675-9.7875 0-5.4 4.35001-9.7875 9.675-9.7875 5.325 0 9.675 4.3875 9.675 9.7875 0 5.4-4.35 9.7875-9.675 9.7875Z"/></g><defs><clipPath id="clip0_310_4063"><path fill="#fff" d="M0 0h24v24H0z"/></clipPath></defs></svg>