<svg width="24" height="24" viewBox="0 0 24 24" fill="none" xmlns="http://www.w3.org/2000/svg"><g clip-path="url(#clip0_310_9439)" fill="#111928"><path d="M5.17529.299988h-2.925c-1.0875 0-1.949997.862502-1.949997 1.950002v2.925c0 1.0875.862497 1.95 1.949997 1.95h2.925c1.0875 0 1.9875-.9 1.9875-1.9875v-2.8875c-.0375-1.0875-.9-1.950002-1.9875-1.950002Zm.2625 4.875002c0 .15-.1125.3-.3.3h-2.8875c-.15 0-.3-.1125-.3-.3v-2.925c0-.15.1125-.3.3-.3h2.925c.15 0 .3.1125.3.3v2.925h-.0375ZM13.4628.299988h-2.925c-1.08751 0-1.98751.900002-1.98751 1.987502v2.925c0 1.0875.9 1.9875 1.98751 1.9875h2.925c1.0875 0 1.9875-.9 1.9875-1.9875v-2.9625c-.0375-1.0875-.9-1.950002-1.9875-1.950002Zm.2625 4.875002c0 .15-.1125.3-.3.3h-2.925c-.15 0-.3-.1125-.3-.3v-2.925c0-.15.1125-.3.3-.3h2.925c.15 0 .3.1125.3.3v2.925ZM21.75.299988h-2.925c-1.0875 0-1.95.862502-1.95 1.950002v2.925c0 1.0875.9 1.9875 1.9875 1.9875H21.75c1.0875 0 1.9875-.9 1.9875-1.9875v-2.925c0-1.0875-.9-1.950002-1.9875-1.950002Zm.3 4.875002c0 .15-.1125.3-.3.3h-2.925c-.15 0-.3-.1125-.3-.3v-2.925c0-.15.1125-.3.3-.3h2.925c.15 0 .3.1125.3.3v2.925ZM5.1752 8.58749h-2.925c-1.0875 0-1.987505.9-1.987505 1.98751V13.5c0 1.0875.900005 1.9875 1.987505 1.9875h2.925c1.0875 0 1.98749-.9 1.98749-1.9875v-2.925C7.1252 9.44999 6.2627 8.58749 5.1752 8.58749Zm.2625 4.87501c0 .15-.1125.3-.3.3H2.2502c-.15 0-.3-.1125-.3-.3v-2.925c0-.15.1125-.3.3-.3h2.925c.15 0 .3.1125.3.3v2.925h-.0375ZM13.4628 8.58749h-2.925c-1.08751 0-1.98751.9-1.98751 1.98751V13.5c0 1.0875.9 1.9875 1.98751 1.9875h2.925c1.0875 0 1.9875-.9 1.9875-1.9875v-2.925c-.0375-1.12501-.9-1.98751-1.9875-1.98751Zm.2625 4.87501c0 .15-.1125.3-.3.3h-2.925c-.15 0-.3-.1125-.3-.3v-2.925c0-.15.1125-.3.3-.3h2.925c.15 0 .3.1125.3.3v2.925ZM21.7504 8.58749h-2.925c-1.0875 0-1.9875.9-1.9875 1.98751V13.5c0 1.0875.9 1.9875 1.9875 1.9875h2.925c1.0875 0 1.9875-.9 1.9875-1.9875v-2.925c0-1.12501-.9-1.98751-1.9875-1.98751Zm.3 4.87501c0 .15-.1125.3-.3.3h-2.925c-.15 0-.3-.1125-.3-.3v-2.925c0-.15.1125-.3.3-.3h2.925c.15 0 .3.1125.3.3v2.925ZM5.1752 16.875h-2.925c-1.0875 0-1.987505.9-1.987505 1.9875V21.75c0 1.0875.900005 1.9875 1.987505 1.9875h2.925c1.0875 0 1.98749-.9 1.98749-1.9875v-2.925c-.03749-1.0875-.89999-1.95-1.98749-1.95Zm.2625 4.875c0 .15-.1125.3-.3.3H2.2502c-.15 0-.3-.1125-.3-.3v-2.925c0-.15.1125-.3.3-.3h2.925c.15 0 .3.1125.3.3v2.925h-.0375ZM13.4628 16.875h-2.925c-1.08751 0-1.98751.9-1.98751 1.9875V21.75c0 1.0875.9 1.9875 1.98751 1.9875h2.925c1.0875 0 1.9875-.9 1.9875-1.9875v-2.925c-.0375-1.0875-.9-1.95-1.9875-1.95Zm.2625 4.875c0 .15-.1125.3-.3.3h-2.925c-.15 0-.3-.1125-.3-.3v-2.925c0-.15.1125-.3.3-.3h2.925c.15 0 .3.1125.3.3v2.925ZM21.7504 16.875h-2.925c-1.0875 0-1.9875.9-1.9875 1.9875V21.75c0 1.0875.9 1.9875 1.9875 1.9875h2.925c1.0875 0 1.9875-.9 1.9875-1.9875v-2.925c0-1.0875-.9-1.95-1.9875-1.95Zm.3 4.875c0 .15-.1125.3-.3.3h-2.925c-.15 0-.3-.1125-.3-.3v-2.925c0-.15.1125-.3.3-.3h2.925c.15 0 .3.1125.3.3v2.925Z"/></g><defs><clipPath id="clip0_310_9439"><path fill="#fff" d="M0 0h24v24H0z"/></clipPath></defs></svg>