<svg width="24" height="24" viewBox="0 0 24 24" fill="none" xmlns="http://www.w3.org/2000/svg"><path d="M11.9998 7.875c-3.0375 0-5.5125 2.475-5.5125 5.5125S8.9623 18.9 11.9998 18.9s5.5125-2.475 5.5125-5.5125-2.475-5.5125-5.5125-5.5125Zm0 9.3375c-2.09999 0-3.825-1.725-3.825-3.825s1.72501-3.825 3.825-3.825c2.1 0 3.825 1.725 3.825 3.825 0 2.1375-1.725 3.825-3.825 3.825Z" fill="#111928"/><path d="M12.6002 13.5376v-1.3125c0-.45-.375-.825-.825-.825-.45 0-.825.375-.825.825v1.65c0 .225.075.45.2625.6l.975.975c.15.15.375.2625.6.2625.225 0 .45-.075.6-.2625.3375-.3375.3375-.8625 0-1.2l-.7875-.7125Z" fill="#111928"/><path d="M15.6375.675049h-7.275C5.4.675049 3 3.03755 3 6.00005V18c0 2.9626 2.4 5.3251 5.325 5.3251H15.6c3 0 5.4-2.3625 5.4-5.3251V6.00005c0-2.9625-2.4-5.325001-5.3625-5.325001ZM19.3125 18c0 2.0251-1.65 3.6751-3.675 3.6751h-7.275c-2.025 0-3.675-1.65-3.675-3.6751V6.00005c0-2.025 1.65-3.675 3.675-3.675h7.275c2.025 0 3.675 1.65 3.675 3.675V18Z" fill="#111928"/></svg>