<svg width="24" height="24" viewBox="0 0 24 24" fill="none" xmlns="http://www.w3.org/2000/svg"><path d="M18.2627 12.5625c-2.775 0-5.0625 2.2875-5.0625 5.0625s2.2875 5.0625 5.0625 5.0625 5.0625-2.2875 5.0625-5.0625-2.25-5.0625-5.0625-5.0625Zm0 8.4375c-1.875 0-3.375-1.5-3.375-3.375s1.5-3.375 3.375-3.375 3.375 1.5 3.375 3.375c.0375 1.875-1.5 3.375-3.375 3.375Z" fill="#111928"/><path d="M18.9 17.7v-1.125c0-.45-.375-.825-.825-.825-.45 0-.825.375-.825.825v1.5c0 .225.075.45.2625.6l.8625.8625c.15.15.375.2625.6.2625.225 0 .45-.075.6-.2625.3375-.3375.3375-.8625 0-1.2L18.9 17.7ZM10.4252 17.4375h-7.2c-.4875 0-.9-.4125-.9-.9V3.8625c0-.4875.4125-.8625.9-.8625h5.24999l1.83751 1.9125c.15.15.375.2625.6.2625h8.8875c.4875 0 .9.4125.9.9v4.1625c0 .45.375.825.825.825.45 0 .825-.375.825-.825V6.075c0-1.425-1.1625-2.5875-2.5875-2.5875h-8.475L9.4502 1.575c-.15-.15-.375-.2625-.60001-.2625H3.2252C1.8002 1.3125.637695 2.475.637695 3.9v12.675c0 1.425 1.162505 2.5875 2.587505 2.5875h7.2c.45 0 .825-.375.825-.825 0-.45-.3375-.9-.825-.9Z" fill="#111928"/></svg>