<svg width="24" height="24" viewBox="0 0 24 24" fill="none" xmlns="http://www.w3.org/2000/svg"><g clip-path="url(#clip0_310_4110)" fill="#111928"><path d="m21.8251 13.6124-1.425-.825c.0375-.225.0375-.4875.0375-.7874 0-.2626 0-.5251-.0375-.7875l1.425-.825c.975-.56255 1.3125-1.83755.75-2.81255l-1.4625-2.55c-.2625-.4875-.7125-.825-1.2375-.9375-.525-.15-1.0875-.075-1.575.1875l-1.425.8625c-.4125-.3-.8625-.5625-1.35-.7875v-1.65c0-1.125-.9375-2.062499-2.0625-2.062499h-2.925c-1.12498 0-2.06248.937499-2.06248 2.062499v1.65c-.4875.225-.9375.4875-1.35.75l-1.425-.825c-.4875-.2625-1.0125-.3375-1.575-.1875-.525.15-.975.4875-1.2375.9375l-1.4625 2.55c-.562502.975-.225 2.25.75 2.81255l1.425.825c-.0375.2249-.0375.4875-.0375.7875 0 .2625 0 .5249.0375.7874l-1.425.825c-.975.5625-1.312502 1.8375-.75 2.8125l1.4625 2.55c.2625.4875.7125.825 1.2375.9375.525.15 1.0875.075 1.575-.1875l1.425-.8249c.4125.2999.8625.5625 1.35.75v1.6499c0 1.125.9375 2.0625 2.06248 2.0625h2.925c1.125 0 2.0625-.9375 2.0625-2.0625V19.65c.4875-.2251.9375-.4876 1.35-.7876l1.425.825c.4875.2625 1.0125.3376 1.5375.1875.525-.15.975-.4875 1.2375-.9375l1.4625-2.5499c.5625-.9751.225-2.2126-.7125-2.7751Zm-.7125 1.95-1.4625 2.55c-.0375.075-.1125.15-.225.15-.1125.0375-.1875 0-.2625-.0375l-1.5-.8625c-.5625-.3374-1.2375-.2999-1.7625.0751-.3375.2624-.7125.4499-1.125.6374-.5625.2626-.9375.825-.9375 1.4625v1.725c0 .1875-.15.375-.375.375h-2.925c-.1875 0-.375-.15-.375-.375v-1.725c0-.6375-.37498-1.1999-.93748-1.4625-.4125-.1875-.7875-.4125-1.125-.6374-.2625-.1875-.6-.3001-.9375-.3001-.3 0-.5625.0751-.7875.225l-1.5.8625c-.075.0375-.1875.075-.2625.0375-.075-.0375-.15-.075-.225-.15l-1.4625-2.55c-.1125-.1875-.0375-.4124.1125-.4874l1.5-.8625c.525-.3.8625-.9375.7875-1.5376-.0375-.1875-.0375-.4125-.0375-.6375 0-.2625 0-.4499.0375-.6374.075-.6375-.225-1.2376-.7875-1.53755l-1.5-.8625c-.1875-.1125-.225-.3375-.15-.4875l1.4625-2.55c.0375-.075.1125-.15.225-.15.1125-.0375.1875 0 .2625.0375l1.5.8625c.5625.3375 1.2375.3 1.7625-.075.3375-.2625.7125-.45 1.125-.6375.5625-.2625.93748-.825.93748-1.4625v-1.8375c0-.1875.15-.375.375-.375h2.925c.1875 0 .375.15.375.375v1.725c0 .6375.375 1.2.9375 1.4625.4125.1875.7875.4125 1.125.6375.525.375 1.2.4125 1.725.1125l1.5-.8625c.075-.0375.1875-.075.2625-.0375.075.0375.15.075.225.15l1.4625 2.55c.1125.1875.0375.4125-.1125.4875l-1.5.8625c-.525.30005-.8625.93755-.7875 1.53755.0375.1875.0375.4124.0375.6375 0 .2624 0 .4499-.0375.6374-.075.6375.2625 1.2376.7875 1.5376l1.5.8624c.1875.1501.225.375.15.5625Z"/><path d="M12.0001 7.16235c-2.6625 0-4.8375 2.175-4.8375 4.83755 0 2.6625 2.175 4.8375 4.8375 4.8375 2.6625 0 4.8375-2.175 4.8375-4.8375 0-2.66255-2.175-4.83755-4.8375-4.83755Zm0 7.98755c-1.725 0-3.15-1.425-3.15-3.15 0-1.725 1.425-3.15005 3.15-3.15005 1.725 0 3.15 1.42505 3.15 3.15005 0 1.725-1.425 3.15-3.15 3.15Z"/><path d="M12.6378 12.075v-1.05c0-.45-.375-.825-.825-.825-.45 0-.825.375-.825.825v1.425c0 .225.075.45.2625.6l.825.825c.15.15.375.2625.6.2625.225 0 .45-.075.6-.2625.3375-.3375.3375-.8625 0-1.2l-.6375-.6Z"/></g><defs><clipPath id="clip0_310_4110"><path fill="#fff" d="M0 0h24v24H0z"/></clipPath></defs></svg>