<svg width="24" height="24" viewBox="0 0 24 24" fill="none" xmlns="http://www.w3.org/2000/svg"><path d="M12.3379 11.175c2.8875 0 5.25-2.36245 5.25-5.24995S15.2254.675049 12.3379.675049c-2.88751 0-5.25001 2.362501-5.25001 5.250001S9.45039 11.175 12.3379 11.175Zm0-8.84995c1.9875 0 3.5625 1.6125 3.5625 3.5625s-1.6125 3.5625-3.5625 3.5625c-1.9875 0-3.56251-1.6125-3.56251-3.5625s1.61251-3.5625 3.56251-3.5625Z" fill="#111928"/><path d="M12.4501 7.8751c.15.15.375.2625.6.2625.225 0 .45-.075.6-.2625.3375-.3375.3375-.8625 0-1.2l-.7125-.675v-1.2c0-.45-.375-.825-.825-.825-.45 0-.825.375-.825.825v1.575c0 .225.075.45.2625.6l.9.9Z" fill="#111928"/><path d="M20.5877 3.86255h-.8625c-.45 0-.825.375-.825.825 0 .45.375.825.825.825h.8625c.4125 0 .7125.3375.7125.7125V17.2501c0 .4124-.3375.7125-.7125.7125H3.4127c-.4125 0-.7125-.3375-.7125-.7125V6.26255c0-.4125.3375-.7125.7125-.7125h1.425c.45 0 .825-.375.825-.825 0-.45-.375-.825-.825-.825h-1.425c-1.3125 0-2.4 1.0875-2.4 2.4V17.2501c0 1.3125 1.0875 2.4 2.4 2.4h5.96249c-.11249.6-.41249 1.5749-1.0875 2.2125-.26249.225-.3375.6-.22499.9375.1125.3375.45.525.78749.525h6.22501c.3375 0 .675-.2251.7875-.525.1125-.3001.0375-.6751-.225-.9375-.7125-.6376-.975-1.6125-1.0875-2.2125h5.9625c1.3125 0 2.4-1.0875 2.4-2.4V6.26255c.075-1.3125-1.0125-2.4-2.325-2.4ZM13.5002 21.6751h-3c.375-.7875.525-1.5375.6-1.9875h1.8c.075.45.225 1.2.6 1.9875Z" fill="#111928"/></svg>