<svg width="24" height="24" viewBox="0 0 24 24" fill="none" xmlns="http://www.w3.org/2000/svg"><path d="M18.3377 3.30001h-2.8875v-.6375c0-1.125-.9-2.024998-2.025-2.024998h-2.8875c-1.125 0-2.025.899998-2.025 2.024998v.6375H5.6252c-1.0875 0-1.9875.9-1.9875 1.9875v1.125c0 .825.4875 1.5 1.2 1.8l.6 12.97499c.075 1.2375 1.05 2.175 2.2875 2.175h8.4375c1.2375 0 2.25-.975 2.2875-2.175l.675-13.01249c.7125-.3 1.2-1.0125 1.2-1.8v-1.125c0-1.05-.9-1.95-1.9875-1.95Zm-8.1-.6375c0-.1875.15-.3375.3375-.3375h2.8875c.1875 0 .3375.15.3375.3375v.6375h-3.525v-.6375h-.0375Zm-4.875 2.625c0-.15.1125-.3.3-.3h12.675c.15 0 .3.1125.3.3v1.125c0 .15-.1125.3-.3.3H5.6627c-.15 0-.3-.1125-.3-.3v-1.125ZM16.2002 21.675h-8.4c-.3375 0-.6-.2625-.6-.5625l-.6-12.71249h10.8375l-.6 12.71249c-.0375.3-.3.5625-.6375.5625Z" fill="#111928"/><path d="M12.0002 11.6625c-.45 0-.8625.375-.8625.8625v5.8125c0 .45.375.8625.8625.8625.45 0 .8625-.375.8625-.8625v-5.85c0-.45-.4125-.825-.8625-.825ZM15.4875 12.375c-.45-.0375-.8625.3375-.9.7875l-.225 4.3125c-.0375.45.3375.8625.7875.9h.0375c.45 0 .825-.3375.825-.7875l.225-4.3125c.075-.4875-.3-.8625-.75-.9ZM8.47515 12.375c-.45.0375-.825.4125-.7875.9l.2625 4.35c.0375.45.4125.7875.825.7875h.0375c.45-.0375.825-.4125.7875-.9l-.225-4.35c-.0375-.45-.45-.825-.9-.7875Z" fill="#111928"/></svg>