<svg width="18" height="23" viewBox="0 0 18 23" fill="none" xmlns="http://www.w3.org/2000/svg"><path d="M17.5528 5.61716 12.4099.455446C12.1118.151815 11.7019 0 11.2919 0H2.34783C1.08075 0 0 1.06271 0 2.39109V20.6089C0 21.8993 1.04348 23 2.34783 23H15.6522C16.9193 23 18 21.9373 18 20.6089V6.75578c0-.4175-.1491-.83499-.4472-1.13862Zm-5.1056-2.73267 2.795 2.80858h-2.795V2.88449Zm3.2422 18.36961H2.34783c-.37267 0-.67081-.3036-.67081-.6831V2.35314c0-.37954.29814-.68317.67081-.68317h8.42237v4.85808c0 .45545.3727.87294.8571.87294h4.7329V20.571c-.0372.3795-.3354.6831-.6708.6831Z" fill="#111928"/><path d="M13.6025 15.1816c-.4472 0-.8572.3795-.8572.8729v1.2525H5.29192v-1.2904c0-.4555-.37267-.873-.85714-.873s-.85714.3796-.85714.873v1.4802c0 .8349.6708 1.4801 1.45341 1.4801h7.86335c.8199 0 1.4534-.6831 1.4534-1.4801v-1.4802c.0746-.4555-.2981-.835-.7453-.835Z" fill="#111928"/><path d="m7.26718 12.5628.93168-.9109v2.9983c0 .4555.37267.8729.85714.8729.4472 0 .85714-.3795.85714-.8729v-2.9983l.93166.9109c.1491.1518.3727.2277.5963.2277.2236 0 .4472-.0759.5963-.2657.3354-.3416.2981-.8729 0-1.2145L9.72681 8.99509c-.33541-.30363-.85715-.34158-1.15528 0L6.2237 11.3103c-.3354.3416-.3354.8729-.03727 1.2145.22361.3416.74535.3416 1.08075.038Z" fill="#111928"/></svg>