<svg width="24" height="24" viewBox="0 0 24 24" fill="none" xmlns="http://www.w3.org/2000/svg"><path d="M8.1749 13.8c2.5875 0 4.65-2.1 4.65-4.65 0-2.55-2.1-4.65-4.65-4.65-2.55 0-4.65 2.0625-4.65 4.65 0 2.5875 2.1 4.65 4.65 4.65Zm0-7.65c1.65 0 2.9625 1.35 2.9625 2.9625 0 1.6125-1.35 2.9625-2.9625 2.9625-1.65 0-2.9625-1.35-2.9625-2.9625C5.2124 7.5 6.5249 6.15 8.1749 6.15ZM8.1751 14.9625c-2.7 0-5.2875 1.0875-7.275002 3.1125-.3375.3375-.3375.8625 0 1.2.150002.15.375002.2625.600002.2625.225 0 .45-.075.6-.2625 1.65-1.6875 3.825-2.625 6.075-2.625 2.2125 0 4.3875.9375 6.075 2.625.3375.3375.8625.3375 1.2 0 .3375-.3375.3375-.8625 0-1.2-1.9875-1.9875-4.575-3.1125-7.275-3.1125ZM17.7378 13.8c1.5 0 2.7375-1.2375 2.7375-2.7375 0-1.50005-1.2375-2.73755-2.7375-2.73755-1.5 0-2.7375 1.2375-2.7375 2.73755-.0375 1.5 1.2 2.7375 2.7375 2.7375Zm0-3.82505c.6 0 1.05.48755 1.05 1.05005 0 .6-.4875 1.05-1.05 1.05s-1.05-.4875-1.05-1.05c-.0375-.5625.45-1.05005 1.05-1.05005ZM23.0626 17.1c-1.9875-1.8375-4.725-2.5875-7.4625-1.875-.45.1125-.7125.5625-.6 1.0125.1125.45.6.7125 1.0125.6 2.175-.5625 4.35 0 5.8875 1.4625.15.15.375.225.5625.225.225 0 .45-.075.6-.2625.375-.3.3375-.825 0-1.1625Z" fill="#111928"/></svg>