<svg width="24" height="24" viewBox="0 0 24 24" fill="none" xmlns="http://www.w3.org/2000/svg"><path d="M12 10.5c-2.8125 0-5.0625-2.21251-5.0625-4.91251S9.1875.674988 12 .674988s5.0625 2.212502 5.0625 4.912502c0 2.7-2.25 4.91251-5.0625 4.91251Zm0-8.13751c-1.875 0-3.375 1.4625-3.375 3.225 0 1.7625 1.5 3.225 3.375 3.225s3.375-1.4625 3.375-3.225c0-1.7625-1.5-3.225-3.375-3.225ZM19.1626 23.3625H4.8376c-.8625 0-1.6125-.7125-1.6125-1.6125V17.1c0-2.85 2.325-5.175 5.175-5.175h7.1625c2.85 0 5.175 2.325 5.175 5.175v4.65c0 .8625-.7125 1.6125-1.575 1.6125ZM4.9501 21.675h14.1375V17.1c0-1.9125-1.575-3.4875-3.4875-3.4875h-7.2c-1.9125 0-3.4875 1.575-3.4875 3.4875v4.575h.0375Z" fill="#111928"/></svg>