<svg width="24" height="24" viewBox="0 0 24 24" fill="none" xmlns="http://www.w3.org/2000/svg"><path d="M12 13.8c3.1125 0 5.625-2.5125 5.625-5.62495 0-3.1125-2.5125-5.625-5.625-5.625s-5.625 2.5125-5.625 5.625C6.375 11.2875 8.8875 13.8 12 13.8Zm0-9.56245c2.175 0 3.9375 1.7625 3.9375 3.9375 0 2.17495-1.7625 3.93745-3.9375 3.93745S8.0625 10.35 8.0625 8.17505c0-2.175 1.7625-3.9375 3.9375-3.9375ZM23.0626 19.95c-3.075-2.5875-6.975-4.0125-11.0625-4.0125-4.08745 0-7.98745 1.425-11.062454 4.0125-.3375.3-.4125.825-.1125 1.2.300004.3375.825004.4125 1.200004.1125 2.775-2.3625 6.3-3.6375 9.97495-3.6375 3.675 0 7.2 1.275 9.9375 3.6.15.15.3375.1875.5625.1875.225 0 .4875-.1125.6375-.3.3-.3375.2625-.8625-.075-1.1625Z" fill="#111928"/></svg>