<svg width="24" height="24" viewBox="0 0 24 24" fill="none" xmlns="http://www.w3.org/2000/svg"><path d="m16.9365 12.5652.6344-1.8899h.0132l.6399 1.8899h-1.2875Z" fill="#111928"/><path d="M4 6c-1.10457 0-2 .89543-2 2v8c0 1.1046.89543 2 2 2h16c1.1046 0 2-.8954 2-2V8c0-1.10457-.8954-2-2-2H4Zm1.88027 8.8514c-.10143-.088-.18742-.2283-.25799-.4209l-1.60086-4.4071C3.94444 9.6 3.34047 9.17332 3 9l1.50433.01651c.18081 0 .31532.04951.40352.14855.09261.09904.17199.24484.23814.43742l1.16407 3.36022 1.16446-3.36848c.06615-.19257.14554-.33562.23815-.42916.09261-.09904.22271-.14855.39029-.14855.13671 0 .25138.04401.34399.13205.09261.08253.14994.20082.17199.35488.02646.15406.00441.32737-.06615.51996l-1.60748 4.4071c-.06615.1926-.14994.3329-.25137.4209-.10144.0881-.23594.1321-.40353.1321-.16758 0-.30429-.044-.41014-.1321ZM12.9566 15c-.1764 0-.3617-.0165-.5557-.0495-.1896-.0275-.3705-.0715-.5425-.1321-.1719-.0605-.3263-.132-.463-.2145-.1191-.0716-.2029-.1651-.2514-.2807-.0485-.121-.0661-.2475-.0529-.3796.0132-.132.0507-.2476.1124-.3466.0618-.1046.1434-.1733.2448-.2064.1014-.0385.2161-.022.344.0496.1676.099.3572.176.5689.2311.2117.055.4101.0825.5954.0825.291 0 .4939-.0468.6086-.1403.119-.0991.1786-.2201.1786-.3632 0-.1265-.0419-.2283-.1257-.3053-.0794-.077-.2227-.1431-.43-.1981l-.774-.2063c-.4233-.1101-.7387-.3026-.9459-.5777-.2073-.2751-.311-.63-.311-1.0647 0-.2861.0463-.5447.139-.7758.097-.23657.2315-.43739.4035-.60245.1764-.16507.3837-.29161.6218-.37965.2426-.09353.5116-.1403.8071-.1403.2293 0 .4608.03301.6945.09904.2382.06052.4433.15405.6153.2806.1014.06603.1742.15681.2183.27235.0441.11555.0617.23659.0529.36311-.0088.1211-.0441.2284-.1059.3219-.0573.0935-.1367.1568-.2381.1898-.097.0275-.2139.0055-.3506-.066-.1279-.0715-.2734-.1238-.4366-.1568-.1588-.0385-.3131-.0578-.4631-.0578-.1631 0-.3021.0248-.4167.0743-.1147.044-.2029.11-.2646.1981-.0574.088-.086.1898-.086.3053 0 .1156.0375.2146.1124.2971.0794.0771.2227.1431.43.1981l.7674.2063c.4277.1156.7475.3054.9592.5695.2116.2641.3175.608.3175 1.0316 0 .2862-.0463.5448-.1389.7758-.0926.2311-.2249.4292-.3969.5943-.172.1595-.3793.2833-.6219.3714-.2425.088-.5159.132-.8202.132Zm-3.18538-.0165c-.19405 0-.34399-.066-.44983-.1981-.10584-.1375-.15877-.3301-.15877-.5777V9.7923c0-.2531.05293-.44567.15877-.57772.10584-.13205.25578-.19807.44983-.19807.19845 0 .34838.06602.44978.19807.1059.13205.1588.32462.1588.57772v4.4154c0 .2476-.0507.4402-.1521.5777-.1015.1321-.25362.1981-.45648.1981Zm5.58368-.1155c-.0926-.0826-.1499-.1926-.172-.3302-.022-.143-.0022-.3026.0596-.4787l1.6471-4.42361c.0794-.21458.1764-.37139.2911-.47043.1191-.09904.2536-.14855.4035-.14855.15 0 .2801.04951.3903.14855.1147.09904.2139.25585.2977.47043l1.6472 4.42361c.0705.1761.0948.3357.0727.4787-.0176.1431-.0727.2531-.1654.3302-.0882.077-.1984.1155-.3307.1155-.1764 0-.3131-.0495-.4102-.1486-.0926-.099-.1764-.2586-.2513-.4786l-.2138-.6273h-2.0796l-.2138.6273c-.0793.22-.1609.3796-.2447.4786-.0838.0991-.2117.1486-.3837.1486-.1367 0-.2514-.0385-.344-.1155Z" fill="#111928"/></svg>