<svg width="23" height="22" viewBox="0 0 23 22" fill="none" xmlns="http://www.w3.org/2000/svg"><path d="M.872937 5.76807c.455443 0 .872933-.36975.872933-.85042V1.70084h3.30199c.45544 0 .87293-.36975.87293-.85042C5.92079.369748 5.54125 0 5.04786 0H.872937C.417492 0 0 .369748 0 .85042v4.1042c.0379538.4437.417492.81345.872937.81345ZM22.127.0369263h-4.175c-.4554 0-.8729.3697477-.8729.8504197 0 .480674.3795.850424.8729.850424h3.302v3.25378c0 .4437.3796.85042.873.85042s.8729-.36975.8729-.85042V.850372c0-.443698-.4175-.8134457-.8729-.8134457ZM22.127 16.1949c-.4555 0-.873.3698-.873.8505v3.2537h-3.302c-.4554 0-.8729.3698-.8729.8505 0 .4806.3795.8504.8729.8504h4.175c.4554 0 .8729-.3698.8729-.8504v-4.1412c0-.4437-.4175-.8135-.8729-.8135ZM5.04786 20.2622H1.74587v-3.2538c0-.4437-.37953-.8504-.872933-.8504C.379538 16.158 0 16.5278 0 17.0084v4.1042c0 .4437.379538.8505.872937.8505H5.04786c.45544 0 .87293-.3698.87293-.8505 0-.4806-.41749-.8504-.87293-.8504ZM19.0151 10.9815c0-.3697-.1519-.7025-.4175-.9243-1.0248-.99836-3.7575-3.32777-7.0974-3.32777-3.33993 0-6.0726 2.32941-7.09736 3.32777-.26567.2588-.41749.5916-.41749.9243 0 .3328.15182.7026.41749.9244 1.02476.9983 3.75743 3.3277 7.09736 3.3277 3.3399 0 6.0726-2.3294 7.0974-3.3277.2656-.2218.4175-.5546.4175-.9244Zm-7.5149 2.5883c-2.46699 0-4.70627-1.7378-5.65511-2.5883.91089-.8504 3.15016-2.5882 5.65511-2.5882 2.505 0 4.7063 1.7378 5.6551 2.5882-.9488.8505-3.1881 2.5883-5.6551 2.5883Z" fill="#111928"/><path d="M10.8926 10.3899c-.1518.1479-.2656.3698-.2656.5916v.1479c0 .037.0379.1109.0379.1479.038.037.038.1109.0759.1479.038.037.0759.074.1139.1109.1518.1479.3795.2589.6072.2589h.1519c.0379 0 .1138-.037.1518-.037.0379-.037.1138-.037.1518-.074.0379-.0369.0759-.0739.1138-.1109.038-.037.076-.0739.1139-.1109.038-.037.038-.1109.0759-.1479.038-.037.038-.1109.038-.1479v-.1479c0-.2219-.0759-.4437-.2657-.5916-.038-.037-.0759-.074-.1139-.1109-.0379-.037 0-.074-.0379-.111-.038-.0369-.1139-.0369-.1518-.0369-.3037-.074-.6073.0369-.7971.2218Z" fill="#111928"/></svg>