<svg width="24" height="24" viewBox="0 0 24 24" fill="none" xmlns="http://www.w3.org/2000/svg"><path d="M21.5999 10.275c0-2.58751-1.0125-4.98751-2.8125-6.78751-1.8-1.8375-4.2375-2.812502-6.7875-2.812502S7.0124 1.68749 5.2124 3.48749c-1.8 1.8-2.8125 4.2-2.8125 6.78751 0 2.55 1.0125 4.9875 2.8125 6.7875.6.6 1.2375 1.0875 1.9125 1.5l-.975 2.5125c-.375.75-.075 1.65.675 2.0625.3375.1875.7125.225 1.0875.15 2.7-.6 5.475-.6 8.175 0 .1125.0375.225.0375.3375.0375.3 0 .6-.075.8625-.2625.3375-.225.6-.5625.675-.975.075-.3375.0375-.7125-.1125-1.0125l-.975-2.5125c2.8125-1.6875 4.725-4.7625 4.725-8.2875ZM16.2374 21.6c-2.8125-.6-5.6625-.6-8.475 0l.9-2.325c1.05.375 2.175.6 3.3375.6s2.2875-.225 3.3375-.6l.9 2.325Zm-4.2375-3.4125c-2.1 0-4.125-.825-5.5875-2.325-1.5-1.5-2.325-3.4875-2.325-5.625 0-2.10001.825-4.12501 2.325-5.62501 1.5-1.5 3.4875-2.325 5.625-2.325 2.1 0 4.125.825 5.5875 2.325 1.5 1.5 2.325 3.4875 2.325 5.62501-.0375 4.3875-3.6 7.95-7.95 7.95Z" fill="#111928"/><path d="M11.9999 6.11249c-2.2875 0-4.1625 1.875-4.1625 4.16251 0 1.125.45 2.175 1.2375 2.9625.7875.7875 1.8375 1.2375 2.9625 1.2375 2.2875 0 4.1625-1.875 4.1625-4.1625 0-1.12501-.45-2.17501-1.2375-2.96251-.7875-.7875-1.8375-1.2375-2.9625-1.2375Zm0 6.63751c-.675 0-1.275-.2625-1.7625-.7125-.4875-.45-.7125-1.0875-.7125-1.7625 0-.67501.2625-1.27501.7125-1.76251.4875-.4875 1.0875-.7125 1.7625-.7125s1.275.2625 1.7625.7125c.4875.4875.7125 1.0875.7125 1.76251 0 1.35-1.0875 2.475-2.475 2.475ZM11.3249 5.32498h1.35c.45 0 .8625-.375.8625-.8625 0-.4875-.375-.8625-.8625-.8625h-1.35c-.45 0-.8625.375-.8625.8625 0 .4875.4125.8625.8625.8625Z" fill="#111928"/></svg>