<svg width="24" height="24" viewBox="0 0 24 24" fill="none" xmlns="http://www.w3.org/2000/svg"><path d="M7.35009 10.3125c-.375-.2625-.9-.15-1.1625.225l-.75 1.0875-.6-.9c-.1875-.2625-.4875-.4125-.825-.4125-.3375 0-.6375.15-.825.4125l-.6375.9-.75-1.0875c-.2625-.375-.7875-.4875-1.162497-.225-.375.2625-.4875.7875-.225 1.1625l1.312497 1.95c.1875.2625.4875.4125.825.4125.3375 0 .6375-.15.825-.4125l.6-.9.6.9c.1875.2625.4875.4125.825.4125.3375 0 .6375-.15.825-.4125l1.3125-1.95c.3-.375.1875-.9-.1875-1.1625ZM15.3375 10.3125c-.375-.2625-.9-.15-1.1625.225l-.75 1.0875-.6-.9c-.1875-.2625-.4875-.4125-.825-.4125-.3375 0-.6375.15-.825.4125l-.6.9-.75-1.0875c-.2625-.375-.7875-.4875-1.1625-.225-.375.2625-.48751.7875-.22501 1.1625l1.3125 1.95c.1875.2625.48751.4125.82501.4125s.6375-.15.825-.4125l.6-.9.6.9c.1875.2625.4875.4125.825.4125.3375 0 .6375-.15.825-.4125l1.3125-1.95c.2625-.375.1875-.9-.225-1.1625ZM23.3628 10.3125c-.375-.2625-.9-.15-1.1625.225l-.75 1.0875-.6-.9c-.1875-.2625-.4875-.4125-.825-.4125-.3375 0-.6375.15-.825.4125l-.6375.9-.75-1.0875c-.2625-.375-.7875-.4875-1.1625-.225-.375.2625-.4875.7875-.225 1.1625l1.3125 1.95c.1875.2625.4875.4125.825.4125.3375 0 .6375-.15.825-.4125l.6-.9.6.9c.1875.2625.4875.4125.825.4125.3375 0 .6375-.15.825-.4125l1.3125-1.95c.3-.375.1875-.9-.1875-1.1625Z" fill="#111928"/></svg>