<svg width="24" height="24" viewBox="0 0 24 24" fill="none" xmlns="http://www.w3.org/2000/svg"><path d="m17.6249 9.86254.1875-.4125.1875.4125c.15.33746.4875.52496.8625.52496.375 0 .675-.1875.8625-.52496l.9375-1.9125c.225-.4125.0375-.9375-.375-1.125s-.9375-.0375-1.125.375l-.3.5625-.1875-.4125c-.15-.3375-.4875-.525-.8625-.525-.375 0-.675.1875-.8625.525l-.1875.4125-.2625-.6c-.225-.4125-.7125-.6-1.125-.375-.225.1125-.375.3375-.45.5625-.0375-.225-.225-.45-.45-.5625-.4125-.225-.9375-.0375-1.125.375l-.3.5625-.1875-.4125c-.15-.3375-.4875-.525-.8625-.525-.375 0-.675.1875-.8625.525l-.1875.4125-.3-.5625c-.225-.4125-.71253-.6-1.12503-.375-.225.1125-.375.3375-.45.5625-.0375-.225-.225-.45-.45-.5625-.4125-.225-.9375-.0375-1.125.375l-.3.5625-.1875-.4125c-.15-.3375-.4875-.525-.8625-.525-.375 0-.675.1875-.8625.525l-.1875.4125-.3-.5625c-.225-.4125-.7125-.6-1.125-.375-.4125.225-.6.7125-.375 1.125l.9375 1.9125c.15.33746.4875.52496.8625.52496.375 0 .675-.1875.8625-.52496l.1875-.4125.1875.4125c.15.33746.4875.52496.8625.52496.375 0 .675-.1875.8625-.52496l.9375-1.9125c.0375-.075.0375-.1125.075-.1875 0 .075.0375.1125.075.1875l.93753 1.9125c.15.33746.4875.52496.8625.52496.375 0 .675-.1875.8625-.52496l.1875-.4125.1875.4125c.15.33746.4875.52496.8625.52496.375 0 .675-.1875.8625-.52496l.9375-1.9125c.0375-.075.0375-.1125.075-.1875 0 .075.0375.1125.075.1875l.9375 1.9125c.15.33746.4875.52496.8625.52496.3375.0375.675-.1875.825-.48746Z" fill="#111928"/><path d="M21.8998 2.73755h-19.8c-1.0125 0-1.799995.825-1.799995 1.8375V12.525c0 1.0125.824995 1.8375 1.799995 1.8375h11.8875c.45 0 .8625-.375.8625-.8625 0-.4875-.375-.8625-.8625-.8625H2.0998c-.075 0-.1125-.075-.1125-.15V4.57505c0-.075.0375-.15.1125-.15h19.8375c.075 0 .1125.075.1125.15V12.525c0 .075-.075.15-.15.15-.45 0-.8625.375-.8625.8625 0 .4875.375.8625.8625.8625 1.0125 0 1.8375-.825 1.8375-1.8375V4.57505c0-1.0125-.825-1.8375-1.8375-1.8375Z" fill="#111928"/><path d="M22.9875 16.4625 17.7 13.8c-.45-.225-.975-.15-1.275.1875-.3375.3375-.4125.8625-.1875 1.3125L18.9 20.5875c.225.4125.6375.7125 1.125.7125h.0375c.4125 0 .7875-.2625.9375-.6375l.6375-1.4625 1.4625-.6375c.375-.15.6-.525.6375-.9375-.0375-.525-.3-.975-.75-1.1625Zm-2.6625 1.425-.4125.9375-1.3875-2.7375 2.7375 1.3875-.9375.4125Z" fill="#111928"/></svg>