<svg width="24" height="24" viewBox="0 0 24 24" fill="none" xmlns="http://www.w3.org/2000/svg"><path d="M7.5002 22.35c-.45 0-.8625-.375-.8625-.8625 0-8.025 6.525-14.51252 14.5125-14.51252.45 0 .8625.375.8625.8625 0 .4875-.375.8625-.8625.8625-7.0875 0-12.825 5.77502-12.825 12.82502 0 .4125-.375.825-.825.825Z" fill="#111928"/><path d="M13.2751 22.35c-.45 0-.8625-.375-.8625-.8625 0-4.8375 3.9375-8.775 8.775-8.775.45 0 .8625.375.8625.8625 0 .4875-.375.8625-.8625.8625-3.9 0-7.0875 3.1875-7.0875 7.0875 0 .4125-.375.825-.825.825ZM1.6877 22.35c-.45 0-.862505-.375-.862505-.8625C.825195 10.275 9.9377 1.16248 21.1502 1.16248c.45 0 .8625.375.8625.8625 0 .4875-.375.8625-.8625.8625-10.2375-.0375-18.6 8.32502-18.6 18.60002 0 .45-.4125.8625-.8625.8625Z" fill="#111928"/><path d="M20.1754 22.8375c-1.65 0-2.9625-1.35-2.9625-2.9625 0-1.6125 1.35-2.9625 2.9625-2.9625 1.6125 0 2.9625 1.35 2.9625 2.9625 0 1.6125-1.3125 2.9625-2.9625 2.9625Zm0-4.2375c-.7125 0-1.275.5625-1.275 1.275 0 .7125.5625 1.275 1.275 1.275.7125 0 1.275-.5625 1.275-1.275.0375-.7125-.5625-1.275-1.275-1.275Z" fill="#111928"/></svg>