<svg width="24" height="24" viewBox="0 0 24 24" fill="none" xmlns="http://www.w3.org/2000/svg"><path d="M22.0499 1.87501c0-.45-.375-.8625-.8625-.8625-11.0625.0375-20.1 9.03749-20.1 20.13749 0 .45.375.8625.8625.8625.4875 0 .8625-.375.8625-.8625 0-10.1625 8.25-18.41249 18.4125-18.41249.45 0 .825-.4125.825-.8625Z" fill="#111928"/><path d="M22.05 9.97499c0-.45-.375-.8625-.8625-.8625-6.6 0-12 5.40001-12 12.00001 0 .45.375.8625.8625.8625.4875 0 .8625-.375.8625-.8625 0-5.7 4.6125-10.3125 10.3125-10.3125.45.0375.825-.3375.825-.82501ZM19.8001 16.8c-1.6875 0-3.075 1.3875-3.075 3.075 0 1.6875 1.3875 3.075 3.075 3.075 1.6875 0 3.075-1.3875 3.075-3.075 0-1.6875-1.35-3.075-3.075-3.075Zm0 4.5c-.7875 0-1.3875-.6375-1.3875-1.3875s.6375-1.3875 1.3875-1.3875 1.3875.6375 1.3875 1.3875-.6 1.3875-1.3875 1.3875Z" fill="#111928"/></svg>