<svg width="24" height="24" viewBox="0 0 24 24" fill="none" xmlns="http://www.w3.org/2000/svg"><path d="M13.7249 16.9125c-.975-.975-2.5125-.975-3.4875 0-.45.45-.7125 1.0875-.7125 1.725 0 .675.2625 1.275.7125 1.725.45.45 1.0875.7125 1.725.7125.6375 0 1.275-.2625 1.725-.7125.45-.45.7125-1.0875.7125-1.725.075-.6375-.1875-1.2375-.675-1.725ZM12.5624 19.2c-.3.3-.7875.3-1.0875 0-.15-.15-.225-.3375-.225-.5625 0-.225.075-.4125.225-.5625.15-.15.3375-.225.5625-.225.1875 0 .4125.075.5625.225.15.15.225.3375.225.5625 0 .225-.1125.4125-.2625.5625Z" fill="#111928"/><path d="M11.9997 12.45c-1.8375 0-3.56249.7125-4.87499 2.025-.3375.3375-.3375.8625 0 1.2.3375.3375.8625.3375 1.2 0 .975-.975 2.28749-1.5375 3.67499-1.5375 1.3875 0 2.7.525 3.675 1.5375.15.15.375.2625.6.2625.225 0 .45-.075.6-.2625.3375-.3375.3375-.8625 0-1.2-1.3125-1.3125-3.0375-2.025-4.875-2.025Z" fill="#111928"/><path d="M19.9499 11.3625c-4.3875-4.38748-11.55-4.38748-15.9375 0-.3375.3375-.3375.8625 0 1.2.3375.3375.8625.3375 1.2 0 3.75-3.74998 9.825-3.74998 13.5375 0 .15.15.375.2625.6.2625.225 0 .45-.075.6-.2625.3375-.3375.3375-.9 0-1.2Z" fill="#111928"/></svg>