<svg width="24" height="24" viewBox="0 0 24 24" fill="none" xmlns="http://www.w3.org/2000/svg"><g clip-path="url(#clip0_310_9426)" fill="#111928"><path d="M21.0002 23.3625h-18c-1.275 0-2.362505-1.05-2.362505-2.3625V3.00001c0-1.275 1.050005-2.362498 2.362505-2.362498h9.9375c.45 0 .8625.374998.8625.862498s-.375.8625-.8625.8625H3.0002c-.375 0-.6375.2625-.6375.6375V21c0 .375.3.675.675.675h18c.375 0 .675-.3.675-.675v-9.9c0-.45.375-.8625.8625-.8625.4875 0 .8625.375.8625.8625V21c-.075 1.275-1.1625 2.3625-2.4375 2.3625Z"/><path d="M12.0001 12.8625c-.225 0-.45-.075-.6-.2625-.3375-.3375-.3375-.8625 0-1.2l9-8.99998h-3.15c-.45 0-.8625-.375-.8625-.8625 0-.4875.375-.862502.8625-.862502h5.25c.45 0 .8625.375002.8625.862502v5.2125c0 .45-.375.8625-.8625.8625-.4875 0-.8625-.375-.8625-.8625v-3.225L12.6001 12.6c-.15.15-.375.2625-.6.2625Z"/></g><defs><clipPath id="clip0_310_9426"><path fill="#fff" d="M0 0h24v24H0z"/></clipPath></defs></svg>