<svg width="24" height="24" viewBox="0 0 24 24" fill="none" xmlns="http://www.w3.org/2000/svg"><path d="M18.2252 11.8874c0-1.125-.3-2.2125-.825-3.1125l-1.3125-6.3c-.225-1.125-1.2375-1.949998-2.4-1.949998h-3.6375c-1.1625 0-2.1375.824998-2.4 1.949998l-1.3125 6.3c-.525.9375-.825 1.9875-.825 3.1125 0 1.125.3 2.175.825 3.1125l1.3125 6.2625c.225 1.125 1.2375 1.95 2.4 1.95h3.6375c1.1625 0 2.1375-.825 2.4-1.95l1.3125-6.2625c.525-.9.825-1.95.825-3.1125Zm-11.025 0c0-2.5875 2.1-4.6875 4.6875-4.6875s4.6875 2.1 4.6875 4.6875-2.1 4.6875-4.6875 4.6875-4.6875-2.1-4.6875-4.6875Zm2.85-9.675h3.6375c.375 0 .675.2625.75.6l.7875 3.675c-.975-.6-2.1-.9375-3.3375-.9375-1.2375 0-2.3625.3375-3.3375.9375l.7875-3.675c.0375-.3375.375-.6.7125-.6Zm3.6375 19.3125h-3.6375c-.3375 0-.675-.2625-.75-.6l-.75-3.6375c.975.6 2.1.9375 3.3375.9375 1.2 0 2.3625-.3375 3.3-.9375l-.75 3.6375c-.075.375-.4125.6-.75.6Z" fill="#111928"/></svg>