<svg width="24" height="24" viewBox="0 0 24 24" fill="none" xmlns="http://www.w3.org/2000/svg"><path d="M21.1127 4.35005h-1.275v-.825c0-1.575-1.275-2.850001-2.85-2.850001H4.0502c-1.575 0-2.85 1.275001-2.85 2.850001V15.0375c0 .525.225 1.0126.6 1.3501l6.825 6.45c.3375.3375.78749.4875 1.275.4875h7.05c1.575 0 2.85-1.275 2.85-2.8501v-7.5374h1.275c.525 0 .9375-.4125.9375-.9376V5.32505c.0375-.525-.375-.975-.9-.975ZM3.8627 16.05h4.7625c.07499 0 .15.0751.15.1501v4.4624L3.8627 16.05Zm14.2875 4.425c0 .6376-.525 1.1626-1.1625 1.1626h-6.4875v-5.4375c0-1.0125-.82501-1.8376-1.83751-1.8376H2.8502V3.52505c0-.6375.525-1.1625 1.1625-1.1625h12.9375c.6375 0 1.1625.525 1.1625 1.1625v.8625H6.7877c-.525 0-.9375.4125-.9375.9375V12c0 .5251.4125.9376.9375.9376h11.3625v7.5374Zm-3.75-13.23745v2.85005c0 .5249-.4125.9375-.9375.9375s-.9375-.4126-.9375-.9375V7.23755c0-.525.4125-.9375.9375-.9375s.9375.4125.9375.9375Zm-2.85 2.85005c0 .5249-.4125.9375-.9375.9375H9.0002c-.33751 0-.67501-.1875-.82501-.4876-.15-.3-.14999-.67495.03751-.97495l.8625-1.425h-.33751c-.525 0-.9375-.4125-.9375-.9375s.4125-.9375.9375-.9375h2.06251c.3375 0 .675.1875.825.4875.15.3.15.675-.0375.975l-.8625 1.425c.45.0375.825.45.825.93755Zm6.675 0h-.9375c0 .5249-.4125.9375-.9375.9375s-.975-.4126-.975-.9375V7.23755c0-.525.4125-.9375.9375-.9375h1.9125c1.05 0 1.9125.8625 1.9125 1.9125 0 1.0125-.8625 1.87505-1.9125 1.87505Z" fill="#111928"/></svg>