<svg width="24" height="24" viewBox="0 0 24 24" fill="none" xmlns="http://www.w3.org/2000/svg"><path d="m22.8374 21.6375-6.675-6.675c2.775-3.375 2.5875-8.39998-.5625-11.54998-1.6125-1.6125-3.7875-2.512496-6.075-2.512496s-4.4625.899996-6.075 2.512496c-3.337498 3.3375-3.337498 8.81248 0 12.14998 1.6125 1.6125 3.7875 2.5125 6.075 2.5125 2.025 0 3.9-.675 5.4375-1.95l6.675 6.675c.15.15.375.2625.6.2625.225 0 .45-.075.6-.2625.3375-.3.3375-.825 0-1.1625ZM4.6499 14.4c-2.7-2.7-2.7-7.08748 0-9.78748 1.3125-1.3125 3.0375-2.025 4.875-2.025s3.5625.7125 4.875 2.025c2.7 2.7 2.7 7.08748 0 9.78748-1.3125 1.3125-3.0375 2.025-4.875 2.025s-3.6-.7125-4.875-2.025Z" fill="#111928"/><path d="M11.7375 8.66254H10.35v-1.3875c0-.45-.375-.8625-.8625-.8625-.4875 0-.8625.375-.8625.8625v1.3875H7.2375c-.45 0-.8625.375-.8625.8625 0 .48746.375.86246.8625.86246H8.625v1.3875c0 .45.375.825.8625.825.4875 0 .8625-.375.8625-.825v-1.3875h1.3875c.45 0 .8625-.375.8625-.86246 0-.4875-.4125-.8625-.8625-.8625Z" fill="#111928"/></svg>