<svg width="24" height="24" viewBox="0 0 24 24" fill="none" xmlns="http://www.w3.org/2000/svg"><g clip-path="url(#clip0_310_8832)" fill="#111928"><path d="m22.8748 19.125-5.3625-5.3625c-.6-.6-1.6125-.6-2.2125 0l-.15.15-1.05-1.05c1.05-1.3125 1.65-2.9625 1.65-4.6875 0-2.025-.7875-3.9-2.2125-5.325-2.925-2.9249999-7.725-2.9249999-10.65 0C1.4623 4.275.674805 6.15.674805 8.175c0 2.025.787495 3.9 2.212495 5.325 1.4625 1.4625 3.4125 2.2125 5.32501 2.2125 1.64999 0 3.33749-.5625 4.68749-1.65l1.05 1.05-.15.15c-.3.3-.45.675-.45 1.125 0 .4125.15.825.45 1.125l5.3625 5.3625c.3.3.7125.45 1.125.45s.7875-.15 1.125-.45l1.5-1.5c.3-.3.45-.675.45-1.125 0-.4125-.1875-.825-.4875-1.125Zm-18.825-6.7875c-1.0875-1.0875-1.725-2.55-1.725-4.125 0-1.575.6-3.0375 1.725-4.125 1.125-1.125 2.625-1.725 4.125-1.725s3 .5625 4.125 1.725c1.0875 1.0875 1.725 2.55 1.725 4.125 0 1.575-.6 3.0375-1.725 4.125-2.25 2.25-5.9625 2.25-8.25 0Zm16.2 9.2625-5.2125-5.2125 1.35-1.35 5.2125 5.2125-1.35 1.35Z"/><path d="M10.0874 7.34998h-3.825c-.45 0-.8625.375-.8625.8625 0 .4875.375.8625.8625.8625h3.825c.45 0 .8625-.375.8625-.8625 0-.4875-.375-.8625-.8625-.8625Z"/></g><defs><clipPath id="clip0_310_8832"><path fill="#fff" d="M0 0h24v24H0z"/></clipPath></defs></svg>