<svg width="24" height="24" viewBox="0 0 24 24" fill="none" xmlns="http://www.w3.org/2000/svg"><path d="M21.8999 17.85c0-.0375.0375-.0375.0375-.075.0375-.075.0375-.15.0375-.225V6.44999c0-.3-.1875-.6-.45-.75L12.4124.749988c-.0375 0-.075 0-.1125-.0375-.0375 0-.075-.0375-.1125-.0375h-.45c-.0375 0-.075.0375-.1125.0375.0375.0375 0 .0375-.0375.0375L2.4749 5.69999c-.2625.15-.45.45-.45.75V17.55c0 .075 0 .15.0375.225 0 .0375.0375.0375.0375.075s.0375.075.075.15c0 .0375.0375.0375.0375.075.0375.0375.0375.075.075.1125l.075.075.075.075 9.15 4.9125c.1125.075.2625.1125.4125.1125.15 0 .2625-.0375.4125-.1125l9.1125-4.95c.0375-.0375.075-.0375.075-.075l.075-.075c.0375-.0375.075-.075.075-.1125 0-.0375.0375-.0375.0375-.075.075-.0375.1125-.075.1125-.1125Zm-1.6125-1.725-7.425-4.05V2.92499l7.425 4.05V16.125ZM3.7124 6.97499l7.4625-4.05v9.18751L3.7124 16.125V6.97499ZM11.9999 21.525l-7.35-3.975 7.35-3.975 7.35 3.975-7.35 3.975Z" fill="#111928"/></svg>