<svg width="24" height="24" viewBox="0 0 24 24" fill="none" xmlns="http://www.w3.org/2000/svg"><path d="M17.4374.674988h-7.275c-.675 0-1.3125.2625-1.7625.750002l-3.6 3.675c-.45.45-.7125 1.0875-.7125 1.725V20.8875c0 1.35 1.125 2.475 2.475 2.475h10.875c1.35 0 2.475-1.125 2.475-2.475V3.11249c0-1.35-1.125-2.437502-2.475-2.437502Zm.7875 20.212512c0 .4125-.3375.7875-.7875.7875H6.5624c-.4125 0-.7875-.3375-.7875-.7875V6.78749c0-.1875.075-.4125.225-.5625l3.6-3.675c.15-.15.3375-.225.5625-.225h7.275c.4125 0 .7875.3375.7875.7875V20.8875Z" fill="#111928"/><path d="M10.9498 12.4875c.45 0 .8625-.375.8625-.8625 0-.4875-.375-.8625-.8625-.8625H8.66231c-.8625 0-1.57501.7125-1.57501 1.575v1.3875c0 .8625.71251 1.575 1.57501 1.575h1.42499v1.125H7.91231c-.45 0-.86251.375-.86251.8625 0 .4875.37501.8625.86251.8625h2.28749c.8625 0 1.575-.7125 1.575-1.575v-1.3875c0-.8625-.7125-1.575-1.575-1.575h-1.425v-1.125h2.175ZM16.6872 12.4875c.45 0 .8625-.375.8625-.8625 0-.4875-.375-.8625-.8625-.8625h-2.2875c-.8625 0-1.575.7125-1.575 1.575v4.2c0 .8625.7125 1.575 1.575 1.575h1.5375c.8625 0 1.575-.7125 1.575-1.575v-1.35c0-.675-.525-1.2-1.2-1.2h-.225c-.45 0-.8625.375-.8625.8625 0 .375.2625.7125.6.825v.7875h-1.3125v-3.975h2.175Z" fill="#111928"/></svg>