<svg width="24" height="24" viewBox="0 0 24 24" fill="none" xmlns="http://www.w3.org/2000/svg"><path d="m19.2748 4.01255-4.3875-3c-.3375-.225001-.7125-.337501-1.125-.337501H6.1498c-1.275 0-2.2875 1.012501-2.2875 2.287501V21.0751c0 1.2749 1.0125 2.2874 2.2875 2.2874h11.7c1.275 0 2.2875-1.0125 2.2875-2.2874V5.66255c0-.675-.3375-1.275-.8625-1.65Zm-.825 17.02495c0 .3375-.2625.6001-.6.6001h-11.7c-.3375 0-.6-.2626-.6-.6001V2.96255c0-.3375.2625-.6.6-.6h7.6125c.075 0 .1125.0375.1875.0375l4.3875 3c.075.075.15.15.15.2625V21.0375h-.0375Z" fill="#111928"/><path d="M10.9499 10.6875c-.15-.2625-.4125-.4125-.75-.4125-.33754 0-.60004.15-.75004.4125l-2.85 4.9875c-.225.4125-.075.9375.3 1.1625.4125.225.9375.075 1.1625-.3l.5625-1.0125h3.07504l.5625 1.0125c.15.2625.45.4125.75.4125.15 0 .3-.0375.4125-.1125.4125-.225.5625-.75.3-1.1625l-2.775-4.9875Zm-1.31254 3.15.56254-1.0125.5625 1.0125H9.63736ZM15.7497 12.8251c-.45 0-.8625.375-.8625.8625v2.4375c0 .45.375.8625.8625.8625.4875 0 .8625-.375.8625-.8625v-2.4375c-.0375-.4875-.4125-.8625-.8625-.8625ZM16.1998 10.7626c-.0375-.0375-.1125-.0375-.15-.075-.0375-.0375-.1125-.0375-.15-.0375-.1125-.0375-.225-.0375-.3375 0-.075 0-.1125.0375-.15.0375-.0375 0-.1125.0375-.15.075l-.1125.1125-.1125.1125c-.0375.0375-.075.1125-.075.15-.0375.0375-.0375.1125-.0375.15v.3c0 .0375.0375.1125.0375.15 0 .0375.0375.1125.075.15.0375.0375.075.075.1125.15.15.15.375.225.6.225h.15c.075 0 .1125-.0375.15-.0375.0375 0 .1125-.0375.15-.075l.1125-.1125c.0375-.0375.075-.075.1125-.15.0375-.0375.075-.1125.075-.15.0375-.0375.0375-.1125.0375-.15v-.15c0-.225-.075-.45-.2625-.6.0375 0-.0375-.0375-.075-.075Z" fill="#111928"/></svg>