<svg width="24" height="24" viewBox="0 0 24 24" fill="none" xmlns="http://www.w3.org/2000/svg"><path d="M16.2751 13.05h-3.4125V9.56245c0-.45-.375-.8625-.8625-.8625-.45 0-.8625.375-.8625.8625V13.05h-.1125c-.45 0-.8625.375-.8625.8625 0 .4875.375.8625.8625.8625h.1125v.1125c0 .45.375.8625.8625.8625.45 0 .8625-.375.8625-.8625v-.1125h3.4125c.45 0 .8625-.375.8625-.8625 0-.4875-.4125-.8625-.8625-.8625Z" fill="#111928"/><path d="M22.3124 7.16245c0-2.0625-1.65-3.7125-3.7125-3.7125-.975 0-1.875.375-2.55 1.0125-1.0125-.45-2.0625-.75-3.225-.825v-1.275h1.05c.45 0 .8625-.375.8625-.8625 0-.4875-.375-.862499-.8625-.862499h-3.7875c-.45 0-.8625.374999-.8625.862499s.375.8625.8625.8625h1.05v1.3125c-1.125.1125-2.2125.375-3.225.825-.675-.6375-1.575-1.0125-2.55-1.0125-2.0625 0-3.7125 1.65-3.7125 3.7125 0 1.0125.4125 1.9875 1.1625 2.6625-.45 1.12495-.7125 2.36245-.7125 3.63745 0 5.4375 4.425 9.8625 9.8625 9.8625 5.4375 0 9.8625-4.425 9.8625-9.8625 0-1.275-.2625-2.5125-.7125-3.63745.7875-.7125 1.2-1.6875 1.2-2.7Zm-3.7125-2.025c1.125 0 2.025.9 2.025 2.025 0 .375-.1125.75-.3 1.05-.7125-1.125-1.6125-2.0625-2.7-2.8125.3-.1875.6375-.2625.975-.2625Zm-15.225 2.025c0-1.125.9-2.025 2.025-2.025.3375 0 .675.075.975.2625-1.0875.75-1.9875 1.725-2.7 2.8125-.1875-.3375-.3-.675-.3-1.05Zm8.625 14.51245c-4.5 0-8.175-3.6749-8.175-8.175 0-4.49995 3.675-8.17495 8.175-8.17495 4.5 0 8.175 3.675 8.175 8.17495 0 4.5001-3.675 8.175-8.175 8.175Z" fill="#111928"/></svg>