<svg width="24" height="24" viewBox="0 0 24 24" fill="none" xmlns="http://www.w3.org/2000/svg">
<path d="M21.4126 21.4874H20.6626V8.77495H21.4126C21.8626 8.77495 22.2751 8.39995 22.2751 7.91245C22.2751 7.42495 21.9001 7.04995 21.4126 7.04995H18.3751V2.54995H20.2501C20.7001 2.54995 21.1126 2.17495 21.1126 1.68745C21.1126 1.19995 20.7376 0.824951 20.2501 0.824951H3.7876C3.3376 0.824951 2.9251 1.19995 2.9251 1.68745C2.9251 2.17495 3.3001 2.54995 3.7876 2.54995H5.6626V7.08745H2.5876C2.1376 7.08745 1.7251 7.46245 1.7251 7.94995C1.7251 8.43745 2.1001 8.81245 2.5876 8.81245H3.3376V21.525H2.5876C2.1376 21.525 1.7251 21.9 1.7251 22.3875C1.7251 22.875 2.1001 23.25 2.5876 23.25H21.4501C21.9001 23.25 22.3126 22.875 22.3126 22.3875C22.3126 21.9 21.9001 21.4874 21.4126 21.4874ZM7.3126 2.54995H16.6501V7.08745H7.3126V2.54995ZM5.0251 8.77495H19.0126V21.4874H15.0001V16.8C15.0001 15.525 13.9876 14.5125 12.7126 14.5125H11.2876C10.0126 14.5125 9.0001 15.525 9.0001 16.8V21.4874H5.0251V8.77495ZM13.3126 21.4874H10.6876V16.8C10.6876 16.4625 10.9501 16.2 11.2876 16.2H12.7126C13.0501 16.2 13.3126 16.4625 13.3126 16.8V21.4874Z" fill="#111928"/>
</svg>
