<svg width="24" height="24" viewBox="0 0 24 24" fill="none" xmlns="http://www.w3.org/2000/svg">
<path d="M20.9252 10.5375H14.9627V3.03755C14.9627 1.95005 14.0627 1.05005 12.9752 1.05005H2.8127C1.7252 1.05005 0.825195 1.95005 0.825195 3.03755V20.9626C0.825195 22.0501 1.7252 22.9501 2.8127 22.9501H20.9252C22.1627 22.9501 23.1752 21.9376 23.1752 20.7001V12.7875C23.1752 11.55 22.1627 10.5375 20.9252 10.5375ZM2.5502 9.41255H7.08769V14.3251H2.5502V9.41255ZM8.73769 9.41255H13.2752V14.3251H8.73769V9.41255ZM13.2752 3.03755V7.72505H8.73769V2.77505H12.9752C13.1627 2.77505 13.2752 2.88755 13.2752 3.03755ZM2.8127 2.77505H7.05019V7.76255H2.5502V3.03755C2.5502 2.88755 2.6627 2.77505 2.8127 2.77505ZM2.5502 20.9626V16.05H7.08769V21.2626H2.8127C2.6627 21.2251 2.5502 21.1126 2.5502 20.9626ZM8.73769 21.225V16.05H13.2752V21.2626H8.73769V21.225ZM21.4877 20.7001C21.4877 21.0001 21.2252 21.2626 20.9252 21.2626H14.9627V12.2626H20.9252C21.2252 12.2626 21.4877 12.5251 21.4877 12.8251V20.7001Z" fill="#111928"/>
</svg>
