<svg width="24" height="24" viewBox="0 0 24 24" fill="none" xmlns="http://www.w3.org/2000/svg">
<g clip-path="url(#clip0_310_5188)">
<path d="M21.1873 12.2624H14.2123V2.8874C14.2123 1.7999 13.3123 0.899902 12.2248 0.899902H10.3873C5.13731 0.937402 0.862305 5.2124 0.862305 10.4999V21.1124C0.862305 22.1999 1.7623 23.0999 2.8498 23.0999H21.2248C22.3123 23.0999 23.2123 22.1999 23.2123 21.1124V14.2499C23.1748 13.1624 22.2748 12.2624 21.1873 12.2624ZM12.5248 21.3749H2.8123C2.6623 21.3749 2.5123 21.2624 2.5123 21.0749V10.4999C2.5123 6.1499 6.0373 2.6249 10.3873 2.6249H12.2248C12.3748 2.6249 12.5248 2.7374 12.5248 2.9249V12.2999V21.3749ZM17.3248 21.3749V19.4999C17.3248 19.1249 17.6248 18.8624 17.9623 18.8624C18.3373 18.8624 18.5998 19.1624 18.5998 19.4999V21.3749H17.3248ZM21.4873 21.1124C21.4873 21.2624 21.3748 21.4124 21.1873 21.4124H20.3248V19.5374C20.3248 18.2624 19.2748 17.2124 17.9998 17.2124C16.7248 17.2124 15.6748 18.2624 15.6748 19.5374V21.4124H14.2123V13.9499H21.1873C21.3373 13.9499 21.4873 14.0624 21.4873 14.2499V21.1124Z" fill="#111928"/>
<path d="M8.1374 7.72485H7.0124C6.5624 7.72485 6.1499 8.09985 6.1499 8.58735C6.1499 9.07485 6.5249 9.44985 7.0124 9.44985H8.1374C8.5874 9.44985 8.9999 9.07485 8.9999 8.58735C8.9999 8.09985 8.5874 7.72485 8.1374 7.72485Z" fill="#111928"/>
<path d="M8.1374 12.1499H7.0124C6.5624 12.1499 6.1499 12.5249 6.1499 13.0124C6.1499 13.4999 6.5249 13.8749 7.0124 13.8749H8.1374C8.5874 13.8749 8.9999 13.4999 8.9999 13.0124C8.9999 12.5249 8.5874 12.1499 8.1374 12.1499Z" fill="#111928"/>
<path d="M8.1374 16.6123H7.0124C6.5624 16.6123 6.1499 16.9873 6.1499 17.4748C6.1499 17.9623 6.5249 18.3373 7.0124 18.3373H8.1374C8.5874 18.3373 8.9999 17.9623 8.9999 17.4748C8.9999 16.9873 8.5874 16.6123 8.1374 16.6123Z" fill="#111928"/>
</g>
<defs>
<clipPath id="clip0_310_5188">
<rect width="24" height="24" fill="white"/>
</clipPath>
</defs>
</svg>
