<svg width="24" height="24" viewBox="0 0 24 24" fill="none" xmlns="http://www.w3.org/2000/svg">
<path d="M21.9752 4.08739L17.5127 1.76239C16.8002 1.38739 16.0127 1.42489 15.3377 1.83739C14.6252 2.21239 14.2502 2.92489 14.2502 3.71239V8.13739H9.75019V3.71239C9.75019 2.92489 9.3377 2.21239 8.66269 1.79989C7.9877 1.38739 7.16269 1.34989 6.4877 1.72489L2.0252 4.08739C1.2752 4.46239 0.825195 5.21239 0.825195 6.07489V20.2874C0.825195 21.5249 1.8377 22.4999 3.0377 22.4999H20.8877C22.1252 22.4999 23.1002 21.4874 23.1002 20.2874V6.07489C23.1752 5.24989 22.6877 4.49989 21.9752 4.08739ZM3.0752 20.8124C2.7752 20.8124 2.5502 20.5874 2.5502 20.2874V6.07489C2.5502 5.88739 2.6627 5.69989 2.8502 5.58739L7.3127 3.22489C7.53769 3.11239 7.76269 3.18739 7.8377 3.22489C7.91269 3.26239 8.10019 3.41239 8.10019 3.67489V8.09989H7.4627C6.3752 8.09989 5.4752 8.99989 5.4752 10.0874V20.8124H3.0752ZM11.1002 20.8124V17.9999C11.1002 17.8499 11.2127 17.6999 11.4002 17.6999H12.6377C12.7877 17.6999 12.9377 17.8124 12.9377 17.9999V20.8124H11.1002ZM14.5877 20.8124V17.9999C14.5877 16.9124 13.6877 16.0124 12.6002 16.0124H11.3627C10.2752 16.0124 9.37519 16.9124 9.37519 17.9999V20.8124H7.1252V10.1249C7.1252 9.97489 7.23769 9.82489 7.42519 9.82489H16.5752C16.7252 9.82489 16.8752 9.93739 16.8752 10.1249V20.8499H14.5877V20.8124ZM21.4877 20.2874C21.4877 20.5874 21.2627 20.8124 20.9627 20.8124H18.5627V10.1249C18.5627 9.03739 17.6627 8.13739 16.5752 8.13739H15.9377V3.71239C15.9377 3.44989 16.1252 3.29989 16.2002 3.26239C16.2752 3.22489 16.5002 3.11239 16.7252 3.26239L21.1877 5.62489C21.3752 5.73739 21.4877 5.88739 21.4877 6.11239V20.2874Z" fill="#111928"/>
</svg>
