<svg width="24" height="24" viewBox="0 0 24 24" fill="none" xmlns="http://www.w3.org/2000/svg">
<g clip-path="url(#clip0_310_5026)">
<path d="M21.0752 23.1H14.9627C14.5127 23.1 14.1002 22.725 14.1002 22.2375V20.175C14.1002 19.6125 13.8752 19.0875 13.5002 18.675C13.1252 18.3 12.6002 18.075 12.0752 18.075C11.5127 18.075 11.0252 18.2625 10.6127 18.675C10.1627 19.125 9.9002 19.6875 9.9002 20.325V22.275C9.9002 22.725 9.5252 23.1375 9.03769 23.1375H2.9252C1.6502 23.1375 0.637695 22.125 0.637695 20.85V3.225C0.637695 1.95 1.6502 0.9375 2.9252 0.9375H21.0377C22.3127 0.9375 23.3252 1.95 23.3252 3.225V20.85C23.3627 22.0875 22.3127 23.1 21.0752 23.1ZM15.7877 21.4125H21.0377C21.3752 21.4125 21.6377 21.15 21.6377 20.8125V3.1875C21.6377 2.85 21.3752 2.5875 21.0377 2.5875H2.9252C2.6252 2.5875 2.3627 2.85 2.3627 3.1875V20.8125C2.3627 21.15 2.6252 21.4125 2.9627 21.4125H8.2127V20.325C8.2127 19.275 8.66269 18.225 9.41269 17.475C10.1627 16.7625 11.1002 16.3875 12.0752 16.3875C13.0502 16.425 13.9502 16.8 14.6627 17.5125C15.3752 18.225 15.7877 19.1625 15.7877 20.175V21.4125Z" fill="#111928"/>
<path d="M8.0251 6.6376H6.5251C6.0751 6.6376 5.6626 6.2626 5.6626 5.7751C5.6626 5.2876 6.0376 4.9126 6.5251 4.9126H8.0251C8.4751 4.9126 8.8876 5.2876 8.8876 5.7751C8.8876 6.2626 8.4751 6.6376 8.0251 6.6376Z" fill="#111928"/>
<path d="M17.6252 6.6376H16.1252C15.6752 6.6376 15.2627 6.2626 15.2627 5.7751C15.2627 5.2876 15.6377 4.9126 16.1252 4.9126H17.6252C18.0752 4.9126 18.4877 5.2876 18.4877 5.7751C18.4877 6.2626 18.1127 6.6376 17.6252 6.6376Z" fill="#111928"/>
<path d="M8.0251 10.8H6.5251C6.0751 10.8 5.6626 10.425 5.6626 9.93745C5.6626 9.44995 6.0376 9.07495 6.5251 9.07495H8.0251C8.4751 9.07495 8.8876 9.44995 8.8876 9.93745C8.8876 10.425 8.4751 10.8 8.0251 10.8Z" fill="#111928"/>
<path d="M17.6252 10.8H16.1252C15.6752 10.8 15.2627 10.425 15.2627 9.93745C15.2627 9.44995 15.6377 9.07495 16.1252 9.07495H17.6252C18.0752 9.07495 18.4877 9.44995 18.4877 9.93745C18.4877 10.425 18.1127 10.8 17.6252 10.8Z" fill="#111928"/>
<path d="M8.0251 14.9625H6.5251C6.0751 14.9625 5.6626 14.5875 5.6626 14.1C5.6626 13.6125 6.0376 13.2375 6.5251 13.2375H8.0251C8.4751 13.2375 8.8876 13.6125 8.8876 14.1C8.8876 14.5875 8.4751 14.9625 8.0251 14.9625Z" fill="#111928"/>
<path d="M17.6252 14.9625H16.1252C15.6752 14.9625 15.2627 14.5875 15.2627 14.1C15.2627 13.6125 15.6377 13.2375 16.1252 13.2375H17.6252C18.0752 13.2375 18.4877 13.6125 18.4877 14.1C18.4877 14.5875 18.1127 14.9625 17.6252 14.9625Z" fill="#111928"/>
</g>
<defs>
<clipPath id="clip0_310_5026">
<rect width="24" height="24" fill="white"/>
</clipPath>
</defs>
</svg>
