<svg width="24" height="24" viewBox="0 0 24 24" fill="none" xmlns="http://www.w3.org/2000/svg">
<path d="M20.0248 0.862549H11.0998C9.7873 0.862549 8.7373 1.91255 8.7373 3.22505V5.62505C7.8748 5.02505 6.7498 5.06255 5.9248 5.73755L2.4748 8.55005C1.9123 9.00005 1.6123 9.67505 1.6123 10.35V20.85C1.6123 22.1625 2.6623 23.2125 3.9748 23.2125H20.0623C21.3748 23.2125 22.4248 22.1625 22.4248 20.85V3.22505C22.3873 1.91255 21.3373 0.862549 20.0248 0.862549ZM8.3998 21.4501H6.5248V18.525C6.5248 18 6.9373 17.5875 7.4623 17.5875C7.7248 17.5875 7.94981 17.7 8.13731 17.85C8.32481 18.0375 8.3998 18.2626 8.3998 18.525V21.4501ZM10.0873 21.4501V18.525C10.0873 17.8125 9.8248 17.175 9.2998 16.6875C8.8123 16.2 8.1373 15.9 7.4623 15.9C5.9998 15.9 4.8373 17.0625 4.8373 18.525V21.4501H3.9748C3.5998 21.4501 3.2998 21.15 3.2998 20.775V10.275C3.2998 10.0875 3.3748 9.90005 3.5248 9.75005L6.9748 6.93755C7.1998 6.75005 7.5748 6.75005 7.7998 6.93755L11.2498 9.75005C11.3998 9.86255 11.4748 10.05 11.4748 10.275V21.4501H10.0873ZM20.6998 20.8125C20.6998 21.1875 20.3998 21.4875 20.0248 21.4875H14.2873C14.2873 21.4875 14.2873 21.4875 14.2498 21.4875H13.1623V10.3125C13.1623 9.60005 12.8623 8.92505 12.2998 8.47505L10.4248 6.93755V3.18755C10.4248 2.81255 10.7248 2.51255 11.0998 2.51255H20.0623C20.4373 2.51255 20.7373 2.81255 20.7373 3.18755V20.8125H20.6998Z" fill="#111928"/>
<path d="M17.7372 5.17505H14.6247C14.1747 5.17505 13.7622 5.55005 13.7622 6.03755C13.7622 6.52505 14.1372 6.90005 14.6247 6.90005H17.7372C18.1872 6.90005 18.5997 6.52505 18.5997 6.03755C18.5997 5.55005 18.2247 5.17505 17.7372 5.17505Z" fill="#111928"/>
<path d="M17.7372 8.69995H14.6247C14.1747 8.69995 13.7622 9.07495 13.7622 9.56245C13.7622 10.05 14.1372 10.425 14.6247 10.425H17.7372C18.1872 10.425 18.5997 10.05 18.5997 9.56245C18.5997 9.07495 18.2247 8.69995 17.7372 8.69995Z" fill="#111928"/>
<path d="M17.7372 12.2625H14.6247C14.1747 12.2625 13.7622 12.6375 13.7622 13.125C13.7622 13.6125 14.1372 13.9875 14.6247 13.9875H17.7372C18.1872 13.9875 18.5997 13.6125 18.5997 13.125C18.5997 12.6375 18.2247 12.2625 17.7372 12.2625Z" fill="#111928"/>
<path d="M17.7372 15.825H14.6247C14.1747 15.825 13.7622 16.2 13.7622 16.6875C13.7622 17.175 14.1372 17.55 14.6247 17.55H17.7372C18.1872 17.55 18.5997 17.175 18.5997 16.6875C18.5997 16.2 18.2247 15.825 17.7372 15.825Z" fill="#111928"/>
</svg>
