<svg width="24" height="24" viewBox="0 0 24 24" fill="none" xmlns="http://www.w3.org/2000/svg">
<path d="M20.8502 1.125H12.1127C10.8377 1.125 9.78769 2.175 9.78769 3.45V5.7375C8.96269 5.175 7.83769 5.2125 7.05019 5.85L3.7502 8.55C3.2252 9 2.8877 9.6375 2.8877 10.35V21.1875H1.6877C1.2377 21.1875 0.825195 21.5625 0.825195 22.05C0.825195 22.5375 1.2002 22.9125 1.6877 22.9125H20.8502C22.1252 22.9125 23.1752 21.8625 23.1752 20.5875V3.4125C23.1752 2.1375 22.1252 1.125 20.8502 1.125ZM7.53769 21.1875V18.075C7.53769 17.925 7.65019 17.775 7.83769 17.775H9.30019C9.45019 17.775 9.60019 17.8875 9.60019 18.075V21.1875H7.53769ZM11.2502 21.1875V18.075C11.2502 16.9875 10.3502 16.0875 9.26269 16.0875H7.80019C6.71269 16.0875 5.8127 16.9875 5.8127 18.075V21.1875H4.5377V10.35C4.5377 10.1625 4.61269 9.975 4.7627 9.8625L8.10019 7.125C8.32519 6.9375 8.66269 6.9375 8.88769 7.125L12.2252 9.8625C12.3752 9.975 12.4502 10.1625 12.4502 10.35V21.1875H11.2502ZM21.4877 20.5875C21.4877 20.925 21.2252 21.225 20.8502 21.225H14.2127V10.35C14.2127 9.6375 13.9127 9 13.3502 8.55L11.5127 7.05V3.4125C11.5127 3.075 11.7752 2.775 12.1502 2.775H20.8877C21.2252 2.775 21.5252 3.0375 21.5252 3.4125V20.5875H21.4877Z" fill="#111928"/>
</svg>
