<svg width="24" height="24" viewBox="0 0 24 24" fill="none" xmlns="http://www.w3.org/2000/svg">
<g clip-path="url(#clip0_310_5064)">
<path d="M21.0002 0.9375H12.1127C10.8377 0.9375 9.78769 1.9875 9.78769 3.2625V7.1625L4.5002 8.5125C3.4502 8.775 2.7377 9.7125 2.7377 10.7625V21.375H1.5002C1.0502 21.375 0.637695 21.75 0.637695 22.2375C0.637695 22.725 1.0127 23.1 1.5002 23.1H21.0002C22.2752 23.1 23.3252 22.05 23.3252 20.775V3.2625C23.3627 1.9875 22.3127 0.9375 21.0002 0.9375ZM9.5252 21.375H7.42519V18.1875C7.42519 18.0375 7.53769 17.8875 7.72519 17.8875H9.2627C9.41269 17.8875 9.56269 18 9.56269 18.1875V21.375H9.5252ZM11.2127 21.375V18.1875C11.2127 17.1 10.3127 16.2 9.22519 16.2H7.6877C6.60019 16.2 5.7002 17.1 5.7002 18.1875V21.375H4.3877V10.7625C4.3877 10.4625 4.5752 10.2 4.8752 10.125L11.7002 8.4C11.8877 8.3625 12.1127 8.4 12.2627 8.5125C12.4127 8.625 12.5252 8.8125 12.5252 9.0375V21.375H11.2127ZM21.6752 20.7375C21.6752 21.1125 21.3752 21.375 21.0377 21.375H15.3002C15.3002 21.375 15.3002 21.375 15.2627 21.375H14.2127V9.0375C14.2127 8.325 13.8752 7.65 13.3127 7.2C12.7877 6.7875 12.1127 6.6375 11.4752 6.75V3.2625C11.4752 2.8875 11.7752 2.625 12.1127 2.625H21.0002C21.3752 2.625 21.6377 2.925 21.6377 3.2625V20.7375H21.6752Z" fill="#111928"/>
</g>
<defs>
<clipPath id="clip0_310_5064">
<rect width="24" height="24" fill="white"/>
</clipPath>
</defs>
</svg>
