<svg width="24" height="24" viewBox="0 0 24 24" fill="none" xmlns="http://www.w3.org/2000/svg">
<g clip-path="url(#clip0_310_5198)">
<path d="M21.1876 3.8251H17.8126V2.7751C17.8126 1.6876 16.9126 0.787598 15.8251 0.787598H8.1376C7.0501 0.787598 6.1501 1.6876 6.1501 2.7751V3.8251H2.7751C1.6876 3.8251 0.787598 4.7251 0.787598 5.8126V18.1876C0.787598 19.2751 1.6876 20.1751 2.7751 20.1751H6.1501V21.2251C6.1501 22.3126 7.0501 23.2126 8.1376 23.2126H15.8626C16.9501 23.2126 17.8501 22.3126 17.8501 21.2251V20.1751H21.2251C22.3126 20.1751 23.2126 19.2751 23.2126 18.1876V5.8126C23.1751 4.7251 22.2751 3.8251 21.1876 3.8251ZM2.8126 18.4876C2.6626 18.4876 2.5126 18.3751 2.5126 18.1876V5.8126C2.5126 5.6626 2.6251 5.5126 2.8126 5.5126H6.1876V18.4501H2.8126V18.4876ZM16.1251 21.2251C16.1251 21.3751 16.0126 21.5251 15.8251 21.5251H8.1376C7.9876 21.5251 7.8376 21.4126 7.8376 21.2251V2.7751C7.8376 2.6251 7.9501 2.4751 8.1376 2.4751H15.8626C16.0126 2.5126 16.1251 2.6251 16.1251 2.7751V21.2251ZM21.4876 18.1876C21.4876 18.3376 21.3751 18.4876 21.1876 18.4876H17.8126V5.5126H21.1876C21.3376 5.5126 21.4876 5.6251 21.4876 5.8126V18.1876Z" fill="#111928"/>
<path d="M13.3127 6.2627H10.6877C10.2377 6.2627 9.8252 6.6377 9.8252 7.1252C9.8252 7.61269 10.2002 7.98769 10.6877 7.98769H13.3127C13.7627 7.98769 14.1752 7.61269 14.1752 7.1252C14.1752 6.6377 13.7627 6.2627 13.3127 6.2627Z" fill="#111928"/>
<path d="M13.3127 10.9502H10.6877C10.2377 10.9502 9.8252 11.3252 9.8252 11.8127C9.8252 12.3002 10.2002 12.6377 10.6877 12.6377H13.3127C13.7627 12.6377 14.1752 12.2627 14.1752 11.8127C14.1752 11.3627 13.7627 10.9502 13.3127 10.9502Z" fill="#111928"/>
<path d="M13.3127 15.675H10.6877C10.2377 15.675 9.8252 16.05 9.8252 16.5375C9.8252 17.025 10.2002 17.4 10.6877 17.4H13.3127C13.7627 17.4 14.1752 17.025 14.1752 16.5375C14.1752 16.05 13.7627 15.675 13.3127 15.675Z" fill="#111928"/>
</g>
<defs>
<clipPath id="clip0_310_5198">
<rect width="24" height="24" fill="white"/>
</clipPath>
</defs>
</svg>
