<svg width="24" height="24" viewBox="0 0 24 24" fill="none" xmlns="http://www.w3.org/2000/svg">
<path d="M19.3498 10.6125H11.3623V6.26255C11.3623 5.77505 11.2123 5.32505 10.9498 4.95005L8.7373 1.83755C8.2873 1.23755 7.6123 0.862549 6.8623 0.862549C6.1123 0.862549 5.3998 1.23755 4.9873 1.83755L2.7748 4.95005C2.5123 5.32505 2.3623 5.81255 2.3623 6.26255V20.8126C2.3623 22.0876 3.4123 23.1376 4.6873 23.1376H19.7248C20.8123 23.1376 21.7123 22.2376 21.7123 21.1501V12.9001C21.6748 11.6626 20.6248 10.6125 19.3498 10.6125ZM6.5248 12.9376V21.4876H4.6498C4.3123 21.4876 4.0123 21.225 4.0123 20.85V6.26255C4.0123 6.15005 4.0498 6.00005 4.1248 5.88755L6.3373 2.77505C6.4498 2.62505 6.6373 2.51255 6.8623 2.51255C7.0873 2.51255 7.2373 2.62505 7.3873 2.77505L9.5998 5.88755C9.6748 6.00005 9.7123 6.11255 9.7123 6.26255V10.6125H8.88731C7.57481 10.6125 6.5248 11.6625 6.5248 12.9376ZM13.1623 21.4501V18.375C13.1623 18.225 13.2748 18.0751 13.4623 18.0751H14.9248C15.0748 18.0751 15.2248 18.1875 15.2248 18.375V21.4501H13.1623ZM19.9873 21.1876C19.9873 21.3376 19.8373 21.4876 19.6873 21.4876H16.8748V18.375C16.8748 17.2875 15.9748 16.3876 14.8873 16.3876H13.4248C12.3373 16.3876 11.4373 17.2875 11.4373 18.375V21.4501H8.1748V12.9376C8.1748 12.6 8.4373 12.3 8.8123 12.3H19.3123C19.6498 12.3 19.9498 12.5625 19.9498 12.9376V21.1876H19.9873Z" fill="#111928"/>
</svg>
