<svg width="24" height="24" viewBox="0 0 24 24" fill="none" xmlns="http://www.w3.org/2000/svg">
<g clip-path="url(#clip0_310_5068)">
<path d="M20.8873 23.0625H18.3373C17.8873 23.0625 17.4748 22.6875 17.4748 22.2V18.5625C17.4748 17.6625 16.7248 16.9125 15.8248 16.9125C14.9248 16.9125 14.1748 17.6625 14.1748 18.5625V22.2C14.1748 22.65 13.7998 23.0625 13.3123 23.0625H3.1123C1.8748 23.0625 0.862305 22.05 0.862305 20.8125V3.1875C0.862305 1.95 1.8748 0.9375 3.1123 0.9375H12.8623C14.0998 0.9375 15.1123 1.95 15.1123 3.1875V7.8H20.8873C22.1248 7.8 23.1373 8.8125 23.1373 10.05V20.8125C23.1748 22.05 22.1248 23.0625 20.8873 23.0625ZM19.1998 21.375H20.8873C21.1873 21.375 21.4498 21.1125 21.4498 20.8125V10.05C21.4498 9.75 21.1873 9.4875 20.8873 9.4875H10.8373C10.5373 9.4875 10.2748 9.75 10.2748 10.05V21.375H12.5623V18.6C12.5623 16.7625 14.0623 15.2625 15.8998 15.2625C17.7373 15.2625 19.2373 16.7625 19.2373 18.6V21.375H19.1998ZM3.1123 2.625C2.7748 2.625 2.5498 2.8875 2.5498 3.1875V20.8125C2.5498 21.1125 2.8123 21.375 3.1123 21.375H8.58731V10.05C8.58731 8.8125 9.5998 7.8 10.8373 7.8H13.4248V3.1875C13.4248 2.8875 13.1623 2.625 12.8623 2.625H3.1123Z" fill="#111928"/>
</g>
<defs>
<clipPath id="clip0_310_5068">
<rect width="24" height="24" fill="white"/>
</clipPath>
</defs>
</svg>
