<svg width="24" height="24" viewBox="0 0 24 24" fill="none" xmlns="http://www.w3.org/2000/svg">
<path d="M12.0001 5.13745H6.3376C5.8876 5.13745 5.4751 5.51245 5.4751 5.99995C5.4751 6.48745 5.8501 6.86245 6.3376 6.86245H12.0001C12.4501 6.86245 12.8626 6.48745 12.8626 5.99995C12.8626 5.51245 12.4501 5.13745 12.0001 5.13745Z" fill="#111928"/>
<path d="M12.0001 9.9375H6.3376C5.8876 9.9375 5.4751 10.3125 5.4751 10.8C5.4751 11.2875 5.8501 11.6625 6.3376 11.6625H12.0001C12.4501 11.6625 12.8626 11.2875 12.8626 10.8C12.8626 10.3125 12.4501 9.9375 12.0001 9.9375Z" fill="#111928"/>
<path d="M20.3252 3.26255H16.9502V3.15005C16.9502 1.87505 15.9377 0.862549 14.6627 0.862549H3.6752C2.4377 0.862549 1.3877 1.87505 1.3877 3.15005V20.8876C1.3877 22.1625 2.4002 23.175 3.6752 23.175H14.6252C15.9002 23.175 16.9127 22.1625 16.9127 20.8876V20.625H20.2877C21.5627 20.625 22.5752 19.6125 22.5752 18.3375V5.55005C22.6127 4.27505 21.5627 3.26255 20.3252 3.26255ZM11.1752 21.4875H7.2002V17.0625C7.2002 16.725 7.46269 16.4625 7.80019 16.4625H10.5752C10.9127 16.4625 11.1752 16.725 11.1752 17.0625V21.4875ZM15.2627 20.85C15.2627 21.1875 15.0002 21.4501 14.6627 21.4501H12.8627V17.0625C12.8627 15.7875 11.8502 14.775 10.5752 14.775H7.80019C6.52519 14.775 5.5127 15.7875 5.5127 17.0625V21.4875H3.6752C3.3377 21.4875 3.0752 21.225 3.0752 20.8876V3.15005C3.0752 2.81255 3.3377 2.55005 3.6752 2.55005H14.6252C14.9627 2.55005 15.2252 2.81255 15.2252 3.15005V20.85H15.2627ZM20.9252 18.3375C20.9252 18.675 20.6627 18.9375 20.3252 18.9375H16.9502V15.1875H18.6377C19.0877 15.1875 19.5002 14.8125 19.5002 14.325C19.5002 13.8375 19.1252 13.4625 18.6377 13.4625H16.9502V10.35H18.6377C19.0877 10.35 19.5002 9.97505 19.5002 9.48755C19.5002 9.00005 19.1252 8.62505 18.6377 8.62505H16.9502V4.87505H20.3252C20.6627 4.87505 20.9252 5.13755 20.9252 5.47505V18.3375Z" fill="#111928"/>
</svg>
