<svg width="24" height="24" viewBox="0 0 24 24" fill="none" xmlns="http://www.w3.org/2000/svg">
<path d="M22.3127 18.1874H21.3377V8.6624C21.3377 8.0249 21.0377 7.4249 20.5502 7.0124L17.6252 4.6124C16.8377 3.9749 15.7127 3.9749 14.9252 4.6124L12.0002 6.9749L9.11269 4.6124C8.32519 3.9749 7.20019 3.9749 6.41269 4.6124L3.4502 7.0124C2.9627 7.4249 2.6627 8.0249 2.6627 8.6624V18.1499H1.6877C1.2377 18.1499 0.825195 18.5249 0.825195 19.0124C0.825195 19.4999 1.2002 19.8749 1.6877 19.8749H22.3127C22.7627 19.8749 23.1752 19.4999 23.1752 19.0124C23.1752 18.5249 22.7627 18.1874 22.3127 18.1874ZM7.23769 18.1874V16.4999C7.23769 16.2374 7.46269 16.0124 7.72519 16.0124C7.98769 16.0124 8.25019 16.2374 8.25019 16.4999V18.1499H7.23769V18.1874ZM9.93769 18.1874V16.4999C9.93769 15.2999 8.9627 14.3249 7.76269 14.3249C6.5627 14.3249 5.58769 15.2999 5.58769 16.4999V18.1499H4.3502V8.6624C4.3502 8.5124 4.42519 8.3999 4.5002 8.3249L7.46269 5.9249C7.61269 5.7749 7.87519 5.7749 8.02519 5.9249L11.1377 8.4749V18.1874H9.93769ZM15.7502 18.1874V16.4999C15.7502 16.2374 15.9752 16.0124 16.2377 16.0124C16.5002 16.0124 16.7252 16.2374 16.7252 16.4999V18.1499H15.7502V18.1874ZM18.4502 18.1874V16.4999C18.4502 15.2999 17.4752 14.3249 16.2752 14.3249C15.0752 14.3249 14.1002 15.2999 14.1002 16.4999V18.1499H12.8627V8.4749L15.9752 5.9249C16.1252 5.7749 16.3877 5.7749 16.5377 5.9249L19.5002 8.3249C19.6127 8.3999 19.6502 8.5499 19.6502 8.6624V18.1499H18.4502V18.1874Z" fill="#111928"/>
</svg>
