<svg width="24" height="24" viewBox="0 0 24 24" fill="none" xmlns="http://www.w3.org/2000/svg">
<path d="M22.0873 3.48758C21.4123 3.07508 20.5873 3.03758 19.9123 3.37508L15.4873 5.58758C14.7373 5.96258 14.2498 6.75008 14.2498 7.61258V8.10008H9.74981V3.63758C9.74981 2.85008 9.33731 2.13758 8.69981 1.72508C8.02481 1.31258 7.1998 1.27508 6.5248 1.61258L2.0998 3.82508C1.3498 4.20008 0.862305 4.98758 0.862305 5.85008V21.0001C0.862305 21.8626 1.5748 22.6126 2.4748 22.6126H21.5998C22.4623 22.6126 23.2123 21.9001 23.2123 21.0001V5.40008C23.1748 4.61258 22.7623 3.90008 22.0873 3.48758ZM16.9498 20.9251H14.6623V16.3126C14.6623 15.8626 14.2873 15.4501 13.7998 15.4501H10.1623C9.71231 15.4501 9.2998 15.8251 9.2998 16.3126V20.8876H7.1623V10.3501C7.1623 10.0501 7.42481 9.78758 7.7248 9.78758H8.8498C8.8498 9.78758 8.84981 9.78758 8.88731 9.78758C8.92481 9.78758 8.8873 9.78758 8.9248 9.78758H15.0748C15.0748 9.78758 15.0748 9.78758 15.1123 9.78758C15.1498 9.78758 15.1123 9.78758 15.1498 9.78758H16.4248C16.7248 9.78758 16.9873 10.0501 16.9873 10.3501V20.9251H16.9498ZM11.0248 20.9251V17.1751H12.9748V20.9251H11.0248ZM2.5498 5.85008C2.5498 5.62508 2.6623 5.43758 2.8498 5.36258L7.27481 3.15008C7.4998 3.00008 7.7248 3.11258 7.7998 3.15008C7.8748 3.22508 8.0623 3.37508 8.0623 3.63758V8.10008H7.76231C6.52481 8.10008 5.5123 9.11258 5.5123 10.3501V20.9251H2.5123V5.85008H2.5498ZM21.4873 20.9251H18.6373V10.3501C18.6373 9.11258 17.6248 8.10008 16.3873 8.10008H15.9373V7.61258C15.9373 7.38758 16.0498 7.20008 16.2373 7.12508L20.6623 4.91258C20.9248 4.80008 21.1123 4.87508 21.2248 4.95008C21.2998 4.98758 21.4873 5.13758 21.4873 5.43758V20.9251Z" fill="#111928"/>
</svg>
