<svg width="24" height="24" viewBox="0 0 24 24" fill="none" xmlns="http://www.w3.org/2000/svg"><path d="M15.8442 2h.1406c.1128 1.2211-.4192 2.1335-1.0658 2.79424-.6344.65617-1.5031 1.29257-2.9083 1.196-.0937-1.20361.4392-2.04834 1.0849-2.70755.5989-.61435 1.6967-1.16104 2.7486-1.28269ZM20 16.7426v.0391c-.3921 1.1961-.9514 2.2212-1.634 3.1725-.623.8636-1.3866 2.0258-2.7499 2.0258-1.1781 0-1.9606-.7629-3.168-.7838-1.2771-.0208-1.9795.638-3.14723.8038h-.39814c-.85749-.125-1.5495-.809-2.05365-1.4252C5.36249 18.7538 4.21372 16.4015 4 13.3914v-.8845c.09049-2.1543 1.12981-3.90591 2.51126-4.75479.72907-.45135 1.73133-.83587 2.84735-.66401.4783.07465.96689.23956 1.39529.40274.4059.15711.9134.43573 1.3943.42097.3258-.00954.6498-.18053.9782-.30118.9617-.3498 1.9045-.75081 3.1472-.56246 1.4935.22742 2.5535.89576 3.2085 1.92692-1.2634.80983-2.2622 2.03021-2.0916 4.11421.1517 1.8931 1.2444 3.0006 2.6095 3.6533Z" fill="#111928"/></svg>