<svg width="24" height="24" viewBox="0 0 24 24" fill="none" xmlns="http://www.w3.org/2000/svg">
<path d="M20.7374 6.48745V4.38745C20.7374 3.14995 19.7249 2.13745 18.4874 2.13745H15.7499C14.5124 2.13745 13.4999 3.14995 13.4999 4.38745V6.48745H10.5374V4.38745C10.5374 3.14995 9.5249 2.13745 8.2874 2.13745H5.5499C4.3124 2.13745 3.2999 3.14995 3.2999 4.38745V6.48745C2.0624 6.52495 1.0874 7.49995 1.0874 8.73745V19.575C1.0874 20.8125 2.0999 21.825 3.3374 21.825H7.5749C8.8124 21.825 9.8249 20.8125 9.8249 19.575V16.9875C9.8249 15.7875 10.7999 14.775 12.0374 14.775C12.6374 14.775 13.1999 15 13.6124 15.4125C14.0249 15.825 14.2499 16.3875 14.2499 16.9875V19.575C14.2499 20.8125 15.2624 21.825 16.4999 21.825H20.7374C21.9749 21.825 22.9874 20.8125 22.9874 19.575V8.77495C22.9874 7.53745 21.9749 6.52495 20.7374 6.48745ZM15.1499 4.38745C15.1499 4.08745 15.4124 3.82495 15.7124 3.82495H18.4499C18.7499 3.82495 19.0124 4.08745 19.0124 4.38745V6.48745H15.1499V4.38745ZM4.9499 4.38745C4.9499 4.08745 5.2124 3.82495 5.5124 3.82495H8.2499C8.5499 3.82495 8.8124 4.08745 8.8124 4.38745V6.48745H4.9499V4.38745ZM21.2999 19.6124C21.2999 19.9125 21.0374 20.1749 20.7374 20.1749H16.4624C16.1624 20.1749 15.8999 19.9125 15.8999 19.6124V17.025C15.8999 15.975 15.4874 15 14.7749 14.2875C14.0249 13.5375 13.0499 13.1625 12.0374 13.1625C9.8999 13.1625 8.1374 14.925 8.1374 17.0625V19.65C8.1374 19.95 7.8749 20.2125 7.5749 20.2125H3.2999C2.9999 20.2125 2.7374 19.95 2.7374 19.65V8.77495C2.7374 8.47495 2.9999 8.21245 3.2999 8.21245H20.6999C20.9999 8.21245 21.2624 8.47495 21.2624 8.77495V19.6124H21.2999Z" fill="#111928"/>
</svg>
