<svg width="24" height="24" viewBox="0 0 24 24" fill="none" xmlns="http://www.w3.org/2000/svg">
<path d="M22.1252 7.3875C22.5752 7.3875 22.9877 7.0125 22.9877 6.525C22.9877 6.0375 22.6127 5.6625 22.1252 5.6625H21.3377V4.65C21.3377 3.525 20.4377 2.625 19.3127 2.625H4.6877C3.5627 2.625 2.6627 3.525 2.6627 4.65V5.6625H1.8752C1.4252 5.6625 1.0127 6.0375 1.0127 6.525C1.0127 7.0125 1.3877 7.3875 1.8752 7.3875H2.6627V19.6875H2.2877C1.8377 19.6875 1.4252 20.0625 1.4252 20.55C1.4252 21.0375 1.8002 21.4125 2.2877 21.4125H21.6752C22.1252 21.4125 22.5377 21.0375 22.5377 20.55C22.5377 20.0625 22.1627 19.6875 21.6752 19.6875H21.3377V7.3875H22.1252ZM4.3502 4.65C4.3502 4.4625 4.5002 4.3125 4.6877 4.3125H19.3127C19.5002 4.3125 19.6502 4.4625 19.6502 4.65V5.6625H4.3502V4.65ZM13.3502 19.6875H10.2752V14.175C10.2752 13.2375 11.0627 12.45 12.0002 12.45C12.9377 12.45 13.7252 13.2375 13.7252 14.175V19.6875H13.3502ZM19.6502 19.6875H15.4127V14.175C15.4127 12.3 13.8752 10.7625 12.0002 10.7625C10.1252 10.7625 8.58769 12.3 8.58769 14.175V19.6875H4.3502V7.3875H19.6877V19.6875H19.6502Z" fill="#111928"/>
</svg>
