<svg width="24" height="24" viewBox="0 0 24 24" fill="none" xmlns="http://www.w3.org/2000/svg"><path d="M21.2627 1.61255H2.7377c-1.1625 0-2.100005.9375-2.100005 2.1v2.2875c0 1.0875.825005 1.9875 1.912505 2.0625V20.1c0 1.275 1.0125 2.2876 2.2875 2.2876h14.2875c1.275 0 2.2875-1.0126 2.2875-2.2876V8.06255c1.05-.075 1.9125-.975 1.9125-2.0625v-2.2875c.0375-1.1625-.9-2.1-2.0625-2.1ZM19.1252 20.7001h-14.25c-.3375 0-.6-.2626-.6-.6001V8.06255h15.4875V20.1c0 .3375-.3.6001-.6375.6001Zm2.55-14.70005c0 .225-.1875.4125-.4125.4125H2.7377c-.225 0-.4125-.1875-.4125-.4125v-2.2875c0-.225.1875-.4125.4125-.4125h18.525c.225 0 .4125.1875.4125.4125v2.2875Z" fill="#111928"/><path d="M15.075 11.175h-6.15c-.8625 0-1.6125.7125-1.6125 1.6125v2.325c0 .8625.7125 1.6125 1.6125 1.6125h6.15c.8625 0 1.6125-.7125 1.6125-1.6125V12.75c-.0375-.8625-.75-1.575-1.6125-1.575Zm-.1125 3.7875h-5.925V12.825H15v2.1375h-.0375Z" fill="#111928"/></svg>