<svg width="24" height="24" viewBox="0 0 24 24" fill="none" xmlns="http://www.w3.org/2000/svg"><path d="M17.2874 18.7876H6.44992c-.2625 0-.525-.1125-.675-.375-.15-.225-.1875-.525-.075-.75.675-1.65.7875-3.525.7875-3.6v-2.7c0-.45-.375-.825-.825-.825-.45 0-.825.375-.825.825v2.625c0 .1875-.15 1.725-.675 3.0375-.3.7875-.225 1.65.225 2.325.45.675 1.2375 1.0875 2.0625 1.0875h2.025c.3 1.6125 1.68748 2.85 3.37498 2.85 1.6875 0 3.1125-1.2375 3.375-2.85h2.025c.45 0 .825-.375.825-.825 0-.45-.3-.825-.7875-.825Zm-5.4 2.8875c-.75 0-1.3875-.4875-1.65-1.1625h3.3c-.2625.6375-.9 1.1625-1.65 1.1625ZM21.8623 17.175l-2.925-2.025v-4.9125c0-3.59995-2.7375-6.59995-6.225-7.01245v-1.725c0-.45-.375-.825001-.825-.825001-.45 0-.825.375001-.825.825001v1.7625c-2.025.225-3.825 1.35-4.9875 3.0375l-2.925-2.025c-.375-.2625-.9-.15-1.1625.225-.2625.375-.15.9.225 1.1625L20.9623 18.6c.15.1125.3.15.4875.15.2625 0 .525-.1125.7125-.375.1875-.375.075-.9-.3-1.2Zm-9.975-12.29995c2.9625 0 5.3625 2.4375 5.3625 5.39995v3.75l-9.825-6.78745c1.0125-1.4625 2.6625-2.3625 4.4625-2.3625Z" fill="#111928"/></svg>