<svg width="24" height="24" viewBox="0 0 24 24" fill="none" xmlns="http://www.w3.org/2000/svg"><path d="M18.6001 13.8751v-3.4875c0-3.37505-2.5125-6.11255-5.775-6.56255v-1.575c0-.45-.375-.825-.825-.825-.45 0-.825.375-.825.825v1.575c-3.26248.4125-5.77498 3.1875-5.77498 6.56255v3.4875c0 .1875-.1125 1.575-.6 2.775-.3.75-.225 1.5749.225 2.2125.45.6749 1.1625 1.0499 1.9875 1.0499h1.8375c.3 1.5 1.61248 2.6626 3.18748 2.6626s2.925-1.125 3.1875-2.6626h1.8375c.7875 0 1.5375-.375 1.9875-1.0499.45-.6751.525-1.5.225-2.2125-.525-1.2-.6375-2.625-.675-2.775Zm-6.6 7.0125c-.6375 0-1.2-.4126-1.425-.9751h2.8875c-.2625.5625-.825.9751-1.4625.9751Zm5.5875-2.9625c-.1125.1875-.3375.2999-.5625.2999H6.97512c-.225 0-.45-.1124-.5625-.2999-.1125-.1875-.15-.4501-.075-.6376.6375-1.5375.75-3.2624.75-3.3374V10.425c0-2.69995 2.2125-4.91245 4.91248-4.91245 2.7 0 4.9125 2.2125 4.9125 4.91245v3.4875c0 .075.1125 1.8001.75 3.3376.075.2625.075.4875-.075.675ZM4.8752 2.81256c-.3375-.3-.8625-.3-1.2.0375-1.95 2.1-3.037505 4.8375-3.037505 7.72504 0 .45.375005.825.825005.825s.825-.375.825-.825c0-2.43754.9-4.76254 2.5875-6.56254.375-.3375.3375-.8625 0-1.2ZM20.3252 2.88764c-.3-.3375-.8625-.375-1.2-.0375-.3375.3-.375.8625-.0375 1.2 1.65 1.80001 2.5875 4.125 2.5875 6.56246 0 .45.375.825.825.825.45 0 .825-.375.825-.825 0-2.88746-1.05-5.62496-3-7.72496Z" fill="#111928"/></svg>