<svg width="24" height="24" viewBox="0 0 24 24" fill="none" xmlns="http://www.w3.org/2000/svg"><path d="M20.2876 4.16251h-1.5375v-1.8h.3375c.45 0 .8625-.375.8625-.8625 0-.4875-.375-.862498-.8625-.862498h-2.3625c-.45 0-.8625.374998-.8625.862498s.375.8625.8625.8625h.3375v1.8375h-4.2v-1.8375h.3375c.45 0 .8625-.375.8625-.8625 0-.4875-.375-.862498-.8625-.862498h-2.3625c-.45 0-.8625.374998-.8625.862498s.375.8625.8625.8625h.3375v1.8375H6.9376v-1.8375h.3375c.45 0 .8625-.375.8625-.8625 0-.4875-.375-.862498-.8625-.862498H4.9126c-.45 0-.8625.374998-.8625.862498s.375.8625.8625.8625h.3375v1.8375H3.7126c-1.275 0-2.3625 1.05-2.3625 2.3625V16.5c0 1.275 1.05 2.3625 2.3625 2.3625h.375V22.5c0 .45.375.8625.8625.8625.4875 0 .8625-.375.8625-.8625v-3.675h12.4875V22.5c0 .45.375.8625.8625.8625.4875 0 .8625-.375.8625-.8625v-3.675h.375c1.275 0 2.3625-1.05 2.3625-2.3625V6.52501c-.1125-1.3125-1.1625-2.3625-2.475-2.3625Zm.675 12.29999c0 .375-.3.675-.675.675H3.7126c-.375 0-.675-.3-.675-.675V6.52501c0-.375.3-.675.675-.675h16.575c.375 0 .675.3.675.675v9.93749Z" fill="#111928"/></svg>