<svg width="24" height="24" viewBox="0 0 24 24" fill="none" xmlns="http://www.w3.org/2000/svg"><path d="M9.48682 11.2501V7.65918h5.03948c.7996 0 1.5658.73554 1.5658 1.79546 0 1.05996-.7662 1.79546-1.5658 1.79546H9.48682ZM9.48682 16.3409V12.75h6.19738c.7996 0 1.5658.7355 1.5658 1.7955 0 1.0599-.7662 1.7954-1.5658 1.7954H9.48682Z" fill="#111928"/><path d="M12 22c5.5228 0 10-4.4772 10-10 0-5.52285-4.4772-10-10-10C6.47715 2 2 6.47715 2 12c0 5.5228 4.47715 10 10 10ZM10.6447 5v1.15909h1.3948V5c0-.41421.3358-.75.75-.75s.75.33579.75.75v1.15909h.9868c1.7584 0 3.0658 1.54374 3.0658 3.29546 0 .76635-.2502 1.49295-.679 2.06775 1.105.5184 1.8369 1.7126 1.8369 3.0232 0 1.7517-1.3074 3.2954-3.0658 3.2954h-2.1447V19c0 .4142-.3358.75-.75.75s-.75-.3358-.75-.75v-1.1591h-1.3948V19c0 .4142-.3357.75-.74996.75-.41422 0-.75-.3358-.75-.75v-1.1591H7c-.41421 0-.75-.3358-.75-.75s.33579-.75.75-.75h.98684V7.65909H7c-.41421 0-.75-.33579-.75-.75s.33579-.75.75-.75h2.14474V5c0-.41421.33578-.75.75-.75.41426 0 .74996.33579.74996.75Z" fill="#111928"/></svg>