<svg width="24" height="24" viewBox="0 0 24 24" fill="none" xmlns="http://www.w3.org/2000/svg"><path d="M18.2999 15.75 12.6749 12l5.625-3.75004c.6-.4125.975-1.0875.975-1.8 0-.7125-.375-1.3875-.975-1.8l-5.55-3.750004c-.45-.3-1.0125-.3375-1.5-.075-.4875.262504-.7875.750004-.7875 1.312504v8.32504L5.9999 7.46246c-.375-.2625-.9-.15-1.1625.225-.2625.375-.15.9.225 1.1625L9.7124 12l-4.575 3.075c-.375.2625-.4875.7875-.225 1.1625.15.225.4125.375.7125.375.15 0 .3375-.0375.45-.15L10.4624 13.5v8.3625c0 .5625.3 1.05.7875 1.3125.225.1125.45.1875.675.1875.2625 0 .5625-.075.7875-.2625l5.5875-3.7125c.6-.4125.975-1.0875.975-1.8 0-.75-.3375-1.425-.975-1.8375Zm-6.15-13.20004 5.2125 3.4875c.1875.1125.225.3375.225.4125 0 .075-.0375.2625-.225.4125L12.1499 10.35V2.54996Zm5.2125 15.41254L12.1499 21.45v-7.7625l5.2125 3.4875c.1875.1125.225.3375.225.4125 0 .075 0 .2625-.225.375Z" fill="#111928"/></svg>