<svg width="24" height="24" viewBox="0 0 24 24" fill="none" xmlns="http://www.w3.org/2000/svg">
<path d="M20.6249 3.3749C15.2999 0.262402 8.6999 0.262402 3.3749 3.3749C3.1124 3.5249 2.9624 3.7874 2.9624 4.0874V20.6624C2.9624 21.9374 3.9749 22.9499 5.2499 22.9499H18.7874C20.0624 22.9499 21.0749 21.9374 21.0749 20.6624V4.0874C21.0749 3.7874 20.8874 3.5249 20.6249 3.3749ZM14.2124 17.9249H9.7874V16.2374H14.2124V17.9249ZM9.7874 19.6124H14.2124V21.2999H9.7874V19.6124ZM19.3874 20.6999C19.3874 21.0374 19.1249 21.2999 18.7874 21.2999H15.9374V13.1249C15.9374 12.6749 15.5624 12.2624 15.0749 12.2624C14.5874 12.2624 14.2124 12.6374 14.2124 13.1249V14.5499H9.7874V13.1249C9.7874 12.6749 9.4124 12.2624 8.9249 12.2624C8.4374 12.2624 8.0624 12.6374 8.0624 13.1249V21.2999H5.2124C4.8749 21.2999 4.6124 21.0374 4.6124 20.6999V4.6124C9.1874 2.0999 14.7749 2.0999 19.3499 4.6124V20.6999H19.3874Z" fill="#111928"/>
</svg>
