<svg width="24" height="24" viewBox="0 0 24 24" fill="none" xmlns="http://www.w3.org/2000/svg">
<path d="M22.9877 20.6626L22.2002 8.7376C22.1627 7.1626 19.7627 6.4126 17.5502 6.4126C15.3377 6.4126 12.9002 7.1251 12.8627 8.7001L12.6002 12.6751H11.5127V9.8251C11.5127 9.3751 11.1377 8.9626 10.6502 8.9626C10.1627 8.9626 9.78769 9.3376 9.78769 9.8251V12.6751H8.36269V10.7251C8.36269 10.2751 7.9877 9.8626 7.5002 9.8626C7.01269 9.8626 6.6377 10.2376 6.6377 10.7251V12.6751H5.2502V11.6251C5.2502 11.1751 4.8752 10.7626 4.3877 10.7626C3.9002 10.7626 3.5252 11.1376 3.5252 11.6251V12.6751H3.3752C2.0627 12.6751 1.0127 13.7251 1.0127 15.0376V20.7751C1.0127 22.0876 2.0627 23.1376 3.3752 23.1376H20.6252C21.2627 23.1376 21.9002 22.8751 22.3502 22.3876C22.8002 21.9376 23.0252 21.3001 22.9877 20.6626ZM17.5127 8.1001C19.1627 8.1001 20.1752 8.5501 20.4377 8.7751C20.1752 9.0376 19.1627 9.4501 17.5127 9.4501C15.8627 9.4501 14.8502 9.0001 14.5877 8.7751C14.8502 8.5126 15.8627 8.1001 17.5127 8.1001ZM3.3752 21.4876C3.0002 21.4876 2.7002 21.1876 2.7002 20.8126V15.0376C2.7002 14.6626 3.0002 14.3626 3.3752 14.3626H12.4502L12.0002 21.4876H3.3752ZM21.1127 21.2626C21.0002 21.4126 20.8127 21.4876 20.6252 21.4876H13.6877L14.4002 10.6126C15.2627 10.9876 16.4252 11.1751 17.5127 11.1751C18.6002 11.1751 19.7252 10.9876 20.6252 10.6126L21.3002 20.7751C21.3002 20.9251 21.2252 21.1126 21.1127 21.2626Z" fill="#111928"/>
<path d="M12.6004 2.55005H13.7254C13.9879 2.55005 14.2129 2.77505 14.2129 3.03755V4.50005C14.2129 4.95005 14.5879 5.36255 15.0754 5.36255C15.5629 5.36255 15.9379 4.98755 15.9379 4.50005V3.03755C15.9379 1.83755 14.9629 0.862549 13.7629 0.862549H12.6379C12.1879 0.862549 11.7754 1.23755 11.7754 1.72505C11.7754 2.21255 12.1504 2.55005 12.6004 2.55005Z" fill="#111928"/>
<path d="M17.1004 2.55005H18.2254C18.4879 2.55005 18.7129 2.77505 18.7129 3.03755V4.50005C18.7129 4.95005 19.0879 5.36255 19.5754 5.36255C20.0629 5.36255 20.4379 4.98755 20.4379 4.50005V3.03755C20.4379 1.83755 19.4629 0.862549 18.2629 0.862549H17.1379C16.6879 0.862549 16.2754 1.23755 16.2754 1.72505C16.2754 2.21255 16.6129 2.55005 17.1004 2.55005Z" fill="#111928"/>
</svg>
