<svg width="24" height="24" viewBox="0 0 24 24" fill="none" xmlns="http://www.w3.org/2000/svg"><path d="M6.3 23.3625c-.2625 0-.4875-.0374-.75-.15-.6375-.3-1.05-.9375-1.05-1.65V3.07505C4.5 1.76255 5.5875.675049 6.9.675049h10.2375c1.3125 0 2.4 1.087501 2.4 2.400001V21.4875c0 .7125-.4125 1.35-1.05 1.6501-.6375.2999-1.3875.1875-1.95-.3001l-4.125-3.6c-.2625-.1875-.5625-.15-.825 0l-4.125 3.6375c-.3375.3-.75.4875-1.1625.4875Zm.5625-20.99995c-.4125 0-.7125.3375-.7125.7125V21.5625c0 .0375 0 .075.075.1125.075.0375.1125 0 .1125 0l4.2-3.7125c.8625-.675 2.0625-.675 2.925 0l.075.075 4.0875 3.6001s.0375.0374.1125 0c.075-.0376.075-.0751.075-.1126V3.07505c0-.4125-.3375-.7125-.7125-.7125H6.8625Z" fill="#111928"/></svg>