<svg width="24" height="24" viewBox="0 0 24 24" fill="none" xmlns="http://www.w3.org/2000/svg"><path d="M21.1877 8.28755H10.9502v-2.625c0-1.2-.97501-2.175-2.175-2.175h-3.075c-1.2 0-2.175.975-2.175 2.175v2.625h-.7125c-1.2 0-2.175005.975-2.175005 2.17495v7.8751c0 1.2.975005 2.175 2.175005 2.175h18.3375c1.2 0 2.175-.975 2.175-2.175v-7.8751c.0375-1.19995-.9375-2.17495-2.1375-2.17495Zm-15.975-2.5875c0-.2625.225-.4875.4875-.4875h3.075c.26249 0 .4875.225.4875.4875v5.51245l-1.05-.825-.075-.0375c-.525-.37495-1.2375-.37495-1.7625 0l-1.125.9V5.70005h-.0375ZM21.6752 18.3c0 .2625-.225.4875-.4875.4875H2.8127c-.2625 0-.4875-.225-.4875-.4875v-7.875c0-.2625.225-.48745.4875-.48745h.7125V11.925c0 .525.3.9751.75 1.2.1875.0751.375.1501.5625.1501.3 0 .5625-.1126.825-.3001l1.57499-1.2375L8.7752 12.975c.41249.3.9375.375 1.3875.15.45-.2249.75-.675.75-1.2V9.97505h10.2375c.2625 0 .4875.22495.4875.48745V18.3h.0375Z" fill="#111928"/></svg>