<svg width="24" height="24" viewBox="0 0 24 24" fill="none" xmlns="http://www.w3.org/2000/svg">
<path d="M22.6123 12L18.7498 6.93755C18.4123 6.52505 17.9248 6.26255 17.3998 6.26255C16.8748 6.26255 16.3873 6.48755 16.0498 6.90005L14.0248 9.37505V8.32505C14.0248 7.91255 13.8748 7.50005 13.6123 7.20005L8.8123 1.65005C8.4748 1.27505 8.02481 1.05005 7.4998 1.05005C7.0123 1.05005 6.5248 1.27505 6.1873 1.65005L1.4623 7.23755C1.1998 7.53755 1.0498 7.95005 1.0498 8.36255V21.2626C1.0498 22.2001 1.8373 22.9875 2.7748 22.9875H21.2623C22.1998 22.9875 22.9873 22.2001 22.9873 21.2626V13.05C22.9873 12.675 22.8373 12.3 22.6123 12ZM12.2998 11.7375C12.2998 11.775 12.2998 11.775 12.2998 11.7375V21.2626H2.7373C2.6998 21.2626 2.6998 21.2625 2.6998 21.225V8.32505L7.4998 2.73755H7.5373L12.2998 8.32505V11.7375ZM21.2998 21.225C21.2623 21.2625 21.2998 21.2625 21.2998 21.225L14.0248 21.2626V12.075L17.3623 7.98755H17.4373L21.3373 13.05V21.225H21.2998Z" fill="#111928"/>
</svg>
