<svg width="24" height="24" viewBox="0 0 24 24" fill="none" xmlns="http://www.w3.org/2000/svg">
<g clip-path="url(#clip0_310_5123)">
<path d="M21.0751 0.675049H15.6376C14.4376 0.675049 13.4626 1.65005 13.4626 2.85005V7.35005H3.2626C1.8751 7.35005 0.787598 8.47505 0.787598 9.82505V20.8876C0.787598 22.275 1.9126 23.3625 3.2626 23.3625H21.0751C22.2751 23.3625 23.2501 22.3875 23.2501 21.1875V2.81255C23.2126 1.61255 22.2751 0.675049 21.0751 0.675049ZM2.4751 20.85V9.78755C2.4751 9.33755 2.8501 9.00005 3.2626 9.00005H13.5001V21.675H12.1126V19.35C12.1126 18.675 11.8126 18.0375 11.2876 17.5875L9.9376 16.4625C9.1126 15.7875 7.9126 15.7875 7.0876 16.4625L5.7376 17.5875C5.1751 18 4.8751 18.6375 4.8751 19.3125V21.6376H3.2626C2.8126 21.675 2.4751 21.3 2.4751 20.85ZM6.5626 21.6376V19.3125C6.5626 19.125 6.6376 18.975 6.7876 18.8625L8.1376 17.7375C8.3626 17.5875 8.6251 17.5875 8.8501 17.7375L10.2001 18.8625C10.3501 18.975 10.4251 19.125 10.4251 19.3125V21.6376H6.5626ZM21.5251 21.1875C21.5251 21.45 21.3001 21.675 21.0376 21.675H15.1876V2.81255C15.1876 2.55005 15.4126 2.32505 15.6751 2.32505H21.1126C21.3751 2.32505 21.6001 2.55005 21.6001 2.81255V21.1875H21.5251Z" fill="#111928"/>
</g>
<defs>
<clipPath id="clip0_310_5123">
<rect width="24" height="24" fill="white"/>
</clipPath>
</defs>
</svg>
