<svg width="24" height="24" viewBox="0 0 24 24" fill="none" xmlns="http://www.w3.org/2000/svg">
<path d="M11.9999 6.1875H6.4499C5.9999 6.1875 5.5874 6.5625 5.5874 7.05C5.5874 7.5375 5.9624 7.9125 6.4499 7.9125H11.9999C12.4499 7.9125 12.8624 7.5375 12.8624 7.05C12.8624 6.5625 12.4499 6.1875 11.9999 6.1875Z" fill="#111928"/>
<path d="M11.9999 10.9126H6.4499C5.9999 10.9126 5.5874 11.2876 5.5874 11.7751C5.5874 12.2626 5.9624 12.6001 6.4499 12.6001H11.9999C12.4499 12.6001 12.8624 12.2251 12.8624 11.7751C12.8624 11.3251 12.4499 10.9126 11.9999 10.9126Z" fill="#111928"/>
<path d="M20.1373 3.37505H16.8748V3.30005C16.8748 2.06255 15.8623 1.05005 14.6248 1.05005H3.8623C2.6248 1.05005 1.6123 2.06255 1.6123 3.30005V20.7001C1.6123 21.9376 2.6248 22.9501 3.8623 22.9501H14.6248C15.8623 22.9501 16.8748 21.9376 16.8748 20.7001V20.475H20.1748C21.4123 20.475 22.4248 19.4625 22.4248 18.225V5.66255C22.4248 4.38755 21.4123 3.37505 20.1373 3.37505ZM15.1873 20.7001C15.1873 21.0001 14.9248 21.2626 14.6248 21.2626H3.8623C3.5623 21.2626 3.2998 21.0001 3.2998 20.7001V3.30005C3.2998 3.00005 3.5623 2.73755 3.8623 2.73755H14.6248C14.9248 2.73755 15.1873 3.00005 15.1873 3.30005V20.7001ZM20.7373 18.225C20.7373 18.525 20.4748 18.7875 20.1748 18.7875H16.8748V15.1501H18.5248C18.9748 15.1501 19.3873 14.775 19.3873 14.2875C19.3873 13.8 19.0123 13.425 18.5248 13.425H16.8748V10.3876H18.5248C18.9748 10.3876 19.3873 10.0125 19.3873 9.52505C19.3873 9.03755 19.0123 8.66255 18.5248 8.66255H16.8748V5.02505H20.1748C20.4748 5.02505 20.7373 5.28755 20.7373 5.58755V18.225Z" fill="#111928"/>
<path d="M11.9999 15.6375H6.4499C5.9999 15.6375 5.5874 16.0125 5.5874 16.5C5.5874 16.9875 5.9624 17.3625 6.4499 17.3625H11.9999C12.4499 17.3625 12.8624 16.9875 12.8624 16.5C12.8624 16.0125 12.4499 15.6375 11.9999 15.6375Z" fill="#111928"/>
</svg>
