<svg width="24" height="24" viewBox="0 0 24 24" fill="none" xmlns="http://www.w3.org/2000/svg">
<g clip-path="url(#clip0_310_5133)">
<path d="M21.3373 8.39995H18.0373V6.86245L18.6748 3.29995C18.7873 2.62495 18.5998 1.94995 18.1873 1.46245C17.7373 0.937451 17.1373 0.637451 16.4623 0.637451H10.1623C9.48731 0.637451 8.84981 0.937451 8.43731 1.46245C7.98731 1.98745 7.83731 2.66245 7.94981 3.29995L8.58731 6.86245V11.7H2.6623C1.5748 11.7 0.674805 12.5999 0.674805 13.6874V21.3749C0.674805 22.4625 1.5748 23.3624 2.6623 23.3624H21.3373C22.4248 23.3624 23.3248 22.4625 23.3248 21.3749V10.3875C23.2873 9.29995 22.4248 8.39995 21.3373 8.39995ZM9.71231 2.54995C9.78731 2.47495 9.93731 2.32495 10.1623 2.32495H16.4623C16.6873 2.32495 16.8373 2.43745 16.9123 2.54995C16.9873 2.62495 17.0623 2.77495 17.0248 3.03745L16.4998 5.96245H10.1248L9.59981 3.03745C9.56231 2.77495 9.63731 2.62495 9.71231 2.54995ZM2.3998 21.3749V13.65C2.3998 13.5 2.5123 13.3499 2.6998 13.3499H8.58731V21.6374H2.6623C2.5123 21.6749 2.3998 21.525 2.3998 21.3749ZM10.2373 7.64995H16.3498V9.26245V21.6749H10.2373V7.64995ZM21.5998 21.3749C21.5998 21.525 21.4873 21.6749 21.2998 21.6749H17.9998V10.0875H21.2998C21.4498 10.0875 21.5998 10.2 21.5998 10.3875V21.3749Z" fill="#111928"/>
</g>
<defs>
<clipPath id="clip0_310_5133">
<rect width="24" height="24" fill="white"/>
</clipPath>
</defs>
</svg>
