<svg width="24" height="24" viewBox="0 0 24 24" fill="none" xmlns="http://www.w3.org/2000/svg">
<path d="M22.6498 2.88745L22.5373 2.77495C19.4248 -0.0750489 14.6998 -0.0750489 11.5873 2.77495L11.4748 2.88745C11.2873 3.03745 11.2123 3.26245 11.2123 3.52495V9.63745H3.2248C2.0248 9.63745 1.0498 10.6125 1.0498 11.8125V21.225C1.0498 22.4249 2.0248 23.4 3.2248 23.4H20.4748C21.8248 23.4 22.9123 22.3125 22.9123 20.9625V3.52495C22.9498 3.26245 22.8373 3.03745 22.6498 2.88745ZM2.7373 21.1875V11.775C2.7373 11.5125 2.9623 11.2875 3.2248 11.2875H11.1748V21.6375H3.2248C2.9623 21.675 2.7373 21.45 2.7373 21.1875ZM16.1998 21.6749V19.4249C16.1998 18.9 16.6123 18.4874 17.1373 18.4874C17.6623 18.4874 18.0748 18.9 18.0748 19.4249V21.6749H16.1998ZM21.2623 20.8875C21.2623 21.3 20.9248 21.6375 20.5123 21.6375H19.7623V19.3875C19.7623 17.925 18.5998 16.7625 17.1373 16.7625C15.6748 16.7625 14.5123 17.925 14.5123 19.3875V21.6375H12.8623V10.4625V3.89995C15.2998 1.83745 18.8248 1.83745 21.2623 3.89995V20.8875Z" fill="#111928"/>
</svg>
