<svg width="24" height="24" viewBox="0 0 24 24" fill="none" xmlns="http://www.w3.org/2000/svg">
<path d="M21.3752 6.075H17.1002V3.4125H17.6252C18.0752 3.4125 18.4877 3.0375 18.4877 2.55C18.4877 2.0625 18.1127 1.6875 17.6252 1.6875H6.3752C5.92519 1.6875 5.51269 2.0625 5.51269 2.55C5.51269 3.0375 5.88769 3.4125 6.3752 3.4125H6.93769V6.075H2.6252C1.5377 6.075 0.637695 6.975 0.637695 8.0625V20.325C0.637695 21.4125 1.5377 22.3125 2.6252 22.3125H21.3752C22.4627 22.3125 23.3627 21.4125 23.3627 20.325V8.025C23.3627 6.9375 22.4627 6.075 21.3752 6.075ZM15.4127 3.4125V15.75H8.58769V3.4125H15.4127ZM2.3627 20.2875V8.025C2.3627 7.875 2.4752 7.725 2.66269 7.725H6.93769V20.55H2.6252C2.4752 20.5875 2.3627 20.4375 2.3627 20.2875ZM8.58769 17.475H15.3752V20.5875H8.58769V17.475ZM21.6752 20.2875C21.6752 20.4375 21.5627 20.5875 21.3752 20.5875H17.1002V7.7625H21.3752C21.5252 7.7625 21.6752 7.875 21.6752 8.0625V20.2875Z" fill="#111928"/>
</svg>
