<svg width="24" height="24" viewBox="0 0 24 24" fill="none" xmlns="http://www.w3.org/2000/svg">
<path d="M15.6748 22.6125C15.4498 22.6125 15.2248 22.5375 15.0748 22.35C14.9248 22.1625 14.8123 21.975 14.8123 21.75V18.3C14.8123 16.725 13.5373 15.4875 11.9998 15.4875C10.4623 15.4875 9.18731 16.7625 9.18731 18.3V21.75C9.18731 22.2 8.81231 22.575 8.32481 22.575H3.2623C2.0248 22.575 1.0498 21.5625 1.0498 20.3625V7.31248C1.0498 6.07498 2.0623 5.09998 3.2623 5.09998H6.8623L10.4248 1.94998C11.2498 1.23748 12.4873 1.19998 13.3123 1.91248L17.0998 5.06248H20.7373C21.9748 5.06248 22.9498 6.07498 22.9498 7.27498V20.3625C22.9498 21.6 21.9373 22.575 20.7373 22.575L15.6748 22.6125ZM11.9998 13.8C14.4748 13.8 16.4998 15.825 16.4998 18.3V20.925H20.7373C21.0373 20.925 21.2623 20.7 21.2623 20.4V7.31248C21.2623 7.01248 21.0373 6.78748 20.7373 6.78748H16.7998C16.6123 6.78748 16.4248 6.71248 16.2748 6.59998L12.2623 3.22498C12.0748 3.03748 11.7748 3.07498 11.5498 3.22498L7.72481 6.56248C7.57481 6.71248 7.38731 6.78748 7.16231 6.78748H3.2623C2.9623 6.78748 2.7373 7.01248 2.7373 7.31248V20.4C2.7373 20.7 2.9623 20.925 3.2623 20.925H7.49981V18.3375C7.49981 15.825 9.52481 13.8 11.9998 13.8Z" fill="#111928"/>
</svg>
