<svg width="24" height="24" viewBox="0 0 24 24" fill="none" xmlns="http://www.w3.org/2000/svg"><path d="M13.5376 6.63746c-.3375-.3375-.8625-.3-1.2 0l-1.875 1.9125c-.3375.3375-.3375.8625 0 1.1625l1.275 1.31254-1.275 1.35c-.3375.3375-.3.8625 0 1.2.15.15.375.225.6.225.225 0 .45-.075.6-.2625l1.875-1.9125c.3375-.3375.3375-.8625 0-1.1625l-1.275-1.31254 1.275-1.3125c.3375-.3375.3-.9 0-1.2Z" fill="#111928"/><path d="M20.6624 9.33749c0-4.8-3.9-8.662502-8.6625-8.662502-4.7625 0-8.6625 3.862502-8.6625 8.662502 0 3.37501 1.95 6.33751 4.8 7.76251v4.275c0 1.0875.9 1.95 1.95 1.95h4.0125c1.0875 0 1.95-.9 1.95-1.95v-4.3875c2.7375-1.4625 4.6125-4.35 4.6125-7.65001Zm-6.3 8.36251v3.675c0 .15-.1125.2625-.2625.2625h-4.0125c-.15 0-.2625-.1125-.2625-.2625V17.7c.675.1875 1.425.3 2.175.3.75 0 1.5-.1125 2.2125-.3h.15Zm-2.3625-1.3875c-3.8625 0-6.975-3.15-6.975-6.97501 0-3.825 3.1125-6.975 6.975-6.975s6.975 3.15 6.975 6.975c0 3.82501-3.1125 6.97501-6.975 6.97501Z" fill="#111928"/></svg>