<svg width="24" height="24" viewBox="0 0 24 24" fill="none" xmlns="http://www.w3.org/2000/svg">
<path d="M21.2999 20.8124H19.1624V18.1875C19.1624 16.4249 18.8624 14.775 18.2999 13.2C18.2999 12.9749 18.2249 12.7874 18.0749 12.6375C15.9749 7.53745 11.0249 3.82495 5.2124 3.56245V1.49995C5.2124 1.04995 4.8374 0.637451 4.3499 0.637451C3.8624 0.637451 3.5249 1.04995 3.5249 1.49995V20.8124H2.6999C2.2499 20.8124 1.8374 21.1874 1.8374 21.6749C1.8374 22.1624 2.2124 22.5374 2.6999 22.5374H3.5249C3.5249 22.9874 3.8999 23.3624 4.3499 23.3624C4.7999 23.3624 5.1749 22.9874 5.1749 22.5374H21.2999C21.7499 22.5374 22.1624 22.1624 22.1624 21.6749C22.1624 21.1874 21.7874 20.8124 21.2999 20.8124ZM14.5124 9.93745C15.1124 10.6875 15.6749 11.5125 16.0874 12.375H5.2124V9.93745H14.5124ZM5.2124 14.0624H16.8374C17.0999 14.8499 17.2874 15.6374 17.3999 16.4999H5.2124V14.0624ZM12.8249 8.24995H5.2124V5.24995C8.0999 5.39995 10.7624 6.52495 12.8249 8.24995ZM5.2124 18.1875H17.4749H17.5124V20.8124H5.2124V18.1875Z" fill="#111928"/>
</svg>
