<svg width="23" height="19" viewBox="0 0 23 19" fill="none" xmlns="http://www.w3.org/2000/svg"><path d="M20.6089 1.6474h-1.9736V.842004C18.6353.402697 18.2558 0 17.7624 0s-.873.366089-.873.842004V1.6474H6.07261V.842004C6.07261.402697 5.69307 0 5.19967 0c-.4934 0-.87294.366089-.87294.842004V1.6474H2.39109C1.10066 1.6474 0 2.67245 0 3.95376V16.6936C0 17.9383 1.06271 19 2.39109 19H20.6089C21.8993 19 23 17.975 23 16.6936V3.91715c0-1.2447-1.1007-2.26975-2.3911-2.26975ZM1.74587 8.45665h3.22608v3.62425H1.74587V8.45665Zm4.934 0H10.665v3.62425H6.67987V8.45665ZM10.665 13.7283v3.5877H6.67987v-3.5877H10.665Zm1.7079 0h3.9852v3.5877h-3.9852v-3.5877Zm0-1.6474V8.45665h3.9852v3.62425h-3.9852Zm5.6552-3.62425h3.226v3.62425h-3.226V8.45665ZM2.39109 3.2948h1.9736v.76878c0 .43931.37953.84201.87293.84201s.87294-.36609.87294-.84201V3.2948H16.9653v.76878c0 .43931.3796.84201.873.84201s.8729-.36609.8729-.84201V3.2948h1.8977c.3795 0 .6832.29287.6832.65896v2.85549H1.74587V3.95376c0-.36609.26568-.65896.64522-.65896ZM1.74587 16.657v-2.9653h3.22608v3.5877H2.39109c-.37954.0366-.64522-.2563-.64522-.6224Zm18.86303.659h-2.5808v-3.5877h3.226v2.9653c.038.3295-.2657.6224-.6452.6224Z" fill="#111928"/></svg>