<svg width="24" height="24" viewBox="0 0 24 24" fill="none" xmlns="http://www.w3.org/2000/svg"><g clip-path="url(#clip0_310_8893)" fill="#111928"><path d="M7.68789 13.725h-1.1625c-.225 0-.375.15-.375.375v1.125c0 .225.15.375.375.375h1.1625c.225 0 .375-.15.375-.375V14.1c0-.1875-.1875-.375-.375-.375ZM12.5629 13.725h-1.1625c-.225 0-.375.15-.375.375v1.125c0 .225.15.375.375.375h1.1625c.225 0 .375-.15.375-.375V14.1c0-.1875-.15-.375-.375-.375ZM17.475 13.725h-1.1625c-.225 0-.375.15-.375.375v1.125c0 .225.15.375.375.375h1.1625c.225 0 .375-.15.375-.375V14.1c0-.1875-.15-.375-.375-.375ZM7.68789 18.5625h-1.1625c-.225 0-.375.15-.375.375v1.125c0 .225.15.375.375.375h1.1625c.225 0 .375-.15.375-.375v-1.125c0-.1875-.1875-.375-.375-.375ZM12.5629 18.5625h-1.1625c-.225 0-.375.15-.375.375v1.125c0 .225.15.375.375.375h1.1625c.225 0 .375-.15.375-.375v-1.125c0-.1875-.15-.375-.375-.375ZM17.475 18.5625h-1.1625c-.225 0-.375.15-.375.375v1.125c0 .225.15.375.375.375h1.1625c.225 0 .375-.15.375-.375v-1.125c0-.1875-.15-.375-.375-.375Z"/><path d="M21.0002 5.77495h-8.1375v-.7125c.8625-.3375 1.4625-1.1625 1.4625-2.1375 0-1.275-1.05-2.287499-2.325-2.287499-1.275 0-2.32501 1.012499-2.32501 2.287499 0 .975.60001 1.8 1.46251 2.1375v.7125H3.0002c-1.275 0-2.362505 1.05-2.362505 2.3625V20.9999c0 1.2751 1.050005 2.3625 2.362505 2.3625h18c1.275 0 2.3625-1.05 2.3625-2.3625V8.09995c0-1.275-1.0875-2.325-2.3625-2.325Zm-9-3.45c.3375 0 .6375.2625.6375.6 0 .3375-.2625.6-.6375.6-.375 0-.6375-.2625-.6375-.6 0-.3375.3-.6.6375-.6Zm-9 5.1375h18c.375 0 .675.3.675.675v2.32505H2.3627V8.13745c0-.4125.2625-.675.6375-.675Zm18 14.21245h-18c-.375 0-.675-.3-.675-.675v-8.8875h19.3125v8.8875c.0375.375-.2625.675-.6375.675Z"/></g><defs><clipPath id="clip0_310_8893"><path fill="#fff" d="M0 0h24v24H0z"/></clipPath></defs></svg>