<svg width="24" height="24" viewBox="0 0 24 24" fill="none" xmlns="http://www.w3.org/2000/svg"><path d="M20.6252 3.97501h-1.575v-.825c0-.45-.375-.8625-.8625-.8625-.4875 0-.8625.375-.8625.8625v.825H6.63769v-.825c0-.45-.375-.8625-.8625-.8625-.4875 0-.86249.375-.86249.8625v.825H3.3752c-1.5 0-2.737505 1.2375-2.737505 2.7375V19.0125c0 1.5 1.237505 2.7375 2.737505 2.7375h17.25c1.5 0 2.7375-1.2375 2.7375-2.7375V6.67501c0-1.5-1.2375-2.7-2.7375-2.7Zm-17.25 1.6875h1.57499v.3375c0 .45.375.8625.86251.8625.48749 0 .86249-.375.86249-.8625v-.3375H17.4002v.3375c0 .45.375.8625.8625.8625.4875 0 .8625-.375.8625-.8625v-.3375h1.5c.5625 0 1.05.45 1.05 1.05v2.1H2.3627v-2.1c0-.6.45-1.05 1.0125-1.05Zm17.25 14.36249h-17.25c-.5625 0-1.05-.45-1.05-1.05V10.5h19.3125v8.5125c.0375.5625-.45 1.0125-1.0125 1.0125Z" fill="#111928"/><path d="m14.5503 12.5625-3.2625 3.2625-1.05-1.05c-.33751-.3375-.86251-.3375-1.20001 0s-.3375.8625 0 1.2l1.65001 1.65c.15.15.375.2625.6.2625.225 0 .45-.075.6-.2625l3.8625-3.8625c.3375-.3375.3375-.8625 0-1.2-.3375-.3375-.8625-.3375-1.2 0Z" fill="#111928"/></svg>