<svg width="24" height="24" viewBox="0 0 24 24" fill="none" xmlns="http://www.w3.org/2000/svg"><path d="M20.5873 6.37499h-2.8125l-.675-1.35c-.4875-.9375-1.425-1.5375-2.475-1.5375h-5.25c-1.05 0-1.9875.6-2.475 1.5375l-.675 1.35H3.4123c-1.5 0-2.737495 1.2375-2.737495 2.7375V17.7c0 1.5 1.237495 2.7375 2.737495 2.7375h17.175c1.5 0 2.7375-1.2375 2.7375-2.7375V9.14999c.0375-1.5375-1.2-2.775-2.7375-2.775Zm1.0875 11.36251c0 .6-.4875 1.05-1.05 1.05H3.4123c-.6 0-1.05-.4875-1.05-1.05V9.14999c0-.6.4875-1.05 1.05-1.05h3.3375c.3375 0 .6-.1875.75-.45l.9-1.8c.1875-.375.5625-.6.9375-.6h5.2875c.4125 0 .7875.225.9375.6l.9 1.8c.15.3.45.45.75.45h3.3375c.6 0 1.05.4875 1.05 1.05v8.58751h.075Z" fill="#111928"/><path d="M11.9996 9.26251c-2.06249 0-3.71249 1.64999-3.71249 3.71249s1.65 3.7125 3.71249 3.7125c2.0625 0 3.7125-1.65 3.7125-3.7125s-1.65-3.71249-3.7125-3.71249Zm0 5.69999c-1.125 0-2.02499-.9-2.02499-2.025s.89999-2.025 2.02499-2.025 2.025.9 2.025 2.025-.9 2.025-2.025 2.025ZM6.2623 9.26251H4.3498c-.45 0-.8625.375-.8625.86249 0 .4875.375.8625.8625.8625h1.9125c.45 0 .8625-.375.8625-.8625 0-.48749-.375-.86249-.8625-.86249Z" fill="#111928"/></svg>