<svg width="24" height="24" viewBox="0 0 24 24" fill="none" xmlns="http://www.w3.org/2000/svg">
<path d="M22.5002 1.94995C22.0502 1.94995 21.6377 2.32495 21.6377 2.81245V4.79995H16.9877V2.81245C16.9877 2.36245 16.6127 1.94995 16.1252 1.94995C15.6377 1.94995 15.2627 2.32495 15.2627 2.81245V9.89995C14.1752 9.56245 12.9752 9.41245 11.7377 9.41245C10.6502 9.41245 9.60019 9.52495 8.66269 9.78745V2.81245C8.66269 2.36245 8.28769 1.94995 7.80019 1.94995C7.31269 1.94995 6.93769 2.32495 6.93769 2.81245V4.79995H2.3627V2.81245C2.3627 2.36245 1.9877 1.94995 1.5002 1.94995C1.0127 1.94995 0.637695 2.32495 0.637695 2.81245V20.1C0.637695 21.1875 1.5377 22.0875 2.6252 22.0875H21.3752C22.4627 22.0875 23.3627 21.1875 23.3627 20.1V2.81245C23.3627 2.32495 22.9502 1.94995 22.5002 1.94995ZM11.7752 11.0625C13.0502 11.0625 14.2502 11.25 15.3002 11.625V20.325H8.70019V11.5125C9.63769 11.25 10.6877 11.0625 11.7752 11.0625ZM2.3627 20.0625V6.44995H7.01269V20.3624H2.6252C2.4752 20.3624 2.3627 20.25 2.3627 20.0625ZM21.6752 20.0625C21.6752 20.2125 21.5627 20.3624 21.3752 20.3624H16.9877V6.44995H21.6377V20.0625H21.6752Z" fill="#111928"/>
</svg>
