<svg width="24" height="24" viewBox="0 0 24 24" fill="none" xmlns="http://www.w3.org/2000/svg">
<g clip-path="url(#clip0_310_5143)">
<path d="M21.0748 23.1H16.3498C15.1123 23.1 14.0998 22.0875 14.0998 20.85V19.35C14.0998 18.1875 13.1623 17.25 11.9998 17.25C10.8373 17.25 9.89981 18.1875 9.89981 19.35V20.85C9.89981 22.0875 8.88731 23.1 7.64981 23.1H2.9248C1.6873 23.1 0.674805 22.0875 0.674805 20.85V3.1875C0.674805 1.95 1.6873 0.9375 2.9248 0.9375H5.9998C7.2373 0.9375 8.2498 1.95 8.2498 3.1875V7.3125L11.2498 5.2125C11.6998 4.9125 12.2998 4.9125 12.7498 5.2125L15.7498 7.3125V3.1875C15.7498 1.95 16.7623 0.9375 17.9998 0.9375H21.0748C22.3123 0.9375 23.3248 1.95 23.3248 3.1875V20.85C23.3623 22.0875 22.3123 23.1 21.0748 23.1ZM11.9998 15.525C14.0998 15.525 15.7873 17.2125 15.7873 19.3125V20.8125C15.7873 21.1125 16.0498 21.375 16.3498 21.375H21.0748C21.3748 21.375 21.6373 21.1125 21.6373 20.8125V3.1875C21.6373 2.8875 21.3748 2.625 21.0748 2.625H17.9998C17.6998 2.625 17.4373 2.8875 17.4373 3.1875V8.025C17.4373 8.5125 17.1748 8.9625 16.7248 9.1875C16.3123 9.375 15.7873 9.375 15.3748 9.075L11.9998 6.7125L8.6248 9.075C8.21231 9.375 7.6873 9.375 7.27481 9.15C6.8248 8.925 6.5623 8.475 6.5623 7.9875V3.1875C6.5623 2.8875 6.2998 2.625 5.9998 2.625H2.9248C2.6248 2.625 2.3623 2.8875 2.3623 3.1875V20.85C2.3623 21.15 2.6248 21.4125 2.9248 21.4125H7.64981C7.9498 21.4125 8.21231 21.15 8.21231 20.85V19.35C8.21231 17.25 9.89981 15.525 11.9998 15.525Z" fill="#111928"/>
</g>
<defs>
<clipPath id="clip0_310_5143">
<rect width="24" height="24" fill="white"/>
</clipPath>
</defs>
</svg>
