<svg width="24" height="24" viewBox="0 0 24 24" fill="none" xmlns="http://www.w3.org/2000/svg">
<path d="M21.4127 7.04995H21.0377V4.57495C21.0377 3.86245 20.7377 3.22495 20.1752 2.77495L18.7502 1.61245C17.8877 0.937451 16.6877 0.937451 15.8252 1.61245L14.4002 2.77495C13.8752 3.22495 13.5377 3.86245 13.5377 4.57495V7.04995H10.4252V4.57495C10.4252 3.86245 10.1252 3.22495 9.56269 2.77495L8.1377 1.61245C7.2752 0.937451 6.0752 0.937451 5.2127 1.61245L3.7877 2.77495C3.2627 3.22495 2.9252 3.86245 2.9252 4.57495V7.04995H2.5502C1.5002 7.04995 0.637695 7.91245 0.637695 8.96245V20.9625C0.637695 22.0125 1.5002 22.875 2.5502 22.875H7.72519C8.7752 22.875 9.6377 22.0125 9.6377 20.9625V17.1C9.6377 16.275 10.3127 15.6 11.1377 15.6H12.7877C13.6127 15.6 14.2877 16.275 14.2877 17.1V21C14.2877 22.05 15.1502 22.9125 16.2002 22.9125H21.3752C22.4252 22.9125 23.2877 22.05 23.2877 21V8.99995C23.3627 7.91245 22.4627 7.04995 21.4127 7.04995ZM15.2627 4.57495C15.2627 4.38745 15.3377 4.19995 15.4877 4.08745L16.9127 2.92495C17.1377 2.73745 17.4752 2.73745 17.7002 2.92495L19.1252 4.08745C19.2752 4.19995 19.3502 4.38745 19.3502 4.57495V7.04995H15.2252V4.57495H15.2627ZM4.6502 4.57495C4.6502 4.38745 4.7252 4.19995 4.8752 4.08745L6.3002 2.92495C6.5252 2.73745 6.86269 2.73745 7.0877 2.92495L8.5127 4.08745C8.66269 4.19995 8.73769 4.38745 8.73769 4.57495V7.04995H4.6127V4.57495H4.6502ZM21.6752 21C21.6752 21.15 21.5627 21.225 21.4502 21.225H16.2377C16.0877 21.225 16.0127 21.1125 16.0127 21V17.1C16.0127 15.3375 14.5877 13.9125 12.8252 13.9125H11.1752C9.41269 13.9125 7.98769 15.3375 7.98769 17.1V21C7.98769 21.15 7.8752 21.225 7.7627 21.225H2.5877C2.4377 21.225 2.3627 21.1125 2.3627 21V8.99995C2.3627 8.84995 2.4752 8.77495 2.5877 8.77495H21.4127C21.5627 8.77495 21.6377 8.88745 21.6377 8.99995V21H21.6752Z" fill="#111928"/>
</svg>
