<svg width="24" height="24" viewBox="0 0 24 24" fill="none" xmlns="http://www.w3.org/2000/svg">
<path d="M21.3752 9.2251H18.5627V2.4001C18.5627 1.9501 18.1877 1.5376 17.7002 1.5376C17.2127 1.5376 16.8752 1.9501 16.8752 2.4001V5.5876H14.7377V2.4001C14.7377 1.9501 14.3627 1.5376 13.8752 1.5376C13.3877 1.5376 13.0127 1.9126 13.0127 2.4001V5.5876H10.8752V2.4001C10.8752 1.9501 10.5002 1.5376 10.0127 1.5376C9.52519 1.5376 9.15019 1.9126 9.15019 2.4001V5.5876H7.12519V2.4001C7.12519 1.9501 6.7502 1.5376 6.2627 1.5376C5.7752 1.5376 5.40019 1.9126 5.40019 2.4001V9.2251H2.6252C1.5377 9.2251 0.637695 10.1251 0.637695 11.2126V20.4751C0.637695 21.5626 1.5377 22.4626 2.6252 22.4626H21.3752C22.4627 22.4626 23.3627 21.5626 23.3627 20.4751V11.1751C23.3627 10.0876 22.4627 9.2251 21.3752 9.2251ZM5.4377 20.7376H2.6252C2.4752 20.7376 2.3252 20.6251 2.3252 20.4376V11.1751C2.3252 11.0251 2.4377 10.8751 2.6252 10.8751H5.4377V20.7376ZM10.9502 20.7376V19.3876C10.9502 18.7876 11.4377 18.3376 12.0002 18.3376C12.6002 18.3376 13.0502 18.8251 13.0502 19.3876V20.7376H10.9502ZM16.8752 20.7376H14.7377V19.3876C14.7377 17.8876 13.5002 16.6501 12.0002 16.6501C10.5002 16.6501 9.26269 17.8876 9.26269 19.3876V20.7376H7.12519V7.2751H16.8752V20.7376ZM21.6752 20.4751C21.6752 20.6251 21.5627 20.7751 21.3752 20.7751H18.5627V10.9126H21.3752C21.5252 10.9126 21.6752 11.0251 21.6752 11.2126V20.4751Z" fill="#111928"/>
</svg>
