<svg width="24" height="24" viewBox="0 0 24 24" fill="none" xmlns="http://www.w3.org/2000/svg">
<path d="M22.5002 20.9626H21.5627V10.0501C21.9002 9.9376 22.1252 9.6376 22.1252 9.2626V5.3251C22.1252 4.8001 21.9377 4.2751 21.5627 3.8626L19.9127 2.0626C19.5002 1.6126 18.9002 1.3501 18.3002 1.3501C17.7002 1.3501 17.1002 1.6126 16.6877 2.0626L15.0377 3.8626C14.6627 4.2751 14.4752 4.8001 14.4752 5.3251V9.2626C14.4752 9.6376 14.7002 9.9376 15.0377 10.0501V14.2501C14.4002 14.4751 13.3127 14.6626 12.0002 14.6626C10.7252 14.6626 9.75019 14.4751 9.11269 14.2876V10.0501C9.45019 9.9376 9.67519 9.6376 9.67519 9.2626V5.3251C9.67519 4.8001 9.48769 4.2751 9.11269 3.8626L7.46269 2.0626C7.05019 1.6126 6.45019 1.3501 5.85019 1.3501C5.2502 1.3501 4.6502 1.6126 4.2377 2.0626L2.5877 3.8626C2.2127 4.2751 2.0252 4.8001 2.0252 5.3251V9.2626C2.0252 9.6376 2.2502 9.9376 2.5877 10.0501V20.9626H1.5002C1.0502 20.9626 0.637695 21.3376 0.637695 21.8251C0.637695 22.3126 1.0127 22.6876 1.5002 22.6876H22.5002C22.9502 22.6876 23.3627 22.3126 23.3627 21.8251C23.3627 21.3376 22.9502 20.9626 22.5002 20.9626ZM16.1627 5.3251C16.1627 5.2126 16.2002 5.1001 16.2752 4.9876L17.9252 3.1876C18.0377 3.0376 18.2252 3.0376 18.3002 3.0376C18.3752 3.0376 18.5252 3.0751 18.6752 3.1876L20.3252 4.9876C20.4002 5.0626 20.4377 5.2126 20.4377 5.3251V8.4376H16.1627V5.3251ZM11.9627 16.3876C13.0877 16.3876 14.1752 16.2751 15.0002 16.0501V20.9626H9.07519V16.0876C9.90019 16.2751 10.9127 16.3876 11.9627 16.3876ZM3.6752 5.3251C3.6752 5.2126 3.7127 5.1001 3.7877 4.9876L5.4377 3.1876C5.5502 3.0376 5.73769 3.0376 5.8127 3.0376C5.88769 3.0376 6.03769 3.0751 6.1877 3.1876L7.83769 4.9876C7.91269 5.0626 7.95019 5.2126 7.95019 5.3251V8.4376H3.6752V5.3251ZM4.2377 20.9626V10.1251H7.38769V20.9626H4.2377ZM16.7252 20.9626V10.1251H19.8752V20.9626H16.7252Z" fill="#111928"/>
</svg>
