<svg width="24" height="24" viewBox="0 0 24 24" fill="none" xmlns="http://www.w3.org/2000/svg">
<path d="M22.5002 1.3876C22.0502 1.3876 21.6377 1.7626 21.6377 2.2501V6.1876C21.6377 6.4501 21.4127 6.6376 21.1877 6.6376H16.7627V3.5251C16.7627 3.0751 16.3877 2.6626 15.9002 2.6626C15.4127 2.6626 15.0377 3.0376 15.0377 3.5251V6.6001H8.92519V3.5251C8.92519 3.0751 8.5502 2.6626 8.0627 2.6626C7.57519 2.6626 7.2002 3.0376 7.2002 3.5251V6.6001H2.8127C2.5502 6.6001 2.3627 6.3751 2.3627 6.1501V2.2126C2.3627 1.7626 1.9877 1.3501 1.5002 1.3501C1.0127 1.3501 0.637695 1.7251 0.637695 2.2126V6.1501C0.637695 7.3501 1.6127 8.2876 2.7752 8.2876H3.3002V20.4376C3.3002 21.6376 4.2752 22.5751 5.4377 22.5751H18.4502C19.6502 22.5751 20.5877 21.6001 20.5877 20.4376V8.3251H21.1127C22.3127 8.3251 23.2502 7.3501 23.2502 6.1876V2.2126C23.3627 1.7626 22.9502 1.3876 22.5002 1.3876ZM13.9877 20.9251H10.0127V18.7501C10.0127 17.6626 10.9127 16.7626 12.0002 16.7626C13.0877 16.7626 13.9877 17.6626 13.9877 18.7501V20.9251ZM18.9752 20.4751C18.9752 20.7376 18.7502 20.9251 18.5252 20.9251H15.6752V18.7501C15.6752 16.7251 14.0252 15.0751 12.0002 15.0751C9.97519 15.0751 8.3252 16.7251 8.3252 18.7501V20.9251H5.4752C5.2127 20.9251 5.0252 20.7001 5.0252 20.4751V8.3251H18.9752V20.4751Z" fill="#111928"/>
</svg>
