<svg width="24" height="24" viewBox="0 0 24 24" fill="none" xmlns="http://www.w3.org/2000/svg">
<g clip-path="url(#clip0_310_5141)">
<path d="M22.3502 0.674951C21.9002 0.674951 21.4877 1.04995 21.4877 1.53745V3.97495H16.2752V1.49995C16.2752 1.04995 15.9002 0.637451 15.4127 0.637451C14.9252 0.637451 14.5502 1.01245 14.5502 1.49995V3.93745H9.41269V1.49995C9.41269 1.04995 9.03769 0.637451 8.55019 0.637451C8.06269 0.637451 7.68769 1.01245 7.68769 1.49995V3.93745H2.5127V1.49995C2.5127 1.04995 2.1377 0.637451 1.6502 0.637451C1.1627 0.637451 0.825195 1.04995 0.825195 1.49995V21.0374C0.825195 22.3124 1.8752 23.3624 3.1502 23.3624H8.92519C9.37519 23.3624 9.78769 22.9874 9.78769 22.4999V16.8375C9.78769 16.2 10.0502 15.5624 10.5377 15.1124C10.9502 14.6999 11.5127 14.4749 12.0752 14.4749C12.6377 14.4749 13.2002 14.6999 13.5752 15.1124C13.9877 15.5249 14.2127 16.0875 14.2127 16.6875V22.4999C14.2127 22.9499 14.5877 23.3624 15.0752 23.3624H20.8502C22.1252 23.3624 23.1752 22.3124 23.1752 21.0374V1.49995C23.1752 1.04995 22.8002 0.674951 22.3502 0.674951ZM21.4877 8.17495H2.5127V5.62495H21.4877V8.17495ZM20.8502 21.6749H15.9002V16.7249C15.9002 15.6749 15.4877 14.7 14.7377 13.95C14.0252 13.2375 13.0877 12.825 12.0752 12.825C11.0627 12.7874 10.0877 13.2 9.30019 13.95C8.51269 14.7374 8.06269 15.7874 8.06269 16.875V21.6749H3.1502C2.8127 21.6749 2.5127 21.3749 2.5127 21.0374V9.86245H21.4877V21.0374C21.4877 21.3749 21.2252 21.6749 20.8502 21.6749Z" fill="#111928"/>
</g>
<defs>
<clipPath id="clip0_310_5141">
<rect width="24" height="24" fill="white"/>
</clipPath>
</defs>
</svg>
