<svg width="24" height="24" viewBox="0 0 24 24" fill="none" xmlns="http://www.w3.org/2000/svg">
<g clip-path="url(#clip0_310_5125)">
<path d="M22.3502 0.674951C21.9002 0.674951 21.4877 1.04995 21.4877 1.53745V3.97495H16.2752V1.49995C16.2752 1.04995 15.9002 0.637451 15.4127 0.637451C14.9252 0.637451 14.5502 1.01245 14.5502 1.49995V3.93745H9.41269V1.49995C9.41269 1.04995 9.03769 0.637451 8.55019 0.637451C8.06269 0.637451 7.68769 1.01245 7.68769 1.49995V3.93745H2.5127V1.49995C2.5127 1.04995 2.1377 0.637451 1.6502 0.637451C1.1627 0.637451 0.825195 1.04995 0.825195 1.49995V4.79995V21.0374C0.825195 22.3124 1.8752 23.3624 3.1502 23.3624H8.92519C9.37519 23.3624 9.78769 22.9874 9.78769 22.4999V19.4625C9.78769 16.7625 10.5377 14.1375 11.9627 11.8499L12.0002 11.775L12.0377 11.8499C13.4627 14.1375 14.2127 16.7625 14.2127 19.4625V22.4999C14.2127 22.9499 14.5877 23.3624 15.0752 23.3624H20.8502C22.1252 23.3624 23.1752 22.3124 23.1752 21.0374V4.79995V1.49995C23.1752 1.04995 22.8002 0.674951 22.3502 0.674951ZM21.4877 21.0374C21.4877 21.3749 21.1877 21.6749 20.8502 21.6749H15.9002V19.4999C15.9002 16.4999 15.0752 13.5374 13.4627 10.9874L13.1252 10.4249C12.8627 10.0125 12.4502 9.78745 12.0002 9.78745C11.5502 9.78745 11.1002 10.0125 10.8752 10.4249L10.5377 10.9874C8.92519 13.5374 8.10019 16.4624 8.10019 19.4999V21.6749H3.1502C2.8127 21.6749 2.5127 21.3749 2.5127 21.0374V5.62495H21.4877V21.0374Z" fill="#111928"/>
</g>
<defs>
<clipPath id="clip0_310_5125">
<rect width="24" height="24" fill="white"/>
</clipPath>
</defs>
</svg>
