<svg width="24" height="24" viewBox="0 0 24 24" fill="none" xmlns="http://www.w3.org/2000/svg"><path d="M23.3627 4.425c0-1.275-1.05-2.3625-2.3625-2.3625h-18c-1.275 0-2.362505 1.05-2.362505 2.3625v4.65c0 .5625.1875 1.0875.525005 1.5-.337505.4125-.525005.9-.525005 1.4625V16.8c0 1.275 1.012505 2.2875 2.287505 2.2875h11.175c.45 0 .8625-.375.8625-.8625 0-.4875-.375-.8625-.8625-.8625H2.9627c-.3375 0-.6-.2625-.6-.6v-4.725c0-.3375.2625-.6.6-.6H21.0377c.3375 0 .6.2625.6.6v3.3375c0 .45.375.8625.8625.8625.4875 0 .8625-.375.8625-.8625v-3.3c0-.5625-.1875-1.05-.525-1.4625.3375-.4125.525-.9375.525-1.5V4.425ZM3.0002 9.75c-.375 0-.675-.3-.675-.675v-4.65c0-.375.3-.675.675-.675h18c.375 0 .675.3.675.675v4.65c0 .375-.3.675-.675.675h-18Z" fill="#111928"/><path d="M6.03779 5.85001c-.45 0-.8625.375-.8625.8625v.0375c0 .45.375.8625.8625.8625.4875 0 .8625-.375.8625-.8625v-.075c0-.45-.375-.825-.8625-.825ZM18.7878 5.88751h-2.4375c-.45 0-.8625.375-.8625.8625 0 .4875.375.8625.8625.8625h2.4375c.45 0 .8625-.375.8625-.8625 0-.4875-.375-.8625-.8625-.8625ZM5.21289 14.3625v.075c0 .45.375.8625.8625.8625.4875 0 .8625-.375.8625-.8625v-.075c0-.45-.375-.8625-.8625-.8625-.4875 0-.8625.375-.8625.8625ZM21.2627 17.8125l-2.5875 2.0625-.6-.825c-.2625-.375-.7875-.45-1.1625-.1875-.375.2625-.45.7875-.1875 1.1625l1.125 1.5375c.15.1875.3375.3.5625.3375h.1125c.1875 0 .375-.075.525-.1875l3.3-2.5875c.375-.3.4125-.825.15-1.2-.3375-.3375-.8625-.4125-1.2375-.1125Z" fill="#111928"/></svg>