<svg width="24" height="24" viewBox="0 0 24 24" fill="none" xmlns="http://www.w3.org/2000/svg">
<path d="M21.1127 13.3876H18.0377V10.9126C18.0377 10.1626 17.6627 9.4501 16.9877 9.0376L12.8627 6.4126V4.9876H13.5752C14.0252 4.9876 14.4377 4.6126 14.4377 4.1251C14.4377 3.6376 14.0627 3.2626 13.5752 3.2626H12.8627V2.4001C12.8627 1.9501 12.4877 1.5376 12.0002 1.5376C11.5502 1.5376 11.1377 1.9126 11.1377 2.4001V3.2626H10.4252C9.97519 3.2626 9.56269 3.6376 9.56269 4.1251C9.56269 4.6126 9.93769 4.9876 10.4252 4.9876H11.1377V6.4126L7.01269 9.0376C6.3752 9.4501 5.96269 10.1626 5.96269 10.9126V13.3876H2.8877C1.6502 13.3876 0.637695 14.4001 0.637695 15.6376V20.2126C0.637695 21.4501 1.6502 22.4626 2.8877 22.4626H21.1127C22.3502 22.4626 23.3627 21.4501 23.3627 20.2126V15.6001C23.3627 14.3626 22.3502 13.3876 21.1127 13.3876ZM2.8877 20.7376C2.5877 20.7376 2.3252 20.4751 2.3252 20.1751V15.6001C2.3252 15.3001 2.5877 15.0376 2.8877 15.0376H5.96269V20.7001H2.8877V20.7376ZM16.3502 20.7376H7.65019V10.9126C7.65019 10.7251 7.76269 10.5376 7.91269 10.4626L12.0002 7.8751L16.0877 10.4626C16.2377 10.5751 16.3502 10.7251 16.3502 10.9126V20.7376ZM21.6752 20.2126C21.6752 20.5126 21.4127 20.7751 21.1127 20.7751H18.0377V15.0751H21.1127C21.4127 15.0751 21.6752 15.3376 21.6752 15.6376V20.2126Z" fill="#111928"/>
</svg>
