<svg width="24" height="24" viewBox="0 0 24 24" fill="none" xmlns="http://www.w3.org/2000/svg">
<path d="M21.9001 10.3125L13.6501 1.38755C13.2001 0.900049 12.6376 0.675049 12.0001 0.675049C11.3626 0.675049 10.8001 0.937549 10.3501 1.38755L2.10011 10.3125C1.87511 10.5751 1.80011 10.9125 1.95011 11.2126C2.10011 11.5125 2.40011 11.7001 2.73761 11.7001C3.30011 11.7001 3.75011 12.1501 3.75011 12.7126V22.4626C3.75011 22.9126 4.12511 23.3251 4.61261 23.3251H19.4626C19.9126 23.3251 20.3251 22.9501 20.3251 22.4626V12.7501C20.3251 12.1875 20.7751 11.7375 21.3376 11.7375C21.6751 11.7375 21.9751 11.55 22.1251 11.25C22.2751 10.9501 22.1251 10.5751 21.9001 10.3125ZM13.7626 21.6751H10.2376V19.6126C10.2376 18.6376 11.0251 17.85 12.0001 17.85C12.9751 17.85 13.7626 18.6376 13.7626 19.6126V21.6751ZM18.5626 12.7501V21.6751H15.4501V19.6126C15.4501 17.7001 13.9126 16.1625 12.0001 16.1625C10.0876 16.1625 8.55011 17.7001 8.55011 19.6126V21.6751H5.43761V12.7501C5.43761 11.8125 4.95011 10.9875 4.23761 10.5L11.5876 2.51255C11.8126 2.28755 12.1876 2.28755 12.4126 2.51255L19.7626 10.5C19.0501 10.9875 18.5626 11.8125 18.5626 12.7501Z" fill="#111928"/>
<path d="M11.1752 6.675V8.1H9.7502C9.3002 8.1 8.8877 8.475 8.8877 8.9625C8.8877 9.45 9.2627 9.825 9.7502 9.825H11.1752V12.675C11.1752 13.125 11.5502 13.5375 12.0377 13.5375C12.4877 13.5375 12.9002 13.1625 12.9002 12.675V9.825H14.3252C14.7752 9.825 15.1877 9.45 15.1877 8.9625C15.1877 8.475 14.8127 8.1 14.3252 8.1H12.9002V6.675C12.9002 6.225 12.5252 5.8125 12.0377 5.8125C11.5502 5.8125 11.1752 6.1875 11.1752 6.675Z" fill="#111928"/>
</svg>
