<svg width="19" height="23" viewBox="0 0 19 23" fill="none" xmlns="http://www.w3.org/2000/svg"><path d="m18.6263 11.5187-3.2394-3.25366c-.2576-.26179-.5521-.37398-.9202-.37398h-2.0246V4.4878c0-1.12195-.8835-2.01951-1.951-2.01951h-.3681V2.2439c0-.78536-.6258-1.421136-1.39883-1.421136h-1.6933C7.03087.373984 6.66277 0 6.22103 0 5.7793 0 5.4112.373984 5.4112.822764H3.7179c-.77303 0-1.39882.635776-1.39882 1.421136v.18699h-.3681C.88346 2.43089 0 3.32846 0 4.45041V17.5772c0 1.122.88346 2.0195 1.95098 2.0195h5.04308v1.6082c0 1.0097.80984 1.7951 1.76692 1.7951h8.46652c.9939 0 1.7669-.8228 1.7669-1.7951v-8.7512c.0368-.3366-.1104-.6732-.3681-.935Zm-3.1289-.7854.7362.748h-.7362v-.748ZM4.01238 2.50569h4.49093v1.57073H4.01238V2.50569ZM1.98779 17.9138c-.14725 0-.29449-.1496-.29449-.3366V4.4878c0-.18699.11043-.33658.29449-.33658h.3681v.18699c0 .78537.62579 1.42114 1.39882 1.42114h5.04308c.77303 0 1.39881-.63577 1.39881-1.42114v-.18699h.3681c.1473 0 .2945.14959.2945.33658v3.40326H8.79779c-.99389 0-1.76692.82276-1.76692 1.79512v8.22762H1.98779Zm15.27651 3.4407H8.79779c-.07362 0-.11043-.0374-.11043-.1122V9.68618c0-.0748.03681-.1122.11043-.1122h5.00631v2.76752c0 .4487.3681.8601.8466.8601h2.6872v8.0407c.0368.0374-.0368.1122-.0736.1122Z" fill="#111928"/></svg>