<svg width="24" height="24" viewBox="0 0 24 24" fill="none" xmlns="http://www.w3.org/2000/svg"><g clip-path="url(#clip0_310_4046)" fill="#111928"><path d="M20.9998 23.3625h-18c-1.275 0-2.324995-1.05-2.324995-2.325V3.00005c0-1.275 1.049995-2.325001 2.324995-2.325001h18c1.275 0 2.325 1.050001 2.325 2.325001V21c.0375 1.275-1.05 2.3625-2.325 2.3625Zm-18-21.03745c-.375 0-.675.3-.675.675V21c0 .375.3.675.675.675h18c.3375 0 .675-.3.675-.675V3.00005c0-.375-.3-.675-.675-.675h-18Z"/><path d="M16.3497 17.175c-.225 0-.45-.075-.6-.2625l-4.35-4.3125c-.15-.15-.2625-.375-.2625-.6V5.81255c0-.45.375-.825.825-.825.45 0 .8625.375.8625.825v5.84995l4.125 4.0875c.3375.3375.3375.8625 0 1.2-.1875.15-.375.225-.6.225Z"/></g><defs><clipPath id="clip0_310_4046"><path fill="#fff" d="M0 0h24v24H0z"/></clipPath></defs></svg>