<svg width="24" height="24" viewBox="0 0 24 24" fill="none" xmlns="http://www.w3.org/2000/svg"><g clip-path="url(#clip0_310_4180)" fill="#111928"><path d="M12.5621 12.375V6.33745c0-.45-.375-.825-.825-.825-.45 0-.825.375-.825.825v6.37505c0 .225.075.45.225.6l4.1625 4.2375c.15.15.375.2625.6.2625.225 0 .4125-.075.6-.225.3375-.3375.3375-.8625 0-1.2l-3.9375-4.0125Z"/><path d="M11.9998.5625C5.73731.5625.674805 5.7.674805 12S5.77481 23.4375 11.9998 23.4375c6.225 0 11.325-5.1375 11.325-11.4375S18.2623.5625 11.9998.5625Zm0 21.1875c-5.32499 0-9.675-4.3875-9.675-9.75s4.35001-9.75 9.675-9.75c5.325 0 9.675 4.3875 9.675 9.75s-4.35 9.75-9.675 9.75Z"/></g><defs><clipPath id="clip0_310_4180"><path fill="#fff" d="M0 0h24v24H0z"/></clipPath></defs></svg>