<svg width="24" height="24" viewBox="0 0 24 24" fill="none" xmlns="http://www.w3.org/2000/svg"><path d="M12.9748 10.1626c-.225-.22503-.525-.33753-.825-.33753-.3 0-.6.1125-.825.33753l-1.7625 1.8375c-.3375.3375-.3.8625.0375 1.2.3375.3375.8625.3 1.2-.0375l.5625-.5625v2.8875c0 .45.375.8625.8625.8625.45 0 .8625-.375.8625-.8625v-2.8875l.5625.5625c.15.1875.375.2625.6.2625.225 0 .4125-.075.6-.225.3375-.3375.3375-.8625.0375-1.2l-1.9125-1.8375Z" fill="#111928"/><path d="M21.4873 8.85002c-1.0125-1.0875-2.4-1.8-3.8625-2.0625-.825-1.275-2.025-2.2125-3.4125-2.7-.6375-.225-1.3875-.375-2.175-.375-3.525 0-6.45 2.7-6.675 6.1125C2.6998 10.1625.674805 12.375.674805 15.0375c0 2.8875 2.362495 5.2125 5.287495 5.2125h10.425c3.825 0 6.975-3.0375 6.975-6.7875 0-1.6875-.675-3.3375-1.875-4.61248Zm-5.1 9.74998H5.9998c-2.0625 0-3.6375-1.575-3.6375-3.525 0-1.9875 1.6125-3.525 3.6375-3.525h.1875c.45 0 .8625-.375.8625-.8625v-.375c0-2.69998 2.25-4.87498 4.9875-4.87498.6 0 1.125.075 1.6125.2625 1.1625.375 2.1375 1.2 2.7375 2.2875.15.225.375.4125.6375.4125 1.2375.1125 2.4375.7125 3.2625 1.61248.9.975 1.3875 2.2125 1.3875 3.4875 0 2.8125-2.4 5.1-5.2875 5.1Z" fill="#111928"/></svg>