<svg width="24" height="24" viewBox="0 0 24 24" fill="none" xmlns="http://www.w3.org/2000/svg"><path d="M21.4873 8.88751c-1.0125-1.05-2.4-1.8-3.8625-2.025-.825-1.275-2.025-2.2125-3.4125-2.6625-.6375-.225-1.3875-.375-2.175-.375-3.525 0-6.45 2.6625-6.675 6.0375C2.6998 10.1625.674805 12.375.674805 15c0 2.85 2.362495 5.175 5.287495 5.175h10.425c3.825 0 6.975-3 6.975-6.7125 0-1.6875-.675-3.3375-1.875-4.57499Zm-5.1 9.59999H5.9998c-2.0625 0-3.6375-1.5375-3.6375-3.4875 0-1.95 1.6125-3.4875 3.6375-3.4875h.1875c.45 0 .8625-.375.8625-.8625v-.375c0-2.62499 2.25-4.79999 4.9875-4.79999.6 0 1.125.075 1.6125.2625 1.1625.375 2.1375 1.2 2.7375 2.25.15.225.375.4125.6375.4125 1.2375.1125 2.4375.7125 3.2625 1.575.9.93749 1.3875 2.17499 1.3875 3.41249 0 2.85-2.4 5.1-5.2875 5.1Z" fill="#111928"/><path d="M14.8497 14.2125c.375-.5625.6-1.2.6-1.875 0-.9375-.375-1.8-1.05-2.43748-1.3875-1.3125-3.6375-1.3125-5.02499 0-.675.63748-1.05 1.53748-1.05 2.43748 0 .9.375 1.8 1.05 2.4375.71249.675 1.61249.975 2.51249.975.6 0 1.2-.15 1.725-.4125l1.8375 1.725c.15.15.375.225.5625.225.225 0 .45-.075.6-.2625.3375-.3375.3-.8625-.0375-1.2l-1.725-1.6125Zm-4.35-.675c-.3375-.3375-.52499-.75-.52499-1.2375 0-.4875.18749-.9.52499-1.2375.375-.3375.8625-.525 1.35-.525.4875 0 .975.1875 1.35.525.3375.3375.525.75.525 1.2375 0 .4875-.1875.9-.525 1.2375-.7125.7125-1.95.7125-2.7 0Z" fill="#111928"/></svg>