<svg width="24" height="24" viewBox="0 0 24 24" fill="none" xmlns="http://www.w3.org/2000/svg"><path d="M18.6748 8.88749c-.375 0-.7125.0375-1.05.1125v-.15c0-2.85-2.5125-5.175-5.625-5.175-3.11249 0-5.625 2.325-5.625 5.175v.15c-.3375-.075-.7125-.1125-1.05-.1125C2.7373 8.88749.674805 10.8375.674805 13.2S2.7748 17.5125 5.3248 17.5125h.9375c.45001 0 .8625-.375.8625-.8625 0-.4875-.375-.8625-.8625-.8625h-.9375c-1.65 0-2.9625-1.1625-2.9625-2.625s1.35-2.625 2.9625-2.625c.6375 0 1.2375.1875 1.76251.525.29999.1875.7125.1875 1.01249-.075.30001-.225.37501-.6375.22501-.975-.15-.37501-.22501-.78751-.22501-1.20001 0-1.9125 1.7625-3.4875 3.9375-3.4875s3.9375 1.575 3.9375 3.4875c0 .4125-.075.825-.225 1.20001-.15.3375-.0375.75.2625.975.3.225.675.2625 1.0125.075.525-.3375 1.125-.525 1.7625-.525 1.65 0 2.9625 1.1625 2.9625 2.625s-1.35 2.625-2.9625 2.625c-.45 0-.8625.375-.8625.8625 0 .4875.375.8625.8625.8625 2.5875 0 4.65-1.95 4.65-4.3125s-2.175-4.31251-4.7625-4.31251Z" fill="#111928"/><path d="M15.3746 16.9875c.45-.6.675-1.35.675-2.1 0-1.0125-.4125-1.95-1.1625-2.6625-1.5-1.425-3.9375-1.425-5.43749 0-.75.7125-1.1625 1.65-1.1625 2.6625 0 1.0125.4125 1.95 1.1625 2.6625.74999.7125 1.72499 1.05 2.73749 1.05.675 0 1.35-.15 1.95-.4875L16.1996 20.1c.15.15.375.225.5625.225.225 0 .45-.075.6-.2625.3375-.3375.3-.8625-.0375-1.2l-1.95-1.875Zm-4.7625-.675c-.4125-.375-.63749-.9-.63749-1.425s.22499-1.05.63749-1.425c.45-.4125 1.0125-.6 1.575-.6s1.125.1875 1.575.6c.4125.375.6375.9.6375 1.425s-.225 1.05-.6375 1.425c-.9.825-2.2875.825-3.15 0Z" fill="#111928"/></svg>