<svg width="24" height="24" viewBox="0 0 24 24" fill="none" xmlns="http://www.w3.org/2000/svg"><path d="m14.6623 10.0875-3.3 3.1125-.9375-.9375c-.3375-.3375-.8625-.3375-1.2 0-.3375.3375-.3375.8625 0 1.2l1.35 1.35c.1875.1875.45.3.75.3.225 0 .4875-.075.675-.225.0375 0 .0375-.0375.075-.0375l3.75-3.525c.3375-.3375.3375-.8625.0375-1.2-.3375-.37501-.8625-.37501-1.2-.0375Z" fill="#111928"/><path d="M21.4873 8.85002c-1.0125-1.0875-2.4-1.8-3.8625-2.0625-.825-1.275-2.025-2.2125-3.4125-2.7-.6375-.2625-1.3875-.375-2.175-.375-3.525 0-6.45 2.7-6.675 6.15C2.6998 10.1625.674805 12.375.674805 15.0375c0 2.8875 2.362495 5.2125 5.287495 5.25h10.425c3.825 0 6.975-3.0375 6.975-6.7875 0-1.725-.675-3.375-1.875-4.64998Zm-5.1 9.74998H5.9998c-2.0625 0-3.6375-1.575-3.6375-3.5625s1.6125-3.5625 3.6375-3.5625h.1875c.45 0 .8625-.375.8625-.8625v-.375c0-2.69998 2.25-4.87498 4.9875-4.87498.6 0 1.125.075 1.6125.2625 1.1625.375 2.1375 1.2 2.7375 2.2875.15.225.375.4125.6375.4125 1.2375.1125 2.4375.7125 3.2625 1.6125.9.97498 1.3875 2.21248 1.3875 3.48748 0 2.8875-2.4 5.175-5.2875 5.175Z" fill="#111928"/></svg>