<svg width="24" height="24" viewBox="0 0 24 24" fill="none" xmlns="http://www.w3.org/2000/svg"><path d="M7.3499 5.28753c-.3375-.3-.9-.2625-1.2.075L.974902 11.2125c-.4125.45-.4125 1.1625 0 1.6125l5.212498 5.85c.15.1875.4125.3.6375.3.1875 0 .4125-.075.5625-.225.3375-.3.375-.8625.075-1.2L2.5124 12l4.9125-5.51247c.3375-.375.3-.9-.075-1.2ZM23.0247 11.2125l-5.2125-5.84997c-.3-.3375-.825-.375-1.2-.075s-.375.825-.075 1.2L21.4872 12l-4.9125 5.5125c-.3.3375-.2625.8625.075 1.2.15.15.375.225.5625.225.225 0 .45-.1125.6375-.3l5.2125-5.85c.375-.45.375-1.125-.0375-1.575ZM14.2126 5.40004c-.45-.15-.9375.075-1.05.525L9.26259 17.5125c-.15.45.075.9375.525 1.05.075.0375.1875.0375.26251.0375.3375 0 .675-.225.7875-.5625l3.8625-11.58746c.1875-.4125-.0375-.9-.4875-1.05Z" fill="#111928"/></svg>