<svg width="24" height="24" viewBox="0 0 24 24" fill="none" xmlns="http://www.w3.org/2000/svg"><path d="M19.2752 16.65c-.0375-.1875.0375-.4125.1875-.5625 2.7-2.7375 3.45-6.6 1.9125-10.05-1.3125-2.925-4.05-4.95-7.125-5.325002C9.90017.187498 5.92517 2.7 4.57517 6.825c0 .0375-.0375.075-.0375.1125l-.4125 2.5875-2.1 3.825c-.225.4125-.225.9.0375 1.3125s.675.675 1.1625.675h.4125l.525 2.8875c.1875 1.125 1.1625 1.9125 2.2875 1.9125h2.475c.3 0 .5625.225.6375.4875l.1875.8625c.26253 1.05 1.20003 1.8 2.28753 1.8h5.625c.7125 0 1.35-.3 1.8-.825.45-.525.6375-1.2375.525-1.9125l-.7125-3.9Zm-1.125 4.7625c-.075.075-.225.225-.4875.225h-5.625c-.3 0-.5625-.225-.6375-.4875l-.1875-.8625c-.2625-1.05-1.2-1.8-2.28753-1.8h-2.475c-.3 0-.6-.225-.6375-.525l-.675-3.6c-.075-.4125-.4125-.675-.825-.675h-.525l1.875-3.45c.0375-.075.075-.1875.075-.2625l.4125-2.625c1.125-3.3 4.35003-5.325 7.83753-4.9125 2.5125.3 4.725 1.95 5.775 4.3125 1.2375 2.8125.6375 5.925-1.575 8.175-.525.525-.7875 1.3125-.6375 2.0625l.7125 3.9375c.075.225-.0375.4125-.1125.4875Z" fill="#111928"/><path d="M10.6504 7.0875c-.3-.3375-.86251-.375-1.20001-.075l-2.1 1.875c-.1875.15-.2625.375-.2625.6375 0 .2625.1125.45.2625.6375l2.1 1.875c.15.15.375.225.56251.225.225 0 .45-.075.6375-.2625.3-.3375.3-.8625-.075-1.2L9.18789 9.525 10.5754 8.25c.3375-.2625.375-.825.075-1.1625ZM19.3126 9.56253c0-.225-.1125-.45-.2625-.6375l-2.1-1.875c-.3375-.3-.8625-.3-1.2.075-.3.3375-.3.8625.075 1.2l1.3875 1.275-1.3875 1.27497c-.3375.3-.375.8625-.075 1.2.15.1875.4125.2625.6375.2625.1875 0 .4125-.075.5625-.225l2.1-1.875c.15-.225.2625-.44997.2625-.67497ZM14.1753 5.73747c-.45-.1125-.9.15-1.05.6L11.5128 12.375c-.1125.45.15.9.6 1.05.075.0375.15.0375.225.0375.375 0 .7125-.2625.825-.6375l1.6125-6.07503c.1125-.45-.15-.9-.6-1.0125Z" fill="#111928"/></svg>