<svg width="24" height="24" viewBox="0 0 24 24" fill="none" xmlns="http://www.w3.org/2000/svg"><path d="M8.49254 13.425c-1.66154 0-3.0277 1.3875-3.0277 3.075 0 1.6875 1.36616 3.075 3.0277 3.075 1.66156 0 3.02766-1.3875 3.02766-3.075 0-1.6875-1.3661-3.075-3.02766-3.075Zm0 4.4625c-.73847 0-1.36616-.6375-1.36616-1.3875s.62769-1.3875 1.36616-1.3875c.73846 0 1.36615.6375 1.36615 1.3875s-.62769 1.3875-1.36615 1.3875Z" fill="#111928"/><path d="m14.8431 14.85-.7015-.2625c-.0739-.2625-.1846-.525-.3323-.7875l.3323-.675c.2215-.4125.1477-.9375-.2215-1.3125l-.8493-.8625c-.3323-.3375-.8492-.4125-1.2554-.1875l-.6646.3375c-.2584-.1125-.5169-.225-.7754-.3375l-.2584-.7125c-.14771-.45001-.59079-.75001-1.07079-.75001H7.86467c-.48 0-.88615.3-1.07077.75001l-.22154.7125c-.25846.075-.51692.1875-.77538.3375l-.62769-.3375c-.44308-.225-.92308-.1125-1.29231.225l-.84923.8625c-.33231.3375-.40615.8625-.18462 1.275l.33231.675-.33231.7875-.70153.225c-.44308.15-.77539.5625-.77539 1.0875v1.2c0 .4875.29539.9375.73846 1.05l.70154.2625c.07385.2625.18462.525.33231.7875l-.29539.675c-.22153.4125-.14769.9375.22154 1.3125l.81231.825c.33231.3375.84923.4125 1.29231.225L5.8339 21.9c.25847.1125.51693.225.77539.3375l.25846.7125c.14769.45.59077.75 1.03385.75h1.18153c.48 0 .88616-.3 1.07077-.75l.2215-.7125c.2585-.075.517-.1875.7754-.3375l.6646.3375c.4062.225.9231.15 1.2923-.225l.8493-.8625c.3323-.3375.4061-.8625.1846-1.275l-.3323-.675c.1108-.2625.2215-.525.3323-.7875l.7015-.225c.4431-.15.7754-.5625.7754-1.0875v-1.2c-.0369-.4875-.3323-.9-.7754-1.05Zm-.923 1.8375-1.1816.4125-.1108.45c-.0738.4125-.2584.825-.48 1.2l-.2215.375.5539 1.125-.2954.3-1.1077-.5625-.4062.225c-.3692.225-.77536.4125-1.18151.4875l-.44308.1125-.40615 1.2h-.36923l-.40616-1.2L7.4216 20.7c-.36924-.075-.77539-.2625-1.14462-.4875l-.40615-.225-1.1077.5625-.25846-.2625.55385-1.125-.22154-.4125c-.22154-.375-.36923-.7875-.48-1.2l-.11077-.45-1.18154-.4125v-.375L4.24621 15.9l.11077-.45c.11077-.4125.25846-.825.48-1.2l.22154-.4125-.55385-1.125.25846-.2625 1.1077.5625.40615-.225c.36923-.225.77538-.375 1.18154-.4875l.44308-.1125.40615-1.2h.36923l.40615 1.2.44308.1125c.40615.1125.81229.2625 1.18149.4875l.4062.225 1.1077-.5625.2585.2625-.5539 1.125.2215.4125c.2216.375.4062.7875.48 1.2l.1108.45 1.1816.4125v.375ZM17.3539 3.33752c-1.2554 0-2.2523 1.0125-2.2523 2.2875 0 1.275.9969 2.2875 2.2523 2.2875 1.2554 0 2.2523-1.0125 2.2523-2.2875 0-1.275-.9969-2.2875-2.2523-2.2875Zm0 2.8875c-.3323 0-.5908-.2625-.5908-.6 0-.3375.2585-.6.5908-.6s.5907.2625.5907.6c0 .3375-.2584.6-.5907.6Z" fill="#111928"/><path d="M21.9323 5.8875V5.55l.2954-.2625c.3692-.3.5169-.825.3323-1.275l-.2954-.7875c-.1477-.45-.5908-.7125-1.0708-.7125H20.7877c-.0739-.075-.1477-.15-.2216-.2625l.0369-.375c.037-.4875-.2215-.937504-.6646-1.125004l-.7754-.3375c-.443-.1875-.923-.075-1.2553.2625l-.2585.3h-.3323l-.2216-.3c-.2953-.375-.8123-.525-1.2553-.3375l-.7754.3c-.4431.1875-.7385.637504-.7016 1.087504V2.1c-.0738.075-.1477.15-.2584.225l-.3693-.0375c-.48-.0375-.923.225-1.1076.675l-.3324.7875c-.1846.45-.0738.975.2585 1.275l.2954.2625v.3375l-.2954.2625c-.3692.3-.48.825-.3323 1.275l.2954.7875c.1846.45.6277.75 1.1077.7125h.3692c.0739.075.1477.15.2215.2625l-.0369.375c-.0369.4875.2216.9375.6646 1.125l.7754.3375c.4431.1875.96.075 1.2923-.2625l.2585-.3h.3323l.2585.3c.2215.2625.5169.4125.8492.4125.1477 0 .2954-.0375.4061-.075l.7754-.3c.4431-.1875.7385-.6.7016-1.0875v-.375c.0738-.075.1477-.15.2584-.225l.3693.0375c.48.075.96-.225 1.1446-.675l.3323-.7875c.1846-.45.0738-.9375-.2585-1.275l-.4061-.2625Zm-1.6985-.6c.0369.2625.0369.525 0 .825l-.0738.45.6277.6-.037.0375-.8492-.075-.2954.375c-.1477.225-.3692.4125-.5908.5625l-.3692.2625.0369.8625h-.0369l-.5538-.675-.4431.0375c-.2585.0375-.5539.0375-.8123 0l-.4431-.075-.5169.6375H15.84l.0738-.8625-.3692-.3c-.2216-.15-.4062-.375-.5539-.6l-.2584-.375-.8493.0375V6.975l.6647-.5625-.037-.45c-.0369-.2625-.0369-.5625 0-.825l.0739-.45-.6646-.5625.0369-.0375.8492.075.2585-.3375c.1477-.225.3692-.4125.5907-.5625L16.0246 3l-.0369-.8625h.0369l.5538.675.4431-.0375c.2585-.0375.5169-.0375.8123 0l.4431.075.5538-.7125h.037L18.7938 3l.3692.3c.2216.15.4062.375.5539.6l.2584.375.8493-.0375v.0375l-.6646.5625.0738.45Z" fill="#111928"/></svg>