<svg width="24" height="24" viewBox="0 0 24 24" fill="none" xmlns="http://www.w3.org/2000/svg">
<path d="M22.125 10.95C22.125 10.9125 22.125 10.9125 22.125 10.875C22.125 10.8375 22.125 10.8 22.125 10.7625V10.725C22.125 10.65 22.0875 10.575 22.05 10.5375C22.05 10.5375 22.05 10.5 22.0125 10.5C21.975 10.4625 21.9375 10.3875 21.9 10.35C21.9 10.35 21.9 10.35 21.9 10.3125L13.65 1.38755C13.2 0.900049 12.6375 0.675049 12 0.675049C11.3625 0.675049 10.8 0.937549 10.35 1.38755L2.1 10.3125C2.1 10.3125 2.1 10.3125 2.1 10.35C2.0625 10.3875 2.025 10.4625 1.9875 10.5C1.9875 10.5 1.9875 10.5375 1.95 10.5375C1.9125 10.6125 1.9125 10.6875 1.875 10.725V10.7625C1.875 10.8 1.875 10.8375 1.875 10.875C1.875 10.9125 1.875 10.9125 1.875 10.95C1.875 10.9875 1.875 10.9875 1.875 11.025C1.875 11.1 1.9125 11.175 1.95 11.25C1.9875 11.325 2.025 11.3625 2.0625 11.4375L2.1 11.475C2.1375 11.5125 2.2125 11.5875 2.25 11.625C2.2875 11.6625 2.3625 11.7 2.4375 11.7H2.475C2.55 11.7375 2.625 11.7375 2.7 11.7375C3.2625 11.7375 3.7125 12.1875 3.7125 12.75V20.7001C3.7125 22.1625 4.9125 23.3625 6.375 23.3625H17.5875C19.05 23.3625 20.25 22.1625 20.25 20.7001V12.75C20.25 12.1875 20.7 11.7375 21.2625 11.7375C21.3375 11.7375 21.4125 11.7375 21.4875 11.7H21.525C21.6 11.6625 21.6375 11.6625 21.7125 11.625C21.7875 11.5875 21.825 11.55 21.8625 11.475L21.9 11.4375C21.9375 11.4 21.975 11.325 22.0125 11.25C22.05 11.175 22.05 11.1 22.0875 11.025C22.125 10.9875 22.125 10.9875 22.125 10.95ZM11.5875 2.51255C11.8125 2.28755 12.1875 2.28755 12.4125 2.51255L19.35 10.0125H4.65L11.5875 2.51255ZM13.7625 21.675H10.2375V19.6125C10.2375 18.6375 11.025 17.85 12 17.85C12.975 17.85 13.7625 18.6375 13.7625 19.6125V21.675ZM18.5625 12.75V20.7001C18.5625 21.225 18.1125 21.675 17.5875 21.675H15.45V19.6125C15.45 17.7 13.9125 16.1625 12 16.1625C10.0875 16.1625 8.55 17.7 8.55 19.6125V21.675H6.4125C5.8875 21.675 5.4375 21.225 5.4375 20.7001V12.75C5.4375 12.375 5.3625 12.0375 5.25 11.7375H18.7875C18.6375 12.0375 18.5625 12.375 18.5625 12.75Z" fill="#111928"/>
</svg>
