<svg width="24" height="24" viewBox="0 0 24 24" fill="none" xmlns="http://www.w3.org/2000/svg">
<path d="M21.9001 10.3125L13.6501 1.38755C13.2001 0.900049 12.6376 0.675049 12.0001 0.675049C11.3626 0.675049 10.8001 0.937549 10.3501 1.38755L2.10011 10.3125C1.87511 10.5751 1.80011 10.9125 1.95011 11.2126C2.10011 11.5125 2.40011 11.7001 2.73761 11.7001H3.75011V21.0375C3.75011 22.3125 4.76261 23.3251 6.03761 23.3251H17.9626C19.2376 23.3251 20.2501 22.3125 20.2501 21.0375V11.7375H21.2626C21.6001 11.7375 21.9001 11.55 22.0501 11.25C22.2001 10.9501 22.1251 10.5751 21.9001 10.3125ZM13.7626 21.6751H10.2376V19.6126C10.2376 18.6376 11.0251 17.85 12.0001 17.85C12.9751 17.85 13.7626 18.6376 13.7626 19.6126V21.6751ZM18.5626 10.875V21.0375C18.5626 21.375 18.3001 21.6376 17.9626 21.6376H15.4501V19.5751C15.4501 17.6625 13.9126 16.1251 12.0001 16.1251C10.0876 16.1251 8.55011 17.6625 8.55011 19.5751V21.6376H6.03761C5.70011 21.6376 5.43761 21.375 5.43761 21.0375V10.875C5.43761 10.425 5.10011 10.05 4.65011 10.05L11.5876 2.55005C11.8126 2.32505 12.1876 2.32505 12.4126 2.55005L19.3501 10.05C18.9001 10.0875 18.5626 10.425 18.5626 10.875Z" fill="#111928"/>
</svg>
