<svg width="24" height="24" viewBox="0 0 24 24" fill="none" xmlns="http://www.w3.org/2000/svg">
<path d="M21.9001 10.3125L13.6501 1.38755C13.2001 0.900049 12.6376 0.675049 12.0001 0.675049C11.3626 0.675049 10.8001 0.937549 10.3501 1.38755L2.10011 10.3125C1.87511 10.5751 1.80011 10.9125 1.95011 11.2126C2.10011 11.5125 2.40011 11.7001 2.73761 11.7001H3.75011V19.8751C3.75011 21.7875 5.28761 23.3251 7.20011 23.3251H16.8001C18.7126 23.3251 20.2501 21.7875 20.2501 19.8751V11.7375H21.2626C21.6001 11.7375 21.9001 11.55 22.0501 11.25C22.2001 10.9501 22.1251 10.5751 21.9001 10.3125ZM11.5876 2.51255C11.8126 2.28755 12.1876 2.28755 12.4126 2.51255L19.3501 10.0126H4.65011L11.5876 2.51255ZM13.7626 21.6751H10.2376V19.6126C10.2376 18.6376 11.0251 17.85 12.0001 17.85C12.9751 17.85 13.7626 18.6376 13.7626 19.6126V21.6751ZM18.5626 19.8751C18.5626 20.85 17.7751 21.6376 16.8001 21.6376H15.4501V19.5751C15.4501 17.6625 13.9126 16.1251 12.0001 16.1251C10.0876 16.1251 8.55011 17.6625 8.55011 19.5751V21.6376H7.20011C6.22511 21.6376 5.43761 20.85 5.43761 19.8751V11.7375H18.6001V19.8751H18.5626Z" fill="#111928"/>
</svg>
