<svg width="24" height="24" viewBox="0 0 24 24" fill="none" xmlns="http://www.w3.org/2000/svg">
<path d="M22.1624 7.80005L21.2249 4.61255C20.9624 3.71255 20.0999 3.07505 19.1624 3.07505H16.1999L15.5249 1.23755C15.4124 0.900049 15.0749 0.675049 14.7374 0.675049H9.2624C8.8874 0.675049 8.5874 0.900049 8.4749 1.23755L7.7999 3.07505H4.8374C3.8999 3.07505 3.0374 3.71255 2.7749 4.61255L1.8374 7.80005C1.6499 8.43755 1.7624 9.15005 2.1749 9.67505C2.5874 10.2375 3.2249 10.5375 3.8999 10.5375H4.1249V21.1876C4.1249 22.35 5.0999 23.3251 6.2624 23.3251H17.7749C18.9374 23.3251 19.9124 22.35 19.9124 21.1876V10.5375H20.1374C20.8124 10.5375 21.4499 10.2375 21.8624 9.67505C22.2749 9.11255 22.3499 8.43755 22.1624 7.80005ZM9.8624 2.36255H14.1374L14.3999 3.07505H9.5999L9.8624 2.36255ZM13.8374 21.6751H10.1624V17.0251C10.1624 16.7626 10.3499 16.5751 10.6124 16.5751H13.3499C13.6124 16.5751 13.7999 16.7626 13.7999 17.0251V21.6751H13.8374ZM18.2249 21.1876C18.2249 21.4501 18.0374 21.6376 17.7749 21.6376H15.5249V17.0251C15.5249 15.8626 14.5499 14.8876 13.3874 14.8876H10.6499C9.4874 14.8876 8.5124 15.8626 8.5124 17.0251V21.6376H6.2624C5.9999 21.6376 5.8124 21.4501 5.8124 21.1876V10.5375H18.2249V21.1876ZM20.4749 8.66255C20.4374 8.73755 20.3249 8.85005 20.0999 8.85005H3.8624C3.6749 8.85005 3.5624 8.73755 3.4874 8.66255C3.4499 8.58755 3.3749 8.47505 3.4499 8.25005L4.3874 5.06255C4.4624 4.87505 4.6124 4.72505 4.8374 4.72505H19.1624C19.3499 4.72505 19.5374 4.87505 19.6124 5.06255L20.5499 8.25005C20.6249 8.47505 20.5499 8.58755 20.4749 8.66255Z" fill="#111928"/>
</svg>
