<svg width="24" height="24" viewBox="0 0 24 24" fill="none" xmlns="http://www.w3.org/2000/svg">
<path d="M23.2498 10.275C23.2498 10.2375 23.2873 10.2375 23.2873 10.2C23.2873 10.1625 23.2873 10.1625 23.3248 10.125C23.3248 10.0875 23.3623 10.0875 23.3623 10.05C23.3623 10.0125 23.3623 10.0125 23.3623 9.975C23.3623 9.9375 23.3623 9.9 23.3623 9.9C23.3623 9.8625 23.3623 9.8625 23.3623 9.825C23.3623 9.7875 23.3623 9.7875 23.3623 9.75V9.7125C22.5748 5.2125 17.6998 1.875 11.9998 1.875C6.29981 1.875 1.4248 5.25 0.674805 9.7125V9.75C0.674805 9.7875 0.674805 9.7875 0.674805 9.825C0.674805 9.8625 0.674805 9.8625 0.674805 9.9C0.674805 9.9375 0.674805 9.975 0.674805 9.975C0.674805 10.0125 0.674805 10.0125 0.674805 10.05C0.674805 10.0875 0.674805 10.0875 0.712305 10.125C0.712305 10.1625 0.712305 10.1625 0.749805 10.2C0.749805 10.2375 0.749805 10.2375 0.749805 10.275C0.749805 10.3125 0.787305 10.3125 0.787305 10.35C0.787305 10.3875 0.824805 10.3875 0.824805 10.425C0.824805 10.4625 0.862305 10.4625 0.862305 10.5C0.937305 10.4625 0.937305 10.5 0.974805 10.5C1.0123 10.5 1.0123 10.5375 1.0498 10.5375C1.0873 10.5375 1.0873 10.575 1.1248 10.575C1.1623 10.575 1.1623 10.6125 1.1998 10.6125C1.2373 10.6125 1.2373 10.6125 1.2748 10.65C1.3123 10.65 1.3498 10.6875 1.3498 10.6875C1.3873 10.6875 1.3873 10.6875 1.4248 10.6875C1.4623 10.6875 1.4623 10.6875 1.4998 10.6875H3.5248V20.4375H3.1873C2.7373 20.4375 2.3248 20.8125 2.3248 21.3C2.3248 21.7875 2.6998 22.1625 3.1873 22.1625H9.33731C9.7873 22.1625 10.1998 21.7875 10.1998 21.3C10.1998 20.8125 9.82481 20.4375 9.33731 20.4375H8.99981V10.6875H14.9998V20.4375H14.6248C14.1748 20.4375 13.7623 20.8125 13.7623 21.3C13.7623 21.7875 14.1373 22.1625 14.6248 22.1625H20.7748C21.2248 22.1625 21.6373 21.7875 21.6373 21.3C21.6373 20.8125 21.2623 20.4375 20.7748 20.4375H20.5123V10.6875H22.4998C22.5373 10.6875 22.5748 10.6875 22.6498 10.6875C22.6873 10.6875 22.7248 10.6875 22.7248 10.65C22.7623 10.65 22.7623 10.65 22.7998 10.6125C22.8373 10.6125 22.8373 10.575 22.8748 10.575C22.9123 10.575 22.9123 10.5375 22.9498 10.5375C22.9873 10.5375 22.9873 10.5 23.0248 10.5C23.0623 10.5 23.0623 10.4625 23.0998 10.4625C23.0998 10.4625 23.1373 10.425 23.1373 10.3875C23.1373 10.35 23.1748 10.35 23.1748 10.3125C23.2123 10.3125 23.2123 10.275 23.2498 10.275ZM11.9998 3.5625C16.4623 3.5625 20.2873 5.85 21.4123 9.0375H2.5873C3.7123 5.85 7.5373 3.5625 11.9998 3.5625ZM7.3498 20.4375H5.2123V10.6875H7.3498V20.4375ZM18.8623 20.4375H16.7248V10.6875H18.8623V20.4375Z" fill="#111928"/>
<path d="M9.89961 7.7626H14.0621C14.5121 7.7626 14.9246 7.3876 14.9246 6.9001C14.9246 6.4126 14.5496 6.0376 14.0621 6.0376H9.89961C9.44961 6.0376 9.03711 6.4126 9.03711 6.9001C9.03711 7.3876 9.44961 7.7626 9.89961 7.7626Z" fill="#111928"/>
</svg>
