<svg width="24" height="24" viewBox="0 0 24 24" fill="none" xmlns="http://www.w3.org/2000/svg">
<g clip-path="url(#clip0_310_5129)">
<path d="M22.2374 7.61255H19.1624C18.8249 3.82505 15.6749 0.862549 11.8124 0.862549C7.9499 0.862549 4.7624 3.86255 4.4624 7.61255H1.7624C1.3124 7.61255 0.899902 7.98755 0.899902 8.47505C0.899902 8.96255 1.2749 9.33755 1.7624 9.33755H3.8249V21.525H3.1499C2.6999 21.525 2.2874 21.9 2.2874 22.3876C2.2874 22.875 2.6624 23.25 3.1499 23.25H20.8124C21.2624 23.25 21.6749 22.875 21.6749 22.3876C21.6749 21.9 21.2999 21.525 20.8124 21.525H20.2874V9.30005H22.2374C22.6874 9.30005 23.0999 8.92505 23.0999 8.43755C23.0999 7.95005 22.7249 7.61255 22.2374 7.61255ZM11.8124 2.55005C14.7374 2.55005 17.1749 4.76255 17.4749 7.61255H6.1499C6.4499 4.76255 8.8874 2.55005 11.8124 2.55005ZM13.7624 9.30005V21.4875H10.3124V9.30005H13.7624ZM5.4749 9.30005H8.6249V21.4875H5.4749V9.30005ZM18.5999 21.4875H15.4499V9.30005H18.5999V21.4875Z" fill="#111928"/>
</g>
<defs>
<clipPath id="clip0_310_5129">
<rect width="24" height="24" fill="white"/>
</clipPath>
</defs>
</svg>
