<svg width="24" height="24" viewBox="0 0 24 24" fill="none" xmlns="http://www.w3.org/2000/svg">
<g clip-path="url(#clip0_310_5094)">
<path d="M22.9502 6.93755L13.1252 0.937549C12.4502 0.525049 11.5877 0.525049 10.9127 0.937549L1.08768 6.93755C0.750177 7.12505 0.600177 7.53755 0.675177 7.87505C0.787677 8.25005 1.12518 8.51255 1.50018 8.51255H2.47518V21.675H2.02518C1.57518 21.675 1.16268 22.05 1.16268 22.5375C1.16268 23.025 1.53768 23.4 2.02518 23.4H8.96268C9.41268 23.4 9.82518 23.025 9.82518 22.5375C9.82518 22.05 9.45018 21.675 8.96268 21.675H8.47518V8.51255H15.4877V21.675H14.9252C14.4752 21.675 14.0627 22.05 14.0627 22.5375C14.0627 23.025 14.4377 23.4 14.9252 23.4H21.8627C22.3127 23.4 22.7252 23.025 22.7252 22.5375C22.7252 22.05 22.3502 21.675 21.8627 21.675H21.4877V8.51255H22.5002C22.8752 8.51255 23.2127 8.25005 23.3252 7.91255C23.4002 7.53755 23.2502 7.12505 22.9502 6.93755ZM11.7752 2.40005C11.9252 2.32505 12.1127 2.32505 12.2252 2.40005L19.5002 6.82505H4.50018L11.7752 2.40005ZM6.78768 21.675H4.16268V8.51255H6.78768V21.675ZM19.8002 21.675H17.1752V8.51255H19.8002V21.675Z" fill="#111928"/>
</g>
<defs>
<clipPath id="clip0_310_5094">
<rect width="24" height="24" fill="white"/>
</clipPath>
</defs>
</svg>
