<svg width="24" height="24" viewBox="0 0 24 24" fill="none" xmlns="http://www.w3.org/2000/svg">
<path d="M21.7501 6.975L13.2751 1.05C12.5251 0.525 11.4751 0.525 10.7251 1.05L2.25014 6.975C1.95014 7.2 1.83764 7.575 1.91264 7.9125C1.98764 8.25 2.36264 8.5125 2.70014 8.5125H4.50014V21.6375H4.01264C3.56264 21.6375 3.15014 22.0125 3.15014 22.5C3.15014 22.9875 3.52514 23.3625 4.01264 23.3625H19.9501C20.4001 23.3625 20.8126 22.9875 20.8126 22.5C20.8126 22.0125 20.4376 21.6375 19.9501 21.6375H19.5376V8.5125H21.2251C21.6001 8.5125 21.9376 8.2875 22.0126 7.9125C22.1626 7.575 22.0501 7.2 21.7501 6.975ZM11.7001 2.4375C11.8876 2.2875 12.1501 2.2875 12.3376 2.4375L18.6001 6.825H5.43764L11.7001 2.4375ZM10.5751 21.675V8.55H13.5001V21.675H10.5751ZM6.18764 8.5125H8.85014V21.6375H6.18764V8.5125ZM17.8876 21.675H15.2251V8.55H17.8876V21.675Z" fill="#111928"/>
</svg>
