<svg width="24" height="24" viewBox="0 0 24 24" fill="none" xmlns="http://www.w3.org/2000/svg"><g clip-path="url(#clip0_310_9228)"><path d="M16.2094 23.3625c-.4431 0-.8492-.375-.8492-.8625v-3.2625h-2.5477V22.5c0 .45-.3692.8625-.8492.8625-.4431 0-.8493-.375-.8493-.8625v-3.2625H8.19712V22.5c0 .45-.36924.8625-.84924.8625s-.84923-.375-.84923-.8625v-3.3375c-.92307-.225-1.62461-.975-1.7723-1.9125H1.66173c-.44308 0-.84923-.375-.84923-.8625 0-.4875.36923-.8625.84923-.8625h3.10154V13.05H1.66173c-.44308 0-.84923-.375-.84923-.8625 0-.45.36923-.8625.84923-.8625h3.10154V8.47501H1.66173c-.44308 0-.84923-.375-.84923-.8625 0-.4875.36923-.8625.84923-.8625h3.17539c.18461-.9375.88615-1.6875 1.7723-1.9125v-3.3375c0-.45.36923-.862498.84923-.862498.48 0 .84923.374998.84923.862498v3.375h2.91692v-3.375c0-.45.3692-.862498.8492-.862498.4431 0 .8493.374998.8493.862498v3.375h2.5477v-3.375c0-.45.3692-.862498.8492-.862498s.8492.374998.8492.862498v3.375c1.0708.1125 1.9569.9375 2.1416 1.9875h3.1753c.4431 0 .8493.375.8493.8625 0 .4875-.3693.8625-.8493.8625h-3.1015v2.84999h3.1015c.4431 0 .8493.375.8493.8625 0 .45-.3693.8625-.8493.8625h-3.1015v2.475h3.1015c.4431 0 .8493.375.8493.8625 0 .4875-.3693.8625-.8493.8625H19.311c-.1847 1.05-1.0708 1.875-2.1416 1.9875v3.15c-.1107.45-.48.8625-.96.8625ZM7.20019 6.56251c-.40615 0-.77538.3375-.77538.75v9.52499c0 .4125.33231.75.77538.75h9.60001c.4061 0 .7754-.3375.7754-.75V7.31251c0-.4125-.3323-.75-.7754-.75H7.20019ZM13.8094 16.275h-3.5815c-1.32925 0-2.43694-1.0875-2.43694-2.4375V10.275c0-1.34999 1.10769-2.43749 2.43694-2.43749h3.5815c1.3293 0 2.4369 1.0875 2.4369 2.43749v3.5625c-.0369 1.35-1.1076 2.4375-2.4369 2.4375ZM10.191 9.52501c-.40619 0-.77542.3375-.77542.74999v3.5625c0 .4125.3323.75.77542.75h3.5815c.4062 0 .7754-.3375.7754-.75V10.275c0-.41249-.3323-.74999-.7754-.74999H10.191Z" fill="#111928"/></g><defs><clipPath id="clip0_310_9228"><path fill="#fff" d="M0 0h24v24H0z"/></clipPath></defs></svg>