<svg width="24" height="24" viewBox="0 0 24 24" fill="none" xmlns="http://www.w3.org/2000/svg"><path d="M12.254 21.965c-.1736.0467-.3566.0467-.5301-.0001l-6.48671-1.7488c-.4074-.1098-.703-.4591-.74127-.8759L3.00424 3.09261C2.95038 2.5059 3.41641 2 4.01076 2H19.9892c.5944 0 1.0605.50597 1.0065 1.09272L19.5026 19.3373c-.0383.4168-.3341.7661-.7416.8758l-6.507 1.7519ZM6.69941 10.1628l.20409 2.2117h7.8932l-.2644 2.8685-2.5402.6658-.002.0007-2.53643-.6651-.16216-1.764H7.00526l.31905 3.4728 4.66529 1.2576.0105-.0027 4.661-1.2549.5695-6.1965.0556-.5939.4111-4.47655H6.28922l.20702 2.21173h8.70516l-.2073 2.26482H6.69941Z" fill="#111928"/></svg>