<svg width="24" height="24" viewBox="0 0 24 24" fill="none" xmlns="http://www.w3.org/2000/svg"><path d="M17.4749 15.7875c-.4875 0-.9375.1125-1.3875.2625l-3.0375-4.4625 6.525-9.60003c.2625-.375.15-.9-.225-1.162499-.375-.2625-.9-.150001-1.1625.224999l-6.1875 9.03753-6.1875-9.07503c-.2625-.374999-.7875-.4875-1.1625-.225-.375.2625-.4875.7875-.225 1.1625L10.9874 11.55l-3.0375 4.4625c-.4125-.1875-.9-.2625-1.3875-.2625-2.1 0-3.7875 1.6875-3.7875 3.7875s1.6875 3.7875 3.7875 3.7875 3.7875-1.6875 3.7875-3.7875c0-.975-.375-1.875-1.0125-2.55l2.6625-3.9 2.7 3.9375c-.6375.675-1.0125 1.575-1.0125 2.55 0 2.1 1.6875 3.7875 3.7875 3.7875s3.7875-1.6875 3.7875-3.7875-1.725-3.7875-3.7875-3.7875Zm-10.95 5.8875c-1.1625 0-2.1-.9375-2.1-2.1s.9375-2.1 2.1-2.1 2.1.9375 2.1 2.1-.9375 2.1-2.1 2.1Zm10.95 0c-1.1625 0-2.1-.9375-2.1-2.1s.9375-2.1 2.1-2.1 2.1.9375 2.1 2.1-.975 2.1-2.1 2.1Z" fill="#111928"/></svg>