<svg width="24" height="24" viewBox="0 0 24 24" fill="none" xmlns="http://www.w3.org/2000/svg"><path d="M22.4997 19.125h-4.3125c-.45 0-.8625.375-.8625.8625 0 .4875.375.8625.8625.8625h4.3125c.45 0 .8625-.375.8625-.8625 0-.4875-.4125-.8625-.8625-.8625ZM14.4373 16.3875c-1.125.15-2.325.2625-3.525.2625-5.17499 0-8.5875-1.5-8.5875-2.5125V12.75c1.95 1.2 5.28751 1.8 8.5875 1.8 3.3 0 6.6375-.6 8.5875-1.8v.975c0 .45.375.8625.8625.8625.4875 0 .8625-.375.8625-.8625V6.1125c-.0375-2.775-5.2125-4.2375-10.3125-4.2375C5.8498 1.875.749805 3.3.674805 6v11.8875c0 2.7375 5.250005 4.2375 10.237495 4.2375.8625 0 1.725-.0375 2.5875-.1125.45-.0375.7875-.45.75-.9375-.0375-.45-.45-.7875-.9375-.75-.7875.075-1.575.1125-2.4.1125-5.32499 0-8.5875-1.65-8.5875-2.55V16.5c1.95 1.2 5.28751 1.8 8.5875 1.8 1.275 0 2.55-.075 3.75-.2625.45-.075.7875-.4875.7125-.975-.075-.4875-.4875-.75-.9375-.675Zm-3.525-3.5625c-5.17499 0-8.5875-1.5-8.5875-2.5125V8.475c1.95 1.2 5.28751 1.8 8.5875 1.8 3.3 0 6.6375-.6 8.5875-1.8v1.8375c-.0375 1.0125-3.45 2.5125-8.5875 2.5125Zm0-9.2625c5.1375 0 8.55 1.5 8.5875 2.5125-.0375 1.0125-3.45 2.5125-8.5875 2.5125-5.17499 0-8.5875-1.5-8.5875-2.5125.0375-.975 3.45001-2.5125 8.5875-2.5125Z" fill="#111928"/></svg>