<svg width="24" height="24" viewBox="0 0 24 24" fill="none" xmlns="http://www.w3.org/2000/svg"><path d="M23.1 18.6375c-.1875-.1875-.375-.4125-.5625-.6-.3375-.3375-.675-.7125-1.0125-1.05-.3-.3-.5625-.675-1.0125-.675-.225 0-.375.075-.525.225 0 0-.0375 0-.0375.0375l-2.025 2.0625c-.3375.3375-.3375.8625 0 1.2.15.15.375.225.6.225.225 0 .45-.075.6-.2625l.5625-.6v2.5125c0 .45.375.8625.8625.8625.4875 0 .8625-.375.8625-.8625v-2.475l.525.5625c.3375.3375.8625.3375 1.2.0375.3-.3375.3-.8625-.0375-1.2ZM14.5498 16.05c-1.125.15-2.325.2625-3.5625.2625-5.21249 0-8.6625-1.5375-8.6625-2.55V12.375c1.95 1.2 5.32501 1.8 8.6625 1.8 3.3375 0 6.7125-.6 8.6625-1.8v.975c0 .45.375.8625.8625.8625.4875 0 .8625-.375.8625-.8625V5.70001c0-2.775-5.2125-4.2375-10.35-4.2375C5.8873 1.42501.749805 2.85001.674805 5.58751V17.5875c0 2.775 5.324995 4.2375 10.349995 4.2375.9 0 1.7625-.0375 2.5875-.1125.45-.0375.7875-.45.75-.9375-.0375-.45-.45-.7875-.9375-.75-.7875.075-1.6125.1125-2.4375.1125-5.3625 0-8.6625-1.65-8.6625-2.55V16.2c1.95 1.2 5.32501 1.8 8.6625 1.8 1.3125 0 2.5875-.075 3.7875-.2625.45-.075.7875-.4875.7125-.975-.075-.4875-.4875-.75-.9375-.7125Zm-3.5625-3.5625c-5.21249 0-8.6625-1.5375-8.6625-2.54999V8.10001c1.95 1.2 5.32501 1.8 8.6625 1.8 3.3375 0 6.7125-.6 8.6625-1.8v1.8375c-.0375 1.04999-3.45 2.54999-8.6625 2.54999Zm0-9.37499c5.175 0 8.625 1.5375 8.6625 2.55-.0375 1.0125-3.4875 2.55-8.6625 2.55-5.21249 0-8.6625-1.5375-8.6625-2.55.0375-1.0125 3.4875-2.55 8.6625-2.55Z" fill="#111928"/></svg>