<svg width="24" height="24" viewBox="0 0 24 24" fill="none" xmlns="http://www.w3.org/2000/svg"><path d="M22.5002 15.5625c-.45 0-.8625.375-.8625.8625v3.3375c0 .3375-.2625.6-.6.6H2.9627c-.3375 0-.6-.2625-.6-.6V16.425c0-.45-.375-.8625-.8625-.8625-.4875 0-.862505.375-.862505.8625v3.3375c0 1.275 1.012505 2.2875 2.287505 2.2875h18.1125c1.275 0 2.2875-1.0125 2.2875-2.2875V16.425c.0375-.4875-.375-.8625-.825-.8625Z" fill="#111928"/><path d="M11.4 16.4625c.15.15.375.225.6.225.225 0 .4125-.075.6-.225l5.3625-5.2125c.3375-.3375.3375-.8625.0375-1.2-.3375-.33749-.8625-.33749-1.2-.0375l-3.9375 3.8625V2.81251c0-.45-.375-.8625-.8625-.8625-.45 0-.8625.375-.8625.8625V13.875L7.20001 10.05c-.3375-.33749-.8625-.29999-1.2 0-.3375.3375-.3.8625 0 1.2L11.4 16.4625Z" fill="#111928"/></svg>