<svg width="24" height="24" viewBox="0 0 24 24" fill="none" xmlns="http://www.w3.org/2000/svg"><path d="M12.7499 5.37369c-.3397-.19583-.3397-.66885 0-.86468l4.2276-2.43716c.1662-.0958.3738-.0958.54 0l4.2276 2.43716c.3397.19583.3397.66885 0 .86468l-4.2276 2.43716c-.1662.0958-.3738.0958-.54 0l-4.2276-2.43716ZM2.25477 5.37369c-.33969-.19583-.33969-.66885 0-.86468l4.22765-2.43716c.16618-.0958.37379-.0958.53997 0L11.25 4.50901c.3397.19583.3397.66885 0 .86468L7.02239 7.81085c-.16618.0958-.37379.0958-.53997 0L2.25477 5.37369ZM12.7499 13.4406c-.3397-.1959-.3397-.6689 0-.8647l4.2276-2.4372c.1662-.0958.3738-.0958.54 0l4.2276 2.4372c.3397.1958.3397.6688 0 .8647l-4.2276 2.4371c-.1662.0958-.3738.0958-.54 0l-4.2276-2.4371ZM2.25478 13.4406c-.3397-.1959-.3397-.6689 0-.8647l4.22763-2.4372c.16619-.0958.3738-.0958.53998 0L11.25 12.5759c.3397.1958.3397.6688 0 .8647l-4.22761 2.4371c-.16618.0958-.37379.0958-.53998 0l-4.22763-2.4371ZM7.74365 8.79334c.02987.01538.05944.03151.0887.04837L12 11.2443l4.1677-2.40259c.0292-.01686.0588-.03298.0886-.04836L12.27 6.45393c-.1662-.0958-.3738-.0958-.54 0L7.74365 8.79334ZM17.8021 17.3906v1.6677c.0001.1673-.0848.3346-.2548.4326l-5.2771 2.4372c-.1662.0958-.3738.0958-.54 0l-5.27719-2.4372c-.16872-.0973-.25365-.2629-.25477-.429v-1.6713c.54483.1433 1.13611.0713 1.6343-.2159l4.16766-2.4025 4.1677 2.4025c.4981.2872 1.0894.3592 1.6342.2159Z" fill="#111928"/></svg>