<svg width="24" height="24" viewBox="0 0 24 24" fill="none" xmlns="http://www.w3.org/2000/svg"><path d="M18.5624.675049H5.4374c-1.275 0-2.2875 1.012501-2.2875 2.287501V15c0 .5625.225 1.0875.6375 1.4625l6.75 6.375c.375.375.8625.5625 1.3875.5625h6.6c1.275 0 2.2875-1.0125 2.2875-2.2875V2.96255c.0375-1.275-1.0125-2.287501-2.25-2.287501ZM6.0749 16.275h4.3875c.1875 0 .3375.15.3375.3v4.1251l-4.725-4.4251Zm13.0875 4.7625c0 .3375-.2625.6001-.6.6001h-6.075V16.575c0-1.0875-.9-1.9875-2.025-1.9875h-5.625V2.96255c0-.3375.2625-.6.6-.6h13.0875c.3375 0 .6.2625.6.6V21.0375h.0375Z" fill="#111928"/></svg>