<svg width="24" height="24" viewBox="0 0 24 24" fill="none" xmlns="http://www.w3.org/2000/svg">
<path d="M22.4998 13.4626L16.9498 8.92505C16.3123 8.40005 15.4123 8.25005 14.6248 8.58755L6.82481 11.7375V3.52505C6.82481 2.25005 5.8123 1.23755 4.5373 1.23755H3.3748C2.0998 1.23755 1.0873 2.25005 1.0873 3.52505V14.1C0.824805 14.25 0.674805 14.5126 0.674805 14.8126V20.475C0.674805 21.75 1.6873 22.7626 2.9623 22.7626H21.0748C22.3498 22.7626 23.3623 21.75 23.3623 20.475V15.225C23.3623 14.55 23.0248 13.9126 22.4998 13.4626ZM3.3748 2.92505H4.5748C4.9123 2.92505 5.1748 3.18755 5.1748 3.52505V12.4125L2.7748 13.3876V3.52505C2.7748 3.18755 3.0373 2.92505 3.3748 2.92505ZM21.6748 20.475C21.6748 20.8125 21.4123 21.0751 21.0748 21.0751H2.9623C2.6248 21.0751 2.3623 20.8125 2.3623 20.475V15.3751L15.2998 10.125C15.4873 10.05 15.7498 10.0876 15.8998 10.2001L21.4498 14.7375C21.5998 14.85 21.6748 15.0375 21.6748 15.1876V20.475Z" fill="#111928"/>
<path d="M6.78711 16.875H5.21211C4.76211 16.875 4.34961 17.25 4.34961 17.7375C4.34961 18.225 4.72461 18.6 5.21211 18.6H6.78711C7.23711 18.6 7.64961 18.225 7.64961 17.7375C7.64961 17.25 7.27461 16.875 6.78711 16.875Z" fill="#111928"/>
<path d="M13.0498 16.875H11.4748C11.0248 16.875 10.6123 17.25 10.6123 17.7375C10.6123 18.225 10.9873 18.6 11.4748 18.6H13.0498C13.4998 18.6 13.9123 18.225 13.9123 17.7375C13.9123 17.25 13.4998 16.875 13.0498 16.875Z" fill="#111928"/>
<path d="M19.0122 16.875H17.4372C16.9872 16.875 16.5747 17.25 16.5747 17.7375C16.5747 18.225 16.9497 18.6 17.4372 18.6H19.0122C19.4622 18.6 19.8747 18.225 19.8747 17.7375C19.8747 17.25 19.4622 16.875 19.0122 16.875Z" fill="#111928"/>
</svg>
