<svg width="24" height="24" viewBox="0 0 24 24" fill="none" xmlns="http://www.w3.org/2000/svg">
<path d="M21.75 4.57495C21.225 4.19995 20.55 4.04995 19.95 4.16245V1.49995C19.95 1.04995 19.575 0.637451 19.0875 0.637451C18.6 0.637451 18.225 1.01245 18.225 1.49995V4.76245L15.9375 5.62495C15.75 5.21245 15.45 4.83745 15.075 4.57495C14.4 4.08745 13.5 4.01245 12.7125 4.31245L9.2625 5.62495C9.075 5.21245 8.775 4.83745 8.4 4.57495C7.725 4.08745 6.825 4.01245 6.0375 4.31245L2.775 5.54995C1.8 5.92495 1.125 6.86245 1.125 7.91245V20.775C1.125 22.1625 2.25 23.325 3.675 23.325H20.25C21.6375 23.325 22.8 22.2 22.8 20.775V6.67495C22.8375 5.84995 22.425 5.06245 21.75 4.57495ZM2.85 20.8125V7.94995C2.85 7.61245 3.075 7.27495 3.4125 7.16245L6.675 5.92495C6.7875 5.88745 6.9 5.84995 6.975 5.84995C7.1625 5.84995 7.3125 5.88745 7.4625 5.99995C7.6875 6.14995 7.8375 6.41245 7.8375 6.71245V6.78745V21.6749H3.7125C3.225 21.6749 2.85 21.2625 2.85 20.8125ZM9.525 7.34995L13.35 5.88745C13.6125 5.77495 13.9125 5.81245 14.1375 5.96245C14.3625 6.11245 14.5125 6.37495 14.5125 6.67495V6.74995V21.6375H9.525V7.34995ZM21.15 20.8125C21.15 21.3 20.775 21.6749 20.2875 21.6749H16.1625V7.34995L19.9875 5.88745C20.25 5.77495 20.55 5.81245 20.775 5.96245C21 6.11245 21.15 6.37495 21.15 6.67495V20.8125Z" fill="#111928"/>
</svg>
