<svg width="24" height="24" viewBox="0 0 24 24" fill="none" xmlns="http://www.w3.org/2000/svg">
<g clip-path="url(#clip0_310_5204)">
<path d="M22.6127 1.05C22.1627 0.825 21.6002 0.8625 21.2252 1.1625L12.8627 7.5V2.25C12.8627 1.725 12.5627 1.275 12.1127 1.05C11.6627 0.825 11.1002 0.8625 10.7252 1.1625L2.3627 7.5V1.6125C2.3627 1.1625 1.9877 0.75 1.5002 0.75C1.0127 0.75 0.637695 1.125 0.637695 1.6125V20.8875C0.637695 22.1625 1.6877 23.2125 2.9627 23.2125H21.0002C22.2752 23.2125 23.3252 22.1625 23.3252 20.8875V2.25C23.3627 1.725 23.0627 1.275 22.6127 1.05ZM6.0002 21.525V19.65C6.0002 19.2375 6.3377 18.9 6.7502 18.9C7.16269 18.9 7.5002 19.2375 7.5002 19.65V21.525H6.0002ZM11.1752 21.525H9.18769V19.65C9.18769 18.3 8.10019 17.2125 6.7502 17.2125C5.4002 17.2125 4.3127 18.3 4.3127 19.65V21.525H3.0002C2.6627 21.525 2.3627 21.225 2.3627 20.8875V9.6L11.1752 2.9625V21.525ZM16.7627 21.525V19.65C16.7627 19.2375 17.1002 18.9 17.5127 18.9C17.9252 18.9 18.2627 19.2375 18.2627 19.65V21.525H16.7627ZM21.6752 20.8875C21.6752 21.225 21.3752 21.525 21.0377 21.525H19.9502V19.65C19.9502 18.3 18.8627 17.2125 17.5127 17.2125C16.1627 17.2125 15.0752 18.3 15.0752 19.65V21.525H12.8627V9.6L21.6752 2.9625V20.8875Z" fill="#111928"/>
</g>
<defs>
<clipPath id="clip0_310_5204">
<rect width="24" height="24" fill="white"/>
</clipPath>
</defs>
</svg>
