<svg width="24" height="24" viewBox="0 0 24 24" fill="none" xmlns="http://www.w3.org/2000/svg">
<g clip-path="url(#clip0_310_5210)">
<path d="M21.0002 0.824951H14.7377C13.4627 0.824951 12.3752 1.87495 12.3752 3.18745V7.27495C12.3752 7.53745 12.2252 7.79995 11.9627 7.87495L8.47519 9.26245V3.71245C8.47519 3.26245 8.10019 2.84995 7.61269 2.84995C7.12519 2.84995 6.75019 3.22495 6.75019 3.71245V9.89995L4.5002 10.8375V5.51245C4.5002 5.06245 4.1252 4.64995 3.6377 4.64995C3.1502 4.64995 2.7752 5.02495 2.7752 5.51245V11.4749L2.1002 11.7374C1.2002 12.0749 0.637695 12.9374 0.637695 13.9124V20.8124C0.637695 22.0875 1.6877 23.1749 3.0002 23.1749H21.0002C22.2752 23.1749 23.3627 22.1249 23.3627 20.8124V3.14995C23.3627 1.87495 22.2752 0.824951 21.0002 0.824951ZM15.4502 21.4874V17.3624C15.4502 17.2125 15.5627 17.0625 15.7502 17.0625H17.8877C18.0377 17.0625 18.1877 17.1749 18.1877 17.3624V21.4874H15.4502ZM21.6752 20.8499C21.6752 21.2249 21.3752 21.525 21.0002 21.525H19.8377V17.4C19.8377 16.3125 18.9377 15.4124 17.8502 15.4124H15.7502C14.6627 15.4124 13.7627 16.3125 13.7627 17.4V21.525H3.0002C2.6252 21.525 2.3252 21.2249 2.3252 20.8499V13.95C2.3252 13.6875 2.4752 13.4249 2.7377 13.3499L12.6002 9.44995C13.5002 9.11245 14.0627 8.24995 14.0627 7.27495V3.14995C14.0627 2.77495 14.3627 2.47495 14.7377 2.47495H21.0002C21.3752 2.47495 21.6752 2.77495 21.6752 3.14995V20.8499Z" fill="#111928"/>
</g>
<defs>
<clipPath id="clip0_310_5210">
<rect width="24" height="24" fill="white"/>
</clipPath>
</defs>
</svg>
