<svg width="24" height="24" viewBox="0 0 24 24" fill="none" xmlns="http://www.w3.org/2000/svg">
<path d="M22.0127 8.1001C21.1877 7.6876 20.2502 7.8001 19.5377 8.3626L16.9877 10.3876V10.2001C16.9877 9.3001 16.4627 8.4751 15.6752 8.1001C14.8502 7.6876 13.9127 7.8001 13.2002 8.3626L10.6502 10.3876V4.4626C10.6502 3.3751 9.75019 2.4751 8.66269 2.4751H2.6252C1.5377 2.4751 0.637695 3.3751 0.637695 4.4626V19.5376C0.637695 20.6251 1.5377 21.5251 2.6252 21.5251H21.0002C22.2752 21.5251 23.3627 20.4751 23.3627 19.1626V10.2376C23.3627 9.3376 22.8377 8.5126 22.0127 8.1001ZM2.3627 19.5376V4.4626C2.3627 4.3126 2.4752 4.1626 2.66269 4.1626H8.70019C8.85019 4.1626 9.00019 4.2751 9.00019 4.4626V19.8376H2.6252C2.4752 19.8376 2.3627 19.6876 2.3627 19.5376ZM10.6502 12.5626L14.2502 9.7126C14.5502 9.4876 14.8502 9.6001 14.9252 9.6376C15.0377 9.6751 15.3002 9.8626 15.3002 10.2376V12.1501V19.8001H10.6502V12.5626ZM21.6752 19.1626C21.6752 19.5376 21.3752 19.8376 21.0002 19.8376H16.9877V12.5626L20.5877 9.7126C20.8877 9.4876 21.1877 9.6001 21.2627 9.6376C21.3752 9.6751 21.6377 9.8626 21.6377 10.2376V19.1626H21.6752Z" fill="#111928"/>
</svg>
