<svg width="24" height="24" viewBox="0 0 24 24" fill="none" xmlns="http://www.w3.org/2000/svg">
<path d="M21.3752 4.76245H19.6127V1.87495C19.6127 1.42495 19.2377 1.01245 18.7502 1.01245C18.2627 1.01245 17.8877 1.38745 17.8877 1.87495V4.76245H16.1252C15.0377 4.76245 14.1377 5.66245 14.1377 6.74995V9.82495H2.6252C1.5377 9.82495 0.637695 10.7249 0.637695 11.8125V20.9999C0.637695 22.0875 1.5377 22.9874 2.6252 22.9874H21.3752C22.4627 22.9874 23.3627 22.0875 23.3627 20.9999V6.74995C23.3627 5.66245 22.4627 4.76245 21.3752 4.76245ZM2.3627 20.9999V11.775C2.3627 11.6249 2.4752 11.4749 2.66269 11.4749H14.2127V21.2624H11.7002V16.2C11.7002 15.1124 10.8002 14.2125 9.71269 14.2125H6.82519C5.73769 14.2125 4.8377 15.1124 4.8377 16.2V21.2999H2.6252C2.4752 21.2624 2.3627 21.15 2.3627 20.9999ZM6.52519 21.2624V16.2C6.52519 16.0499 6.63769 15.9 6.82519 15.9H9.71269C9.86269 15.9 10.0127 16.0125 10.0127 16.2V21.2999H6.52519V21.2624ZM21.6752 20.9999C21.6752 21.15 21.5627 21.2999 21.3752 21.2999H15.8627V10.65V6.74995C15.8627 6.59995 15.9752 6.44995 16.1627 6.44995H21.4127C21.5627 6.44995 21.7127 6.56245 21.7127 6.74995V20.9999H21.6752Z" fill="#111928"/>
</svg>
