<svg width="24" height="24" viewBox="0 0 24 24" fill="none" xmlns="http://www.w3.org/2000/svg">
<path d="M20.2123 8.13751H9.74985L9.59985 5.62501C9.52485 4.42501 8.54985 3.52501 7.38735 3.52501H4.57485C3.37485 3.48751 2.39985 4.42501 2.32485 5.62501L1.57485 21C1.53735 21.6 1.76235 22.2 2.17485 22.65C2.58735 23.1 3.18735 23.325 3.78735 23.325H20.2123C21.4498 23.325 22.4248 22.3125 22.4248 21.1125V10.35C22.4248 9.15001 21.4498 8.13751 20.2123 8.13751ZM3.78735 21.675C3.63735 21.675 3.48735 21.6 3.41235 21.525C3.29985 21.4125 3.26235 21.2625 3.26235 21.15L4.04985 5.73751C4.04985 5.43751 4.31235 5.25001 4.57485 5.25001H7.38735C7.68735 5.25001 7.91235 5.47501 7.91235 5.73751L8.73735 21.7125H3.78735V21.675ZM13.8373 21.675V16.5375C13.8373 16.3875 13.9498 16.2375 14.1373 16.2375H16.2373C16.3873 16.2375 16.5373 16.35 16.5373 16.5375V21.675H13.8373ZM20.7373 21.1125C20.7373 21.4125 20.5123 21.6375 20.2123 21.6375H18.1873V16.5375C18.1873 15.45 17.2873 14.55 16.1998 14.55H14.0998C13.0123 14.55 12.1123 15.45 12.1123 16.5375V21.675H10.3873L9.78735 9.86251H20.1748C20.4748 9.86251 20.6998 10.0875 20.6998 10.3875V21.1125H20.7373Z" fill="#111928"/>
<path d="M13.0124 7.46245C13.4624 7.46245 13.8749 7.08745 13.8749 6.59995V5.69995C13.8749 5.39995 14.0999 5.17495 14.3999 5.17495C15.5999 5.17495 16.6124 4.19995 16.6124 2.96245V1.49995C16.6124 1.04995 16.2374 0.637451 15.7499 0.637451C15.2624 0.637451 14.8874 1.01245 14.8874 1.49995V2.99995C14.8874 3.29995 14.6624 3.52495 14.3624 3.52495C13.1624 3.52495 12.1499 4.49995 12.1499 5.73745V6.63745C12.1499 7.04995 12.5249 7.46245 13.0124 7.46245Z" fill="#111928"/>
</svg>
