<svg width="24" height="24" viewBox="0 0 24 24" fill="none" xmlns="http://www.w3.org/2000/svg">
<g clip-path="url(#clip0_310_5042)">
<path d="M21.9373 8.7L16.4248 6.375C15.8623 6.15 15.1873 6.15 14.6248 6.375L9.2248 8.6625L8.2873 2.8875C8.0998 1.7625 7.1623 0.9375 5.9998 0.9375H4.1623C3.0373 0.9375 2.0998 1.725 1.9123 2.8125L0.674805 9.525V20.7375C0.674805 22.0125 1.7248 23.025 2.9623 23.025H11.6623C12.9373 23.025 13.9498 21.975 13.9498 20.7375V19.1625C13.9498 18.825 14.2123 18.5625 14.5498 18.5625H16.6498C16.9873 18.5625 17.2498 18.825 17.2498 19.1625V20.7375C17.2498 22.0125 18.2998 23.025 19.5373 23.025H20.9623C22.2373 23.025 23.2498 21.975 23.2498 20.7375V10.8C23.3623 9.9 22.7998 9.0375 21.9373 8.7ZM2.9623 21.3375C2.6248 21.3375 2.3623 21.075 2.3623 20.7375V9.675L3.5623 3.15C3.5998 2.85 3.8623 2.6625 4.1623 2.6625H5.9998C6.2998 2.6625 6.5623 2.8875 6.5998 3.1875L7.6873 9.9375V21.375H2.9623V21.3375ZM21.6748 20.7375C21.6748 21.075 21.4123 21.3375 21.0748 21.3375H19.6498C19.3123 21.3375 19.0498 21.075 19.0498 20.7375V19.1625C19.0498 17.8875 17.9998 16.875 16.7623 16.875H14.6623C13.3873 16.875 12.3748 17.925 12.3748 19.1625V20.7375C12.3748 21.075 12.1123 21.3375 11.7748 21.3375H9.52481V10.3875L15.4123 7.9125C15.5623 7.8375 15.7498 7.8375 15.8998 7.9125L21.4123 10.2375C21.6373 10.35 21.7873 10.575 21.7873 10.8V20.7375H21.6748Z" fill="#111928"/>
</g>
<defs>
<clipPath id="clip0_310_5042">
<rect width="24" height="24" fill="white"/>
</clipPath>
</defs>
</svg>
