<svg width="24" height="24" viewBox="0 0 24 24" fill="none" xmlns="http://www.w3.org/2000/svg"><path d="M21.0373 4.16249h-8.6625l-.7875-1.5c-.4125-.75-1.1625-1.2375-2.02499-1.2375H2.9623c-1.275 0-2.287495 1.0125-2.287495 2.2875V20.2875c0 1.275 1.012495 2.2875 2.287495 2.2875h18.1125c1.275 0 2.2875-1.0125 2.2875-2.2875V6.44999c0-1.275-1.05-2.2875-2.325-2.2875Zm.6375 16.12501c0 .3375-.2625.6-.6.6H2.9623c-.3375 0-.6-.2625-.6-.6V3.71249c0-.3375.2625-.6.6-.6h6.60001c.22499 0 .41249.1125.52499.3375l1.05 1.95c.15.2625.45.45.75.45h9.1875c.3375 0 .6.2625.6.6V20.2875Z" fill="#111928"/><path d="m14.6997 13.425-1.8375 1.8V9.75001c0-.45-.375-.8625-.8625-.8625-.4875 0-.8625.375-.8625.8625v5.51249L9.26221 13.425c-.3375-.3375-.8625-.3375-1.2 0-.3375.3375-.3375.8625 0 1.2l3.29999 3.225c.15.15.375.225.6.225.225 0 .4125-.075.6-.225l3.3-3.225c.3375-.3375.3375-.8625 0-1.2-.3-.3375-.825-.3375-1.1625 0Z" fill="#111928"/></svg>