<svg width="24" height="24" viewBox="0 0 24 24" fill="none" xmlns="http://www.w3.org/2000/svg"><path d="M21.2623 3.2625h-7.275l-.6375-1.2375c-.375-.675-1.05-1.0875-1.8375-1.0875h-5.625C4.7623.9375 3.8248 1.875 3.8248 3v1.8H2.7373c-1.125 0-2.062495.9375-2.062495 2.0625V20.925c0 1.125.937495 2.0625 2.062495 2.0625h15.375c1.125 0 2.0625-.9375 2.0625-2.0625v-1.8h1.0875c1.125 0 2.0625-.9375 2.0625-2.0625v-11.7c.0375-1.1625-.9-2.1-2.0625-2.1Zm-2.775 17.7c0 .225-.1875.375-.375.375H2.7373c-.225 0-.375-.1875-.375-.375V6.9c0-.225.1875-.375.375-.375h5.62501c.15 0 .2625.075.3375.1875l.9 1.6875c.15.2625.44999.45.74999.45h7.8c.225 0 .375.1875.375.375v11.7375h-.0375ZM21.6748 17.1c0 .225-.1875.375-.375.375h-1.0875v-8.25c0-1.125-.9375-2.0625-2.0625-2.0625h-7.35l-.6375-1.2375c-.37499-.675-1.04999-1.0875-1.83749-1.0875H5.5123v-1.8c0-.225.1875-.375.375-.375h5.625c.15 0 .2625.075.3375.1875l.9 1.65c.15.2625.45.45.75.45h7.8c.225 0 .375.1875.375.375V17.1Z" fill="#111928"/></svg>