<svg width="24" height="24" viewBox="0 0 24 24" fill="none" xmlns="http://www.w3.org/2000/svg"><path d="M8.6625 21.675h-4.8c-.375 0-.675-.3-.675-.675V3.00001c0-.375.3-.675.675-.675h8.475v4.8c0 .45.375.8625.8625.8625h4.7625V10.5c0 .45.375.8625.8625.8625.4875 0 .8625-.375.8625-.8625V7.35001c0-.4125-.1875-.825-.4875-1.125l-5.25-5.1c-.3-.299996-.7125-.449996-1.125-.449996h-9C2.55.637514 1.5 1.72501 1.5 3.00001V21c0 1.275 1.05 2.3625 2.3625 2.3625H8.7c.45 0 .8625-.375.8625-.8625 0-.4875-.4125-.825-.9-.825Zm5.325-18.14999 2.8125 2.775h-2.8125v-2.775Z" fill="#111928"/><path d="m22.1999 14.1-.9-.9c-.2625-.2625-.525-.5625-.825-.825-.15-.1875-.375-.3375-.6375-.375-.3-.0375-.6.0375-.825.225l-6.525 6.4875c-.1875.1875-.3.375-.375.6l-.9375 2.85-.15.45.2625.3375c.1125.15.3375.375.75.375h.15l2.9625-.975c.225-.075.45-.1875.6-.375l6.45-6.4125c.1875-.1875.3-.45.3-.75 0-.2625-.1125-.525-.3-.7125Zm-2.5125-.15c.15.15.3.3.4125.45l.45.45-.4125.4125-.8625-.8625.4125-.45Zm-5.1 6.825-1.3125.4125.4125-1.3125 4.35-4.35.8625.8625-4.3125 4.3875Z" fill="#111928"/></svg>