<svg width="24" height="24" viewBox="0 0 24 24" fill="none" xmlns="http://www.w3.org/2000/svg"><path d="M14.2873 11.2875v-.7125c0-1.31251-1.0125-2.40001-2.2875-2.40001-1.275 0-2.2875 1.0875-2.2875 2.40001v.7125c-1.05.0375-1.9125.9-1.9125 1.95v2.8875c0 1.0875.90001 1.9875 1.98751 1.9875h4.46249c1.0875 0 1.9875-.9 1.9875-1.9875v-2.8875c-.0375-1.05-.9-1.95-1.95-1.95Zm-2.2875-1.42501c.3375 0 .6.30001.6.71251v.7125h-1.2v-.7125c0-.375.2625-.71251.6-.71251Zm2.5125 6.26251c0 .15-.1125.3-.3.3H9.7498c-.15 0-.29999-.1125-.29999-.3v-2.8875c0-.15.11249-.3.29999-.3h4.4625c.15 0 .3.1125.3.3v2.8875Z" fill="#111928"/><path d="M21.0373 4.16249h-8.6625l-.7875-1.5c-.4125-.75-1.1625-1.2375-2.02499-1.2375H2.9623c-1.275 0-2.287495 1.0125-2.287495 2.2875V20.2875c0 1.275 1.012495 2.2875 2.287495 2.2875h18.1125c1.275 0 2.2875-1.0125 2.2875-2.2875V6.44999c0-1.275-1.05-2.2875-2.325-2.2875Zm.6375 16.12501c0 .3375-.2625.6-.6.6H2.9623c-.3375 0-.6-.2625-.6-.6V3.71249c0-.3375.2625-.6.6-.6h6.60001c.22499 0 .41249.1125.52499.3375l1.05 1.95c.15.2625.45.45.75.45h9.1875c.3375 0 .6.2625.6.6V20.2875Z" fill="#111928"/></svg>