<svg width="24" height="24" viewBox="0 0 24 24" fill="none" xmlns="http://www.w3.org/2000/svg"><path d="M21.0002 1.65002h-8.175c-1.275 0-2.3625 1.05-2.3625 2.3625v2.6625H3.0002c-1.275 0-2.362505 1.05-2.362505 2.3625v7.19998c0 .45.1875.9.525005 1.2375l4.4625 4.3875c.3375.3375.78749.525 1.23749.525h4.31251c1.275 0 2.325-1.05 2.325-2.3625v-5.0625l1.9125 1.9125c.3375.3375.7875.525 1.2375.525h4.35c1.275 0 2.3625-1.05 2.3625-2.3625V3.97502c0-1.275-1.0875-2.325-2.3625-2.325ZM3.5252 17.3625h2.06249c.03751 0 .075.0375.075.075V19.5L3.5252 17.3625Zm8.325 2.6625c0 .375-.3.675-.6375.675H7.35019v-3.225c0-.975-.7875-1.7625-1.7625-1.7625H2.3627V8.96252c0-.375.3-.675.675-.675h8.775c.0375 0 .075.0375.075.075V20.025h-.0375Zm1.6875-7.4625v-.1875h1.875c.0375 0 .075.0375.075.075v2.0625l-1.95-1.95Zm8.1375 2.475c0 .375-.3.675-.675.675h-3.8625v-3.225c0-.975-.7875-1.7625-1.7625-1.7625h-1.875V8.40002c0-.825-.6-1.5375-1.35-1.6875v-2.7c0-.375.3-.675.675-.675h8.175c.375 0 .675.3.675.675V15.0375Z" fill="#111928"/></svg>