<svg width="24" height="24" viewBox="0 0 24 24" fill="none" xmlns="http://www.w3.org/2000/svg"><path d="m22.4252 14.025-9.825-9.82499c-.375-.375-.8625-.5625-1.3875-.5625-.45 0-.825.15-1.1625.4125l-2.66251-2.6625c-.9375-.937498-2.4375-.937498-3.37499 0l-2.625 2.625c-.937505.9375-.937505 2.4375 0 3.375L4.0502 10.05c-.2625.3375-.4125.75-.4125 1.1625 0 .525.1875 1.0125.5625 1.3875l9.825 9.825c.6.6 1.35.9 2.175.9.825 0 1.6125-.3375 2.175-.9l4.0125-4.0125c.6-.6.9-1.35.9-2.175.0375-.8625-.2625-1.6125-.8625-2.2125ZM2.5502 5.17501l2.625-2.625c.2625-.2625.71249-.2625 1.0125 0l2.62499 2.625-3.63749 3.6375-2.625-2.625c-.2625-.3-.2625-.75 0-1.0125Zm18.675 12.03749-4.0125 4.0125c-.5625.5625-1.425.5625-1.9875 0L5.40019 11.4c-.075-.075-.075-.15-.075-.1875 0-.0375 0-.1125.075-.1875l5.62501-5.62499c.075-.075.15-.075.1875-.075.0375 0 .1125 0 .1875.075l9.825 9.82499c.5625.5625.5625 1.425 0 1.9875Z" fill="#111928"/><path d="M5.2126 7.46249c.225 0 .45-.075.6-.2625.3375-.3375.3375-.8625 0-1.2l-.7125-.7125c-.3375-.3375-.8625-.3375-1.2 0-.3375.3375-.3375.8625 0 1.2l.7125.7125c.15.15.375.2625.6.2625ZM6.075 5.73752c.15.15.375.2625.6.2625.225 0 .45-.075.6-.2625.3375-.3375.3375-.8625 0-1.2l-.7125-.7125c-.3375-.3375-.8625-.3375-1.2 0-.3375.3375-.3375.8625 0 1.2l.7125.7125Z" fill="#111928"/></svg>