<svg width="24" height="24" viewBox="0 0 24 24" fill="none" xmlns="http://www.w3.org/2000/svg">
<g clip-path="url(#clip0_310_5168)">
<path d="M20.9998 0.675049H2.9998C1.7248 0.675049 0.674805 1.72505 0.674805 3.00005V21C0.674805 22.275 1.7248 23.3625 3.0373 23.3625H21.0373C22.3123 23.3625 23.3998 22.3125 23.3998 21V3.00005C23.3623 1.72505 22.2748 0.675049 20.9998 0.675049ZM21.6748 21C21.6748 21.375 21.3748 21.675 20.9998 21.675H2.9998C2.6248 21.675 2.3248 21.375 2.3248 21V3.00005C2.3623 2.62505 2.6248 2.36255 2.9998 2.36255H20.9998C21.3748 2.36255 21.6748 2.66255 21.6748 3.03755V21Z" fill="#111928"/>
<path d="M7.4623 5.73755H5.6623C5.2123 5.73755 4.7998 6.11255 4.7998 6.60005C4.7998 7.08755 5.1748 7.46255 5.6623 7.46255H7.4623C7.9123 7.46255 8.3248 7.08755 8.3248 6.60005C8.3248 6.11255 7.9498 5.73755 7.4623 5.73755Z" fill="#111928"/>
<path d="M12.8998 5.73755H11.0998C10.6498 5.73755 10.2373 6.11255 10.2373 6.60005C10.2373 7.08755 10.6123 7.46255 11.0998 7.46255H12.8998C13.3498 7.46255 13.7623 7.08755 13.7623 6.60005C13.7623 6.11255 13.3873 5.73755 12.8998 5.73755Z" fill="#111928"/>
<path d="M18.3373 5.73755H16.5373C16.0873 5.73755 15.6748 6.11255 15.6748 6.60005C15.6748 7.08755 16.0498 7.46255 16.5373 7.46255H18.3373C18.7873 7.46255 19.1998 7.08755 19.1998 6.60005C19.1998 6.11255 18.7873 5.73755 18.3373 5.73755Z" fill="#111928"/>
<path d="M7.4623 11.175H5.6623C5.2123 11.175 4.7998 11.55 4.7998 12.0375C4.7998 12.4875 5.1748 12.9 5.6623 12.9H7.4623C7.9123 12.9 8.3248 12.525 8.3248 12.0375C8.3248 11.55 7.9498 11.175 7.4623 11.175Z" fill="#111928"/>
<path d="M12.8998 11.175H11.0998C10.6498 11.175 10.2373 11.55 10.2373 12.0375C10.2373 12.4875 10.6123 12.9 11.0998 12.9H12.8998C13.3498 12.9 13.7623 12.525 13.7623 12.0375C13.7623 11.55 13.3873 11.175 12.8998 11.175Z" fill="#111928"/>
<path d="M18.3373 11.175H16.5373C16.0873 11.175 15.6748 11.55 15.6748 12.0375C15.6748 12.4875 16.0498 12.9 16.5373 12.9H18.3373C18.7873 12.9 19.1998 12.525 19.1998 12.0375C19.1623 11.55 18.7873 11.175 18.3373 11.175Z" fill="#111928"/>
<path d="M7.4623 16.575H5.6623C5.2123 16.575 4.7998 16.95 4.7998 17.4375C4.7998 17.925 5.1748 18.3 5.6623 18.3H7.4623C7.9123 18.3 8.3248 17.925 8.3248 17.4375C8.3248 16.95 7.9498 16.575 7.4623 16.575Z" fill="#111928"/>
<path d="M12.8998 16.575H11.0998C10.6498 16.575 10.2373 16.95 10.2373 17.4375C10.2373 17.925 10.6123 18.3 11.0998 18.3H12.8998C13.3498 18.3 13.7623 17.925 13.7623 17.4375C13.7623 16.95 13.3873 16.575 12.8998 16.575Z" fill="#111928"/>
<path d="M18.3373 16.575H16.5373C16.0873 16.575 15.6748 16.95 15.6748 17.4375C15.6748 17.925 16.0498 18.3 16.5373 18.3H18.3373C18.7873 18.3 19.1998 17.925 19.1998 17.4375C19.1998 16.95 18.7873 16.575 18.3373 16.575Z" fill="#111928"/>
</g>
<defs>
<clipPath id="clip0_310_5168">
<rect width="24" height="24" fill="white"/>
</clipPath>
</defs>
</svg>
