<svg width="24" height="24" viewBox="0 0 24 24" fill="none" xmlns="http://www.w3.org/2000/svg">
<path d="M19.7998 0.675049H13.7248C10.8748 0.675049 8.54981 3.00005 8.54981 5.85005V6.33755C7.6873 5.88755 6.71231 5.62505 5.66231 5.62505H4.1998C2.8498 5.62505 1.7998 6.71255 1.7998 8.02505V20.9251C1.7998 22.2751 2.8873 23.3251 4.1998 23.3251H19.7998C21.1498 23.3251 22.1998 22.2376 22.1998 20.9251V3.07505C22.1998 1.72505 21.1498 0.675049 19.7998 0.675049ZM4.1998 21.6751C3.7873 21.6751 3.4873 21.3376 3.4873 20.9626V8.06255C3.4873 7.65005 3.8248 7.35005 4.1998 7.35005H5.66231C8.21231 7.35005 10.2748 9.41255 10.2748 11.9626V21.6751H4.1998ZM20.5123 20.9251C20.5123 21.3376 20.1748 21.6376 19.7998 21.6376H11.9623V11.925C11.9623 10.2375 11.2873 8.73755 10.2373 7.61255V5.85005C10.2373 3.93755 11.8123 2.36255 13.7248 2.36255H19.7998C20.2123 2.36255 20.5123 2.70005 20.5123 3.07505V20.9251Z" fill="#111928"/>
<path d="M17.1747 5.625H14.2497C13.7997 5.625 13.3872 6 13.3872 6.4875C13.3872 6.975 13.7622 7.35 14.2497 7.35H17.2122C17.6622 7.35 18.0747 6.975 18.0747 6.4875C18.0747 6 17.6622 5.625 17.1747 5.625Z" fill="#111928"/>
<path d="M17.1747 9.26245H14.2497C13.7997 9.26245 13.3872 9.63745 13.3872 10.125C13.3872 10.6125 13.7622 10.9875 14.2497 10.9875H17.2122C17.6622 10.9875 18.0747 10.6125 18.0747 10.125C18.0747 9.63745 17.6622 9.26245 17.1747 9.26245Z" fill="#111928"/>
<path d="M17.1747 12.8625H14.2497C13.7997 12.8625 13.3872 13.2375 13.3872 13.725C13.3872 14.2125 13.7622 14.5875 14.2497 14.5875H17.2122C17.6622 14.5875 18.0747 14.2125 18.0747 13.725C18.0747 13.2375 17.6622 12.8625 17.1747 12.8625Z" fill="#111928"/>
<path d="M17.1747 16.5H14.2497C13.7997 16.5 13.3872 16.875 13.3872 17.3625C13.3872 17.85 13.7622 18.225 14.2497 18.225H17.2122C17.6622 18.225 18.0747 17.85 18.0747 17.3625C18.0747 16.875 17.6622 16.5 17.1747 16.5Z" fill="#111928"/>
</svg>
