<svg width="24" height="24" viewBox="0 0 24 24" fill="none" xmlns="http://www.w3.org/2000/svg">
<path d="M19.7998 0.675049H10.9498C9.59981 0.675049 8.54981 1.76255 8.54981 3.07505V5.62505H4.1998C2.8498 5.62505 1.7998 6.71255 1.7998 8.02505V20.9251C1.7998 22.2751 2.8873 23.3251 4.1998 23.3251H19.7998C21.1498 23.3251 22.1998 22.2376 22.1998 20.9251V3.07505C22.1998 1.72505 21.1498 0.675049 19.7998 0.675049ZM3.4873 20.9251V16.9876H6.2248C6.3748 16.9876 6.44981 17.1001 6.44981 17.2126V21.6376H4.1998C3.7873 21.6751 3.4873 21.3376 3.4873 20.9251ZM8.13731 21.6751V17.25C8.13731 16.2001 7.27481 15.3376 6.2248 15.3376H3.4873V8.06255C3.4873 7.65005 3.8248 7.35005 4.1998 7.35005H9.5248C9.9373 7.35005 10.2373 7.68755 10.2373 8.06255V21.6751H8.13731ZM20.5123 20.9251C20.5123 21.3376 20.1748 21.6376 19.7998 21.6376H11.9623V8.06255C11.9623 6.97505 11.2498 6.03755 10.2373 5.73755V3.07505C10.2373 2.66255 10.5748 2.36255 10.9498 2.36255H19.7998C20.2123 2.36255 20.5123 2.70005 20.5123 3.07505V20.9251Z" fill="#111928"/>
<path d="M16.9125 6.1875H15.1125C14.6625 6.1875 14.25 6.5625 14.25 7.05C14.25 7.5375 14.625 7.9125 15.1125 7.9125H16.9125C17.3625 7.9125 17.775 7.5375 17.775 7.05C17.775 6.5625 17.3625 6.1875 16.9125 6.1875Z" fill="#111928"/>
<path d="M16.9125 11.4375H15.1125C14.6625 11.4375 14.25 11.8125 14.25 12.3C14.25 12.75 14.625 13.1625 15.1125 13.1625H16.9125C17.3625 13.1625 17.775 12.7875 17.775 12.3C17.7375 11.8125 17.3625 11.4375 16.9125 11.4375Z" fill="#111928"/>
<path d="M16.9125 16.6875H15.1125C14.6625 16.6875 14.25 17.0625 14.25 17.55C14.25 18.0375 14.625 18.4125 15.1125 18.4125H16.9125C17.3625 18.4125 17.775 18.0375 17.775 17.55C17.775 17.0625 17.3625 16.6875 16.9125 16.6875Z" fill="#111928"/>
</svg>
