<svg width="24" height="24" viewBox="0 0 24 24" fill="none" xmlns="http://www.w3.org/2000/svg">
<path d="M20.8877 10.0875H11.5877C11.1752 10.0875 10.8377 9.74996 10.8377 9.33746V6.26246C10.8377 5.62496 10.5752 5.02496 10.1252 4.53746L7.61269 1.98746C6.67519 1.04996 5.1377 1.01246 4.1627 1.91246L1.3877 4.57496C0.900195 5.02496 0.637695 5.66246 0.637695 6.33746V20.3625C0.637695 21.7125 1.7252 22.8 3.0752 22.8H20.8877C22.2377 22.8 23.3252 21.7125 23.3252 20.3625V12.525C23.3627 11.175 22.2377 10.0875 20.8877 10.0875ZM10.7252 21.075V17.925C10.7252 17.5125 11.0627 17.175 11.4752 17.175H13.1252C13.5377 17.175 13.8752 17.5125 13.8752 17.925V21.075H10.7252ZM21.6752 20.325C21.6752 20.7375 21.3377 21.075 20.9252 21.075H15.6002V17.925C15.6002 16.575 14.5127 15.4875 13.1627 15.4875H11.5127C10.1627 15.4875 9.0752 16.575 9.0752 17.925V21.075H3.1127C2.7002 21.075 2.3627 20.7375 2.3627 20.325V6.33746C2.3627 6.11246 2.4377 5.92496 2.5877 5.77496L5.3627 3.11246C5.6627 2.81246 6.1502 2.84996 6.4127 3.14996L8.92519 5.69996C9.07519 5.84996 9.1502 6.03746 9.1502 6.22496V9.29996C9.1502 10.65 10.2377 11.7375 11.5877 11.7375H20.8877C21.3002 11.7375 21.6377 12.075 21.6377 12.4875V20.325H21.6752Z" fill="#111928"/>
<path d="M7.3501 6.3374H4.0876C3.6376 6.3374 3.2251 6.7124 3.2251 7.1999C3.2251 7.6874 3.6001 8.0624 4.0876 8.0624H7.3501C7.8001 8.0624 8.2126 7.6874 8.2126 7.1999C8.2126 6.7124 7.8376 6.3374 7.3501 6.3374Z" fill="#111928"/>
</svg>
