<svg width="24" height="24" viewBox="0 0 24 24" fill="none" xmlns="http://www.w3.org/2000/svg"><path d="M8.7375 9.7125h-.825V8.925c0-.45-.375-.8625-.8625-.8625-.4875 0-.8625.375-.8625.8625v.7875h-.825c-.45 0-.8625.375-.8625.8625 0 .4875.375.8625.8625.8625h.825v.7875c0 .45.375.8625.8625.8625.4875 0 .8625-.375.8625-.8625v-.7875h.825c.45 0 .8625-.375.8625-.8625 0-.4875-.4125-.8625-.8625-.8625ZM16.0873 9.37499c.0375.0375.0375.1125.075.15.0375.0375.075.075.1125.15l.1125.1125c.0375.0375.1125.0375.15.075.0375.0375.1125.0375.15.0375.075 0 .1125.0375.15.0375.225 0 .45-.075.6-.2625.0375-.0375.075-.075.1125-.15.0375-.0375.0375-.1125.075-.15 0-.0375.0375-.1125.0375-.15v-.15c0-.225-.075-.45-.2625-.6-.1875-.1875-.4875-.3-.75-.225-.0375 0-.1125.0375-.15.0375-.0375 0-.1125.0375-.15.075l-.1125.1125c-.0375.0375-.075.075-.1125.15 0 0 0 .0375-.0375.1125 0 .0375-.0375.1125-.0375.15v.3c0 .075.0375.1125.0375.1875ZM16.0876 10.6875v-.15c0-.075-.0375-.1125-.0375-.15-.0375-.0375-.0375-.1125-.075-.15l-.1125-.1125c-.1875-.18748-.4875-.29998-.75-.22498-.075 0-.1125.0375-.15.0375-.0375.0375-.1125.0375-.15.07498l-.1125.1125-.1125.1125c-.0375.0375-.075.1125-.075.15-.0375.0375-.0375.1125-.0375.15v.3c0 .0375.0375.1125.0375.15.0375.0375.0375.1125.075.15l.1125.1125.1125.1125c.0375.0375.1125.075.15.075.0375.0375.1125.0375.15.0375.0375 0 .1125.0375.15.0375.225 0 .45-.075.6-.2625l.1125-.1125c.0375-.0375.075-.1125.075-.15.0375-.0375.0375-.1125.0375-.15-.0375-.0375 0-.1125 0-.15ZM17.6623 12.15c-.0375-.0375-.0375-.1125-.075-.15l-.1125-.1125c-.3-.3-.8625-.3-1.2 0L16.1623 12c-.0375.0375-.075.1125-.075.15 0 .0375-.0375.1125-.0375.15v.3c0 .0375.0375.1125.0375.15.0375.0375.0375.1125.075.15l.1125.1125.1125.1125c.0375.0375.1125.0375.15.075.0375.0375.1125.0375.15.0375h.3c.075 0 .1125-.0375.15-.0375.0375 0 .1125-.0375.15-.075l.1125-.1125.1125-.1125c.0375-.0375.0375-.1125.075-.15.0375-.0375.0375-.1125.0375-.15v-.3c.075-.0375.0375-.1125.0375-.15ZM17.8875 10.0875c-.15.15-.2625.375-.2625.6 0 .225.075.45.2625.6.1875.15.375.2625.6.2625.225 0 .45-.075.6-.2625.15-.1875.2625-.375.2625-.6 0-.225-.075-.45-.2625-.6-.3-.29998-.8625-.29998-1.2 0Z" fill="#111928"/><path d="m23.4374 14.25-1.3875-5.54999c-.6-2.325-2.6625-3.975-5.0625-3.975H7.04988c-2.4 0-4.5 1.6125-5.0625 3.975L.56238 14.25c-.3 1.2-.0375 2.475.7125 3.45.75.975 1.9125 1.5375 3.1875 1.5375 1.6125 0 3.075-.975 3.7125-2.4375l.4125-.9375h6.86252l.4125.9375c.6375 1.5 2.1 2.4375 3.7125 2.4375 1.2375 0 2.4-.5625 3.1875-1.5375.7125-.975.975-2.25.675-3.45Zm-2.0625 2.4c-.45.5625-1.125.9-1.8375.9-.9375 0-1.8-.5625-2.1375-1.425l-.6-1.425c-.15-.3-.45-.525-.7875-.525H8.02488c-.3375 0-.6375.1875-.7875.525l-.6 1.425c-.375.8625-1.2 1.425-2.1375 1.425-.75 0-1.425-.3-1.875-.9-.45-.5625-.6-1.3125-.4125-1.9875l1.3875-5.54999c.4125-1.575 1.8-2.7 3.45-2.7h9.90002c1.6125 0 3.0375 1.0875 3.45 2.7l1.3875 5.54999c.1875.7125.0375 1.425-.4125 1.9875Z" fill="#111928"/></svg>