<svg width="24" height="24" viewBox="0 0 24 24" fill="none" xmlns="http://www.w3.org/2000/svg"><path d="M22.2748 9.41255c-.7125-.7125-1.725-1.1625-2.7375-1.1625h-6.7125v-5.775c0-.45-.375-.8625-.8625-.8625-.4875 0-.8625.375-.8625.8625v5.8125h-6.6c-2.1 0-3.824995 1.6875-3.824995 3.78745V18.6c0 2.1 1.724995 3.7876 3.824995 3.7876 1.9125 0 3.48751-1.3876 3.7875-3.1501h7.5c.3 1.8 1.875 3.1875 3.7875 3.1875 2.1 0 3.825-1.6875 3.825-3.7874V12.075c-.0375-.975-.4125-1.9125-1.125-2.66245ZM21.6373 18.6c0 1.1625-.9375 2.1001-2.1375 2.1001-1.2 0-2.1375-.9376-2.1375-2.1001 0-.6-.4875-1.0875-1.0875-1.0875h-8.55c-.6 0-1.0875.4875-1.0875 1.0875 0 1.125-.975 2.0625-2.1375 2.0625-1.2 0-2.1375-.9375-2.1375-2.1V12.075c0-1.1625.975-2.09995 2.1375-2.09995h15.0375c.5625 0 1.125.22495 1.5375.63745.375.375.6.9.6 1.4625V18.6h-.0375Z" fill="#111928"/><path d="M7.9123 13.05h-.825v-.7875c0-.45-.375-.8625-.8625-.8625-.4875 0-.8625.375-.8625.8625v.7875h-.825c-.45 0-.8625.375-.8625.8625 0 .4875.375.8625.8625.8625h.825v.7875c0 .45.375.8625.8625.8625.4875 0 .8625-.375.8625-.8625v-.7875h.825c.45 0 .8625-.375.8625-.8625 0-.4875-.4125-.8625-.8625-.8625ZM18.3747 13.1251h.15c.0375 0 .1125-.0375.15-.0375.0375-.0375.1125-.0375.15-.075l.1125-.1125c.15-.15.2625-.375.2625-.6 0-.225-.075-.45-.2625-.6l-.1125-.1125c-.0375-.0375-.1125-.0375-.15-.075-.0375-.0375-.1125-.0375-.15-.0375-.2625-.0375-.5625.0375-.75.225-.15.15-.2625.375-.2625.6 0 .225.075.45.2625.6.15.1125.375.225.6.225ZM17.3249 13.3125l-.1125-.1125c-.0375-.0375-.1125-.0375-.15-.075-.0375-.0375-.1125-.0375-.15-.0375-.2625-.0375-.5625.0375-.75.225-.15.15-.2625.375-.2625.6 0 .225.075.45.2625.6.075.075.1875.15.2625.1875.1125.0375.225.075.3375.075h.15c.075 0 .1125-.0375.15-.0375.0375 0 .1125-.0375.15-.075l.1125-.1125c.15-.15.2625-.375.2625-.6 0-.2625-.1125-.4875-.2625-.6375ZM17.7747 15.1125c-.15.15-.2625.375-.2625.6 0 .225.075.45.2625.6l.1125.1125c.0375.0375.1125.075.15.075.0375.0375.1125.0375.15.0375h.3c.0375 0 .1125-.0375.15-.0375.0375-.0375.1125-.0375.15-.075l.1125-.1125c.15-.15.2625-.375.2625-.6 0-.225-.075-.45-.2625-.6-.225-.3375-.7875-.3375-1.125 0ZM20.7747 13.5751c-.0375-.0375-.0375-.1125-.075-.15l-.1125-.1125c-.1875-.1875-.4875-.3-.75-.225-.0375 0-.1125.0375-.15.0375-.0375 0-.1125.0375-.15.075l-.1125.1125-.1125.1125c-.0375.0375-.075.1125-.075.15-.0375.0375-.0375.1125-.0375.15v.15c0 .225.075.45.2625.6.15.15.375.2625.6.2625.225 0 .45-.075.6-.2625.15-.15.2625-.375.2625-.6v-.15c-.1125-.0375-.1125-.075-.15-.15Z" fill="#111928"/></svg>