<svg width="24" height="24" viewBox="0 0 24 24" fill="none" xmlns="http://www.w3.org/2000/svg"><path d="M12 2C6.47788 2 2 6.59041 2 12.2531c0 4.5302 2.86531 8.3735 6.83866 9.7293.49975.0949.68327-.2224.68327-.4933 0-.2444-.00933-1.0522-.01357-1.9089-2.7821.6202-3.36913-1.2098-3.36913-1.2098-.45489-1.1851-1.11032-1.5001-1.11032-1.5001-.90726-.6364.06839-.6234.06839-.6234 1.0042.0724 1.53297 1.0566 1.53297 1.0566.89189 1.5675 2.33937 1.1143 2.91001.8524.08973-.6628.34893-1.115.63492-1.371-2.22114-.2594-4.55611-1.1385-4.55611-5.0672 0-1.1194.39065-2.0341 1.03039-2.75211-.10384-.25829-.4461-1.30109.09686-2.7134 0 0 .83974-.27557 2.75073 1.05101.79763-.22725 1.65313-.34111 2.50293-.34497.8499.00386 1.706.11772 2.5052.34497 1.9087-1.32658 2.7473-1.05101 2.7473-1.05101.5443 1.41231.2019 2.45511.098 2.7134.6412.71801 1.0292 1.63261 1.0292 2.75211 0 3.938-2.3394 4.8052-4.5662 5.059.3587.3181.6783.9422.6783 1.8987 0 1.3718-.0116 2.476-.0116 2.8137 0 .2729.18.5926.6869.4919C19.1383 20.6237 22 16.7818 22 12.2531 22 6.59041 17.5227 2 12 2Z" fill="#111928"/></svg>