<svg width="24" height="24" viewBox="0 0 24 24" fill="none" xmlns="http://www.w3.org/2000/svg"><path d="m5.9627 15.0751-1.275 1.275c-.3375.3375-.3375.8625 0 1.2.15.15.375.2625.6.2625.225 0 .45-.075.6-.2625l1.275-1.275c.3375-.3375.3375-.8625 0-1.2-.3375-.3375-.8625-.3375-1.2 0ZM13.9127 9.15005c.225 0 .45-.075.6-.2625l1.275-1.275c.3375-.3375.3375-.8625 0-1.2-.3375-.3375-.8625-.3375-1.2 0l-1.275 1.275c-.3375.3375-.3375.8625 0 1.2.1875.1875.4125.2625.6.2625ZM17.25 11.1375h-1.8c-.45 0-.825.375-.825.825 0 .45.375.825.825.825h1.8c.45 0 .825-.375.825-.825 0-.45-.375-.825-.825-.825ZM5.8877 6.45015c-.3375-.3375-.8625-.3375-1.2 0-.3375.3375-.3375.8625 0 1.2l1.275 1.275c.15.15.375.2625.6.2625.225 0 .45-.075.6-.2625.3375-.3375.3375-.8625 0-1.2l-1.275-1.275ZM14.5127 15.0751c-.3375-.3375-.8625-.3375-1.2 0-.3375.3375-.3375.8625 0 1.2l1.275 1.275c.15.15.375.2625.6.2625.225 0 .45-.075.6-.2625.3375-.3375.3375-.8625 0-1.2l-1.275-1.275Z" fill="#111928"/><path d="M10.2376.675049c-.45 0-.825.375001-.825.825001V22.5001c0 .45.375.825.825.825 6.2625 0 11.3625-5.0625 11.3625-11.3251 0-6.26245-5.1-11.324951-11.3625-11.324951ZM11.1001 21.6V2.40005c4.9125.4125 8.8125 4.575 8.8125 9.59995 0 5.0251-3.9 9.1875-8.8125 9.6ZM5.8875 12c0-.45-.375-.825-.825-.825h-1.8c-.45 0-.825.375-.825.825 0 .45.375.825.825.825h1.8c.45 0 .825-.375.825-.825Z" fill="#111928"/></svg>