<svg width="24" height="24" viewBox="0 0 24 24" fill="none" xmlns="http://www.w3.org/2000/svg"><path d="M18.0748.862549h-12.15c-1.2375 0-2.25 1.012501-2.25 2.250001V20.8876c0 1.2375 1.0125 2.25 2.25 2.25h12.1875c1.2375 0 2.25-1.0125 2.25-2.25V3.11255c0-1.2375-1.0125-2.250001-2.2875-2.250001Zm.6 20.025051c0 .3375-.2625.5625-.5625.5625H5.9248c-.3375 0-.5625-.2625-.5625-.5625V3.11255c0-.3375.2625-.5625.5625-.5625h12.1875c.3375 0 .5625.2625.5625.5625V20.8876Z" fill="#111928"/><path d="M16.3499 12c0-2.3625-1.95-4.3125-4.3125-4.3125S7.7249 9.6375 7.7249 12c0 .8625.2625 1.6875.7125 2.3625-.7125.4875-1.3875 1.0125-1.65 1.5-.7875 1.35-.3375 3.075 1.0125 3.8625.45.2625.9375.375 1.425.375.225 0 .4875-.0375.7125-.1125.7125-.1875 1.35-.675 1.725-1.3125.3-.4875.4125-1.425.4875-2.4 2.325-.0375 4.2-1.95 4.2-4.275Zm-6.15 5.85c-.15.2625-.4125.45-.675.525-.3.075-.6.0375-.8625-.1125-.2625-.15-.45-.4125-.525-.675-.075-.2625-.0375-.6.1125-.8625.1875-.3375 1.1625-1.0125 2.2875-1.65-.0375 1.275-.15 2.475-.3375 2.775Zm1.9875-3.225c0-.4125 0-.7875-.0375-1.0125 0-.3-.1875-.5625-.4125-.7125-.2625-.15-.5625-.15-.825-.0375-.225.1125-.6375.3375-1.0875.6-.3-.45-.45-.9375-.45-1.5 0-1.4625 1.1625-2.625 2.625-2.625s2.625 1.1625 2.625 2.625c.0375 1.425-1.05 2.55-2.4375 2.6625ZM16.0496 18.8626c-.15.15-.2625.375-.2625.6 0 .225.075.45.2625.6.15.15.375.2625.6.2625h.15c.0375 0 .1125-.0375.15-.0375.0375-.0375.1125-.0375.15-.075l.1125-.1125c.15-.15.2625-.375.2625-.6 0-.225-.075-.45-.2625-.6-.3-.3375-.8625-.3375-1.1625-.0375Z" fill="#111928"/></svg>