<svg width="24" height="24" viewBox="0 0 24 24" fill="none" xmlns="http://www.w3.org/2000/svg"><path d="M20.0998 6.75005c-2.2125-2.175-5.1375-3.3375-8.2875-3.2625-6.15.075-11.137495 5.0625-11.137495 11.09995V18.9c0 .8625.712495 1.6125 1.612495 1.6125h2.325c.8625 0 1.6125-.7125 1.6125-1.6125v-3.3c0-.8625-.7125-1.6125-1.6125-1.6125h-2.25c.3-4.87495 4.425-8.81245 9.45-8.88745 2.6625-.075 5.2125.9375 7.0875 2.775 1.6875 1.65 2.6625 3.78745 2.7375 6.07495h-2.2125c-.8625 0-1.6125.7125-1.6125 1.6125v3.3c0 .8625.7125 1.6125 1.6125 1.6125h2.325c.8625 0 1.6125-.7125 1.6125-1.6125v-4.5c0-2.8125-1.1625-5.54995-3.2625-7.61245ZM4.4623 18.825h-2.1v-3.1125h2.1375v3.1125h-.0375Zm17.2125 0h-2.1375v-3.1125h2.1375v3.1125Z" fill="#111928"/></svg>