<svg width="24" height="24" viewBox="0 0 24 24" fill="none" xmlns="http://www.w3.org/2000/svg">
<path d="M22.1626 9.82505L12.5626 0.900049C12.2251 0.600049 11.7376 0.600049 11.4001 0.900049L1.83756 9.82505C1.65006 10.0125 1.53756 10.275 1.57506 10.575C1.61256 10.8375 1.76256 11.1 2.02506 11.2125C3.37506 11.925 4.20006 13.2375 4.20006 14.775V21.4501C4.20006 22.5 5.06256 23.3625 6.11256 23.3625H8.81256C9.86256 23.3625 10.7251 22.5 10.7251 21.4501V19.35C10.7251 19.2 10.8376 19.125 10.9501 19.125H12.9376C13.0876 19.125 13.1626 19.2375 13.1626 19.35V21.4501C13.1626 22.5 14.0251 23.3625 15.0751 23.3625H17.8126C18.8626 23.3625 19.7251 22.5 19.7251 21.4501V14.7375C19.7251 13.2375 20.5876 11.8875 21.9376 11.175C22.1626 11.0625 22.3501 10.8 22.3876 10.5375C22.4626 10.275 22.3876 10.0125 22.1626 9.82505ZM12.0001 2.66255L20.2501 10.35C20.0626 10.5 19.9126 10.65 19.7251 10.8H4.27506C4.12506 10.65 3.93756 10.5 3.78756 10.35L12.0001 2.66255ZM18.0751 21.4125C18.0751 21.5625 17.9626 21.6376 17.8501 21.6376H15.1126C14.9626 21.6376 14.8876 21.525 14.8876 21.4125V19.3125C14.8876 18.2625 14.0251 17.4 12.9751 17.4H10.9876C9.93756 17.4 9.07506 18.2625 9.07506 19.3125V21.4125C9.07506 21.5625 8.96256 21.6376 8.85006 21.6376H6.15006C6.00006 21.6376 5.92506 21.525 5.92506 21.4125V14.7375C5.92506 13.9125 5.77506 13.1625 5.43756 12.45H18.6376C18.3376 13.1625 18.1501 13.9125 18.1501 14.7375V21.4125H18.0751Z" fill="#111928"/>
</svg>
