<svg width="24" height="24" viewBox="0 0 24 24" fill="none" xmlns="http://www.w3.org/2000/svg">
<path d="M20.8498 9.26262H12.2248V3.63762C12.2248 2.73762 11.6998 1.95012 10.9123 1.53762C10.0873 1.16262 9.14981 1.27512 8.4748 1.83762L1.6873 7.50012C1.1623 7.95012 0.862305 8.58762 0.862305 9.26262V20.3626C0.862305 21.6376 1.9123 22.6501 3.1498 22.6501H20.8498C22.1248 22.6501 23.1373 21.6001 23.1373 20.3626V11.5876C23.1748 10.3126 22.1248 9.26262 20.8498 9.26262ZM2.5498 20.3626V9.26262C2.5498 9.07512 2.6248 8.88762 2.7748 8.77512L9.56231 3.15012C9.82481 2.92512 10.1248 3.00012 10.2373 3.07512C10.3498 3.11262 10.5748 3.26262 10.5748 3.63762V10.1251V20.9626H9.26231V17.2876C9.26231 16.2001 8.3623 15.3001 7.27481 15.3001H5.8873C4.7998 15.3001 3.8998 16.2001 3.8998 17.2876V20.9626H3.1498C2.8123 20.9626 2.5498 20.7001 2.5498 20.3626ZM5.5873 20.9626V17.2876C5.5873 17.1376 5.6998 16.9876 5.8873 16.9876H7.27481C7.4248 16.9876 7.57481 17.1001 7.57481 17.2876V20.9626H5.5873ZM21.4873 20.3626C21.4873 20.7001 21.2248 20.9626 20.8873 20.9626H12.2623V10.9501H20.8873C21.2248 10.9501 21.4873 11.2126 21.4873 11.5501V20.3626Z" fill="#111928"/>
</svg>
