<svg width="24" height="24" viewBox="0 0 24 24" fill="none" xmlns="http://www.w3.org/2000/svg">
<path d="M22.6877 16.7999H21.6752V10.1624C21.6752 9.3374 21.2252 8.5874 20.5127 8.1749L16.2377 5.7749C15.5627 5.3999 14.7002 5.3999 14.0252 5.7749L9.15019 8.5124H4.6502C3.41269 8.5124 2.3627 9.5249 2.3627 10.7999V16.8374H1.3127C0.862695 16.8374 0.450195 17.2124 0.450195 17.6999C0.450195 18.1874 0.825195 18.5624 1.3127 18.5624H22.6877C23.1377 18.5624 23.5502 18.1874 23.5502 17.6999C23.5502 17.2124 23.1377 16.7999 22.6877 16.7999ZM4.0502 10.7624C4.0502 10.4249 4.3127 10.1624 4.6502 10.1624H8.51269V16.7999H4.0502V10.7624ZM10.2002 9.8624L14.8502 7.2749C15.0377 7.1624 15.2252 7.1624 15.4127 7.2749L19.6877 9.6749C19.8752 9.7874 19.9877 9.9749 19.9877 10.1999V16.8374H17.5127V13.7249C17.5127 12.6374 16.6127 11.7374 15.5252 11.7374H14.6252C13.5377 11.7374 12.6377 12.6374 12.6377 13.7249V16.8374H10.1252V9.8624H10.2002ZM14.4002 16.7999V13.6874C14.4002 13.5374 14.5127 13.3874 14.7002 13.3874H15.6002C15.7502 13.3874 15.9002 13.4999 15.9002 13.6874V16.7999H14.4002Z" fill="#111928"/>
</svg>
