<svg width="24" height="24" viewBox="0 0 24 24" fill="none" xmlns="http://www.w3.org/2000/svg">
<g clip-path="url(#clip0_310_5127)">
<path d="M22.3127 21.3H21.8252V9.3C21.8252 7.9875 20.7377 6.9 19.4252 6.9H17.4377V3.4125C17.4377 2.7375 17.1377 2.0625 16.6127 1.6125C16.0877 1.1625 15.4127 0.937504 14.7377 1.0125L8.8877 1.725C7.6877 1.875 6.7502 2.8875 6.7502 4.125V6.9375H4.5752C3.2627 6.9375 2.1752 8.025 2.1752 9.3375V21.3H1.6877C1.2377 21.3 0.825195 21.675 0.825195 22.1625C0.825195 22.65 1.2002 23.025 1.6877 23.025H8.0627C8.92519 23.025 9.60019 22.3125 9.60019 21.4875V15.7125C9.60019 15.3 9.93769 15 10.3127 15H13.5377C13.9502 15 14.2502 15.3375 14.2502 15.7125V21.4125C14.2502 22.275 14.9627 22.95 15.7877 22.95H22.2377C22.6877 22.95 23.1002 22.575 23.1002 22.0875C23.1002 21.6 22.7627 21.3 22.3127 21.3ZM18.9002 21.3H15.9752V15.7125C15.9752 14.4 14.8877 13.3125 13.5752 13.3125H10.3502C9.03769 13.3125 7.9502 14.4 7.9502 15.7125V21.3H4.6127H3.9002V9.3375C3.9002 8.925 4.2377 8.625 4.6127 8.625H6.9377C7.8002 8.625 8.47519 7.9125 8.47519 7.0875V4.125C8.47519 3.75 8.73769 3.45 9.11269 3.4125L14.9627 2.7375C15.1877 2.7 15.3752 2.775 15.5252 2.925C15.6752 3.0375 15.7502 3.225 15.7502 3.4125V7.0125C15.7502 7.875 16.4627 8.55 17.2877 8.55H19.3877C19.8002 8.55 20.1002 8.8875 20.1002 9.2625V21.2625H18.9002V21.3Z" fill="#111928"/>
</g>
<defs>
<clipPath id="clip0_310_5127">
<rect width="24" height="24" fill="white"/>
</clipPath>
</defs>
</svg>
