<svg width="24" height="24" viewBox="0 0 24 24" fill="none" xmlns="http://www.w3.org/2000/svg">
<path d="M23.0251 9.825L13.0876 1.5375C12.4876 1.05 11.6251 1.05 11.0251 1.5375L0.975098 9.825C0.600098 10.125 0.562598 10.65 0.862598 11.025C1.0126 11.2125 1.2751 11.325 1.5001 11.325C1.6876 11.325 1.8751 11.25 2.0251 11.1375L3.7876 9.675V20.4375C3.7876 21.7875 4.8751 22.875 6.1876 22.875H10.1251C10.5751 22.875 10.9876 22.5 10.9876 22.0125V18.2625C10.9876 17.85 11.3251 17.5125 11.7376 17.5125H12.3001C12.7126 17.5125 13.0501 17.85 13.0501 18.2625V22.0125C13.0501 22.4625 13.4251 22.875 13.9126 22.875H17.8126C19.1626 22.875 20.2501 21.7875 20.2501 20.4375V9.6375L22.0126 11.1375C22.3876 11.4375 22.9126 11.4 23.2126 11.025C23.4376 10.65 23.4001 10.125 23.0251 9.825ZM18.4876 20.4375C18.4876 20.85 18.1501 21.1875 17.7376 21.1875H14.6626V18.3C14.6626 16.95 13.5751 15.8625 12.2251 15.8625H11.6626C10.3126 15.8625 9.2251 16.95 9.2251 18.3V21.1875H6.1501C5.7376 21.1875 5.4376 20.85 5.4376 20.4375V10.3125H18.4126V20.4375H18.4876ZM5.0626 8.625L12.0751 2.85L18.9751 8.625H5.0626Z" fill="#111928"/>
</svg>
