<svg width="24" height="24" viewBox="0 0 24 24" fill="none" xmlns="http://www.w3.org/2000/svg"><g clip-path="url(#clip0_310_4067)" fill="#111928"><path d="M11.9998.600098C5.73731.600098.674805 5.7001.674805 12.0001c0 6.3 5.062505 11.4 11.324995 11.4 6.2625 0 11.325-5.1 11.325-11.4 0-6.3-5.0625-11.400002-11.325-11.400002Zm0 21.112502c-5.32499 0-9.675-4.35-9.675-9.7125 0-5.3625 4.35001-9.7125 9.675-9.7125 5.325 0 9.675 4.35 9.675 9.7125 0 5.3625-4.35 9.7125-9.675 9.7125Z"/><path d="M15.4874 9.3375c.225 0 .45-.075.6-.2625l1.2-1.2c.3375-.3375.3375-.8625 0-1.2-.3375-.3375-.8625-.3375-1.2 0l-1.2 1.2c-.3375.3375-.3375.8625 0 1.2.15.1875.375.2625.6.2625ZM7.91211 14.925l-1.2 1.2c-.3375.3375-.3375.8625 0 1.2.15.15.375.2625.6.2625.225 0 .45-.075.6-.2625l1.2-1.2c.3375-.3375.3375-.8625 0-1.2-.3375-.3375-.8625-.3375-1.2 0ZM18.6375 11.175H16.95c-.45 0-.825.375-.825.825 0 .45.375.825.825.825h1.6875c.45 0 .825-.375.825-.825 0-.45-.375-.825-.825-.825ZM7.91221 12c0-.45-.375-.825-.825-.825h-1.6875c-.45 0-.825.375-.825.825 0 .45.375.825.825.825h1.6875c.45 0 .825-.375.825-.825ZM16.0874 14.925c-.3375-.3375-.8625-.3375-1.2 0-.3375.3375-.3375.8625 0 1.2l1.2 1.2c.15.15.375.2625.6.2625.225 0 .4125-.075.6-.2625.3375-.3375.3375-.8625 0-1.2l-1.2-1.2ZM7.91211 6.675c-.3375-.3375-.8625-.3375-1.2 0-.3375.3375-.3375.8625 0 1.2l1.2 1.2c.15.15.375.2625.6.2625.225 0 .4125-.075.6-.2625.3375-.3375.3375-.8625 0-1.2l-1.2-1.2ZM11.9998 16.125c-.45 0-.825.375-.825.825v1.6875c0 .45.375.825.825.825.45 0 .825-.375.825-.825V16.95c0-.45-.375-.825-.825-.825ZM11.9998 4.5c-.45 0-.825.375-.825.825v1.6875c0 .45.375.825.825.825.45 0 .825-.375.825-.825V5.325c0-.45-.375-.825-.825-.825Z"/></g><defs><clipPath id="clip0_310_4067"><path fill="#fff" d="M0 0h24v24H0z"/></clipPath></defs></svg>