<svg width="24" height="24" viewBox="0 0 24 24" fill="none" xmlns="http://www.w3.org/2000/svg">
<path d="M22.3127 20.175H21.7877V9.6375C21.7877 8.8875 21.4127 8.2125 20.8127 7.8L13.2752 2.55C12.4877 2.025 11.4752 2.025 10.6877 2.55L3.1877 7.8C2.5877 8.2125 2.2127 8.925 2.2127 9.6375V20.175H1.6877C1.2377 20.175 0.825195 20.55 0.825195 21.0375C0.825195 21.525 1.2002 21.9 1.6877 21.9H22.3127C22.7627 21.9 23.1752 21.525 23.1752 21.0375C23.1752 20.55 22.7627 20.175 22.3127 20.175ZM11.6627 3.9375C11.8502 3.7875 12.1127 3.7875 12.3002 3.9375L18.7502 8.475H5.2127L11.6627 3.9375ZM3.90019 20.175V10.125H20.0627V20.175H3.90019Z" fill="#111928"/>
</svg>
