<svg width="24" height="24" viewBox="0 0 24 24" fill="none" xmlns="http://www.w3.org/2000/svg">
<path d="M22.3127 18.2625H21.4127V6.26255C21.4127 5.02505 20.4002 4.05005 19.2002 4.05005H9.48769C8.25019 4.05005 7.27519 5.06255 7.27519 6.26255V9.56255H4.6127C3.5252 9.56255 2.6252 10.4625 2.6252 11.55V18.2625H1.6877C1.2377 18.2625 0.825195 18.6375 0.825195 19.125C0.825195 19.6125 1.2002 19.9875 1.6877 19.9875H22.3127C22.7627 19.9875 23.1752 19.6125 23.1752 19.125C23.1752 18.6375 22.7627 18.2625 22.3127 18.2625ZM4.3127 18.2625V11.55C4.3127 11.4 4.4252 11.25 4.6127 11.25H12.7502C12.9002 11.25 13.0502 11.3625 13.0502 11.55V18.2625H4.3127ZM14.7377 18.2625V11.55C14.7377 10.4625 13.8377 9.56255 12.7502 9.56255H8.96269V6.26255C8.96269 5.96255 9.18769 5.73755 9.48769 5.73755H19.2002C19.5002 5.73755 19.7252 5.96255 19.7252 6.26255V18.2625H14.7377Z" fill="#111928"/>
</svg>
