<svg width="24" height="24" viewBox="0 0 24 24" fill="none" xmlns="http://www.w3.org/2000/svg">
<g clip-path="url(#clip0_310_5230)">
<path d="M22.0873 7.275L13.4248 1.2C12.5623 0.6 11.4373 0.6 10.5748 1.2L1.9123 7.275C1.2373 7.725 0.862305 8.5125 0.862305 9.3V20.8125C0.862305 22.1625 1.9873 23.2875 3.3373 23.2875H20.6998C22.0498 23.2875 23.1748 22.1625 23.1748 20.8125V9.3C23.1748 8.475 22.7623 7.725 22.0873 7.275ZM15.4123 21.5625H8.58731V17.25C8.58731 16.9875 8.6998 16.7625 8.9248 16.6125L11.5498 14.775C11.8123 14.5875 12.1873 14.5875 12.4498 14.775L15.0748 16.6125C15.2998 16.7625 15.4123 16.9875 15.4123 17.25V21.5625ZM21.4873 20.775C21.4873 21.225 21.1498 21.5625 20.6998 21.5625H17.0998V17.25C17.0998 16.4625 16.7248 15.675 16.0498 15.225L13.4248 13.3875C12.5623 12.7875 11.4373 12.7875 10.5748 13.3875L7.94981 15.225C7.27481 15.675 6.89981 16.4625 6.89981 17.25V21.5625H3.2998C2.8498 21.5625 2.5123 21.225 2.5123 20.775V9.3C2.5123 9.0375 2.6248 8.8125 2.8498 8.6625L11.5498 2.55C11.6998 2.4375 11.8498 2.4 11.9998 2.4C12.1498 2.4 12.2998 2.4375 12.4498 2.55L21.1498 8.625C21.3748 8.775 21.4873 9 21.4873 9.2625V20.775Z" fill="#111928"/>
</g>
<defs>
<clipPath id="clip0_310_5230">
<rect width="24" height="24" fill="white"/>
</clipPath>
</defs>
</svg>
