<svg width="24" height="24" viewBox="0 0 24 24" fill="none" xmlns="http://www.w3.org/2000/svg">
<path d="M21.7123 21.2999H19.9873V13.0874C19.9873 11.9999 19.2748 11.0624 18.2248 10.7999L14.5123 9.86241V5.92491C14.5123 4.98741 13.9498 4.12491 13.0873 3.78741L7.2748 1.23741C6.5623 0.937407 5.6998 1.01241 5.0623 1.42491C4.3873 1.87491 4.0123 2.58741 4.0123 3.37491V21.2624H2.2873C1.8373 21.2624 1.4248 21.6374 1.4248 22.1249C1.4248 22.6124 1.7998 22.9874 2.2873 22.9874H21.7498C22.1998 22.9874 22.6123 22.6124 22.6123 22.1249C22.6123 21.6374 22.1998 21.2999 21.7123 21.2999ZM5.6998 3.37491C5.6998 3.03741 5.9248 2.88741 5.9998 2.81241C6.0748 2.73741 6.33731 2.62491 6.6373 2.77491L12.4873 5.28741C12.7123 5.39991 12.8998 5.62491 12.8998 5.88741V9.41241L12.3748 9.33741C11.6623 9.14991 10.9498 9.29991 10.3498 9.74991C9.7873 10.1999 9.44981 10.8749 9.44981 11.5874V21.2624H5.6998V3.37491ZM13.6873 21.2999H11.1373V11.5874C11.1373 11.3999 11.2123 11.1749 11.3998 11.0624C11.5498 10.9499 11.7748 10.8749 11.9623 10.9499L17.8123 12.4499C18.1123 12.5249 18.2998 12.7874 18.2998 13.0874V21.2624H13.6873V21.2999Z" fill="#111928"/>
</svg>
