<svg width="24" height="24" viewBox="0 0 24 24" fill="none" xmlns="http://www.w3.org/2000/svg">
<path d="M21.3752 8.1751H17.9627V6.6751C17.9627 5.7751 17.4377 4.9501 16.5752 4.5751L11.6627 2.4376C10.9502 2.1376 10.1252 2.2126 9.48769 2.6251C8.85019 3.0376 8.43769 3.7501 8.43769 4.5376V4.8751H2.6252C1.5377 4.8751 0.637695 5.7751 0.637695 6.8626V19.7626C0.675195 20.8501 1.5377 21.7501 2.6252 21.7501H21.3752C22.4627 21.7501 23.3627 20.8501 23.3627 19.7626V10.1626C23.3627 9.0751 22.4627 8.1751 21.3752 8.1751ZM2.3627 19.7626V6.8626C2.3627 6.7126 2.4752 6.5626 2.66269 6.5626H8.51269V20.0251H2.6252C2.4752 20.0626 2.3627 19.9126 2.3627 19.7626ZM10.1627 5.7376V4.5751C10.1627 4.2751 10.3502 4.1251 10.4252 4.0876C10.5002 4.0501 10.7252 3.9376 10.9877 4.0501L15.9002 6.1876C16.1252 6.3001 16.2752 6.4876 16.2752 6.7501V9.0751V20.1001H10.1627V5.7376ZM21.6752 19.7626C21.6752 19.9126 21.5627 20.0626 21.3752 20.0626H17.9627V9.8626H21.3752C21.5252 9.8626 21.6752 9.9751 21.6752 10.1626V19.7626Z" fill="#111928"/>
</svg>
