<svg width="24" height="24" viewBox="0 0 24 24" fill="none" xmlns="http://www.w3.org/2000/svg">
<path d="M22.9876 5.3251L22.3501 3.6376C22.0126 2.7001 21.0751 2.1001 20.1001 2.1001H3.90015C2.88765 2.1001 1.98765 2.7376 1.65015 3.6376L1.01265 5.3251C0.712649 6.0751 0.825149 6.9001 1.27515 7.5751C1.53765 7.9876 1.95015 8.2876 2.40015 8.4751V19.9876C2.40015 21.0751 3.30015 21.9751 4.38765 21.9751H19.6876C20.7751 21.9751 21.6751 21.0751 21.6751 19.9876V8.4376C22.1251 8.2501 22.5001 7.9501 22.8001 7.5376C23.1751 6.9001 23.2876 6.0751 22.9876 5.3251ZM2.58765 5.9251L3.22515 4.2376C3.33765 3.9376 3.60015 3.7501 3.90015 3.7501H20.1001C20.4001 3.7501 20.6626 3.9376 20.7751 4.2376L21.4126 5.9251C21.4876 6.1501 21.4876 6.4126 21.3376 6.6001C21.1876 6.7876 20.9626 6.9001 20.7376 6.9001H3.26265C3.00015 6.9001 2.81265 6.7876 2.66265 6.6001C2.51265 6.4126 2.47515 6.1501 2.58765 5.9251ZM19.9126 19.9501C19.9126 20.1001 19.8001 20.2501 19.6126 20.2501H4.35015C4.20015 20.2501 4.05015 20.1376 4.05015 19.9501V8.6251H19.9126V19.9501Z" fill="#111928"/>
<path d="M10.7253 17.5125H13.2753C14.3628 17.5125 15.2628 16.6125 15.2628 15.525V12.975C15.2628 11.8875 14.3628 10.9875 13.2753 10.9875H10.7253C9.63779 10.9875 8.73779 11.8875 8.73779 12.975V15.525C8.77529 16.6125 9.63779 17.5125 10.7253 17.5125ZM10.4628 13.0125C10.4628 12.8625 10.5753 12.7125 10.7628 12.7125H13.3128C13.4628 12.7125 13.6128 12.825 13.6128 13.0125V15.5625C13.6128 15.7125 13.5003 15.8625 13.3128 15.8625H10.7628C10.6128 15.8625 10.4628 15.75 10.4628 15.5625V13.0125Z" fill="#111928"/>
</svg>
