<svg width="24" height="24" viewBox="0 0 24 24" fill="none" xmlns="http://www.w3.org/2000/svg">
<path d="M22.5002 19.8H21.5252V10.9125C21.5252 9.9375 20.7752 9.1125 19.8377 8.9625V6.7875L20.2877 7.05C20.7002 7.275 21.2252 7.125 21.4502 6.7125C21.6752 6.3 21.5252 5.775 21.1127 5.55L16.2002 2.8125C15.5252 2.4375 14.7002 2.4375 14.0252 2.8125L9.00019 5.5875C8.58769 5.8125 8.43769 6.3375 8.66269 6.75C8.81269 7.0125 9.11269 7.2 9.41269 7.2C9.56269 7.2 9.67519 7.1625 9.82519 7.0875L10.2752 6.825V8.9625H4.5002C3.4127 8.9625 2.5127 9.8625 2.5127 10.95V19.8375H1.5002C1.0502 19.8375 0.637695 20.2125 0.637695 20.7C0.637695 21.1875 1.0127 21.5625 1.5002 21.5625H22.5002C22.9502 21.5625 23.3627 21.1875 23.3627 20.7C23.3627 20.2125 22.9502 19.8 22.5002 19.8ZM11.9627 5.8875L14.8127 4.3125C14.9627 4.2375 15.1877 4.2375 15.3377 4.3125L18.1127 5.8875V9H11.9627V5.8875ZM10.9877 19.8V14.925C10.9877 14.775 11.1002 14.625 11.2877 14.625H13.0502C13.2002 14.625 13.3502 14.7375 13.3502 14.925V19.8H10.9877ZM15.0002 19.8V14.925C15.0002 13.8375 14.1002 12.9375 13.0127 12.9375H11.2502C10.1627 12.9375 9.26269 13.8375 9.26269 14.925V19.8H4.2002V10.9125C4.2002 10.7625 4.3127 10.6125 4.5002 10.6125H19.5752C19.7252 10.6125 19.8752 10.725 19.8752 10.9125V19.8H15.0002Z" fill="#111928"/>
</svg>
