<svg width="24" height="24" viewBox="0 0 24 24" fill="none" xmlns="http://www.w3.org/2000/svg"><path d="M17.4929 8.00955H8.77835l.20822 2.00315h8.29913c-.1217 1.7548-.4897 5.4726-.6247 7.1643l-4.6614 1.3004v.0039l-.0103.0049-4.66441-1.6266-.31955-3.8421h2.28635l.16184 2.0663 2.53997.9385h.0061l2.5359-.9014.2608-3.105H6.90329c-.03814-.4016-.52881-5.61691-.61437-6.00953H17.697c-.0639.66105-.1289 1.34013-.2041 2.00318ZM4.01068 2c-.59401 0-1.05991.50531-1.00651 1.09163L4.49579 19.4692c.03861.4239.34324.7772.75962.8812l6.48489 1.6193c.1634.0408.3346.0404.4978-.0011l6.5087-1.6533c.4144-.1053.717-.4577.7556-.8799l1.4934-16.34347C21.0494 2.5055 20.5834 2 19.9893 2H4.01068Z" fill="#111928"/></svg>