<svg width="24" height="24" viewBox="0 0 24 24" fill="none" xmlns="http://www.w3.org/2000/svg">
<path d="M22.7998 7.65005L18.1498 6.00005V3.41255C18.1498 2.96255 17.7748 2.55005 17.2873 2.55005C16.7998 2.55005 16.4248 2.92505 16.4248 3.41255V5.40005L9.22484 2.85005C8.54984 2.58755 7.76234 2.73755 7.19984 3.15005L1.01234 7.80005C0.637339 8.06255 0.562339 8.62505 0.824839 8.96255C1.08734 9.33755 1.64984 9.41255 1.98734 9.15005L2.81234 8.51255V19.2375C2.81234 20.4375 3.78734 21.4125 4.98734 21.4125H17.7373C18.9373 21.4125 19.9123 20.4375 19.9123 19.2375V8.43755L22.1623 9.22505C22.2373 9.26255 22.3498 9.26255 22.4623 9.26255C22.7998 9.26255 23.1373 9.03755 23.2498 8.70005C23.4373 8.28755 23.2123 7.83755 22.7998 7.65005ZM18.2623 19.2375C18.2623 19.5 18.0373 19.725 17.7748 19.725H5.02484C4.76234 19.725 4.53734 19.5 4.53734 19.2375V7.23755L8.21234 4.50005C8.36234 4.38755 8.51234 4.38755 8.66234 4.42505L18.2623 7.87505V19.2375Z" fill="#111928"/>
<path d="M5.9624 10.2001V12.6001C5.9624 13.0501 6.3374 13.4626 6.8249 13.4626H9.2249C9.6749 13.4626 10.0874 13.0876 10.0874 12.6001V10.2001C10.0874 9.75015 9.7124 9.33765 9.2249 9.33765H6.8249C6.3374 9.33765 5.9624 9.71265 5.9624 10.2001ZM7.6499 11.0251H8.3624V11.7376H7.6499V11.0251Z" fill="#111928"/>
<path d="M13.05 13.425H15.45C15.9 13.425 16.3125 13.05 16.3125 12.5625V10.1625C16.3125 9.71255 15.9375 9.30005 15.45 9.30005H13.05C12.6 9.30005 12.1875 9.67505 12.1875 10.1625V12.5625C12.225 13.05 12.6 13.425 13.05 13.425ZM13.9125 11.025H14.625V11.7375H13.9125V11.025Z" fill="#111928"/>
<path d="M9.2249 14.7751H6.8249C6.3749 14.7751 5.9624 15.1501 5.9624 15.6376V18.0001C5.9624 18.4501 6.3374 18.8626 6.8249 18.8626H9.2249C9.6749 18.8626 10.0874 18.4876 10.0874 18.0001V15.6001C10.0499 15.1501 9.6749 14.7751 9.2249 14.7751ZM8.3624 17.1751H7.6499V16.4626H8.3624V17.1751Z" fill="#111928"/>
<path d="M13.05 18.8625H15.45C15.9 18.8625 16.3125 18.4875 16.3125 18V15.6C16.3125 15.15 15.9375 14.7375 15.45 14.7375H13.05C12.6 14.7375 12.1875 15.1125 12.1875 15.6V18C12.225 18.4875 12.6 18.8625 13.05 18.8625ZM13.9125 16.4625H14.625V17.175H13.9125V16.4625Z" fill="#111928"/>
</svg>
