<svg width="24" height="24" viewBox="0 0 24 24" fill="none" xmlns="http://www.w3.org/2000/svg">
<path d="M22.9876 9.1501L12.5626 1.9126C12.2626 1.7251 11.8876 1.7251 11.5876 1.9126L1.01259 9.1501C0.637593 9.4126 0.525093 9.9376 0.787593 10.3126C0.937593 10.5376 1.20009 10.6876 1.50009 10.6876C1.65009 10.6876 1.83759 10.6501 1.98759 10.5376L3.82509 9.2626V20.2501C3.82509 21.3376 4.72509 22.2376 5.81259 22.2376H18.2626C19.3501 22.2376 20.2501 21.3376 20.2501 20.2501V9.2626L22.0876 10.5376C22.4626 10.8001 22.9876 10.7251 23.2501 10.3126C23.4751 9.9751 23.3626 9.4501 22.9876 9.1501ZM18.4876 20.2876C18.4876 20.4376 18.3751 20.5876 18.1876 20.5876H5.77509C5.62509 20.5876 5.47509 20.4751 5.47509 20.2876V9.7126H18.4876V20.2876ZM5.66259 8.0251L12.0751 3.6376L18.3751 8.0251H5.66259Z" fill="#111928"/>
</svg>
