<svg width="24" height="24" viewBox="0 0 24 24" fill="none" xmlns="http://www.w3.org/2000/svg">
<path d="M22.9125 8.2875L13.2375 2.8875C12.4875 2.475 11.625 2.475 10.9125 2.8875L1.08752 8.2875C0.675021 8.5125 0.525021 9.0375 0.750021 9.45C0.900021 9.7125 1.20002 9.9 1.50002 9.9C1.65002 9.9 1.76252 9.8625 1.91252 9.7875L3.82502 8.7375V19.4625C3.82502 20.55 4.72502 21.45 5.81252 21.45H18.2625C19.35 21.45 20.25 20.55 20.25 19.4625V8.7L22.1625 9.75C22.575 9.975 23.1 9.825 23.325 9.4125C23.475 9.0375 23.325 8.5125 22.9125 8.2875ZM5.51252 19.425V8.85H7.76252V19.6875H5.81252C5.62502 19.725 5.51252 19.575 5.51252 19.425ZM14.55 8.85V19.6875H9.41252V8.85H14.55ZM18.4875 19.425C18.4875 19.575 18.375 19.725 18.1875 19.725H16.2375V8.85H18.4875V19.425ZM6.60002 7.1625L11.7 4.35C11.925 4.2375 12.1875 4.2375 12.4125 4.35L17.4375 7.1625H6.60002Z" fill="#111928"/>
</svg>
