<svg width="24" height="24" viewBox="0 0 24 24" fill="none" xmlns="http://www.w3.org/2000/svg"><path d="M14.85 11.8875c1.7625 0 3.225-1.425 3.225-3.225s-1.425-3.225-3.225-3.225-3.225 1.5-3.225 3.2625c0 1.7625 1.4625 3.1875 3.225 3.1875Zm0-4.725c.825 0 1.5375.675 1.5375 1.5375s-.675 1.5375-1.5375 1.5375-1.5375-.675-1.5375-1.5375.675-1.5375 1.5375-1.5375Z" fill="#111928"/><path d="M19.7626.675049H4.2376c-1.275 0-2.325 1.050001-2.325 2.325001V21c0 1.275 1.05 2.3625 2.3625 2.3625h15.4875c1.275 0 2.3625-1.05 2.3625-2.3625V3.00005c-.0375-1.275-1.0875-2.325001-2.3625-2.325001ZM4.2376 2.36255h15.4875c.375 0 .675.3.675.675V16.125l-2.7375-2.25c-.7875-.6375-1.9125-.6-2.625.1125l-3.075 3.0375L8.0251 13.5c-.75-.675-1.875-.675-2.625 0l-1.8 1.6125V3.00005c0-.375.3-.6375.6375-.6375ZM19.7626 21.675H4.2376c-.375 0-.675-.3-.675-.675v-3.6375L6.4876 14.7c.1125-.1125.2625-.1125.375 0l4.5375 4.05c.15.15.375.225.5625.225.225 0 .4125-.075.6-.2625l3.6375-3.6c.1125-.1125.2625-.1125.375 0l3.7875 3.1501V21c.0375.375-.2625.675-.6.675Z" fill="#111928"/></svg>