<svg width="24" height="24" viewBox="0 0 24 24" fill="none" xmlns="http://www.w3.org/2000/svg"><g clip-path="url(#clip0_310_9135)"><path d="M19.1627 14.7375c1.125-1.5375 1.6875-3.3375 1.6875-5.21251 0-1.575-.4125-3.15-1.2375-4.5-1.575-2.6625-4.3875-4.312502-7.5-4.350002h-.3c-3.11251.0375-5.8875 1.687502-7.5 4.350002-.7875 1.35-1.2375 2.925-1.2375 4.5 0 1.87501.6 3.71251 1.6875 5.21251 1.5 2.0625 3.7875 3.3375 6.3 3.6v.525c-.6.225-1.08751.7125-1.3125 1.3125h-3.6c-.45 0-.8625.375-.8625.8625 0 .4875.375.8625.8625.8625h3.6c.3375.8625 1.1625 1.4625 2.1375 1.4625.975 0 1.8-.6 2.1375-1.4625h3.6c.45 0 .8625-.375.8625-.8625 0-.4875-.375-.8625-.8625-.8625h-3.6c-.225-.6-.7125-1.0875-1.3125-1.3125v-.525c2.6625-.225 4.9125-1.5375 6.45-3.6Zm-8.925-5.21251c0-.675.0375-1.3875.15-2.0625.525.0375 1.05.0375 1.6125.0375s1.0875-.0375 1.6125-.075c.1125.675.15 1.3875.15 2.0625 0 .97501-.1125 1.95001-.3 2.88751-.975-.075-1.95-.075-2.925 0-.1875-.9375-.3-1.875-.3-2.85001Zm2.7375 4.53751c-.2625.75-.6 1.4625-.975 2.1375-.375-.7125-.7125-1.425-.975-2.1375.6375-.0375 1.3125-.0375 1.95 0Zm-2.2125-8.28751c.3-1.0125.7125-2.025 1.2375-2.9625.525.9375.9375 1.95 1.2375 2.9625-.825.075-1.65.075-2.475 0Zm3 10.68751c.375-.75.675-1.5.9375-2.25.75.1125 1.5375.2625 2.25.45-.8625.9-1.95 1.5-3.1875 1.8Zm4.35-3.225c-.975-.3-1.95-.525-2.9625-.675.225-1.0125.3-2.025.3-3.03751 0-.75-.075-1.5-.1875-2.25 1.0875-.1875 2.175-.45 3.1875-.7875.45.9375.675 1.9875.675 3.0375.0375 1.31251-.3 2.58751-1.0125 3.71251Zm-.525-8.25001c-.8625.2625-1.725.45-2.625.6-.2625-1.05-.675-2.0625-1.1625-3.0375 1.4625.4125 2.8125 1.2375 3.7875 2.4375Zm-7.35-2.4375c-.48751.975-.9 1.9875-1.1625 3.0375-.9-.15-1.7625-.3375-2.625-.6.9375-1.2 2.28749-2.025 3.7875-2.4375Zm-5.4 6.975c0-1.05.225-2.1.675-3.0375 1.05.3375 2.1.6 3.1875.7875-.1125.75-.1875 1.5-.1875 2.25 0 1.05001.1125 2.06251.3 3.03751-1.0125.15-1.9875.375-2.9625.675-.675-1.125-1.0125-2.4-1.0125-3.71251Zm2.175 5.13751c.75-.1875 1.5-.375 2.25-.45.2625.7875.5625 1.5375.9375 2.25-1.2-.3-2.2875-.9-3.1875-1.8Zm4.9875 7.0125c-.3375 0-.6375-.2625-.6375-.6 0-.3375.3-.6375.6375-.6375.3375 0 .6375.2625.6375.6 0 .3375-.3.6375-.6375.6375Z" fill="#111928"/></g><defs><clipPath id="clip0_310_9135"><path fill="#fff" d="M0 0h24v24H0z"/></clipPath></defs></svg>