<svg width="24" height="24" viewBox="0 0 24 24" fill="none" xmlns="http://www.w3.org/2000/svg"><path d="M21.0002 4.46252h-18c-1.275 0-2.362505 1.05-2.362505 2.3625V17.175c0 1.275 1.050005 2.3625 2.362505 2.3625h18c1.275 0 2.3625-1.05 2.3625-2.3625V6.82502c0-1.3125-1.0875-2.3625-2.3625-2.3625Zm.675 12.71248c0 .375-.3.675-.675.675h-18c-.375 0-.675-.3-.675-.675V6.82502c0-.375.3-.675.675-.675h18c.375 0 .675.3.675.675V17.175Z" fill="#111928"/><path d="M15.825 14.5875h-7.65c-.45 0-.8625.375-.8625.8625 0 .4875.375.8625.8625.8625h7.65c.45 0 .8625-.375.8625-.8625 0-.4875-.4125-.8625-.8625-.8625ZM8.8127 9.00007c0-.45-.375-.8625-.8625-.8625h-.6375c-.45 0-.8625.375-.8625.8625 0 .4875.375.8625.8625.8625h.6375c.4875 0 .8625-.375.8625-.8625ZM11.6628 9.86257h.6375c.45 0 .8625-.375.8625-.8625 0-.4875-.375-.8625-.8625-.8625h-.6375c-.45 0-.8625.375-.8625.8625 0 .4875.4125.8625.8625.8625ZM16.6875 8.17505H16.05c-.45 0-.8625.375-.8625.8625 0 .4875.375.8625.8625.8625h.6375c.45 0 .8625-.375.8625-.8625 0-.4875-.4125-.8625-.8625-.8625ZM9.4875 12.75h.6375c.45 0 .8625-.375.8625-.825 0-.45-.375-.8625-.8625-.8625h-.6375c-.45 0-.8625.375-.8625.8625 0 .4875.4125.825.8625.825ZM13.8376 12.75h.6375c.45 0 .8625-.375.8625-.825 0-.45-.375-.8625-.8625-.8625h-.6375c-.45 0-.8625.375-.8625.8625 0 .4875.4125.825.8625.825Z" fill="#111928"/></svg>