<svg width="24" height="24" viewBox="0 0 24 24" fill="none" xmlns="http://www.w3.org/2000/svg"><path d="M22.5002 15.3375h-1.0125V5.96251c0-1.575-1.275-2.8875-2.8875-2.8875h-13.2c-1.575 0-2.8875 1.275-2.8875 2.8875v9.37499H1.5002c-.45 0-.862505.375-.862505.8625v1.6125c0 1.7625 1.425005 3.15 3.150005 3.15h16.35c1.7625 0 3.15-1.425 3.15-3.15V16.2c.075-.4875-.3375-.8625-.7875-.8625Zm-18.3-9.41249c0-.675.525-1.2 1.2-1.2h13.1625c.675 0 1.2.525 1.2 1.2V15.3H4.2002V5.92501ZM21.6752 17.775c0 .825-.675 1.4625-1.4625 1.4625H3.8252c-.825 0-1.4625-.675-1.4625-1.4625v-.75h19.3125v.75Z" fill="#111928"/><path d="M12.7128 5.96252h-1.425c-.45 0-.8625.375-.8625.8625 0 .4875.375.8625.8625.8625h1.425c.45 0 .8625-.375.8625-.8625 0-.4875-.4125-.8625-.8625-.8625Z" fill="#111928"/></svg>