<svg width="24" height="24" viewBox="0 0 24 24" fill="none" xmlns="http://www.w3.org/2000/svg"><path d="M23.3252 19.3875c0-.1125 0-.225-.0375-.3375l-1.7625-4.7625c0-.0375-.0375-.0375-.0375-.075V4.04998c0-1.1625-.9375-2.1375-2.1-2.1375H4.6127c-1.1625 0-2.1.9375-2.1 2.1375V14.2125c0 .0375-.0375.0375-.0375.075L.712701 19.05c-.0375.1125-.075.225-.0375.3375V20.55c0 .8625.712499 1.575 1.574999 1.575h19.5375c.8625 0 1.575-.7125 1.575-1.575l-.0375-1.1625c.0375 0 0 0 0 0ZM4.2002 4.04998c0-.225.1875-.45.4125-.45h14.775c.225 0 .4125.1875.4125.45V13.8h-15.6V4.04998ZM2.3627 20.4v-.9l1.5-4.0125h16.3125l1.5 4.0125v.9375H2.3627V20.4Z" fill="#111928"/><path d="M12.7128 4.94995h-1.425c-.45 0-.8625.375-.8625.8625 0 .4875.375.8625.8625.8625h1.425c.45 0 .8625-.375.8625-.8625 0-.4875-.4125-.8625-.8625-.8625Z" fill="#111928"/></svg>