<svg width="23" height="19" viewBox="0 0 23 19" fill="none" xmlns="http://www.w3.org/2000/svg"><path d="m22.9721 17.4595-1.5173-6.3456c.0759-.11.1138-.2568.1138-.3668V2.31081C21.5686 1.06371 20.5065 0 19.1789 0H3.85424C2.56454 0 1.4645 1.02703 1.4645 2.31081v8.43629c0 .11.03793.2568.07586.3301L.0230723 17.4961c-.0758646.3668.0379323.7336.3034587 1.0271C.592057 18.8166.97138 19 1.38864 19H21.6445c.4172 0 .8345-.1834 1.0621-.5135.2655-.2935.3414-.6969.2655-1.027ZM3.20939 2.31081c0-.36679.30345-.66023.68278-.66023H19.1789c.3793 0 .6828.29344.6828.66023v7.62934H3.20939V2.31081ZM1.84382 17.3494l1.36557-5.7587H19.7858l1.3656 5.7587H1.84382Z" fill="#111928"/></svg>