<svg width="24" height="24" viewBox="0 0 24 24" fill="none" xmlns="http://www.w3.org/2000/svg"><path d="m22.0873 15.8625-3.0375-3.0375c-1.5375-1.5375-3.9375-1.6875-5.6625-.45l-1.8-1.8c.525-.71252.825-1.57502.825-2.51252 0-1.1625-.45-2.2875-1.275-3.1125l-3.0375-3.0375c-1.6875-1.687504-4.4625-1.687504-6.1875 0-.7875.8625-1.237495 1.95-1.237495 3.1125 0 1.1625.449995 2.25 1.274995 3.075l3 3.03752c.8625.8625 1.9875 1.275 3.07501 1.275.82499 0 1.6125-.225 2.32499-.675l1.875 1.875c-.45.675-.675 1.5-.675 2.325 0 1.1625.45 2.25 1.275 3.075l3 3.0375c.8625.8625 1.9875 1.275 3.075 1.275 1.125 0 2.25-.4125 3.075-1.275.825-.825 1.275-1.9125 1.275-3.075.1125-1.1625-.3375-2.25-1.1625-3.1125ZM6.1498 9.93748l-3-3.0375c-.525-.525-.7875-1.2-.7875-1.9125 0-.7125.2625-1.3875.7875-1.9125.525-.525 1.2-.7875 1.9125-.7875.675 0 1.38751.2625 1.9125.7875l3.0375 3c.4875.525.7875 1.2.7875 1.9125 0 .4875-.1125.9-.3375 1.3125l-.93749-.9375c-.33751-.3375-.8625-.3375-1.2 0-.3375.3375-.3375.8625 0 1.2l.8625.86252c-1.05001.525-2.25001.3375-3.03751-.48752Zm14.7 10.91252c-1.05 1.05-2.775 1.05-3.7875 0l-3-3.0375c-.525-.525-.7875-1.2-.7875-1.9125 0-.375.075-.75.225-1.0875l.8625.825c.15.15.375.2625.6.2625.225 0 .45-.075.6-.2625.3375-.3375.3375-.8625 0-1.2l-.9375-.825c.4125-.225.8625-.3375 1.3125-.3375.675 0 1.3875.2625 1.9125.7875l3.0375 3c.4875.525.7875 1.2.7875 1.9125-.0375.7125-.3 1.3875-.825 1.875Z" fill="#111928"/></svg>