<svg width="23" height="21" viewBox="0 0 23 21" fill="none" xmlns="http://www.w3.org/2000/svg"><path d="M8.73718 10.311c-.44805 0-.85876.3686-.85876.8478v5.7499c0 .4423.37338.8477.85876.8477.48539 0 .85877-.3686.85877-.8477v-5.7499c-.03734-.4423-.41071-.8478-.85877-.8478ZM14.7108 10.3111c-.448-.0368-.8587.2949-.8961.7741l-.448 5.0127h-.5974l-.4107-5.0127c-.0374-.4423-.4481-.8109-.8961-.7741-.4481.0369-.8215.4423-.7841.8846l.4853 5.7868c.0374.4423.4108.774.8215.774h2.1656c.448 0 .7841-.3317.8214-.774l.4854-5.7499c.0373-.4792-.2987-.8846-.7468-.9215Z" fill="#111928"/><path d="M21.0211 7.14129h-8.6623v-1.5849c.8961-.33173 1.5681-1.21633 1.5681-2.2115 0-1.29004-1.0827-2.358928-2.3896-2.358928-1.3068 0-2.38957 1.068888-2.38957 2.358928 0 .99517.63474 1.87977 1.56817 2.2115v1.5849h-8.737C.896104 7.14129 0 8.02589 0 9.09478v9.95172C0 20.1154.896104 21 1.9789 21h19.0422C22.1039 21 23 20.1154 23 19.0465V9.09478c0-1.10575-.8961-1.95349-1.9789-1.95349ZM11.5 2.64458c.4107 0 .7094.33173.7094.70031 0 .36858-.336.70031-.7094.70031-.4107 0-.7094-.33173-.7094-.70031 0-.36858.2987-.70031.7094-.70031Zm9.8198 16.36512c0 .1474-.112.2948-.2987.2948H1.9789c-.14935 0-.29871-.1106-.29871-.2948V9.05792c0-.14743.11202-.29486.29871-.29486h19.0422c.1494 0 .2987.11057.2987.29486v9.95178Z" fill="#111928"/><path d="M16.0553 5.51954c.1493.14744.3733.25801.5974.25801.224 0 .448-.07372.5974-.25801.5974-.58973.9334-1.40061.9334-2.24835 0-.84774-.336-1.65862-.9334-2.285214-.3361-.331725-.8588-.331725-1.1948 0-.3361.331724-.3361.847744 0 1.179464.2987.29487.448.66345.448 1.06889 0 .40544-.1493.81088-.448 1.06889-.3361.36858-.3361.8846 0 1.21632ZM18.6314 6.21984c.1494.14743.3734.25801.5974.25801.2241 0 .4481-.07372.5974-.25801 1.6429-1.62176 1.6429-4.31242 0-5.934181-.336-.3317249-.8587-.3317249-1.1948 0-.336.331724-.336.847741 0 1.179461 1.0081.99518 1.0081 2.58008 0 3.57526-.2987.33172-.2987.84774 0 1.17946ZM6.34736 5.74069c.22403 0 .44806-.07372.59741-.25801.33604-.33173.33604-.84774 0-1.17947-.59741-.58973-.59741-1.5849 0-2.17463.33604-.33173.33604-.84774 0-1.179469-.33604-.331725-.85877-.331725-1.19481 0-1.26948 1.253179-1.26948 3.280389 0 4.496709.18669.22115.41072.29487.5974.29487Z" fill="#111928"/><path d="M3.77112 6.47784c.22403 0 .44805-.07372.59741-.25801.33603-.33172.33603-.84774 0-1.17946-.48539-.47916-.74676-1.10575-.74676-1.80606 0-.7003.26137-1.32689.74676-1.80605.33603-.33173.33603-.847742 0-1.179467-.33604-.3317241-.85877-.3317241-1.19481 0-1.68019 1.658627-1.68019 4.349277 0 5.971037.14935.14744.37338.25801.5974.25801ZM6.49675 16.0978H4.59253v-4.939c0-.4423-.37337-.8478-.85876-.8478s-.85877.3686-.85877.8478v5.7867c0 .4423.37338.8478.85877.8478h2.72565c.44805 0 .85876-.3686.85876-.8478 0-.4791-.33604-.8477-.82143-.8477ZM19.7143 11.9698c.448 0 .8588-.3686.8588-.8478 0-.4791-.3734-.8477-.8588-.8477h-2.1656c-.448 0-.8588.3686-.8588.8477v5.7868c0 .4423.3734.8477.8588.8477h2.1656c.448 0 .8588-.3686.8588-.8477 0-.4792-.3734-.8478-.8588-.8478h-1.3068v-1.2163h1.3068c.448 0 .8588-.3686.8588-.8477 0-.4792-.3734-.8478-.8588-.8478h-1.3068v-1.1794h1.3068Z" fill="#111928"/></svg>