<svg width="24" height="24" viewBox="0 0 24 24" fill="none" xmlns="http://www.w3.org/2000/svg"><g clip-path="url(#clip0_310_8738)"><path d="M20.4376 3.56245c-1.8375-1.875-4.275-2.924999-6.8625-2.924999-2.4375 0-4.725.899999-6.45 2.624999l-5.775 5.85c-.937502.93745-.937502 2.47505 0 3.41255l2.2125 2.2124c.9375.9375 2.475.9375 3.4125 0l5.4375-5.39995c.675-.675 1.725-.7875 2.3625-.2625.3375.2625.525.675.5625 1.12505.0375.525-.1875 1.0125-.5625 1.3875L9.3376 17.025c-.9375.9375-.9375 2.4749 0 3.4124l2.2125 2.2126c.45.4499 1.0875.7124 1.6875.7124.6 0 1.2375-.225 1.6875-.7124l5.8125-5.8125c3.5625-3.5625 3.45-9.48755-.3-13.27505ZM5.7751 13.4999c-.2625.2626-.75.2626-1.0125 0l-2.2125-2.2125c-.2625-.2624-.2625-.75 0-1.0124l1.9125-1.91255 3.225 3.22505-1.9125 1.9124Zm7.95 7.95c-.2625.2626-.75.2626-1.0125 0l-2.2125-2.2125c-.2625-.2625-.2625-.75 0-1.0125l1.9125-1.9125 3.225 3.225-1.9125 1.9125Zm5.85-5.8124-2.7 2.7-3.225-3.2251 2.3625-2.3625c.7125-.7125 1.0875-1.6875 1.05-2.6624-.0375-.93755-.4875-1.76255-1.2-2.36255-.6-.4875-1.3125-.7125-2.0625-.7125-.9375 0-1.875.375-2.5875 1.0875L8.9251 10.3875l-3.225-3.22505 2.7-2.7c1.3875-1.35 3.225-2.1375 5.2125-2.1375h.0375c2.1375 0 4.125.8625 5.6625 2.4375 3 3.1125 3.15 7.98755.2625 10.87505Z" fill="#111928"/></g><defs><clipPath id="clip0_310_8738"><path fill="#fff" d="M0 0h24v24H0z"/></clipPath></defs></svg>