<svg width="24" height="24" viewBox="0 0 24 24" fill="none" xmlns="http://www.w3.org/2000/svg"><g clip-path="url(#clip0_310_8889)" fill="#111928"><path d="m22.6501 18.8625-4.3875-4.35c-.45-.45-1.05-.7125-1.6875-.7125-.45 0-.8625.1125-1.2375.3375l-1.95-1.95c.975-1.2375 1.5375-2.77502 1.5375-4.42502 0-1.9125-.75-3.7125-2.1-5.0625S9.6751.599976 7.7626.599976 4.0501 1.34998 2.7001 2.69998s-2.100002 3.15-2.100002 5.0625S1.3501 11.475 2.7001 12.825s3.15 2.1 5.0625 2.1c1.6125 0 3.15-.525 4.425-1.5375l1.95 1.95c-.225.375-.3375.7875-.3375 1.2375 0 .6375.2625 1.2375.7125 1.6875l4.35 4.35c.45.45 1.05.7125 1.6875.7125s1.2375-.2625 1.6875-.7125l.4125-.4125c.45-.45.7125-1.05.7125-1.6875 0-.6-.2625-1.2-.7125-1.65Zm-18.7125-7.2C2.9251 10.65 2.3251 9.26248 2.3251 7.79998s.5625-2.8125 1.6125-3.8625c1.05-1.05 2.4-1.6125 3.8625-1.6125s2.8125.5625 3.8625 1.6125c1.05 1.05 1.6125 2.4 1.6125 3.8625s-.5625 2.81252-1.6125 3.86252c-1.05 1.05-2.4 1.6125-3.8625 1.6125s-2.8125-.6-3.8625-1.6125Zm17.5125 9.375-.4125.4125c-.2625.2625-.7125.2625-1.0125 0l-4.35-4.35c-.2625-.2625-.2625-.7125 0-1.0125l.4125-.4125c.15-.15.3-.1875.4875-.1875s.375.075.4875.1875l4.35 4.35c.15.15.1875.3.1875.4875.075.225 0 .4125-.15.525Z"/><path d="M9.2624 4.76252c-.3375.3375-.3375.8625 0 1.2.9.9.9 2.4 0 3.3-.3375.3375-.3375.86248 0 1.19998.15.15.375.2625.6.2625.225 0 .45-.075.6-.2625.75-.74998 1.1625-1.76248 1.1625-2.84998s-.4125-2.0625-1.1625-2.85c-.3375-.3375-.9-.3375-1.2 0Z"/></g><defs><clipPath id="clip0_310_8889"><path fill="#fff" d="M0 0h24v24H0z"/></clipPath></defs></svg>