<svg width="24" height="24" viewBox="0 0 24 24" fill="none" xmlns="http://www.w3.org/2000/svg"><g clip-path="url(#clip0_310_9177)" fill="#111928"><path d="M15.1499 8.28748c0-1.875-1.5-3.375-3.375-3.375s-3.375 1.5-3.375 3.375c0 1.87502 1.5 3.37502 3.375 3.37502s3.375-1.5 3.375-3.37502Zm-5.0625 0c0-.9375.75-1.6875 1.6875-1.6875s1.6875.75 1.6875 1.6875-.75 1.6875-1.6875 1.6875-1.6875-.75-1.6875-1.6875Z"/><path d="M23.3251 22.0875 21.7876 15.15c-.075-.3375-.3375-.6-.7125-.6375l-4.4625-.6375c1.425-2.025 2.5875-4.16251 2.5875-5.81251 0-3.975-3.3375-7.200002-7.425-7.200002-4.08752 0-7.42502 3.225002-7.42502 7.200002 0 1.65 1.1625 3.78751 2.5875 5.81251l-4.5.6375c-.375.0375-.63751.3375-.7125.7125L.675075 22.1625c-.0375.3.075.6.3.7875.225005.1875.525005.2625.825005.15l4.95-1.725 4.98752 1.6875c.1875.075.375.075.525 0l4.9875-1.6875 4.9875 1.6875c.075.0375.1875.0375.2625.0375.1875 0 .4125-.075.5625-.225.225-.15.3375-.4875.2625-.7875Zm-11.55-19.53751c3.1875 0 5.7375 2.475 5.7375 5.5125 0 2.06251-2.9625 6.00001-5.7375 9.03751-2.77502-3-5.73752-6.975-5.73752-9.03751 0-3.0375 2.54999-5.5125 5.73752-5.5125Zm5.7375 17.13751c-.1875-.075-.375-.075-.525 0l-4.9875 1.6875-4.98752-1.6875c-.1875-.075-.37501-.075-.52501 0l-3.93749 1.35.75-4.9125 4.7625-.7125c.8625 1.0875 1.7625 2.1 2.47502 2.8875.3.3375.75.525 1.2.525.45 0 .9-.1875 1.2-.525.7125-.7875 1.6125-1.8 2.475-2.8875l4.875.7125L21.3751 21l-3.8625-1.3125Z"/></g><defs><clipPath id="clip0_310_9177"><path fill="#fff" d="M0 0h24v24H0z"/></clipPath></defs></svg>