<svg width="24" height="24" viewBox="0 0 24 24" fill="none" xmlns="http://www.w3.org/2000/svg"><path d="M22.5 11.175H11.7375c-.45 0-.8625.375-.8625.8625 0 .45.375.8625.8625.8625H22.5c.45 0 .8625-.375.8625-.8625 0-.4875-.4125-.8625-.8625-.8625ZM22.5002 17.55h-21c-.45 0-.862505.375-.862505.8625 0 .4875.375005.8625.862505.8625h21c.45 0 .8625-.375.8625-.8625 0-.4875-.4125-.8625-.8625-.8625ZM1.5002 6.44998h21c.45 0 .8625-.375.8625-.8625 0-.4875-.375-.8625-.8625-.8625h-21c-.45 0-.862505.375-.862505.8625 0 .4875.412505.8625.862505.8625Z" fill="#111928"/></svg>