<svg width="23" height="23" viewBox="0 0 23 23" fill="none" xmlns="http://www.w3.org/2000/svg"><path d="M16.1247 0c-3.7985 0-6.87532 3.08444-6.87532 6.89238 0 .64736.11396 1.29471.2659 1.90398L.968621 17.3262c-1.291495 1.2947-1.291495 3.4271 0 4.7218C1.61437 22.6954 2.45004 23 3.3237 23c.87366 0 1.70933-.3046 2.35508-.952l8.54662-8.5679c.6078.1904 1.2156.2666 1.8993.2666 3.7985 0 6.8753-3.0844 6.8753-6.8924C23 3.04636 19.8852 0 16.1247 0ZM2.18415 20.8295c-.60777-.6093-.60777-1.6755 0-2.2848l.11395-.1142 2.27911 2.2847-.07597.0762c-.64575.6854-1.70933.6854-2.31709.0381Zm3.5706-1.2947L3.47564 17.25l6.79936-6.7781c.5698.9519 1.3674 1.7135 2.2791 2.2847l-6.79935 6.7782ZM10.9587 6.8543c0-.45695.076-.87582.152-1.2947l6.2675 6.3212c-.4178.1142-.8357.1523-1.2535.1523-2.8489 0-5.166-2.32284-5.166-5.1788Zm8.0908 4.2649-7.1791-7.19701c.9496-1.33279 2.469-2.20861 4.2163-2.20861 2.8489 0 5.166 2.32284 5.166 5.1788.038 1.75166-.8737 3.31292-2.2032 4.22682Z" fill="#111928"/></svg>