<svg width="24" height="24" viewBox="0 0 24 24" fill="none" xmlns="http://www.w3.org/2000/svg"><path d="M17.7374 1.19995c-2.475 0-4.575 1.6125-5.325 3.8625-.825-.4125-1.6875-.6375-2.5875-.75v-1.35c0-.45-.375-.825-.825-.825-.45 0-.825.375-.825.825v1.35h-.075c-3.7125.4125-6.525 3.4125-6.525 6.97495v6.45c-.0375.3-.1125.4501-.15.525L.824897 19.275c-.225.3374-.2625.7875-.0375 1.125l.0375.0374c.225003.3376.562503.5251.975003.5251h6.375v1.0124c0 .45.375.825.825.825.45 0 .825-.375.825-.825v-1.0124h6.4125c.4125 0 .75-.1875.9375-.5251.225-.375.225-.825 0-1.2l-.6375-.975c-.1125-.1875-.15-.3375-.15-.525v-5.5499c.4125.1124.8625.15 1.3125.15 3.075 0 5.5875-2.51255 5.5875-5.58755s-2.4375-5.55-5.55-5.55ZM15.1499 19.1624l.075.075h-12.45l.1125-.1875c.1875-.3.3-.6749.375-1.1625v-6.6c0-2.69995 2.175-4.98745 5.025-5.28745 1.3875-.15 2.7375.15 3.9.825 0 1.95 1.05 3.67505 2.5875 4.64995v6.2625c-.0375.525.1125.975.375 1.425Zm2.5875-8.4749c-2.1375 0-3.9-1.76255-3.9-3.90005 0-2.1375 1.7625-3.9 3.9-3.9s3.9 1.7625 3.9 3.9-1.725 3.90005-3.9 3.90005Z" fill="#111928"/><path d="M18.7874 5.92505h-2.0625c-.45 0-.825.375-.825.825 0 .45.375.825.825.825h2.0625c.45 0 .825-.375.825-.825 0-.45-.375-.825-.825-.825Z" fill="#111928"/></svg>