<svg width="24" height="24" viewBox="0 0 24 24" fill="none" xmlns="http://www.w3.org/2000/svg"><path d="M13.0873 3.5625h-2.175c-.45 0-.8625.375-.8625.8625 0 .4875.375.8625.8625.8625h2.175c.45 0 .8625-.375.8625-.8625 0-.4875-.4125-.8625-.8625-.8625Z" fill="#111928"/><path d="M16.6498.675049h-9.3c-1.275 0-2.3625 1.050001-2.3625 2.362501V21.0375c0 1.275 1.05 2.3625 2.3625 2.3625h9.3375c1.275 0 2.3625-1.05 2.3625-2.3625V3.00005c-.0375-1.275-1.0875-2.325001-2.4-2.325001ZM17.3248 21c0 .375-.3.675-.675.675h-9.3c-.375 0-.675-.3-.675-.675V3.00005c0-.375.3-.675.675-.675h9.3375c.375 0 .675.3.675.675V21h-.0375Z" fill="#111928"/><path d="M12.7874 19.9875c-.0375-.0375-.0375-.075-.075-.1125l-.1125-.1125c-.1875-.1875-.4875-.3-.75-.225-.0375 0-.1125.0375-.15.0375-.0375 0-.1125.0375-.15.075l-.1125.1125-.1125.1125c-.0375.0375-.0375.1125-.075.15-.0375.0375-.0375.1125-.0375.15v.15c0 .225.075.45.2625.6l.1125.1125c.0375.0375.1125.075.15.075.0375 0 .1125.0375.15.0375h.15c.225 0 .45-.075.6-.2625l.1125-.1125c.0375-.0375.0375-.1125.075-.15.0375-.0375.0375-.1125.0375-.15v-.3c-.0375-.075-.075-.1125-.075-.1875Z" fill="#111928"/></svg>