<svg width="24" height="24" viewBox="0 0 24 24" fill="none" xmlns="http://www.w3.org/2000/svg"><path d="M19.0123 3.52499c0-1.575-1.2375-2.850002-2.775-2.850002h-8.475c-1.5375 0-2.775 1.275002-2.775 2.850002V20.475c0 1.575 1.2375 2.85 2.775 2.85h8.4375c1.5375 0 2.775-1.275 2.775-2.85V3.52499h.0375Zm-12.3375 3.975h10.6125V17.9625H6.6748V7.49999Zm1.0875-5.1375h8.4375c.6 0 1.0875.525 1.0875 1.1625v2.2875H6.6748v-2.2875c0-.6375.4875-1.1625 1.0875-1.1625Zm8.475 19.31251h-8.475c-.6 0-1.0875-.525-1.0875-1.1625V19.65h10.6125v.8625c.0375.6-.45 1.1625-1.05 1.1625Z" fill="#111928"/><path d="M11.3625 4.98751h1.35c.45 0 .8625-.375.8625-.8625 0-.4875-.375-.8625-.8625-.8625h-1.35c-.45 0-.8625.375-.8625.8625 0 .4875.4125.8625.8625.8625Z" fill="#111928"/></svg>