<svg width="15" height="23" viewBox="0 0 15 23" fill="none" xmlns="http://www.w3.org/2000/svg"><path d="M7.49942 0C3.34133 0 0 3.76987 0 8.41556v6.16884C0 19.2301 3.37845 23 7.49942 23c1.93054 0 3.74968-.7997 5.12338-2.2467 1.5593-1.5993 2.4132-3.8841 2.376-6.2069V8.41556C14.9988 3.76987 11.6204 0 7.49942 0Zm5.82878 8.41556v.41888H8.39044v-7.0447c2.82156.49503 4.93776 3.27483 4.93776 6.62582Zm-6.60842-6.6639v7.08278H1.63354v-.41888c0-3.42715 2.22755-6.24503 5.08624-6.6639ZM11.4348 19.5728c-1.0767 1.1044-2.48747 1.7136-3.93538 1.7136-3.22995 0-5.82876-3.0083-5.82876-6.702V10.548H13.3653v4.0364c0 1.904-.7054 3.7318-1.9305 4.9884Z" fill="#111928"/></svg>