<svg width="24" height="24" viewBox="0 0 24 24" fill="none" xmlns="http://www.w3.org/2000/svg"><path d="M17.7376 1.19995c-2.475 0-4.575 1.6125-5.325 3.8625-.825-.4125-1.6875-.6375-2.58748-.75v-1.35c0-.45-.375-.825-.825-.825-.45 0-.825.375-.825.825v1.35h-.075c-3.7125.4125-6.525 3.4125-6.525 6.97495v6.45c-.0375.3-.1125.4501-.15.525L.825125 19.275c-.225.3374-.225.7875-.0375 1.125l.0375.0374c.224995.3376.562495.5251.974995.5251h6.375v1.0124c0 .45.375.825.825.825.45 0 .825-.375.825-.825v-1.0124h6.41248c.4125 0 .75-.1875.9375-.5251.225-.375.225-.825 0-1.2l-.6375-.975c-.1125-.1875-.15-.3375-.15-.525v-5.5499c.4125.1124.8625.15 1.3125.15 3.075 0 5.5875-2.51255 5.5875-5.58755s-2.4375-5.55-5.55-5.55ZM15.1501 19.1624l.075.075H2.77512l.1125-.1875c.1875-.3.3-.6749.375-1.1625v-6.6c0-2.69995 2.175-4.98745 5.025-5.32495 1.38751-.15 2.73748.15 3.89998.825 0 1.95 1.05 3.67505 2.5875 4.65005v6.2624c-.0375.5625.1125 1.0125.375 1.4625Zm2.5875-8.4749c-2.1375 0-3.9-1.76255-3.9-3.90005 0-2.1375 1.7625-3.9 3.9-3.9s3.9 1.7625 3.9 3.9-1.725 3.90005-3.9 3.90005Z" fill="#111928"/><path d="M18.6001 4.72505c-.2625-.15-.5625-.15-.825 0l-1.65.9c-.4125.225-.5625.75-.3375 1.1625.225.4125.75.5625 1.1625.3375l.375-.225v1.575c0 .45.375.825.825.825.45 0 .825-.375.825-.825v-3.0375c.0375-.2625-.1125-.5625-.375-.7125Z" fill="#111928"/></svg>