<svg width="24" height="24" viewBox="0 0 24 24" fill="none" xmlns="http://www.w3.org/2000/svg"><path d="M18.0748 11.2876c2.625 0 4.8-2.1375 4.8-4.8 0-2.625-2.1375-4.8-4.8-4.8-1.95 0-3.6375 1.1625-4.3875 2.85-.9375-.525-1.9875-.8625-3.1125-.975V2.1751c0-.45-.375-.825-.825-.825-.45 0-.825.375-.825.825v1.425h-.1125c-3.825.4125-6.7125 3.4875-6.7125 7.1625v6.675c-.0375.3-.1125.45-.15.5625l-.6 1.05c-.225.3375-.2625.7875-.0375 1.1625l.0375.0375c.225.3375.5625.525.975.525h6.6375v1.0875c0 .45.375.825.825.825.45 0 .825-.375.825-.825v-1.0875h6.675c.4125 0 .75-.1875.975-.525.225-.375.225-.825 0-1.2l-.6375-1.0125c-.1125-.1875-.1875-.375-.1875-.5625v-6.2625c.1875.0375.4125.075.6375.075Zm0-7.9125c1.725 0 3.1125 1.3875 3.1125 3.1125 0 1.725-1.3875 3.1125-3.1125 3.1125-1.725 0-3.1125-1.3875-3.1125-3.1125 0-1.725 1.3875-3.1125 3.1125-3.1125Zm-2.325 7.275v6.825c0 .4875.15.975.4125 1.4625l.075.15H3.2623l.15-.225c.1875-.3375.3-.7125.375-1.2375v-6.825c0-2.8125 2.25-5.2125 5.2125-5.5125 1.5375-.1875 3.0375.1875 4.275 1.0125v.1875c0 1.8 1.0125 3.3375 2.475 4.1625Z" fill="#111928"/></svg>