<svg width="24" height="24" viewBox="0 0 24 24" fill="none" xmlns="http://www.w3.org/2000/svg"><path d="M16.9873 4.46245h-1.275v-2.9625c0-.45-.375-.862499-.8625-.862499-.4875 0-.8625.374999-.8625.862499v2.9625H9.9748v-2.9625c0-.45-.375-.862499-.8625-.862499-.4875 0-.8625.374999-.8625.862499v2.9625h-1.275c-.8625 0-1.6125.7125-1.6125 1.6125v4.64995c0 2.7376 2.25 4.9876 4.9875 4.9876h.75v6.7874c0 .45.375.8625.8625.8625.45 0 .8625-.375.8625-.8625v-6.7874h.75c2.7375 0 4.9875-2.25 4.9875-4.9876V6.07495c0-.9-.7125-1.6125-1.575-1.6125Zm-.1125 6.26245c0 1.8376-1.5 3.3001-3.3 3.3001h-3.15c-1.8375 0-3.3-1.5-3.3-3.3001V6.14995h9.75v4.57495Z" fill="#111928"/></svg>