<svg width="21" height="23" viewBox="0 0 21 23" fill="none" xmlns="http://www.w3.org/2000/svg"><path d="M19.036 4.85809V2.01155C19.036.910891 18.1295 0 17.0342 0H3.92806c-1.09533 0-2.0018.910891-2.0018 2.01155v2.84654C.868705 4.89604 0 5.76898 0 6.83168V12.297c0 1.0627.868705 1.9357 1.92626 1.9736v6.7178c0 1.1007.90647 2.0116 2.0018 2.0116H17.0719c1.0954 0 2.0018-.9109 2.0018-2.0116v-6.7178C20.1313 14.2327 21 13.3597 21 12.297V6.83168c-.0378-1.0627-.9065-1.93564-1.964-1.97359ZM3.66367 2.01155c0-.15181.11331-.30363.30216-.30363H17.1097c.1511 0 .3022.11386.3022.30363v2.84654H3.66367V2.01155ZM17.3363 20.9884c0 .1519-.1133.3037-.3021.3037H3.92806c-.15108 0-.30216-.1139-.30216-.3037v-6.7178h13.7104v6.7178Zm1.9263-8.6914c0 .1518-.1133.3037-.3022.3037H2.0018c-.15108 0-.30216-.1139-.30216-.3037V6.83168c0-.15181.11331-.30363.30216-.30363h16.9586c.1511 0 .3022.11386.3022.30363V12.297Z" fill="#111928"/><path d="M7.66704 17.193h5.66546c.4533 0 .8687-.3795.8687-.8729s-.3777-.873-.8687-.873H7.66704c-.45323 0-.8687.3796-.8687.873s.41547.8729.8687.8729ZM17.2986 8.16003h-2.8327c-.4533 0-.8687.37954-.8687.87294 0 .4934.3777.87294.8687.87294h2.8327c.4532 0 .8687-.37954.8687-.87294 0-.4934-.3777-.87294-.8687-.87294ZM7.66704 20.0777h5.66546c.4533 0 .8687-.3796.8687-.873s-.3777-.8729-.8687-.8729H7.66704c-.45323 0-.8687.3795-.8687.8729s.41547.873.8687.873Z" fill="#111928"/></svg>