<svg width="24" height="24" viewBox="0 0 24 24" fill="none" xmlns="http://www.w3.org/2000/svg"><g clip-path="url(#clip0_310_4167)" fill="#111928"><path d="M11.9998.675049C5.73731.675049.674805 5.73755.674805 12c0 6.2626 5.062505 11.3251 11.324995 11.3251 6.2625 0 11.325-5.0625 11.325-11.3251 0-6.26245-5.0625-11.324951-11.325-11.324951Zm0 21.000051c-5.32499 0-9.675-4.35-9.675-9.6751 0-5.32495 4.35001-9.67495 9.675-9.67495 5.325 0 9.675 4.35 9.675 9.67495 0 5.3251-4.35 9.6751-9.675 9.6751Z"/><path d="M11.9997 5.69995c-3.44999 0-6.29999 2.8125-6.29999 6.30005 0 .45.375.825.825.825h5.47499c.45 0 .825-.375.825-.825V6.56245c0-.4875-.375-.8625-.825-.8625Zm-.825 5.47505H7.49971c.3375-1.87505 1.8375-3.33755 3.67499-3.67505V11.175Z"/></g><defs><clipPath id="clip0_310_4167"><path fill="#fff" d="M0 0h24v24H0z"/></clipPath></defs></svg>