<svg width="24" height="24" viewBox="0 0 24 24" fill="none" xmlns="http://www.w3.org/2000/svg"><path d="M14.5303 1.46969c-.1879-.18791-.4612-.26235-.7184-.19569-.2573.06665-.46.26446-.533.51998l-1.7762 6.21654c-2.02133.08562-3.86515.69001-5.31518 1.64495C5.7428 9.24839 5.15041 9.00002 4.5 9.00002 3.11929 9.00002 2 10.1193 2 11.5c0 .894.46921 1.6783 1.17479 2.1203C3.06014 14.0663 3 14.5277 3 15c0 3.866 4.02944 7 9 7 4.9706 0 9-3.134 9-7 0-.4723-.0601-.9337-.1748-1.3797C21.5308 13.1783 22 12.394 22 11.5c0-1.3807-1.1193-2.49998-2.5-2.49998-.6504 0-1.2428.24837-1.6875.65545-1.3162-.86682-2.9569-1.44479-4.7603-1.60812l1.3188-4.6157 1.6798 1.67983c-.0331.12392-.0508.25417-.0508.38854 0 .82842.6716 1.5 1.5 1.5s1.5-.67158 1.5-1.5c0-.82843-.6716-1.5-1.5-1.5-.1344 0-.2646.01766-.3885.0508l-2.5812-2.58113ZM8.5 15c-.82843 0-1.5-.6716-1.5-1.5S7.67157 12 8.5 12s1.5.6716 1.5 1.5S9.32843 15 8.5 15Zm8.5-1.5c0 .8284-.6716 1.5-1.5 1.5s-1.5-.6716-1.5-1.5.6716-1.5 1.5-1.5 1.5.6716 1.5 1.5Zm-8.63059 3.8473c1.20334.6811 4.37469 1.6337 7.26119 0 .3605-.204.8181-.0772 1.0221.2833.204.3605.0772.8181-.2833 1.0221-3.5135 1.9886-7.27548.8282-8.73881 0-.36049-.204-.48732-.6616-.2833-1.0221.20402-.3605.66164-.4873 1.02212-.2833Z" fill="#111928"/></svg>