<svg width="24" height="24" viewBox="0 0 24 24" fill="none" xmlns="http://www.w3.org/2000/svg"><path d="M21.0002 1.38751h-18c-1.275 0-2.362505 1.05-2.362505 2.3625V20.2875c0 1.275 1.050005 2.3625 2.362505 2.3625h18c1.275 0 2.3625-1.05 2.3625-2.3625V3.71251c0-1.275-1.0875-2.325-2.3625-2.325Zm-18 1.6875h18c.375 0 .675.3.675.675v2.325H2.3627v-2.3625c0-.3375.2625-.6375.6375-.6375Zm18 17.84999h-18c-.375 0-.675-.3-.675-.675V7.72501h19.3125V20.25c.0375.375-.2625.675-.6375.675Z" fill="#111928"/><path d="M11.8875 13.05c0-.45-.375-.8625-.8625-.8625H9.41253c.59997-.75 1.49997-1.2 2.54997-1.2 1.0875 0 2.1.4875 2.6625 1.35.2625.375.7875.4875 1.1625.225.375-.2625.4875-.7875.225-1.1625-.9-1.3125-2.4-2.06248-4.05-2.06248-2.21247 0-4.12497 1.46248-4.68747 3.52498-.075.2625 0 .525.15.75.15.225.4125.3375.675.3375h2.96247c.45-.0375.825-.4125.825-.9ZM15.9002 14.4h-2.625c-.45 0-.8625.375-.8625.8625 0 .4875.375.8625.8625.8625h1.35c-.6.8625-1.575 1.425-2.6625 1.425-.8625 0-1.725-.375-2.32501-1.05-.3-.3375-.8625-.375-1.2-.0375-.3375.3-.375.8625-.0375 1.2.9375 1.0125 2.25001 1.575 3.60001 1.575 2.25 0 4.2-1.5375 4.7625-3.7125.075-.2625 0-.525-.15-.7125s-.45-.4125-.7125-.4125Z" fill="#111928"/></svg>