<svg width="24" height="24" viewBox="0 0 24 24" fill="none" xmlns="http://www.w3.org/2000/svg"><path d="M21.3377 5.21251H4.6502l3.07499-3.1125c.33751-.3375.33751-.8625 0-1.200004-.33749-.3375-.8625-.3375-1.2 0L2.0627 5.43751c-.3375.3375-.3375.8625 0 1.2L6.52519 11.175c.15.15.37501.2625.60001.2625.22499 0 .41249-.075.59999-.225.33751-.3375.33751-.8625 0-1.2L4.6877 6.93751h15.825v2.25c0 .45.375.86249.8625.86249.4875 0 .8625-.37499.8625-.86249v-3.1125c-.0375-.4875-.4125-.8625-.9-.8625ZM17.4752 12.825c-.3375-.3375-.8625-.3375-1.2 0-.3375.3375-.3375.8625 0 1.2l3.0375 3.075H3.4877v-2.25c0-.45-.375-.8625-.8625-.8625-.4875 0-.8625.375-.8625.8625v3.1125c0 .45.375.8625.8625.8625h16.6875l-3.075 3.1125c-.3375.3375-.3375.8625 0 1.2.15.15.375.225.6.225.225 0 .45-.075.6-.2625l4.4625-4.5375c.3375-.3375.3375-.8625 0-1.2l-4.425-4.5375Z" fill="#111928"/></svg>