<svg width="24" height="24" viewBox="0 0 24 24" fill="none" xmlns="http://www.w3.org/2000/svg"><g clip-path="url(#clip0_310_8914)" fill="#111928"><path d="m23.0251 7.31248-3.075-3.075-.1125-.1125c-.225-.15-.45-.225-.675-.225l-4.8375.4125c-3.6375-3.0375-8.21246-4.3499978-12.07496-3.3-.6.15-1.0875.6375-1.2375 1.2375-1.0499983 3.825.2625 8.43752 3.3375 12.03752l-.4125 4.7625v.075c0 .225.075.4875.225.675l3.1875 3.225c.225.225.4875.3375.7875.3375.1125 0 .225 0 .3-.0375.375-.1125.675-.45.7875-.825l.45-4.0125c.52496.2625 1.04996.4875 1.57496.675.1875.075.375.1125.5625.1125.4875 0 .9375-.1875 1.275-.525l5.5875-5.5875c.4875-.4875.675-1.2375.45-1.875-.1875-.525-.4125-1.05-.675-1.57502l3.9375-.45h.075c.4125-.075.7125-.375.825-.7875.1125-.45.0375-.8625-.2625-1.1625ZM7.65014 21l-2.025-2.0625.2625-3.0375c.675.6 1.3875 1.1625 2.1375 1.65l-.375 3.45Zm9.82496-9.075-5.55 5.55c-.0375.0375-.075.0375-.1125.0375-1.94996-.675-3.82496-1.875-5.36246-3.4125-3.3-3.3375-4.8-7.80002-3.825-11.40002.0375-.0375.0375-.075.075-.075.75-.1875 1.5-.3 2.2875-.3 3.1125 0 6.48746 1.4625 9.07496 4.0875 1.5375 1.5375 2.7375 3.4125 3.4125 5.36252.0375.075.0375.1125 0 .15Zm.075-3.86252c-.4875-.75-1.05-1.5-1.65-2.175l3.0375-.2625 2.025 2.025-3.4125.4125ZM20.7374 15.0749c-.1125-.075-.525-.2625-.975.1125-.375.3-2.1375 2.0625-2.475 2.4-2.4 2.4-2.4 2.4-2.25 2.925.0375.15.1125.3.225.375 1.2 1.2 3.0375 1.4625 4.425 1.4625 1.05 0 1.8375-.15 1.9125-.1875.3375-.075.6-.3375.675-.675.0375-.1875.825-4.2-1.3125-6.3375-.1125 0-.1875-.0375-.225-.075Zm-.075 5.5875c-.975.1125-2.475.1125-3.6-.45.825-.825 2.2875-2.325 3.1125-3.1125.5625 1.05.5625 2.5875.4875 3.5625Z"/><path d="M9.78779 6.67493c-1.725 0-3.1125 1.3875-3.1125 3.1125 0 1.72497 1.3875 3.11247 3.1125 3.11247 1.72501 0 3.11251-1.3875 3.11251-3.11247 0-1.725-1.3875-3.1125-3.11251-3.1125Zm0 4.57497c-.7875 0-1.425-.6375-1.425-1.42497 0-.7875.6375-1.425 1.425-1.425.78751 0 1.46251.6 1.46251 1.3875 0 .78747-.675 1.46247-1.46251 1.46247Z"/></g><defs><clipPath id="clip0_310_8914"><path fill="#fff" d="M0 0h24v24H0z"/></clipPath></defs></svg>