<svg width="24" height="24" viewBox="0 0 24 24" fill="none" xmlns="http://www.w3.org/2000/svg"><path d="M14.25 15.225 12 17.475l-2.25-2.25c-.3375-.3375-.8625-.3375-1.2 0-.3375.3375-.3375.8625 0 1.2l2.85 2.8501c.15.15.375.2624.6.2624.225 0 .4125-.0749.6-.2624l2.85-2.8501c.3375-.3375.3375-.8625 0-1.2-.3375-.3375-.8625-.3375-1.2 0Z" fill="#111928"/><path d="M15.6749.675049h-7.35c-2.1375 0-3.8625 1.725001-3.8625 3.862501V19.5375c0 2.1375 1.725 3.8625 3.8625 3.8625h7.35c2.1375 0 3.8625-1.725 3.8625-3.8625V4.50005c0-2.1375-1.725-3.825001-3.8625-3.825001ZM17.8499 19.5c0 1.2-.975 2.175-2.175 2.175h-7.35c-1.2 0-2.175-.975-2.175-2.175V4.50005c0-1.2.975-2.175 2.175-2.175h7.35c1.2 0 2.175.975 2.175 2.175V19.5Z" fill="#111928"/><path d="M11.9997 9.82503h.15c.0375 0 .1125-.03751.15-.03751.0375-.0375.1125-.0375.15-.075l.1125-.1125c.15-.15.2625-.375.2625-.6 0-.225-.075-.45-.2625-.6l-.1125-.1125c-.0375-.0375-.1125-.075-.15-.075-.0375 0-.1125-.0375-.15-.0375-.2625-.0375-.5625.0375-.75.225-.15.15-.2625.375-.2625.6 0 .225.075.45.2625.6.15.1125.375.22501.6.22501ZM11.2125 12.9c.0375.0375.0375.1125.075.15.0375.0375.075.075.1125.15l.1125.1125c.0375.0375.1125.075.15.075.0375.0375.1125.0375.15.0375h.15c.225 0 .45-.075.6-.225.0375-.0375.075-.075.1125-.15.0375-.0375.0375-.1125.075-.15.0375-.0375.0375-.1125.0375-.15v-.15c0-.225-.075-.45-.2625-.6-.3-.3-.8625-.3-1.2 0-.15.15-.2625.375-.2625.6v.15c.1125.0375.15.1125.15.15Z" fill="#111928"/></svg>