<svg width="24" height="24" viewBox="0 0 24 24" fill="none" xmlns="http://www.w3.org/2000/svg"><g clip-path="url(#clip0_310_8646)"><path d="M22.5374 18.5625 18.6749 14.7c-.525-.525-1.2375-.825-1.9875-.825-.45 0-.9.1125-1.275.3l-1.95-1.95c2.2125-2.81253 2.025-6.90003-.5625-9.52503-2.775-2.7374971-7.35-2.7374969-10.125.075-2.8124977 2.8125-2.8124977 7.35003 0 10.16253C4.1624 14.2875 5.9999 15 7.8374 15c1.575 0 3.15-.525 4.425-1.5375l1.95 1.95c-.1875.375-.3.825-.3 1.275 0 .75.3 1.4625.825 1.9875l3.8625 3.8625c.5625.5625 1.275.825 1.9875.825.7125 0 1.425-.2625 1.9875-.825 1.05-1.0875 1.05-2.8875-.0375-3.975ZM3.9374 11.7c-2.1375-2.13753-2.1375-5.62503 0-7.76253 1.0875-1.0875 2.475-1.6125 3.8625-1.6125 1.3875 0 2.8125.525 3.9 1.6125 2.1375 2.1375 2.1375 5.625 0 7.76253-2.1375 2.1375-5.625 2.1375-7.7625 0Zm17.4 9.6375c-.4125.4125-1.125.45-1.575 0l-3.8625-3.8625c-.225-.225-.3375-.4875-.3375-.7875s.1125-.5625.3375-.7875c.225-.225.4875-.3375.7875-.3375s.5625.1125.7875.3375l3.8625 3.8625c.4125.45.4125 1.125 0 1.575Z" fill="#111928"/></g><defs><clipPath id="clip0_310_8646"><path fill="#fff" d="M0 0h24v24H0z"/></clipPath></defs></svg>