<svg width="24" height="24" viewBox="0 0 24 24" fill="none" xmlns="http://www.w3.org/2000/svg"><path d="M19.9123 3.44995 12.7873.824951c-.525-.1875-1.0875-.1875-1.6125 0L4.0498 3.44995c-.9.3375-1.5 1.2-1.5 2.175V12.15c0 7.9125 7.65 10.6875 9.15 11.1749.075.0375.15.0375.2625.0375.075 0 .15 0 .2625-.0375 1.5375-.45 9.15-3.1875 9.15-11.1749V5.58745c.0375-.9375-.5625-1.8375-1.4625-2.1375Zm-.1875 8.66245c0 6.4501-5.9625 8.925-7.725 9.4875-1.7625-.6-7.725-3.1125-7.725-9.4875V5.58745c0-.2625.15-.4875.4125-.5625l7.125-2.625c.15-.0375.3-.0375.4125 0l7.125 2.625c.225.075.4125.3375.4125.5625v6.52495h-.0375Z" fill="#111928"/><path d="M11.9998 6.03735c-3.26249 0-5.8875 2.625-5.8875 5.88755 0 3.2625 2.62501 5.8875 5.8875 5.8875 3.2625 0 5.8875-2.625 5.8875-5.8875 0-3.26255-2.625-5.88755-5.8875-5.88755Zm0 10.08755c-2.32499 0-4.2-1.875-4.2-4.2 0-2.32505 1.87501-4.20005 4.2-4.20005 2.325 0 4.2 1.875 4.2 4.20005 0 2.325-1.875 4.2-4.2 4.2Z" fill="#111928"/><path d="M12.5625 12.1125v-1.425c0-.45-.375-.82495-.8625-.82495-.4875 0-.825.37495-.825.82495V12.45c0 .225.075.45.2625.6l1.05 1.05c.15.15.375.2625.6.2625.225 0 .45-.075.6-.2625.3375-.3375.3375-.8625 0-1.2l-.825-.7875Z" fill="#111928"/></svg>