<svg width="24" height="24" viewBox="0 0 24 24" fill="none" xmlns="http://www.w3.org/2000/svg"><path d="M22.35 11.1375c-.15-.2625-.375-.45-.6375-.6L4.42496.862523c-.3-.15-.6375-.225-.975-.1875-.3375.0375-.6375.15-.9.374997-.2625.225-.45.525-.525.825-.1125.3375-.075.675.0375 1.0125L5.28746 12l-3.225 9.1125c-.1125.3375-.1125.675-.0375.975.075.3375.2625.6.525.825.2625.225.5625.3375.9.375h.15c.2625 0 .5625-.075.825-.225l17.28754-9.675c.2625-.15.4875-.3375.6375-.6.15-.2625.225-.5625.225-.825 0-.2625-.075-.5625-.225-.825ZM3.67496 2.36252 19.35 11.1375H6.78746l-3.1125-8.77498Zm0 19.27498 3.15-8.775H19.3875l-15.71254 8.775Z" fill="#111928"/></svg>