<svg width="23" height="23" viewBox="0 0 23 23" fill="none" xmlns="http://www.w3.org/2000/svg"><path d="M6.8625 2.88751c-.45 0-.8625.375-.8625.8625v.0375c0 .45.375.8625.8625.8625.4875 0 .8625-.375.8625-.8625v-.0375c0-.4875-.375-.8625-.8625-.8625ZM16.4998 2.88751h-1.8375c-.45 0-.8625.375-.8625.8625 0 .4875.375.8625.8625.8625h1.8375c.45 0 .8625-.375.8625-.8625 0-.4875-.375-.8625-.8625-.8625Z" fill="#111928"/><path d="M20.7375 16.3125h-.15V13.35c0-1.35-1.125-2.475-2.475-2.475H12.225V7.5375h5.5875c1.275 0 2.3625-1.05 2.3625-2.3625V2.3625C20.175 1.0875 19.125 0 17.8125 0h-12.9C3.6375 0 2.55 1.05 2.55 2.3625V5.175c0 1.275 1.05 2.3625 2.3625 2.3625H10.5v3.3375H4.6125c-1.35 0-2.475 1.125-2.475 2.475v2.9625h-.15C.9 16.3125 0 17.2125 0 18.3v1.9875c0 1.0875.9 1.9875 1.9875 1.9875H3.975c1.0875 0 1.9875-.9 1.9875-1.9875v-2.025c0-1.0875-.9-1.9875-1.9875-1.9875h-.15v-2.9625c0-.45.3375-.7875.7875-.7875H10.5v3.75h-.15c-1.0875 0-1.9875.9-1.9875 1.9875V20.25c0 1.0875.9 1.9875 1.9875 1.9875h1.9875c1.0875 0 1.9875-.9 1.9875-1.9875v-1.9875c0-1.0875-.9-1.9875-1.9875-1.9875h-.15v-3.75h5.925c.45 0 .7875.3375.7875.7875v2.9625h-.15c-1.0875 0-1.9875.9-1.9875 1.9875V20.25c0 1.0875.9 1.9875 1.9875 1.9875h1.9875c1.0875 0 1.9875-.9 1.9875-1.9875v-1.9875c0-1.0875-.9-1.95-1.9875-1.95ZM4.275 5.175V2.3625c0-.375.3-.675.675-.675h12.9c.375 0 .675.3.675.675V5.175c0 .375-.3.675-.675.675H4.9125c-.3375 0-.6375-.3-.6375-.675Zm0 13.0875V20.25c0 .15-.1125.3-.3.3H1.9875c-.15 0-.3-.1125-.3-.3v-1.9875c0-.15.1125-.3.3-.3H3.975c.1875.0375.3.15.3.3Zm8.3625 0V20.25c0 .15-.1125.3-.3.3H10.35c-.15 0-.3-.1125-.3-.3v-1.9875c0-.15.1125-.3.3-.3h1.9875c.1875.0375.3.15.3.3Zm8.4 2.025c0 .15-.1125.3-.3.3H18.75c-.15 0-.3-.1125-.3-.3v-2.025c0-.15.1125-.3.3-.3h1.9875c.15 0 .3.1125.3.3v2.025Z" fill="#111928"/></svg>