<svg width="24" height="24" viewBox="0 0 24 24" fill="none" xmlns="http://www.w3.org/2000/svg"><path d="M20.85 15.375h-2.3625l-.2625-.675c-.225-.6-.825-.975-1.4625-.975H14.325c-.8625 0-1.575.7125-1.575 1.575v5.2125c0 .8625.7125 1.575 1.575 1.575h6.5625c.8625 0 1.575-.7125 1.575-1.575V16.95c-.0375-.8625-.75-1.575-1.6125-1.575Zm-.1125 4.9875h-6.3v-4.95h2.25l.2625.675c.225.6.825.975 1.4625.975h2.325v3.3Z" fill="#111928"/><path d="M23.3627 4.27498c0-1.275-1.05-2.3625-2.3625-2.3625h-18c-1.275 0-2.362505 1.05-2.362505 2.3625v4.65c0 .5625.1875 1.08752.525005 1.50002-.337505.4125-.525005.9-.525005 1.4625V16.65c0 1.275 1.012505 2.2875 2.287505 2.2875h7.6125c.45 0 .8625-.375.8625-.8625 0-.4875-.375-.8625-.8625-.8625h-7.575c-.3375 0-.6-.2625-.6-.6v-4.725c0-.3375.2625-.6.6-.6H21.0377c.3375 0 .6.2625.6.6v2.25c0 .45.375.8625.8625.8625.4875 0 .8625-.375.8625-.8625v-2.25c0-.5625-.1875-1.05-.525-1.4625.3375-.4125.525-.93752.525-1.50002v-4.65Zm-20.3625 5.325c-.375 0-.675-.3-.675-.675v-4.65c0-.375.3-.675.675-.675h18c.375 0 .675.3.675.675v4.65c0 .375-.3.675-.675.675h-18Z" fill="#111928"/><path d="M6.03779 5.69995c-.45 0-.8625.375-.8625.8625v.075c0 .45.375.8625.8625.8625.4875 0 .8625-.375.8625-.8625v-.075c0-.4875-.375-.8625-.8625-.8625ZM18.7878 5.73749h-2.4375c-.45 0-.8625.375-.8625.8625 0 .4875.375.8625.8625.8625h2.4375c.45 0 .8625-.375.8625-.8625 0-.4875-.375-.8625-.8625-.8625ZM5.21289 14.175v.075c0 .45.375.8625.8625.8625.4875 0 .8625-.375.8625-.8625v-.075c0-.45-.375-.8625-.8625-.8625-.4875 0-.8625.4125-.8625.8625Z" fill="#111928"/></svg>