<svg width="24" height="24" viewBox="0 0 24 24" fill="none" xmlns="http://www.w3.org/2000/svg"><g clip-path="url(#clip0_310_9323)" fill="#111928"><path d="M18.7876 14.8125c-2.175 0-3.9375 1.7625-3.9375 3.9375s1.7625 3.9375 3.9375 3.9375 3.975-1.7625 3.975-3.9375-1.8-3.9375-3.975-3.9375Zm0 6.1875c-1.2375 0-2.25-1.0125-2.25-2.25s1.0125-2.25 2.25-2.25 2.25 1.0125 2.25 2.25-.975 2.25-2.25 2.25Z"/><path d="M19.5379 17.9625h-1.275c-.45 0-.8625.375-.8625.8625 0 .4875.375.8625.8625.8625h1.275c.45 0 .8625-.375.8625-.8625 0-.4875-.4125-.8625-.8625-.8625ZM23.3627 3.63752c0-1.275-1.05-2.3625-2.3625-2.3625h-18c-1.275 0-2.362505 1.05-2.362505 2.3625v4.65c0 .5625.1875 1.0875.525005 1.50001C.825195 10.2.637695 10.6875.637695 11.25v4.7625c0 1.275 1.012505 2.2875 2.287505 2.2875h10.125c.45 0 .8625-.375.8625-.8625 0-.4875-.375-.8625-.8625-.8625H2.9252c-.3375 0-.6-.2625-.6-.6V11.25c0-.3375.2625-.6.6-.6h18.1125c.3375 0 .6.2625.6.6v3.3c0 .45.375.8625.8625.8625.4875 0 .8625-.375.8625-.8625v-3.3c0-.5625-.1875-1.05-.525-1.46247.3375-.41251.525-.93751.525-1.50001v-4.65Zm-20.3625 5.325c-.375 0-.675-.3-.675-.675v-4.65c.0375-.3375.3-.6375.675-.6375h18c.375 0 .675.3.675.675v4.65c0 .375-.3.675-.675.675h-18v-.0375Z"/><path d="M6.03779 5.0625c-.45 0-.8625.375-.8625.8625V6c0 .45.375.8625.8625.8625.4875 0 .8625-.375.8625-.8625v-.075c0-.4875-.375-.8625-.8625-.8625ZM18.7878 5.10004h-2.4375c-.45 0-.8625.375-.8625.8625 0 .4875.375.8625.8625.8625h2.4375c.45 0 .8625-.375.8625-.8625 0-.4875-.375-.8625-.8625-.8625ZM5.21289 13.5375v.075c0 .45.375.8625.8625.8625.4875 0 .8625-.375.8625-.8625v-.075c0-.45-.375-.8625-.8625-.8625-.4875 0-.8625.4125-.8625.8625Z"/></g><defs><clipPath id="clip0_310_9323"><path fill="#fff" d="M0 0h24v24H0z"/></clipPath></defs></svg>