<svg width="24" height="24" viewBox="0 0 24 24" fill="none" xmlns="http://www.w3.org/2000/svg"><path d="M22.4252 3.00001c0-1.275-1.05-2.362498-2.3625-2.362498H3.9002c-1.275.0375-2.325 1.087498-2.325 2.362498v4.0125c0 .6375.2625 1.2375.675 1.65-.4125.4875-.675 1.125-.675 1.83749v3.6c0 .6375.2625 1.2.6375 1.6125-.4125.4875-.6375 1.125-.6375 1.8v3.6c0 1.275 1.0125 2.2875 2.2875 2.2875h16.3125c1.275 0 2.2875-1.0125 2.2875-2.2875v-4.125c0-.5625-.1875-1.05-.525-1.425.3375-.4125.525-.9.525-1.425v-4.125c0-.56249-.1875-1.04999-.525-1.46249.3375-.4125.525-.9375.525-1.5v-4.05h-.0375ZM20.7377 14.0625c0 .3-.225.5625-.525.6H3.8627c-.3375 0-.6-.2625-.6-.6v-3.6c0-.63749.4875-1.12499 1.125-1.12499h15.7875c.3375 0 .6.2625.6.6v4.12499h-.0375ZM3.2627 3.00001c0-.375.3-.675.675-.675h16.2c.375 0 .675.3.675.675v4.0125c0 .375-.3.675-.675.675H3.9002c-.375 0-.675-.3-.675-.675v-4.0125h.0375Zm17.475 18.03749c0 .3375-.2625.6-.6.6H3.8627c-.3375 0-.6-.2625-.6-.6v-3.6c0-.5625.45-1.05.975-1.125h15.975c.3.0375.525.3.525.6v4.125Z" fill="#111928"/><path d="M6.5627 5.81251c.45 0 .8625-.375.8625-.8625v-.075c0-.45-.375-.8625-.8625-.8625-.4875 0-.8625.375-.8625.8625v.075c.0375.4875.4125.8625.8625.8625ZM15.9753 5.81252h2.25c.45 0 .8625-.375.8625-.8625 0-.4875-.375-.8625-.8625-.8625h-2.25c-.45 0-.8625.375-.8625.8625 0 .4875.4125.8625.8625.8625ZM6.5627 11.1c-.45 0-.8625.375-.8625.8625V12c0 .45.375.825.8625.825.4875 0 .8625-.375.8625-.825v-.075c0-.45-.4125-.825-.8625-.825ZM18.2253 11.325h-2.25c-.45 0-.8625.375-.8625.8625 0 .45.375.8625.8625.8625h2.25c.45 0 .8625-.375.8625-.8625-.0375-.4875-.4125-.8625-.8625-.8625ZM6.5627 18.075c-.45 0-.8625.375-.8625.8625v.075c0 .45.375.8625.8625.8625.4875 0 .8625-.375.8625-.8625v-.075c0-.4875-.4125-.8625-.8625-.8625ZM18.2253 18.3375h-2.25c-.45 0-.8625.375-.8625.8625 0 .4875.375.8625.8625.8625h2.25c.45 0 .8625-.375.8625-.8625 0-.4875-.4125-.8625-.8625-.8625Z" fill="#111928"/></svg>