<svg width="24" height="24" viewBox="0 0 24 24" fill="none" xmlns="http://www.w3.org/2000/svg"><path d="M21.9999 14.3529c0 3.1188-2.5584 5.6471-5.7143 5.6471h-3.8095V4c2.9397 0 5.3609 2.19371 5.6789 5.01498 2.2379.76526 3.8449 2.86612 3.8449 5.33792ZM10.75 5c0-.41421-.3358-.75-.75-.75-.41421 0-.75.33579-.75.75v14c0 .4142.33579.75.75.75.4142 0 .75-.3358.75-.75V5ZM7 8.25c.41421 0 .75.33579.75.75v10c0 .4142-.33579.75-.75.75s-.75-.3358-.75-.75V9c0-.41421.33579-.75.75-.75ZM4.75 12c0-.4142-.33579-.75-.75-.75s-.75.3358-.75.75v7c0 .4142.33579.75.75.75s.75-.3358.75-.75v-7Z" fill="#111928"/></svg>