<svg width="24" height="24" viewBox="0 0 24 24" fill="none" xmlns="http://www.w3.org/2000/svg"><path d="m11.7751 3.375.225-.15.225.15.1875-.3375.8625-.45-.525-.975c-.15-.3-.45-.4875-.75-.4875s-.6.1875-.75.45l-.525.975.8625.45.1875.375ZM14.0765 4.13892l-1.5096.75415 1.1563 2.31477 1.5097-.75414-1.1564-2.31478ZM14.6252 8.96245c.1125.2625.375.4125.6375.45l1.125.15.225-1.6875-.675-.075-.3-.6-1.5.7875.4875.975ZM18.3676 8.14557l-.2358 1.67096 2.6364.37197.2358-1.67098-2.6364-.37195ZM23.6628 9.4125c-.1125-.3-.375-.525-.675-.6l-1.125-.1875-.1125.9375-.2625.225.1875.1875-.0375.3.375.075.6375.675.825-.75c.225-.225.3-.5625.1875-.8625ZM20.2254 11.0002l-1.8826 1.7751 1.1576 1.2278 1.8827-1.775-1.1577-1.2279ZM18.3377 15.075l.4875-.4875-1.1625-1.2-.7875.7875c-.1875.1875-.3.4875-.2625.75l.1875 1.0875 1.65-.2625-.1125-.675ZM18.7715 17.4179l-1.6602.3022.4634 2.5456 1.6602-.3023-.4634-2.5455ZM19.3501 20.775l-.9.15-.375-.1875-.15.3-.2625.0375.075.3-.45.8625 1.0125.525c.1125.075.2625.075.375.075.1875 0 .375-.075.4875-.15.2625-.1875.375-.525.3375-.825l-.15-1.0875ZM14.1897 18.754l-.7678 1.5027 2.3375 1.1944.7679-1.5027-2.3376-1.1944ZM11.6253 17.85l-1.0125.525.7875 1.5.6-.3375.6375.3375.75-1.5-1.0125-.525c-.225-.1125-.525-.1125-.75 0ZM9.03737 19.1557l-2.34255 1.1844.7614 1.5059 2.34255-1.1844-.7614-1.5059ZM6.3 21.075l-.2625-.0375-.15-.2625-.375.1875-.9-.15L4.425 21.9c-.0375.3.075.6375.3375.825.15.1125.3375.15.4875.15.15 0 .2625-.0375.375-.1125l1.0125-.525-.45-.825.1125-.3375ZM5.3907 16.5762l-.43172 2.5133 1.6632.2857.43172-2.5133-1.6632-.2857ZM7.38779 14.925c.0375-.2625-.0375-.5625-.225-.75l-.825-.7875-1.1625 1.2.4875.4875-.1125.6375 1.65.3.1875-1.0875ZM3.18057 10.3939l-1.15762 1.2278 1.88266 1.775 1.15763-1.2278-1.88267-1.775ZM2.4001 10.3125l-.0375-.3.1875-.1875-.2625-.225-.15-.975-1.162502.1875c-.3375.0375-.6.2625-.675.6-.075.3375 0 .6375.225.8625l.862502.75.6-.675.4125-.0375ZM6.50305 7.99765l-2.59875.37039.2381 1.67066 2.59875-.37042-.2381-1.67063ZM8.1002 7.79995l-.7125.075.22499 1.6875 1.1625-.15c.2625-.0375.52501-.1875.63751-.45l.525-.975-1.5-.7875-.3375.6ZM10.3518 3.35669 9.17529 5.66138l1.50301.7673L11.8549 4.124l-1.5031-.76731Z" fill="#111928"/></svg>