<svg width="24" height="24" viewBox="0 0 24 24" fill="none" xmlns="http://www.w3.org/2000/svg"><path d="M22.9659 13.6246 19.3475 2.51077c-.2216-.66461-.8123-1.07077-1.477-1.07077H6.12901c-.66462 0-1.29231.44308-1.47692 1.07077L1.03362 13.6246c-.221534.6646 0 1.3662.55385 1.7723l9.48923 6.8677c.2585.1846.5908.2954.9231.2954.3323 0 .6646-.1108.9231-.2954l9.4523-6.8677c.5538-.4061.8123-1.1077.5907-1.7723Zm-10.9661 7.2739-9.37848-6.7939L6.20286 3.10154H17.7598l3.5815 11.00306-9.3415 6.7939Z" fill="#111928"/><path d="M12.849 9.6369V7.75382h2.2523c.4431 0 .8493-.36923.8493-.84923 0-.48-.3693-.84923-.8493-.84923H8.89825c-.44307 0-.84923.36923-.84923.84923 0 .48.36923.84923.84923.84923h2.25235V9.6369c-2.51081.11077-5.09542.7754-5.09542 2.3262 0 1.5507 2.58461 2.2153 5.09542 2.3261v2.6215c0 .4431.3692.8493.8492.8493.4431 0 .8492-.3693.8492-.8493v-2.6215c2.5108-.1108 5.0954-.7754 5.0954-2.3261 0-1.5508-2.6215-2.21543-5.0954-2.3262Zm-4.91075 2.3262c.48-.2585 1.58769-.5908 3.24925-.6647v1.3293c-1.66156-.1108-2.76925-.4062-3.24925-.6646Zm4.91075.6646v-1.3293c1.6616.0739 2.7693.4062 3.2493.6647-.517.2584-1.6247.5538-3.2493.6646Z" fill="#111928"/></svg>