<svg width="24" height="24" viewBox="0 0 24 24" fill="none" xmlns="http://www.w3.org/2000/svg"><g clip-path="url(#clip0_310_4204)" fill="#111928"><path d="M14.1.712529c-.75-.15-1.5375.0375-2.1.525001-.6.4875-.9375 1.2-.9375 1.95v7.87497H3.18753c-.75 0-1.4625.3375-1.95.9375-.487501.6-.675001 1.35-.525001 2.1C1.76253 19.5375 6.48753 23.325 11.925 23.325c.4125 0 .8625-.0375 1.275-.075 5.25-.5625 9.4875-4.8 10.0875-10.05C23.9625 7.23753 20.025 1.83753 14.1.712529ZM21.6 13.05c-.4875 4.4625-4.125 8.0625-8.5875 8.55-5.09997.5625-9.67497-2.8125-10.64997-7.8-.0375-.2625 0-.525.1875-.7125.075-.15.3-.3375.6375-.3375H11.925c.45 0 .825-.375.825-.8625V3.18753c0-.3375.1875-.5625.3-.6375.1875-.15.45-.225.7125-.1875 5.0625.975 8.4 5.5875 7.8375 10.68747Z"/><path d="M11.9251 16.3125c-.45 0-.825.375-.825.825v1.8c0 .45.375.825.825.825.45 0 .825-.375.825-.825v-1.8c0-.45-.375-.825-.825-.825ZM7.575 15 6.3 16.275c-.3375.3375-.3375.8625 0 1.2.15.15.375.2625.6.2625.225 0 .45-.075.6-.2625L8.775 16.2c.3375-.3375.3375-.8625 0-1.2-.3375-.3375-.8625-.3375-1.2 0ZM15.6749 8.96255c.225 0 .45-.075.6-.2625l1.275-1.275c.3375-.3375.3375-.8625 0-1.2-.3375-.3375-.8625-.3375-1.2 0l-1.275 1.275c-.3375.3375-.3375.8625 0 1.2.15.1875.375.2625.6.2625ZM16.3877 11.8501c0 .45.375.825.825.825h1.8c.45 0 .825-.375.825-.825 0-.45-.375-.825-.825-.825h-1.8c-.45 0-.825.375-.825.825ZM7.575 8.70005c.15.15.375.2625.6.2625.225 0 .45-.075.6-.2625.3375-.3375.3375-.8625 0-1.2L7.5 6.22505c-.3375-.3375-.8625-.3375-1.2 0-.3375.3375-.3375.8625 0 1.2l1.275 1.275ZM16.2749 15c-.3375-.3375-.8625-.3375-1.2 0-.3375.3375-.3375.8625 0 1.2l1.275 1.275c.15.15.375.2625.6.2625.225 0 .45-.075.6-.2625.3375-.3375.3375-.8625 0-1.2L16.2749 15Z"/></g><defs><clipPath id="clip0_310_4204"><path fill="#fff" d="M0 0h24v24H0z"/></clipPath></defs></svg>