<svg width="24" height="24" viewBox="0 0 24 24" fill="none" xmlns="http://www.w3.org/2000/svg"><path d="M11.9998 10.95c2.85 0 5.1375-2.32495 5.1375-5.13745 0-2.85-2.325-5.137501-5.1375-5.137501S6.8623 2.96255 6.8623 5.81255c0 2.85 2.28751 5.13745 5.1375 5.13745Zm0-8.62495c1.9125 0 3.45 1.5375 3.45 3.45s-1.5375 3.45-3.45 3.45-3.45-1.5375-3.45-3.45c0-1.875 1.5375-3.45 3.45-3.45Z" fill="#111928"/><path d="M12.0748 7.7625c.15.15.375.2625.6.2625.225 0 .45-.075.6-.2625.3375-.3375.3375-.8625 0-1.2l-.6375-.6375V4.7625c0-.45-.375-.825-.825-.825-.45 0-.825.375-.825.825v1.5c0 .225.075.45.2625.6l.825.9Z" fill="#111928"/><path d="M20.3624 3.7876h-.8625c-.45 0-.825.375-.825.825 0 .45.375.825.825.825h.8625c.375 0 .675.3.675.675v10.7625c0 .375-.3.675-.675.675H3.6374c-.375 0-.675-.3-.675-.675V6.1501c0-.375.3-.675.675-.675h.9c.45 0 .825-.375.825-.825 0-.45-.375-.825-.825-.825h-.9c-1.3125 0-2.3625 1.05-2.3625 2.3625v10.6875c0 1.3125 1.05 2.3625 2.3625 2.3625h7.575v2.4h-1.725c-.45 0-.825.375-.825.825 0 .45.375.825.825.825h5.0625c.45 0 .825-.375.825-.825 0-.45-.375-.825-.825-.825h-1.65v-2.4h7.4625c1.3125 0 2.3625-1.05 2.3625-2.3625V6.1501c0-1.3125-1.05-2.3625-2.3625-2.3625Z" fill="#111928"/></svg>