<svg width="24" height="24" viewBox="0 0 24 24" fill="none" xmlns="http://www.w3.org/2000/svg"><path d="m18.4125 5.81255 1.5-1.725c.3-.3375.2625-.9-.075-1.2-.4125-.3-.9375-.2625-1.2375.1125l-1.575 1.875c-1.2375-.7125-2.6625-1.2-4.1625-1.3125v-1.2375h2.4c.45 0 .825-.375.825-.825 0-.45-.375-.825001-.825-.825001H8.775c-.45 0-.825.375001-.825.825001s.375.825.825.825h2.4v1.2c-5.1.4125-9.1125 4.6875-9.1125 9.89995 0 5.475 4.4625 9.9375 9.9375 9.9375s9.9375-4.4625 9.9375-9.9375c0-3.0375-1.3875-5.77495-3.525-7.61245ZM12 21.675c-4.5375 0-8.25-3.7125-8.25-8.25 0-4.53745 3.7125-8.24995 8.25-8.24995s8.25 3.7125 8.25 8.24995c0 4.5375-3.7125 8.25-8.25 8.25Z" fill="#111928"/><path d="M12.8248 13.2751v-4.35c0-.45-.375-.825-.825-.825-.45 0-.825.375-.825.825v4.6875c0 .225.075.45.2625.6l2.775 2.775c.15.15.375.2625.6.2625.225 0 .45-.075.6-.2625.3375-.3375.3375-.8625 0-1.2l-2.5875-2.5125Z" fill="#111928"/></svg>