<svg width="24" height="24" viewBox="0 0 24 24" fill="none" xmlns="http://www.w3.org/2000/svg"><path d="M8.17461 4.80015h1.35c.45 0 .82499-.375.82499-.825 0-.45-.37499-.825-.82499-.825h-1.35c-.45 0-.825.375-.825.825 0 .45.3375.825.825.825Z" fill="#111928"/><path d="M16.2373 6.07505c-.15 0-.3 0-.45.0375v-2.775c0-1.575-1.2375-2.850001-2.775-2.850001H4.5748c-1.5375 0-2.775 1.275001-2.775 2.850001V20.2875c0 1.5751 1.2375 2.8501 2.775 2.8501h8.4375c1.5375 0 2.775-1.275 2.775-2.8501V18c.15 0 .3.0375.45.0375 3.3 0 5.9625-2.6624 5.9625-5.9624 0-3.30005-2.6625-6.00005-5.9625-6.00005Zm-11.6625-3.9h8.4375c.6 0 1.0875.525 1.0875 1.1625v3.15c-2.25.8625-3.8625 3.0375-3.8625 5.58755 0 2.55 1.6125 4.725 3.8625 5.5874v.1126H3.4873V3.33755c0-.6375.4875-1.1625 1.0875-1.1625Zm8.4375 19.27505H4.5748c-.6 0-1.0875-.525-1.0875-1.1626v-.8624h10.6125v.8624c0 .6376-.4875 1.1626-1.0875 1.1626Zm3.225-5.1001c-2.3625 0-4.275-1.9124-4.275-4.2749 0-2.36255 1.9125-4.31255 4.275-4.31255 2.3625 0 4.275 1.9125 4.275 4.27495 0 2.3626-1.9125 4.3125-4.275 4.3125Z" fill="#111928"/><path d="M16.7999 12.225v-1.4625c0-.45-.375-.825-.825-.825-.45 0-.825.375-.825.825v1.8c0 .225.075.45.2625.6l1.0875 1.0875c.15.15.375.2625.6.2625.225 0 .45-.075.6-.2625.3375-.3375.3375-.8625 0-1.2l-.9-.825Z" fill="#111928"/></svg>