<svg width="24" height="24" viewBox="0 0 24 24" fill="none" xmlns="http://www.w3.org/2000/svg"><path d="M21.0748 2.73755h-18.15c-1.2375 0-2.249995 1.0125-2.249995 2.25V15.4501c0 1.2375 1.012495 2.25 2.249995 2.25h5.40001l2.99999 3.3c.15.1875.375.2625.6375.2625.225 0 .45-.1125.6375-.2625l3.075-3.3376h5.4375c1.2375 0 2.25-1.0125 2.25-2.25V4.98755c-.0375-1.2375-1.05-2.25-2.2875-2.25Zm.6 12.67495c0 .3-.2625.5625-.5625.5625h-5.85c-.225 0-.45.1126-.6375.2625l-2.7 2.925-2.625-2.8874c-.14999-.1875-.375-.2625-.6375-.2625H2.9248c-.3 0-.5625-.2625-.5625-.5625V4.98755c0-.3.2625-.5625.5625-.5625h18.15c.3 0 .5625.2625.5625.5625V15.4125h.0375Z" fill="#111928"/><path d="M11.9996 5.69995c-2.66249 0-4.83749 2.175-4.83749 4.83755 0 2.6625 2.175 4.8375 4.83749 4.8375 2.6625 0 4.8375-2.175 4.8375-4.8375 0-2.66255-2.175-4.83755-4.8375-4.83755Zm0 8.02495c-1.7625 0-3.14999-1.4249-3.14999-3.1499 0-1.72505 1.42499-3.15005 3.14999-3.15005 1.7625 0 3.15 1.425 3.15 3.15005 0 1.725-1.3875 3.1499-3.15 3.1499Z" fill="#111928"/><path d="M12.6373 10.6125V9.56255c0-.45-.375-.825-.825-.825-.45 0-.825.375-.825.825v1.42495c0 .225.075.45.2625.6l.825.825c.15.15.375.2625.6.2625.225 0 .45-.075.6-.2625.3375-.3375.3375-.8625 0-1.2l-.6375-.6Z" fill="#111928"/></svg>