<svg width="24" height="24" viewBox="0 0 24 24" fill="none" xmlns="http://www.w3.org/2000/svg"><g clip-path="url(#clip0_310_4197)" fill="#111928"><path d="M22.2748 16.875c-.4875-1.575-2.0625-2.475-3.5625-2.025-1.2375.375-2.925.8625-4.2375 1.2375.075-.45.0375-.7875-.075-1.0875-.375-.9-1.35-1.275-2.175-1.275H8.51231c-.3 0-.60001-.15-.90001-.45-.4125-.375-.9375-.6-1.5-.6h-3c-1.35 0-2.437495 1.125-2.437495 2.5125V19.95c0 1.4251 1.124995 2.5875 2.474995 2.5875h3.6c.45 0 .90001-.15 1.3125-.375 1.05.6 2.25.9 3.45.9.75 0 1.4625-.1125 2.1375-.3375l6.675-2.0249h.0375c1.9875-.7501 2.2875-2.5126 1.9125-3.8251.0375.0375 0 .0375 0 0Zm-19.125 4.0126c-.45 0-.7875-.4126-.7875-.9001v-4.725c0-.45.3375-.825.75-.825h3c.1875 0 .3.075.375.15.1125.1125.22501.1875.33751.2625v6.075H3.1498v-.0374Zm16.65-1.7626-6.675 2.0251c-.525.15-1.05.2624-1.6125.2624-.9375 0-1.8375-.225-2.6625-.675l-.375-.1875v-5.1h3.75c.3 0 .5625.15.6.225.0375.075-.0375.4875-.7875 1.2375-.3.2625-.3375.7126-.15 1.0501.3375.6.7125.4874 1.95.1124.6-.1875 1.3875-.4125 2.175-.6375 1.575-.45 3.15-.9375 3.15-.9375.6375-.1875 1.275.225 1.5.9001.1875.5625.15 1.3499-.8625 1.7249ZM17.7373 12.1125c3.075 0 5.625-2.51245 5.625-5.62495 0-3.1125-2.5125-5.625001-5.625-5.625001s-5.625 2.512501-5.625 5.625001c0 3.1125 2.5125 5.62495 5.625 5.62495Zm0-9.52495c2.175 0 3.9375 1.7625 3.9375 3.9375s-1.7625 3.93745-3.9375 3.93745-3.9375-1.76245-3.9375-3.93745 1.7625-3.9375 3.9375-3.9375Z"/><path d="M17.8875 8.5875c.15.15.375.2625.6.2625.225 0 .45-.075.6-.2625.3375-.3375.3375-.8625 0-1.2l-.75-.75V5.325c0-.45-.375-.825-.825-.825-.45 0-.825.375-.825.825v1.6875c0 .225.075.45.2625.6l.9375.975Z"/></g><defs><clipPath id="clip0_310_4197"><path fill="#fff" d="M0 0h24v24H0z"/></clipPath></defs></svg>