<svg width="24" height="24" viewBox="0 0 24 24" fill="none" xmlns="http://www.w3.org/2000/svg"><path d="M18.2627 3.29995h-2.8125v-.225c0-1.35-1.0875-2.437499-2.4375-2.437499h-2.0625c-1.35 0-2.4375 1.087499-2.4375 2.437499v.225H5.7002c-1.125 0-2.0625.9-2.0625 2.0625v.9375c0 .825.4875 1.5 1.1625 1.8375v9.78745c0 3 2.4375 5.4001 5.4 5.4001h3.4875c3 0 5.4-2.4375 5.4-5.4001V8.13745c.675-.3375 1.1625-1.0125 1.1625-1.8375v-.9375c.075-1.125-.8625-2.0625-1.9875-2.0625Zm-8.025-.225c0-.4125.3375-.75.75-.75h2.0625c.4125 0 .75.3375.75.75v.225h-3.525v-.225h-.0375Zm-4.875 2.2875c0-.1875.15-.375.375-.375h12.525c.1875 0 .375.15.375.375v.9375c0 .1875-.15.375-.375.375H5.7377c-.1875 0-.375-.15-.375-.375v-.9375Zm8.4 16.31245h-3.4875c-2.0625 0-3.7125-1.6874-3.7125-3.7124V8.36245h10.95v9.60005c-.0375 2.025-1.725 3.7124-3.75 3.7124Z" fill="#111928"/><path d="M12.0002 11.7749c-.45 0-.8625.375-.8625.8625v4.7625c0 .45.375.8625.8625.8625.45 0 .8625-.375.8625-.8625v-4.7625c0-.4875-.4125-.8625-.8625-.8625ZM15.0378 12.4874c-.45 0-.8625.375-.8625.8625v3.3375c0 .45.375.8625.8625.8625.4875 0 .8625-.375.8625-.8625v-3.3375c0-.4875-.375-.8625-.8625-.8625ZM8.9626 12.4874c-.45 0-.8625.375-.8625.8625v3.3375c0 .45.375.8625.8625.8625.4875 0 .8625-.375.8625-.8625v-3.3375c-.0375-.4875-.4125-.8625-.8625-.8625Z" fill="#111928"/></svg>