<svg width="24" height="24" viewBox="0 0 24 24" fill="none" xmlns="http://www.w3.org/2000/svg"><path d="M18.3377 3.30001h-2.8875v-.6375c0-1.125-.9-2.024998-2.025-2.024998h-2.8875c-1.125 0-2.025.899998-2.025 2.024998v.6375H5.6252c-1.0875 0-1.9875.9-1.9875 1.9875v1.125c0 .825.4875 1.5 1.2 1.8l.6 12.41249c.075 1.5375 1.35 2.7375 2.8875 2.7375h7.275c1.5375 0 2.8125-1.2 2.8875-2.7375l.6375-12.44999c.7125-.3 1.2-1.0125 1.2-1.8v-1.125c0-1.05-.9-1.95-1.9875-1.95Zm-8.1-.6375c0-.1875.15-.3375.3375-.3375h2.8875c.1875 0 .3375.15.3375.3375v.6375h-3.525v-.6375h-.0375Zm-4.875 2.625c0-.15.1125-.3.3-.3h12.675c.15 0 .3.1125.3.3v1.125c0 .15-.1125.3-.3.3H5.6627c-.15 0-.3-.1125-.3-.3v-1.125ZM15.6377 21.675h-7.275c-.63751 0-1.1625-.4875-1.2-1.1625L6.6002 8.36251h10.8375l-.5625 12.14999c-.075.6375-.6 1.1625-1.2375 1.1625Z" fill="#111928"/><path d="M12.0002 12.15c-.45 0-.8625.375-.8625.8625v4.7625c0 .45.375.8625.8625.8625.45 0 .8625-.375.8625-.8625v-4.7625c0-.4875-.4125-.8625-.8625-.8625ZM15.0004 12.9c-.4875-.0375-.8625.3-.9.7875l-.225 3.3c-.0375.45.3.8625.7875.9h.075c.45 0 .825-.3375.825-.7875l.225-3.3c0-.4875-.3375-.8625-.7875-.9ZM8.96245 12.9c-.45.0375-.825.45-.7875.9l.2625 3.3c.0375.45.4125.7875.825.7875h.075c.45-.0375.82505-.45.78755-.9l-.26255-3.3c0-.4875-.4125-.825-.9-.7875Z" fill="#111928"/></svg>