<svg width="24" height="24" viewBox="0 0 24 24" fill="none" xmlns="http://www.w3.org/2000/svg"><path d="M20.1749 5.28751h-6.4875l1.9875-3.3375c.225-.4125.1125-.9-.3-1.162497-.4125-.225-.9-.1125-1.1625.299997l-2.475 4.2h-.2625l-2.475-2.925c-.3-.3375-.825-.4125-1.2-.1125s-.4125.825-.1125 1.2l1.5375 1.8375h-5.4c-1.275 0-2.3625 1.05-2.3625 2.3625V18.7125c0 1.275 1.05 2.3625 2.3625 2.3625h.4125V22.5c0 .45.375.8625.8625.8625.4875 0 .8625-.375.8625-.8625v-1.4625h12.15V22.5c0 .45.375.8625.8625.8625.4875 0 .8625-.375.8625-.8625v-1.4625h.4125c1.275 0 2.3625-1.05 2.3625-2.3625V7.61251c-.075-1.275-1.125-2.325-2.4375-2.325Zm.675 13.38749c0 .375-.3.675-.675.675h-16.35c-.375 0-.675-.3-.675-.675V7.61251c0-.375.3-.675.675-.675h16.3875c.375 0 .675.3.675.675V18.675h-.0375Z" fill="#111928"/></svg>