<svg width="24" height="24" viewBox="0 0 24 24" fill="none" xmlns="http://www.w3.org/2000/svg"><path d="M21.953 6.45003c.1337-.15583-.0406-.35946-.2384-.28652-.4414.16281-.8448.2702-1.4414.33649.7338-.4086 1.0751-.99261 1.3527-1.70791.0669-.17253-.135-.32909-.3089-.24667-.7063.33489-1.4684.58335-2.2698.73015C18.2551 4.49054 17.126 4 15.877 4c-2.3984 0-4.3433 1.80877-4.3433 4.03917 0 .31664.0388.62507.112.92038-3.44765-.16063-6.52189-1.63546-8.65772-3.89694-.14639-.155-.41202-.13442-.50317.05462-.24316.50436-.37872 1.06386-.37872 1.65293 0 1.40108.76652 2.63727 1.93174 3.36164-.52245-.0157-1.02209-.1175-1.48253-.29026-.22418-.0841-.48116.0637-.45104.28976.23123 1.7359 1.63665 3.168 3.45073 3.5064-.3643.0927-.748.1419-1.14493.1419-.09624 0-.19165-.003-.28619-.0088-.24057-.0149-.43609.2003-.33295.4062.68051 1.3582 2.14992 2.3064 3.85987 2.3359-1.48629 1.0836-3.35893 1.7292-5.39387 1.7292-.25091 0-.35855.3226-.13595.432C3.8402 19.5192 5.79806 20 7.87837 20 15.8673 20 20.2353 13.8453 20.2353 8.50756c0-.17472-.0044-.34945-.0123-.52253.6484-.43563 1.2313-.95364 1.73-1.535Z" fill="#111928"/></svg>