<svg width="24" height="24" viewBox="0 0 24 24" fill="none" xmlns="http://www.w3.org/2000/svg"><g clip-path="url(#clip0_310_8863)" fill="#111928"><path d="m11.1373 4.94998-3.0375-3.0375c-1.6875-1.687504-4.4625-1.687504-6.1875 0-.7875.8625-1.237495 1.95-1.237495 3.1125 0 1.1625.449995 2.25 1.274995 3.075l3 3.03752c.8625.8625 1.9875 1.275 3.07501 1.275 1.125 0 2.24999-.4125 3.07499-1.275.825-.825 1.275-1.91252 1.275-3.07502.0375-1.1625-.4125-2.25-1.2375-3.1125Zm-4.9875 4.9875-3-3.0375c-.525-.525-.7875-1.2-.7875-1.9125 0-.7125.2625-1.3875.7875-1.9125.525-.525 1.2-.7875 1.9125-.7875.675 0 1.38751.2625 1.9125.7875l3.0375 3c.4875.525.7875 1.2.7875 1.9125 0 .45-.1125.9-.3375 1.3125l-.93749-.9375c-.33751-.3375-.8625-.3375-1.2 0-.3375.3375-.3375.8625 0 1.2l.8625.86252c-1.05001.525-2.25001.3375-3.03751-.48752ZM22.0874 15.8625l-3.0375-3.0375c-1.6875-1.6875-4.5-1.6875-6.1875 0-.825.825-1.275 1.9125-1.275 3.075s.45 2.25 1.275 3.075l3 3.0375c.8625.8625 1.9875 1.275 3.075 1.275 1.125 0 2.25-.4125 3.075-1.275.825-.825 1.275-1.9125 1.275-3.075.075-1.125-.375-2.2125-1.2-3.075ZM20.8499 20.85c-1.05 1.05-2.775 1.05-3.7875 0l-3-3.0375c-.525-.525-.7875-1.2-.7875-1.9125 0-.375.075-.75.225-1.0875l.825.8625c.15.15.375.2625.6.2625.225 0 .4125-.075.6-.225.3375-.3375.3375-.8625 0-1.2l-.9-.9c.4125-.225.8625-.3375 1.3125-.3375.675 0 1.3875.2625 1.9125.7875l3.0375 3c.4875.525.7875 1.2.7875 1.9125-.0375.7125-.3 1.3875-.825 1.875ZM14.8874 6.14995c.45 0 .8625-.375.8625-.8625v-2.85c0-.45-.375-.8625-.8625-.8625-.4875 0-.8625.375-.8625.8625v2.8875c0 .45.375.825.8625.825ZM17.8496 9.14998c0 .45.375.86252.8625.86252h2.85c.45 0 .8625-.37502.8625-.86252 0-.4875-.375-.8625-.8625-.8625h-2.85c-.4875 0-.8625.375-.8625.8625ZM15.675 7.725c.15.15.375.2625.6.2625.225 0 .45-.075.6-.2625l2.4375-2.475c.3375-.3375.3375-.8625 0-1.2-.3375-.3375-.8625-.3375-1.2 0L15.675 6.525c-.3375.3375-.3375.8625 0 1.2ZM9.14961 17.85c-.45 0-.8625.375-.8625.8625V21.6c0 .45.375.8625.8625.8625.4875 0 .86249-.375.86249-.8625v-2.8875c-.03749-.4875-.41249-.8625-.86249-.8625ZM5.21221 14.8875c0-.45-.375-.8625-.8625-.8625h-1.9125c-.45 0-.8625.375-.8625.8625 0 .4875.375.8625.8625.8625h1.9125c.4875-.0375.8625-.4125.8625-.8625ZM6.33711 15.8625 3.89961 18.3c-.3375.3375-.3375.8625 0 1.2.15.15.375.2625.6.2625.225 0 .45-.075.6-.2625l2.4375-2.4375c.3375-.3375.3375-.8625 0-1.2-.3375-.3375-.9-.3375-1.2 0Z"/></g><defs><clipPath id="clip0_310_8863"><path fill="#fff" d="M0 0h24v24H0z"/></clipPath></defs></svg>