<svg width="24" height="24" viewBox="0 0 24 24" fill="none" xmlns="http://www.w3.org/2000/svg"><path d="M7.83711 10.95c2.32499 0 4.23749-1.83749 4.23749-4.12499 0-2.2875-1.9125-4.125-4.23749-4.125-2.325 0-4.2375 1.8375-4.2375 4.125S5.51211 10.95 7.83711 10.95Zm0-6.52499c1.3875 0 2.54999 1.0875 2.54999 2.4375s-1.12499 2.4375-2.54999 2.4375c-1.425 0-2.55-1.0875-2.55-2.4375s1.1625-2.4375 2.55-2.4375ZM17.2498 12.75c2.025 0 3.6375-1.575 3.6375-3.5625s-1.65-3.5625-3.6375-3.5625c-1.9875 0-3.6375 1.575-3.6375 3.5625s1.65 3.5625 3.6375 3.5625Zm0-5.4c1.0875 0 1.95.825 1.95 1.875s-.8625 1.875-1.95 1.875-1.95-.825-1.95-1.875.8625-1.875 1.95-1.875Z" fill="#111928"/><path d="M17.4373 13.125h-.3375c-1.125 0-2.2125.3375-3.15.9-1.0125-1.35-2.625-2.25-4.42499-2.25H6.1873c-3.075.0375-5.512495 2.475-5.512495 5.5125v2.7c0 .7125.562495 1.275 1.274995 1.275h20.1375c.7125 0 1.3125-.6 1.3125-1.3125v-.9c-.0375-3.2625-2.7-5.925-5.9625-5.925Zm-15.075 6.45v-2.2875c0-2.1 1.725-3.825 3.825-3.825h3.33751c2.09999 0 3.82499 1.725 3.82499 3.825v2.2875H2.3623Zm19.3125 0h-6.675v-2.2875c0-.6-.1125-1.2-.3-1.7625.675-.4875 1.5-.7125 2.3625-.7125h.3375c2.325 0 4.2375 1.9125 4.2375 4.2375v.525h.0375Z" fill="#111928"/></svg>