<svg width="24" height="24" viewBox="0 0 24 24" fill="none" xmlns="http://www.w3.org/2000/svg"><path d="M12 10.5c-2.8125 0-5.0625-2.21251-5.0625-4.91251S9.1875.674988 12 .674988s5.0625 2.212502 5.0625 4.912502c0 2.7-2.25 4.91251-5.0625 4.91251Zm0-8.13751c-1.875 0-3.375 1.4625-3.375 3.225 0 1.7625 1.5 3.225 3.375 3.225s3.375-1.4625 3.375-3.225c0-1.7625-1.5-3.225-3.375-3.225ZM19.3877 23.3625H4.6127c-.75 0-1.35-.6-1.35-1.35v-3.375c0-3.675 2.99999-6.675 6.675-6.675h4.1625c3.675 0 6.675 3 6.675 6.675v3.375c-.0375.7125-.6375 1.35-1.3875 1.35ZM4.9502 21.675h14.1375v-3.0375c0-2.7375-2.25-4.9875-4.9875-4.9875h-4.2c-2.7375 0-4.9875 2.25-4.9875 4.9875v3.0375h.0375Z" fill="#111928"/></svg>