<svg width="23" height="22" viewBox="0 0 23 22" fill="none" xmlns="http://www.w3.org/2000/svg"><path d="M23 11.8058c0-1.2743-1.0645-2.36117-2.395-2.36117h-.2662V2.36116C20.3388 1.0494 19.2744 0 17.9438 0H2.39504C1.06446 0 0 1.0494 0 2.36116V13.1925c0 1.3118 1.06446 2.3612 2.39504 2.3612h4.29587c.03802.0749.07603.1124.11405.1874-.34215.4122-.57025.9369-.57025 1.4991v2.3986C6.23471 20.9131 7.29917 22 8.62975 22H20.605C21.8975 22 23 20.9506 23 19.6388v-2.3986c0-.5622-.1901-1.0869-.5702-1.4991.3421-.4123.5702-.937.5702-1.4992v-2.4361Zm-1.7107 0v2.3986c0 .3748-.3042.6746-.6843.6746H8.62975c-.38016 0-.6843-.2998-.6843-.6746v-2.3986c0-.3748.30414-.6746.6843-.6746H20.605c.3801.0375.6843.2998.6843.6746Zm-2.6612-9.44464v2.69847h-3.3074l2.0909-3.37309h.5322c.3802 0 .6843.29983.6843.67462Zm-8.3256-.67462L8.21157 5.05963H5.09421l2.09091-3.37309h3.11738Zm1.9768 0h3.1174l-2.0909 3.37309h-3.1174l2.0909-3.37309Zm-9.88426 0h2.77521L3.07934 5.05963h-1.3686V2.36116c0-.37479.30414-.67462.6843-.67462Zm-.6843 11.50596V6.74617H18.6281v2.73594H8.62975c-1.29256 0-2.39504 1.04939-2.39504 2.36119v2.0613H2.39504c-.38016-.0375-.6843-.3373-.6843-.7121Zm19.57856 6.4463c0 .3748-.3042.6747-.6843.6747H8.62975c-.38016 0-.6843-.2999-.6843-.6747v-2.3986c0-.3748.30414-.6746.6843-.6746H20.605c.3801 0 .6843.2998.6843.6746v2.3986Z" fill="#111928"/><path d="M10.3783 12.1056c-.45621 0-.87439.3748-.87439.862v.0375c0 .4497.38016.862.87439.862.4942 0 .8744-.3748.8744-.862v-.0375c-.038-.4872-.4182-.862-.8744-.862ZM19.4644 12.1431h-1.7487c-.4562 0-.8744.3748-.8744.862 0 .4873.3802.862.8744.862h1.7487c.4562 0 .8744-.3747.8744-.862 0-.4872-.3801-.862-.8744-.862ZM10.3783 17.5026c-.45621 0-.87439.3748-.87439.862v.0375c0 .4497.38016.862.87439.862.4942 0 .8744-.3748.8744-.862v-.0375c-.038-.4872-.4182-.862-.8744-.862ZM19.4644 17.54h-1.7487c-.4562 0-.8744.3748-.8744.862 0 .4873.3802.8621.8744.8621h1.7487c.4562 0 .8744-.3748.8744-.8621 0-.4872-.3801-.862-.8744-.862Z" fill="#111928"/></svg>