<svg width="24" height="24" viewBox="0 0 24 24" fill="none" xmlns="http://www.w3.org/2000/svg"><path d="M20.1752 5.66248h-16.35c-1.7625 0-3.187505 1.425-3.187505 3.1875V15.15c0 1.7625 1.425005 3.1875 3.187505 3.1875h4.91249c.2625 0 .525-.075.75-.15l2.06251-.9375c.2625-.1125.6-.1125.8625 0l2.0625.9375c.225.1125.4875.15.75.15h4.9125c1.7625 0 3.1875-1.425 3.1875-3.1875V8.84998c.0375-1.7625-1.425-3.1875-3.15-3.1875Zm1.5 9.48752c0 .825-.675 1.5-1.5 1.5h-4.9875l-2.0625-.975c-.375-.15-.75-.2625-1.125-.2625s-.7875.075-1.125.2625l-2.06251.9375H3.8252c-.825 0-1.5-.675-1.5-1.5V8.84998c0-.825.675-1.5 1.5-1.5h16.35c.825 0 1.5.675 1.5 1.5V15.15Z" fill="#111928"/><path d="M9.1877 11.175h-3.75c-.45 0-.8625.375-.8625.8625 0 .45.375.8625.8625.8625h3.75c.45 0 .8625-.375.8625-.8625 0-.4875-.375-.8625-.8625-.8625ZM18.5251 11.175h-3.75c-.45 0-.8625.375-.8625.8625 0 .45.375.8625.8625.8625h3.75c.45 0 .8625-.375.8625-.8625 0-.4875-.375-.8625-.8625-.8625Z" fill="#111928"/></svg>