<svg width="24" height="24" viewBox="0 0 24 24" fill="none" xmlns="http://www.w3.org/2000/svg"><g clip-path="url(#clip0_310_9197)" fill="#111928"><path d="M20.8125 14.85h-.45v-.3375c0-1.3125-1.05-2.3625-2.3625-2.3625h-3.45c-1.3125 0-2.3625 1.05-2.3625 2.3625v.3375h-.45c-1.3125 0-2.3625 1.05-2.3625 2.3625V21c0 1.3125 1.05 2.3625 2.3625 2.3625H14.55c.225 0 .45-.075.6-.2625l1.125-1.125L17.4 23.1c.15.15.375.2625.6.2625h2.8125c1.3125 0 2.3625-1.05 2.3625-2.3625v-3.7875c0-1.3125-1.05-2.3625-2.3625-2.3625ZM14.55 13.8H18c.375 0 .675.3.675.675v.3375h-4.8v-.3375c0-.3375.3-.675.675-.675Zm6.2625 7.8375h-2.475L16.875 20.175c-.3375-.3375-.8625-.3375-1.2 0l-1.4625 1.4625h-2.475c-.375 0-.675-.3-.675-.675V19.5h1.2c.45 0 .8625-.375.8625-.8625 0-.4875-.375-.8625-.8625-.8625h-1.2v-.6375c0-.375.3-.675.675-.675h9.075c.375 0 .675.3.675.675v.6375h-1.2c-.45 0-.8625.375-.8625.8625 0 .4875.375.8625.8625.8625h1.2V21c0 .3375-.3.6375-.675.6375ZM10.6877 8.32499v-4.725c0-.4875-.2625-.9-.71251-1.0875L6.2627.787488c-.3375-.15-.7125-.15-1.0125 0L1.5377 2.47499c-.45.225-.712505.6375-.712505 1.125v4.725c0 .45.225005.825.600005 1.05l3.71249 2.13751c.1875.1125.41251.15.60001.15.1875 0 .41249-.0375.59999-.15l3.71251-2.13751c.4125-.225.6375-.6375.6375-1.05Zm-4.95-5.925 2.09999.975-2.09999.975-2.1-.975 2.1-.975Zm-3.225 2.2875 2.4 1.0875v3.6375l-2.4-1.3875v-3.3375Zm4.08749 4.7625v-3.6375l2.4-1.0875v3.375l-2.4 1.35ZM13.7629 4.72498h4.2375c.375 0 .675.3.675.675v1.7625l-.675-.5625c-.3375-.3-.9-.2625-1.2.075-.3.3375-.2625.9.075 1.2l2.0625 1.8c.15.15.375.225.5625.225s.4125-.075.5625-.225l2.0625-1.8c.3375-.3.375-.825.075-1.2-.3-.3375-.825-.375-1.2-.075l-.675.5625v-1.7625c0-1.3125-1.05-2.3625-2.3625-2.3625h-4.2c-.45 0-.8625.375-.8625.8625 0 .4875.375.825.8625.825Z"/></g><defs><clipPath id="clip0_310_9197"><path fill="#fff" d="M0 0h24v24H0z"/></clipPath></defs></svg>