<svg width="24" height="24" viewBox="0 0 24 24" fill="none" xmlns="http://www.w3.org/2000/svg"><path d="M20.8875 6.89999c-.45 0-.8625.375-.8625.8625V15.3H3.9375V7.72499c0-.45-.375-.8625-.8625-.8625-.4875 0-.825.4125-.825.8625V18.2625c0 1.05.8625 1.9125 1.9125 1.9125H9.6l-.375 2.175c-.0375.2625.0375.4875.1875.675.15.1875.4125.3.6375.3h3.8625c.2625 0 .4875-.1125.6375-.3.15-.1875.225-.45.1875-.675l-.375-2.175H19.8c1.05 0 1.9125-.8625 1.9125-1.9125V7.72499c.0375-.45-.3375-.825-.825-.825Zm-7.95 14.77501h-1.875l.2625-1.5h1.35l.2625 1.5Zm6.9-3.1875H4.1625c-.1125 0-.225-.1125-.225-.225V16.95H20.025v1.3125c.0375.1125-.075.225-.1875.225Z" fill="#111928"/><path d="M7.7627 11.5125h2.5875c.225 0 .45-.075.6-.2625l1.05-1.05 1.05 1.05c.15.15.375.2625.6.2625h2.5875c1.35 0 2.4375-1.0875 2.4375-2.43749v-3.375c0-1.35-1.0875-2.4375-2.4375-2.4375h-.2625v-.1875c0-1.35-1.0875-2.437498-2.4375-2.437498h-3.075c-1.35 0-2.4375 1.087498-2.4375 2.437498v.1875h-.2625c-1.35 0-2.4375 1.0875-2.4375 2.4375v3.375c0 1.34999 1.0875 2.43749 2.4375 2.43749Zm2.7-9.14999h3.075c.4125 0 .75.3375.75.75v.1875h-4.575v-.225c0-.4125.3375-.7125.75-.7125Zm-2.7 2.5875h8.5125c.4125 0 .75.3375.75.75v.45h-1.125c-.45 0-.8625.375-.8625.8625 0 .4875.375.8625.8625.8625h1.125v1.2375c0 .4125-.3375.75-.75.75h-2.25l-1.425-1.3875c-.3375-.3375-.8625-.3375-1.2 0l-1.425 1.3875h-2.25c-.4125 0-.75-.3375-.75-.75v-1.2375h1.125c.45 0 .8625-.375.8625-.8625 0-.4875-.375-.8625-.8625-.8625h-1.125v-.45c.0375-.4125.375-.75.7875-.75Z" fill="#111928"/></svg>