<svg width="24" height="24" viewBox="0 0 24 24" fill="none" xmlns="http://www.w3.org/2000/svg"><path d="M21.0002 1.38751h-18c-1.275 0-2.362505 1.05-2.362505 2.3625V20.2875c0 1.275 1.050005 2.3625 2.362505 2.3625h18c1.275 0 2.3625-1.05 2.3625-2.3625V3.71251c0-1.275-1.0875-2.325-2.3625-2.325Zm-18 1.6875h18c.375 0 .675.3.675.675v2.325H2.3627v-2.3625c0-.3375.2625-.6375.6375-.6375Zm18 17.84999h-18c-.375 0-.675-.3-.675-.675V7.72501h19.3125V20.25c.0375.375-.2625.675-.6375.675Z" fill="#111928"/><path d="M15.0002 9.45001h-6c-1.08751 0-1.9875.89999-1.9875 1.98749v2.775c0 1.0875.89999 1.9875 1.9875 1.9875h6c1.0875 0 1.9875-.9 1.9875-1.9875v-2.775c-.0375-1.125-.9-1.98749-1.9875-1.98749Zm.2625 4.72499c0 .15-.1125.3-.3.3H9.0002c-.15 0-.3-.1125-.3-.3V11.4c0-.15.1125-.3.3-.3h6c.15 0 .3.1125.3.3v2.775h-.0375ZM14.8875 17.7375h-5.775c-.45 0-.8625.375-.8625.8625 0 .4875.375.8625.8625.8625H14.85c.45 0 .8625-.375.8625-.8625 0-.4875-.375-.8625-.825-.8625Z" fill="#111928"/></svg>