<svg width="24" height="24" viewBox="0 0 24 24" fill="none" xmlns="http://www.w3.org/2000/svg"><path d="M17.625 12c0-1.5374-.6-2.88745-1.6125-3.89995v-5.2125C16.0125 1.65005 15 .675049 13.8.675049h-3.6c-1.2375 0-2.2125 1.012501-2.2125 2.212501v5.2125C7.0125 9.11255 6.375 10.4626 6.375 12c0 1.5375.6 2.8876 1.6125 3.9001v5.2125C7.9875 22.35 9 23.3251 10.2 23.3251h3.6c1.2375 0 2.2125-1.0125 2.2125-2.2125v-5.2125c.975-1.0125 1.6125-2.4 1.6125-3.9001Zm-9.5625 0c0-2.17495 1.7625-3.93745 3.9375-3.93745S15.9375 9.82505 15.9375 12c0 2.1751-1.7625 3.9376-3.9375 3.9376S8.0625 14.1751 8.0625 12ZM10.2 2.32505h3.6c.3 0 .525.225.525.525v4.0125c-.7125-.3375-1.5-.525-2.325-.525-.825 0-1.6125.1875-2.325.525v-3.975c0-.3.225-.5625.525-.5625Zm3.6 19.35005h-3.6c-.3 0-.525-.225-.525-.525V17.1c.7125.3375 1.5.525 2.325.525.825 0 1.6125-.1875 2.325-.525v4.0126c0 .2999-.225.5625-.525.5625Z" fill="#111928"/><path d="M12.7502 14.3251c.225 0 .45-.075.6-.2625.3375-.3375.3375-.8625 0-1.2l-.75-.75v-1.3125c0-.45-.375-.825-.825-.825-.45 0-.825.375-.825.825v1.6875c0 .225.075.45.2625.6l.975.975c.1125.1875.3375.2625.5625.2625Z" fill="#111928"/></svg>