<svg width="24" height="24" viewBox="0 0 24 24" fill="none" xmlns="http://www.w3.org/2000/svg"><g clip-path="url(#clip0_310_8808)" fill="#111928"><path d="m22.875 19.1625-5.3625-5.4c-.3-.3-.675-.45-1.125-.45-.4125 0-.825.15-1.125.45l-.15.15-1.05-1.05c2.3625-2.96252 2.175-7.31252-.5625-10.05002-1.425-1.425-3.3-2.212504-5.325-2.212504-2.025 0-3.9.787504-5.325 2.212504-2.9249999 2.925-2.9249999 7.72502 0 10.65002 1.425 1.425 3.3 2.2125 5.325 2.2125 1.725 0 3.375-.6 4.6875-1.65l1.05 1.05-.15.15c-.6.6-.6 1.6125 0 2.2125l5.4 5.4c.3.3.675.45 1.125.45.4125 0 .825-.15 1.125-.45l1.5-1.5c.6-.5625.6-1.575-.0375-2.175Zm-14.7-5.1375c-1.575 0-3.0375-.6-4.125-1.725-2.2875-2.2875-2.2875-6.00002 0-8.28752 1.0875-1.0875 2.5875-1.725 4.125-1.725 1.575 0 3.0375.6 4.125 1.725 2.2875 2.2875 2.2875 6.00002 0 8.28752-1.0875 1.125-2.55 1.725-4.125 1.725Zm12.075 7.6125-5.2125-5.25 1.35-1.35L21.6 20.25l-1.35 1.3875Z"/><path d="M10.0874 7.35h-1.05V6.3c0-.45-.375-.8625-.8625-.8625-.4875 0-.8625.375-.8625.8625v1.05h-1.05c-.45 0-.8625.375-.8625.8625 0 .4875.375.8625.8625.8625h1.05v1.05c0 .45.375.8625.8625.8625.4875 0 .8625-.375.8625-.8625v-1.05h1.05c.45 0 .8625-.375.8625-.8625 0-.4875-.375-.8625-.8625-.8625Z"/></g><defs><clipPath id="clip0_310_8808"><path fill="#fff" d="M0 0h24v24H0z"/></clipPath></defs></svg>